solid OpenSCAD_Model
  facet normal -1 0 0
    outer loop
      vertex -65 -28 5
      vertex -65 -28 21
      vertex -65 55 5
    endloop
  endfacet
  facet normal -1 0 0
    outer loop
      vertex -65 55 5
      vertex -65 -28 21
      vertex -65 55 21
    endloop
  endfacet
  facet normal 0 -1 0
    outer loop
      vertex -65 -28 21
      vertex -65 -28 5
      vertex -19 -28 5
    endloop
  endfacet
  facet normal 0 -1 0
    outer loop
      vertex -4 -28 13
      vertex -65 -28 21
      vertex -19 -28 13
    endloop
  endfacet
  facet normal 0 -1 0
    outer loop
      vertex -19 -28 13
      vertex -65 -28 21
      vertex -19 -28 5
    endloop
  endfacet
  facet normal 0 -1 0
    outer loop
      vertex 27 -28 21
      vertex -65 -28 21
      vertex -4 -28 13
    endloop
  endfacet
  facet normal 0 -1 0
    outer loop
      vertex 47 -28 5
      vertex -4 -28 13
      vertex -4 -28 5
    endloop
  endfacet
  facet normal 0 -1 0
    outer loop
      vertex 27 -28 21
      vertex -4 -28 13
      vertex 47 -28 5
    endloop
  endfacet
  facet normal 0 0 -1
    outer loop
      vertex -40.4184 10.2599 5
      vertex -19 -28 5
      vertex -41.994 11.3475 5
    endloop
  endfacet
  facet normal 0 0 -1
    outer loop
      vertex -36.7277 17.2919 5
      vertex -65 55 5
      vertex -19 55 5
    endloop
  endfacet
  facet normal 0 0 -1
    outer loop
      vertex -10.5189 64.2696 5
      vertex -19 68.75 5
      vertex -4 68.75 5
    endloop
  endfacet
  facet normal 0 0 -1
    outer loop
      vertex -8.93137 59.3838 5
      vertex -4 68.75 5
      vertex -19 -28 5
    endloop
  endfacet
  facet normal 0 0 -1
    outer loop
      vertex -19 -28 5
      vertex -4 68.75 5
      vertex -4 55 5
    endloop
  endfacet
  facet normal 0 0 -1
    outer loop
      vertex -19 -28 5
      vertex -4 55 5
      vertex 47 55 5
    endloop
  endfacet
  facet normal 0 0 -1
    outer loop
      vertex -4 -28 5
      vertex 47 55 5
      vertex 47 -28 5
    endloop
  endfacet
  facet normal 0 0 -1
    outer loop
      vertex -19 -28 5
      vertex 47 55 5
      vertex -4 -28 5
    endloop
  endfacet
  facet normal 0 0 -1
    outer loop
      vertex -12.4811 -31.4804 5
      vertex -19 -28 5
      vertex -10.5189 -31.4804 5
    endloop
  endfacet
  facet normal 0 0 -1
    outer loop
      vertex -65 -28 5
      vertex -65 55 5
      vertex -42.8838 14.9573 5
    endloop
  endfacet
  facet normal 0 0 -1
    outer loop
      vertex -14.0686 59.3838 5
      vertex -19 55 5
      vertex -14.675 61.25 5
    endloop
  endfacet
  facet normal 0 0 -1
    outer loop
      vertex -65 -28 5
      vertex -42.8838 14.9573 5
      vertex -42.8838 13.0427 5
    endloop
  endfacet
  facet normal 0 0 -1
    outer loop
      vertex -65 -28 5
      vertex -42.8838 13.0427 5
      vertex -41.994 11.3475 5
    endloop
  endfacet
  facet normal 0 0 -1
    outer loop
      vertex -65 -28 5
      vertex -41.994 11.3475 5
      vertex -19 -28 5
    endloop
  endfacet
  facet normal 0 0 -1
    outer loop
      vertex -38.5179 10.0292 5
      vertex -19 -28 5
      vertex -40.4184 10.2599 5
    endloop
  endfacet
  facet normal 0 0 -1
    outer loop
      vertex -19 -28 5
      vertex -38.5179 10.0292 5
      vertex -36.7277 10.7081 5
    endloop
  endfacet
  facet normal 0 0 -1
    outer loop
      vertex -19 -28 5
      vertex -36.7277 10.7081 5
      vertex -35.4582 12.1411 5
    endloop
  endfacet
  facet normal 0 0 -1
    outer loop
      vertex -19 -28 5
      vertex -35.4582 12.1411 5
      vertex -19 55 5
    endloop
  endfacet
  facet normal 0 0 -1
    outer loop
      vertex -35.4582 12.1411 5
      vertex -35 14 5
      vertex -19 55 5
    endloop
  endfacet
  facet normal 0 0 -1
    outer loop
      vertex -36.7277 17.2919 5
      vertex -19 55 5
      vertex -35.4582 15.8589 5
    endloop
  endfacet
  facet normal 0 0 -1
    outer loop
      vertex -38.5179 17.9708 5
      vertex -65 55 5
      vertex -36.7277 17.2919 5
    endloop
  endfacet
  facet normal 0 0 -1
    outer loop
      vertex -10.5189 -37.5196 5
      vertex -4 -42 5
      vertex -12.4811 -37.5196 5
    endloop
  endfacet
  facet normal 0 0 -1
    outer loop
      vertex -40.4184 17.7401 5
      vertex -65 55 5
      vertex -38.5179 17.9708 5
    endloop
  endfacet
  facet normal 0 0 -1
    outer loop
      vertex -41.994 16.6525 5
      vertex -65 55 5
      vertex -40.4184 17.7401 5
    endloop
  endfacet
  facet normal 0 0 -1
    outer loop
      vertex -42.8838 14.9573 5
      vertex -65 55 5
      vertex -41.994 16.6525 5
    endloop
  endfacet
  facet normal 0 0 -1
    outer loop
      vertex -8.93137 -36.3662 5
      vertex -4 -42 5
      vertex -10.5189 -37.5196 5
    endloop
  endfacet
  facet normal 0 0 -1
    outer loop
      vertex -35.4582 15.8589 5
      vertex -19 55 5
      vertex -35 14 5
    endloop
  endfacet
  facet normal 0 0 -1
    outer loop
      vertex -4 -28 5
      vertex -4 -42 5
      vertex -8.93137 -36.3662 5
    endloop
  endfacet
  facet normal 0 0 -1
    outer loop
      vertex -4 -28 5
      vertex -8.93137 -36.3662 5
      vertex -8.325 -34.5 5
    endloop
  endfacet
  facet normal 0 0 -1
    outer loop
      vertex -4 -28 5
      vertex -8.325 -34.5 5
      vertex -8.93137 -32.6338 5
    endloop
  endfacet
  facet normal 0 0 -1
    outer loop
      vertex -4 -28 5
      vertex -8.93137 -32.6338 5
      vertex -10.5189 -31.4804 5
    endloop
  endfacet
  facet normal 0 0 -1
    outer loop
      vertex -4 -28 5
      vertex -10.5189 -31.4804 5
      vertex -19 -28 5
    endloop
  endfacet
  facet normal 0 0 -1
    outer loop
      vertex -14.0686 -32.6338 5
      vertex -19 -28 5
      vertex -12.4811 -31.4804 5
    endloop
  endfacet
  facet normal 0 0 -1
    outer loop
      vertex -19 -28 5
      vertex -14.0686 -32.6338 5
      vertex -14.675 -34.5 5
    endloop
  endfacet
  facet normal 0 0 -1
    outer loop
      vertex -19 55 5
      vertex -19 68.75 5
      vertex -14.675 61.25 5
    endloop
  endfacet
  facet normal 0 0 -1
    outer loop
      vertex -8.93137 63.1162 5
      vertex -4 68.75 5
      vertex -8.325 61.25 5
    endloop
  endfacet
  facet normal 0 0 -1
    outer loop
      vertex -19 55 5
      vertex -14.0686 59.3838 5
      vertex -19 -28 5
    endloop
  endfacet
  facet normal 0 0 -1
    outer loop
      vertex -10.5189 64.2696 5
      vertex -4 68.75 5
      vertex -8.93137 63.1162 5
    endloop
  endfacet
  facet normal 0 0 -1
    outer loop
      vertex -14.0686 59.3838 5
      vertex -12.4811 58.2304 5
      vertex -19 -28 5
    endloop
  endfacet
  facet normal 0 0 -1
    outer loop
      vertex -12.4811 58.2304 5
      vertex -10.5189 58.2304 5
      vertex -19 -28 5
    endloop
  endfacet
  facet normal 0 0 -1
    outer loop
      vertex -8.325 61.25 5
      vertex -4 68.75 5
      vertex -8.93137 59.3838 5
    endloop
  endfacet
  facet normal 0 0 -1
    outer loop
      vertex -10.5189 58.2304 5
      vertex -8.93137 59.3838 5
      vertex -19 -28 5
    endloop
  endfacet
  facet normal 0 0 -1
    outer loop
      vertex -12.4811 64.2696 5
      vertex -19 68.75 5
      vertex -10.5189 64.2696 5
    endloop
  endfacet
  facet normal 0 0 -1
    outer loop
      vertex -14.0686 63.1162 5
      vertex -19 68.75 5
      vertex -12.4811 64.2696 5
    endloop
  endfacet
  facet normal 0 0 -1
    outer loop
      vertex -14.675 61.25 5
      vertex -19 68.75 5
      vertex -14.0686 63.1162 5
    endloop
  endfacet
  facet normal 0 0 -1
    outer loop
      vertex -19 -28 5
      vertex -14.675 -34.5 5
      vertex -14.0686 -36.3662 5
    endloop
  endfacet
  facet normal 0 0 -1
    outer loop
      vertex -12.4811 -37.5196 5
      vertex -4 -42 5
      vertex -19 -42 5
    endloop
  endfacet
  facet normal 0 0 -1
    outer loop
      vertex -14.0686 -36.3662 5
      vertex -12.4811 -37.5196 5
      vertex -19 -42 5
    endloop
  endfacet
  facet normal 0 0 -1
    outer loop
      vertex -19 -28 5
      vertex -14.0686 -36.3662 5
      vertex -19 -42 5
    endloop
  endfacet
  facet normal 0 1 0
    outer loop
      vertex -65 55 5
      vertex -65 55 21
      vertex -19 55 5
    endloop
  endfacet
  facet normal 0 1 0
    outer loop
      vertex -4 55 13
      vertex -65 55 21
      vertex 27 55 21
    endloop
  endfacet
  facet normal 0 1 0
    outer loop
      vertex -4 55 5
      vertex 27 55 21
      vertex 47 55 5
    endloop
  endfacet
  facet normal 0 1 0
    outer loop
      vertex -19 55 13
      vertex -65 55 21
      vertex -4 55 13
    endloop
  endfacet
  facet normal 0 1 0
    outer loop
      vertex -19 55 5
      vertex -65 55 21
      vertex -19 55 13
    endloop
  endfacet
  facet normal 0 1 0
    outer loop
      vertex -4 55 13
      vertex 27 55 21
      vertex -4 55 5
    endloop
  endfacet
  facet normal 0 0 1
    outer loop
      vertex -62 -25 21
      vertex -65 -28 21
      vertex 27 -28 21
    endloop
  endfacet
  facet normal 0 0 1
    outer loop
      vertex -65 55 21
      vertex -65 -28 21
      vertex -62 -25 21
    endloop
  endfacet
  facet normal 0 0 1
    outer loop
      vertex -62 52 21
      vertex 24 52 21
      vertex -65 55 21
    endloop
  endfacet
  facet normal 0 0 1
    outer loop
      vertex -65 55 21
      vertex -62 -25 21
      vertex -62 52 21
    endloop
  endfacet
  facet normal 0 0 1
    outer loop
      vertex 27 55 21
      vertex 24 52 21
      vertex 27 -28 21
    endloop
  endfacet
  facet normal 0 0 1
    outer loop
      vertex 27 55 21
      vertex -65 55 21
      vertex 24 52 21
    endloop
  endfacet
  facet normal 0 0 1
    outer loop
      vertex 24 52 21
      vertex 24 -25 21
      vertex 27 -28 21
    endloop
  endfacet
  facet normal 0 0 1
    outer loop
      vertex 24 -25 21
      vertex -62 -25 21
      vertex 27 -28 21
    endloop
  endfacet
  facet normal 0.624695 0 0.780869
    outer loop
      vertex 27 55 21
      vertex 27 -28 21
      vertex 47 -28 5
    endloop
  endfacet
  facet normal 0.624695 0 0.780869
    outer loop
      vertex 47 55 5
      vertex 27 55 21
      vertex 47 -28 5
    endloop
  endfacet
  facet normal 1 0 0
    outer loop
      vertex -4 -42 13
      vertex -4 -42 5
      vertex -4 -28 5
    endloop
  endfacet
  facet normal 1 0 0
    outer loop
      vertex -4 -28 13
      vertex -4 -42 13
      vertex -4 -28 5
    endloop
  endfacet
  facet normal 0 0 1
    outer loop
      vertex -12.4811 -37.5196 13
      vertex -19 -42 13
      vertex -4 -42 13
    endloop
  endfacet
  facet normal 0 0 1
    outer loop
      vertex -19 -28 13
      vertex -19 -42 13
      vertex -14.0686 -36.3662 13
    endloop
  endfacet
  facet normal 0 0 1
    outer loop
      vertex -10.5189 -37.5196 13
      vertex -12.4811 -37.5196 13
      vertex -4 -42 13
    endloop
  endfacet
  facet normal 0 0 1
    outer loop
      vertex -19 -28 13
      vertex -14.0686 -36.3662 13
      vertex -14.675 -34.5 13
    endloop
  endfacet
  facet normal 0 0 1
    outer loop
      vertex -8.325 -34.5 13
      vertex -8.93137 -36.3662 13
      vertex -4 -42 13
    endloop
  endfacet
  facet normal 0 0 1
    outer loop
      vertex -19 -28 13
      vertex -14.675 -34.5 13
      vertex -14.0686 -32.6338 13
    endloop
  endfacet
  facet normal 0 0 1
    outer loop
      vertex -4 -28 13
      vertex -19 -28 13
      vertex -12.4811 -31.4804 13
    endloop
  endfacet
  facet normal 0 0 1
    outer loop
      vertex -8.93137 -36.3662 13
      vertex -10.5189 -37.5196 13
      vertex -4 -42 13
    endloop
  endfacet
  facet normal 0 0 1
    outer loop
      vertex -4 -28 13
      vertex -12.4811 -31.4804 13
      vertex -10.5189 -31.4804 13
    endloop
  endfacet
  facet normal 0 0 1
    outer loop
      vertex -4 -28 13
      vertex -8.93137 -32.6338 13
      vertex -4 -42 13
    endloop
  endfacet
  facet normal 0 0 1
    outer loop
      vertex -4 -28 13
      vertex -10.5189 -31.4804 13
      vertex -8.93137 -32.6338 13
    endloop
  endfacet
  facet normal 0 0 1
    outer loop
      vertex -8.93137 -32.6338 13
      vertex -8.325 -34.5 13
      vertex -4 -42 13
    endloop
  endfacet
  facet normal 0 0 1
    outer loop
      vertex -14.0686 -36.3662 13
      vertex -19 -42 13
      vertex -12.4811 -37.5196 13
    endloop
  endfacet
  facet normal 0 0 1
    outer loop
      vertex -14.0686 -32.6338 13
      vertex -12.4811 -31.4804 13
      vertex -19 -28 13
    endloop
  endfacet
  facet normal -1 0 0
    outer loop
      vertex -19 -42 5
      vertex -19 -42 13
      vertex -19 -28 5
    endloop
  endfacet
  facet normal -1 0 0
    outer loop
      vertex -19 -28 5
      vertex -19 -42 13
      vertex -19 -28 13
    endloop
  endfacet
  facet normal 0 -1 0
    outer loop
      vertex -19 -42 13
      vertex -19 -42 5
      vertex -4 -42 5
    endloop
  endfacet
  facet normal 0 -1 0
    outer loop
      vertex -4 -42 13
      vertex -19 -42 13
      vertex -4 -42 5
    endloop
  endfacet
  facet normal 1 0 0
    outer loop
      vertex -4 55 13
      vertex -4 55 5
      vertex -4 68.75 5
    endloop
  endfacet
  facet normal 1 0 0
    outer loop
      vertex -4 68.75 13
      vertex -4 55 13
      vertex -4 68.75 5
    endloop
  endfacet
  facet normal 0 1 0
    outer loop
      vertex -19 68.75 5
      vertex -19 68.75 13
      vertex -4 68.75 5
    endloop
  endfacet
  facet normal 0 1 0
    outer loop
      vertex -4 68.75 5
      vertex -19 68.75 13
      vertex -4 68.75 13
    endloop
  endfacet
  facet normal -1 0 0
    outer loop
      vertex -19 55 5
      vertex -19 55 13
      vertex -19 68.75 5
    endloop
  endfacet
  facet normal -1 0 0
    outer loop
      vertex -19 68.75 5
      vertex -19 55 13
      vertex -19 68.75 13
    endloop
  endfacet
  facet normal 0.885456 -0.464723 0
    outer loop
      vertex -41.994 16.6525 5
      vertex -41.994 16.6525 8.25
      vertex -42.8838 14.9573 8.25
    endloop
  endfacet
  facet normal 0.885456 -0.464723 0
    outer loop
      vertex -42.8838 14.9573 5
      vertex -41.994 16.6525 5
      vertex -42.8838 14.9573 8.25
    endloop
  endfacet
  facet normal 1 0 0
    outer loop
      vertex -42.8838 14.9573 5
      vertex -42.8838 14.9573 8.25
      vertex -42.8838 13.0427 8.25
    endloop
  endfacet
  facet normal 1 0 0
    outer loop
      vertex -42.8838 13.0427 5
      vertex -42.8838 14.9573 5
      vertex -42.8838 13.0427 8.25
    endloop
  endfacet
  facet normal 0.568065 -0.822984 0
    outer loop
      vertex -40.4184 17.7401 5
      vertex -40.4184 17.7401 8.25
      vertex -41.994 16.6525 8.25
    endloop
  endfacet
  facet normal 0.568065 -0.822984 0
    outer loop
      vertex -41.994 16.6525 5
      vertex -40.4184 17.7401 5
      vertex -41.994 16.6525 8.25
    endloop
  endfacet
  facet normal 0.120536 -0.992709 0
    outer loop
      vertex -38.5179 17.9708 5
      vertex -38.5179 17.9708 8.25
      vertex -40.4184 17.7401 8.25
    endloop
  endfacet
  facet normal 0.120536 -0.992709 0
    outer loop
      vertex -40.4184 17.7401 5
      vertex -38.5179 17.9708 5
      vertex -40.4184 17.7401 8.25
    endloop
  endfacet
  facet normal -0.354605 -0.935016 0
    outer loop
      vertex -36.7277 17.2919 5
      vertex -36.7277 17.2919 8.25
      vertex -38.5179 17.9708 8.25
    endloop
  endfacet
  facet normal -0.354605 -0.935016 0
    outer loop
      vertex -38.5179 17.9708 5
      vertex -36.7277 17.2919 5
      vertex -38.5179 17.9708 8.25
    endloop
  endfacet
  facet normal -0.748511 -0.663123 0
    outer loop
      vertex -35.4582 15.8589 8.25
      vertex -36.7277 17.2919 8.25
      vertex -35.4582 15.8589 5
    endloop
  endfacet
  facet normal -0.748511 -0.663123 0
    outer loop
      vertex -35.4582 15.8589 5
      vertex -36.7277 17.2919 8.25
      vertex -36.7277 17.2919 5
    endloop
  endfacet
  facet normal -0.970942 -0.239316 0
    outer loop
      vertex -35 14 8.25
      vertex -35.4582 15.8589 8.25
      vertex -35 14 5
    endloop
  endfacet
  facet normal -0.970942 -0.239316 0
    outer loop
      vertex -35 14 5
      vertex -35.4582 15.8589 8.25
      vertex -35.4582 15.8589 5
    endloop
  endfacet
  facet normal -0.970942 0.239316 0
    outer loop
      vertex -35 14 8.25
      vertex -35 14 5
      vertex -35.4582 12.1411 8.25
    endloop
  endfacet
  facet normal -0.970942 0.239316 0
    outer loop
      vertex -35.4582 12.1411 8.25
      vertex -35 14 5
      vertex -35.4582 12.1411 5
    endloop
  endfacet
  facet normal -0.748511 0.663123 0
    outer loop
      vertex -35.4582 12.1411 8.25
      vertex -35.4582 12.1411 5
      vertex -36.7277 10.7081 8.25
    endloop
  endfacet
  facet normal -0.748511 0.663123 0
    outer loop
      vertex -36.7277 10.7081 8.25
      vertex -35.4582 12.1411 5
      vertex -36.7277 10.7081 5
    endloop
  endfacet
  facet normal -0.354605 0.935016 0
    outer loop
      vertex -36.7277 10.7081 8.25
      vertex -36.7277 10.7081 5
      vertex -38.5179 10.0292 8.25
    endloop
  endfacet
  facet normal -0.354605 0.935016 0
    outer loop
      vertex -38.5179 10.0292 8.25
      vertex -36.7277 10.7081 5
      vertex -38.5179 10.0292 5
    endloop
  endfacet
  facet normal 0.120536 0.992709 0
    outer loop
      vertex -38.5179 10.0292 8.25
      vertex -38.5179 10.0292 5
      vertex -40.4184 10.2599 8.25
    endloop
  endfacet
  facet normal 0.120536 0.992709 0
    outer loop
      vertex -40.4184 10.2599 8.25
      vertex -38.5179 10.0292 5
      vertex -40.4184 10.2599 5
    endloop
  endfacet
  facet normal 0.568065 0.822984 0
    outer loop
      vertex -40.4184 10.2599 8.25
      vertex -40.4184 10.2599 5
      vertex -41.994 11.3475 8.25
    endloop
  endfacet
  facet normal 0.568065 0.822984 0
    outer loop
      vertex -41.994 11.3475 8.25
      vertex -40.4184 10.2599 5
      vertex -41.994 11.3475 5
    endloop
  endfacet
  facet normal 0.885456 0.464723 0
    outer loop
      vertex -42.8838 13.0427 8.25
      vertex -41.994 11.3475 8.25
      vertex -41.994 11.3475 5
    endloop
  endfacet
  facet normal 0.885456 0.464723 0
    outer loop
      vertex -42.8838 13.0427 5
      vertex -42.8838 13.0427 8.25
      vertex -41.994 11.3475 5
    endloop
  endfacet
  facet normal 0.951057 0.309017 0
    outer loop
      vertex -14.675 -34.5 13
      vertex -14.0686 -36.3662 13
      vertex -14.0686 -36.3662 5
    endloop
  endfacet
  facet normal 0.951057 0.309017 0
    outer loop
      vertex -14.675 -34.5 5
      vertex -14.675 -34.5 13
      vertex -14.0686 -36.3662 5
    endloop
  endfacet
  facet normal 0.951057 -0.309017 0
    outer loop
      vertex -14.0686 -32.6338 5
      vertex -14.0686 -32.6338 13
      vertex -14.675 -34.5 13
    endloop
  endfacet
  facet normal 0.951057 -0.309017 0
    outer loop
      vertex -14.675 -34.5 5
      vertex -14.0686 -32.6338 5
      vertex -14.675 -34.5 13
    endloop
  endfacet
  facet normal 0.587785 -0.809017 0
    outer loop
      vertex -12.4811 -31.4804 5
      vertex -12.4811 -31.4804 13
      vertex -14.0686 -32.6338 13
    endloop
  endfacet
  facet normal 0.587785 -0.809017 0
    outer loop
      vertex -14.0686 -32.6338 5
      vertex -12.4811 -31.4804 5
      vertex -14.0686 -32.6338 13
    endloop
  endfacet
  facet normal 0 -1 0
    outer loop
      vertex -10.5189 -31.4804 5
      vertex -10.5189 -31.4804 13
      vertex -12.4811 -31.4804 13
    endloop
  endfacet
  facet normal 0 -1 0
    outer loop
      vertex -12.4811 -31.4804 5
      vertex -10.5189 -31.4804 5
      vertex -12.4811 -31.4804 13
    endloop
  endfacet
  facet normal -0.587785 -0.809017 0
    outer loop
      vertex -8.93137 -32.6338 5
      vertex -8.93137 -32.6338 13
      vertex -10.5189 -31.4804 13
    endloop
  endfacet
  facet normal -0.587785 -0.809017 0
    outer loop
      vertex -10.5189 -31.4804 5
      vertex -8.93137 -32.6338 5
      vertex -10.5189 -31.4804 13
    endloop
  endfacet
  facet normal -0.951057 -0.309017 0
    outer loop
      vertex -8.325 -34.5 13
      vertex -8.93137 -32.6338 13
      vertex -8.325 -34.5 5
    endloop
  endfacet
  facet normal -0.951057 -0.309017 0
    outer loop
      vertex -8.325 -34.5 5
      vertex -8.93137 -32.6338 13
      vertex -8.93137 -32.6338 5
    endloop
  endfacet
  facet normal -0.951057 0.309017 0
    outer loop
      vertex -8.325 -34.5 13
      vertex -8.325 -34.5 5
      vertex -8.93137 -36.3662 13
    endloop
  endfacet
  facet normal -0.951057 0.309017 0
    outer loop
      vertex -8.93137 -36.3662 13
      vertex -8.325 -34.5 5
      vertex -8.93137 -36.3662 5
    endloop
  endfacet
  facet normal -0.587785 0.809017 0
    outer loop
      vertex -8.93137 -36.3662 13
      vertex -8.93137 -36.3662 5
      vertex -10.5189 -37.5196 13
    endloop
  endfacet
  facet normal -0.587785 0.809017 0
    outer loop
      vertex -10.5189 -37.5196 13
      vertex -8.93137 -36.3662 5
      vertex -10.5189 -37.5196 5
    endloop
  endfacet
  facet normal 0 1 0
    outer loop
      vertex -10.5189 -37.5196 13
      vertex -10.5189 -37.5196 5
      vertex -12.4811 -37.5196 13
    endloop
  endfacet
  facet normal 0 1 0
    outer loop
      vertex -12.4811 -37.5196 13
      vertex -10.5189 -37.5196 5
      vertex -12.4811 -37.5196 5
    endloop
  endfacet
  facet normal 0.587785 0.809017 0
    outer loop
      vertex -12.4811 -37.5196 13
      vertex -12.4811 -37.5196 5
      vertex -14.0686 -36.3662 13
    endloop
  endfacet
  facet normal 0.587785 0.809017 0
    outer loop
      vertex -14.0686 -36.3662 13
      vertex -12.4811 -37.5196 5
      vertex -14.0686 -36.3662 5
    endloop
  endfacet
  facet normal 0.951057 0.309017 0
    outer loop
      vertex -14.675 61.25 13
      vertex -14.0686 59.3838 13
      vertex -14.0686 59.3838 5
    endloop
  endfacet
  facet normal 0.951057 0.309017 0
    outer loop
      vertex -14.675 61.25 5
      vertex -14.675 61.25 13
      vertex -14.0686 59.3838 5
    endloop
  endfacet
  facet normal 0.951057 -0.309017 0
    outer loop
      vertex -14.0686 63.1162 5
      vertex -14.0686 63.1162 13
      vertex -14.675 61.25 13
    endloop
  endfacet
  facet normal 0.951057 -0.309017 0
    outer loop
      vertex -14.675 61.25 5
      vertex -14.0686 63.1162 5
      vertex -14.675 61.25 13
    endloop
  endfacet
  facet normal 0.587785 -0.809017 0
    outer loop
      vertex -12.4811 64.2696 5
      vertex -12.4811 64.2696 13
      vertex -14.0686 63.1162 13
    endloop
  endfacet
  facet normal 0.587785 -0.809017 0
    outer loop
      vertex -14.0686 63.1162 5
      vertex -12.4811 64.2696 5
      vertex -14.0686 63.1162 13
    endloop
  endfacet
  facet normal 0 -1 0
    outer loop
      vertex -10.5189 64.2696 5
      vertex -10.5189 64.2696 13
      vertex -12.4811 64.2696 13
    endloop
  endfacet
  facet normal 0 -1 0
    outer loop
      vertex -12.4811 64.2696 5
      vertex -10.5189 64.2696 5
      vertex -12.4811 64.2696 13
    endloop
  endfacet
  facet normal -0.587785 -0.809017 0
    outer loop
      vertex -8.93137 63.1162 5
      vertex -8.93137 63.1162 13
      vertex -10.5189 64.2696 13
    endloop
  endfacet
  facet normal -0.587785 -0.809017 0
    outer loop
      vertex -10.5189 64.2696 5
      vertex -8.93137 63.1162 5
      vertex -10.5189 64.2696 13
    endloop
  endfacet
  facet normal -0.951057 -0.309017 0
    outer loop
      vertex -8.325 61.25 13
      vertex -8.93137 63.1162 13
      vertex -8.325 61.25 5
    endloop
  endfacet
  facet normal -0.951057 -0.309017 0
    outer loop
      vertex -8.325 61.25 5
      vertex -8.93137 63.1162 13
      vertex -8.93137 63.1162 5
    endloop
  endfacet
  facet normal -0.951057 0.309017 0
    outer loop
      vertex -8.325 61.25 13
      vertex -8.325 61.25 5
      vertex -8.93137 59.3838 13
    endloop
  endfacet
  facet normal -0.951057 0.309017 0
    outer loop
      vertex -8.93137 59.3838 13
      vertex -8.325 61.25 5
      vertex -8.93137 59.3838 5
    endloop
  endfacet
  facet normal -0.587785 0.809017 0
    outer loop
      vertex -8.93137 59.3838 13
      vertex -8.93137 59.3838 5
      vertex -10.5189 58.2304 13
    endloop
  endfacet
  facet normal -0.587785 0.809017 0
    outer loop
      vertex -10.5189 58.2304 13
      vertex -8.93137 59.3838 5
      vertex -10.5189 58.2304 5
    endloop
  endfacet
  facet normal 0 1 0
    outer loop
      vertex -10.5189 58.2304 13
      vertex -10.5189 58.2304 5
      vertex -12.4811 58.2304 13
    endloop
  endfacet
  facet normal 0 1 0
    outer loop
      vertex -12.4811 58.2304 13
      vertex -10.5189 58.2304 5
      vertex -12.4811 58.2304 5
    endloop
  endfacet
  facet normal 0.587785 0.809017 0
    outer loop
      vertex -12.4811 58.2304 13
      vertex -12.4811 58.2304 5
      vertex -14.0686 59.3838 13
    endloop
  endfacet
  facet normal 0.587785 0.809017 0
    outer loop
      vertex -14.0686 59.3838 13
      vertex -12.4811 58.2304 5
      vertex -14.0686 59.3838 5
    endloop
  endfacet
  facet normal 0 0 1
    outer loop
      vertex -12.4811 58.2304 13
      vertex -19 55 13
      vertex -4 55 13
    endloop
  endfacet
  facet normal 0 0 1
    outer loop
      vertex -19 68.75 13
      vertex -19 55 13
      vertex -14.0686 59.3838 13
    endloop
  endfacet
  facet normal 0 0 1
    outer loop
      vertex -10.5189 58.2304 13
      vertex -12.4811 58.2304 13
      vertex -4 55 13
    endloop
  endfacet
  facet normal 0 0 1
    outer loop
      vertex -19 68.75 13
      vertex -14.0686 59.3838 13
      vertex -14.675 61.25 13
    endloop
  endfacet
  facet normal 0 0 1
    outer loop
      vertex -19 68.75 13
      vertex -14.675 61.25 13
      vertex -14.0686 63.1162 13
    endloop
  endfacet
  facet normal 0 0 1
    outer loop
      vertex -4 68.75 13
      vertex -19 68.75 13
      vertex -12.4811 64.2696 13
    endloop
  endfacet
  facet normal 0 0 1
    outer loop
      vertex -8.93137 59.3838 13
      vertex -10.5189 58.2304 13
      vertex -4 55 13
    endloop
  endfacet
  facet normal 0 0 1
    outer loop
      vertex -4 68.75 13
      vertex -12.4811 64.2696 13
      vertex -10.5189 64.2696 13
    endloop
  endfacet
  facet normal 0 0 1
    outer loop
      vertex -4 68.75 13
      vertex -8.93137 63.1162 13
      vertex -4 55 13
    endloop
  endfacet
  facet normal 0 0 1
    outer loop
      vertex -4 68.75 13
      vertex -10.5189 64.2696 13
      vertex -8.93137 63.1162 13
    endloop
  endfacet
  facet normal 0 0 1
    outer loop
      vertex -8.93137 63.1162 13
      vertex -8.325 61.25 13
      vertex -4 55 13
    endloop
  endfacet
  facet normal 0 0 1
    outer loop
      vertex -8.325 61.25 13
      vertex -8.93137 59.3838 13
      vertex -4 55 13
    endloop
  endfacet
  facet normal 0 0 1
    outer loop
      vertex -14.0686 59.3838 13
      vertex -19 55 13
      vertex -12.4811 58.2304 13
    endloop
  endfacet
  facet normal 0 0 1
    outer loop
      vertex -14.0686 63.1162 13
      vertex -12.4811 64.2696 13
      vertex -19 68.75 13
    endloop
  endfacet
  facet normal 1 0 0
    outer loop
      vertex -62 52 8.25
      vertex -62 52 21
      vertex -62 -25 21
    endloop
  endfacet
  facet normal 1 0 0
    outer loop
      vertex -62 -25 8.25
      vertex -62 52 8.25
      vertex -62 -25 21
    endloop
  endfacet
  facet normal 0 1 0
    outer loop
      vertex 24 -25 21
      vertex 24 -25 8.25
      vertex -62 -25 21
    endloop
  endfacet
  facet normal 0 1 0
    outer loop
      vertex -62 -25 21
      vertex 24 -25 8.25
      vertex -62 -25 8.25
    endloop
  endfacet
  facet normal -1 0 0
    outer loop
      vertex 24 52 21
      vertex 24 52 8.25
      vertex 24 -25 21
    endloop
  endfacet
  facet normal -1 0 0
    outer loop
      vertex 24 -25 21
      vertex 24 52 8.25
      vertex 24 -25 8.25
    endloop
  endfacet
  facet normal 0 -1 0
    outer loop
      vertex 24 52 8.25
      vertex 24 52 21
      vertex -62 52 21
    endloop
  endfacet
  facet normal 0 -1 0
    outer loop
      vertex -62 52 8.25
      vertex 24 52 8.25
      vertex -62 52 21
    endloop
  endfacet
  facet normal 0 0 1
    outer loop
      vertex 24 -25 8.25
      vertex 24 52 8.25
      vertex -62 52 8.25
    endloop
  endfacet
  facet normal 0 0 1
    outer loop
      vertex -36.7277 17.2919 8.25
      vertex 24 -25 8.25
      vertex -62 52 8.25
    endloop
  endfacet
  facet normal 0 0 1
    outer loop
      vertex -62 -25 8.25
      vertex -42.8838 14.9573 8.25
      vertex -62 52 8.25
    endloop
  endfacet
  facet normal 0 0 1
    outer loop
      vertex -42.8838 14.9573 8.25
      vertex -41.994 16.6525 8.25
      vertex -62 52 8.25
    endloop
  endfacet
  facet normal 0 0 1
    outer loop
      vertex -41.994 16.6525 8.25
      vertex -40.4184 17.7401 8.25
      vertex -62 52 8.25
    endloop
  endfacet
  facet normal 0 0 1
    outer loop
      vertex -40.4184 17.7401 8.25
      vertex -38.5179 17.9708 8.25
      vertex -62 52 8.25
    endloop
  endfacet
  facet normal 0 0 1
    outer loop
      vertex -38.5179 17.9708 8.25
      vertex -36.7277 17.2919 8.25
      vertex -62 52 8.25
    endloop
  endfacet
  facet normal 0 0 1
    outer loop
      vertex -35.4582 15.8589 8.25
      vertex -35 14 8.25
      vertex 24 -25 8.25
    endloop
  endfacet
  facet normal 0 0 1
    outer loop
      vertex -35 14 8.25
      vertex -35.4582 12.1411 8.25
      vertex 24 -25 8.25
    endloop
  endfacet
  facet normal 0 0 1
    outer loop
      vertex -35.4582 12.1411 8.25
      vertex -36.7277 10.7081 8.25
      vertex 24 -25 8.25
    endloop
  endfacet
  facet normal 0 0 1
    outer loop
      vertex -62 -25 8.25
      vertex 24 -25 8.25
      vertex -36.7277 10.7081 8.25
    endloop
  endfacet
  facet normal 0 0 1
    outer loop
      vertex -62 -25 8.25
      vertex -36.7277 10.7081 8.25
      vertex -38.5179 10.0292 8.25
    endloop
  endfacet
  facet normal 0 0 1
    outer loop
      vertex -62 -25 8.25
      vertex -38.5179 10.0292 8.25
      vertex -40.4184 10.2599 8.25
    endloop
  endfacet
  facet normal 0 0 1
    outer loop
      vertex -62 -25 8.25
      vertex -40.4184 10.2599 8.25
      vertex -41.994 11.3475 8.25
    endloop
  endfacet
  facet normal 0 0 1
    outer loop
      vertex -62 -25 8.25
      vertex -42.8838 13.0427 8.25
      vertex -42.8838 14.9573 8.25
    endloop
  endfacet
  facet normal 0 0 1
    outer loop
      vertex -62 -25 8.25
      vertex -41.994 11.3475 8.25
      vertex -42.8838 13.0427 8.25
    endloop
  endfacet
  facet normal 0 0 1
    outer loop
      vertex -36.7277 17.2919 8.25
      vertex -35.4582 15.8589 8.25
      vertex 24 -25 8.25
    endloop
  endfacet
endsolid OpenSCAD_Model
