solid OpenSCAD_Model
  facet normal -1 0 0
    outer loop
      vertex -45 -25 35
      vertex -45 -25 37
      vertex -45 51 35
    endloop
  endfacet
  facet normal -1 0 0
    outer loop
      vertex -45 51 35
      vertex -45 -25 37
      vertex -45 51 37
    endloop
  endfacet
  facet normal 0 -1 0
    outer loop
      vertex -45 -25 37
      vertex -45 -25 35
      vertex 40 -25 35
    endloop
  endfacet
  facet normal 0 -1 0
    outer loop
      vertex 40 -25 37
      vertex -45 -25 37
      vertex 40 -25 35
    endloop
  endfacet
  facet normal 0 0 -1
    outer loop
      vertex 24 11 35
      vertex 40 -25 35
      vertex 24.6194 -9.08658 35
    endloop
  endfacet
  facet normal 0 0 -1
    outer loop
      vertex -1 36 35
      vertex -45 51 35
      vertex 40 51 35
    endloop
  endfacet
  facet normal 0 0 -1
    outer loop
      vertex 24 11 35
      vertex 21.9134 -6.3806 35
      vertex 20 -6 35
    endloop
  endfacet
  facet normal 0 0 -1
    outer loop
      vertex 24 36 35
      vertex -1 36 35
      vertex 40 51 35
    endloop
  endfacet
  facet normal 0 0 -1
    outer loop
      vertex -45 -25 35
      vertex -45 51 35
      vertex -1 11 35
    endloop
  endfacet
  facet normal 0 0 -1
    outer loop
      vertex 21.9134 -15.6194 35
      vertex 40 -25 35
      vertex 20 -16 35
    endloop
  endfacet
  facet normal 0 0 -1
    outer loop
      vertex 40 -25 35
      vertex 24 11 35
      vertex 40 51 35
    endloop
  endfacet
  facet normal 0 0 -1
    outer loop
      vertex 24 11 35
      vertex 24 36 35
      vertex 40 51 35
    endloop
  endfacet
  facet normal 0 0 -1
    outer loop
      vertex -45 -25 35
      vertex -1 11 35
      vertex 12 -11 35
    endloop
  endfacet
  facet normal 0 0 -1
    outer loop
      vertex 16.4645 -7.46447 35
      vertex -1 11 35
      vertex 18.0866 -6.3806 35
    endloop
  endfacet
  facet normal 0 0 -1
    outer loop
      vertex -45 -25 35
      vertex 12 -11 35
      vertex 12.5729 -12.7634 35
    endloop
  endfacet
  facet normal 0 0 -1
    outer loop
      vertex -45 -25 35
      vertex 12.5729 -12.7634 35
      vertex 14.0729 -13.8532 35
    endloop
  endfacet
  facet normal 0 0 -1
    outer loop
      vertex 20 -16 35
      vertex 40 -25 35
      vertex 18.0866 -15.6194 35
    endloop
  endfacet
  facet normal 0 0 -1
    outer loop
      vertex -45 -25 35
      vertex 14.0729 -13.8532 35
      vertex 18.0866 -15.6194 35
    endloop
  endfacet
  facet normal 0 0 -1
    outer loop
      vertex -45 -25 35
      vertex 18.0866 -15.6194 35
      vertex 40 -25 35
    endloop
  endfacet
  facet normal 0 0 -1
    outer loop
      vertex 16.4645 -14.5355 35
      vertex 15.9271 -13.8532 35
      vertex 15.9819 -13.8133 35
    endloop
  endfacet
  facet normal 0 0 -1
    outer loop
      vertex 25 -11 35
      vertex 40 -25 35
      vertex 24.6194 -12.9134 35
    endloop
  endfacet
  facet normal 0 0 -1
    outer loop
      vertex 14.0729 -8.14683 35
      vertex -1 11 35
      vertex 15.9271 -8.14683 35
    endloop
  endfacet
  facet normal 0 0 -1
    outer loop
      vertex 21.9134 -15.6194 35
      vertex 23.5355 -14.5355 35
      vertex 40 -25 35
    endloop
  endfacet
  facet normal 0 0 -1
    outer loop
      vertex 23.5355 -14.5355 35
      vertex 24.6194 -12.9134 35
      vertex 40 -25 35
    endloop
  endfacet
  facet normal 0 0 -1
    outer loop
      vertex 24 11 35
      vertex 24.6194 -9.08658 35
      vertex 23.5355 -7.46447 35
    endloop
  endfacet
  facet normal 0 0 -1
    outer loop
      vertex 40 -25 35
      vertex 25 -11 35
      vertex 24.6194 -9.08658 35
    endloop
  endfacet
  facet normal 0 0 -1
    outer loop
      vertex 18.0866 -15.6194 35
      vertex 14.0729 -13.8532 35
      vertex 16.4645 -14.5355 35
    endloop
  endfacet
  facet normal 0 0 -1
    outer loop
      vertex 15.9271 -13.8532 35
      vertex 16.4645 -14.5355 35
      vertex 14.0729 -13.8532 35
    endloop
  endfacet
  facet normal 0 0 -1
    outer loop
      vertex 24 11 35
      vertex 23.5355 -7.46447 35
      vertex 21.9134 -6.3806 35
    endloop
  endfacet
  facet normal 0 0 -1
    outer loop
      vertex 15.9819 -8.18668 35
      vertex -1 11 35
      vertex 16.4645 -7.46447 35
    endloop
  endfacet
  facet normal 0 0 -1
    outer loop
      vertex 15.9271 -8.14683 35
      vertex -1 11 35
      vertex 15.9819 -8.18668 35
    endloop
  endfacet
  facet normal 0 0 -1
    outer loop
      vertex 12.5729 -9.23664 35
      vertex -1 11 35
      vertex 14.0729 -8.14683 35
    endloop
  endfacet
  facet normal 0 0 -1
    outer loop
      vertex 12 -11 35
      vertex -1 11 35
      vertex 12.5729 -9.23664 35
    endloop
  endfacet
  facet normal 0 0 -1
    outer loop
      vertex -1 11 35
      vertex -45 51 35
      vertex -1 36 35
    endloop
  endfacet
  facet normal 0 0 -1
    outer loop
      vertex 18.0866 -6.3806 35
      vertex -1 11 35
      vertex 20 -6 35
    endloop
  endfacet
  facet normal 0 0 -1
    outer loop
      vertex 24 11 35
      vertex 20 -6 35
      vertex -1 11 35
    endloop
  endfacet
  facet normal 0 1 0
    outer loop
      vertex -45 51 35
      vertex -45 51 37
      vertex 40 51 35
    endloop
  endfacet
  facet normal 0 1 0
    outer loop
      vertex 40 51 35
      vertex -45 51 37
      vertex 40 51 37
    endloop
  endfacet
  facet normal 0 0 1
    outer loop
      vertex 18.0866 -15.6194 37
      vertex -45 -25 37
      vertex 40 -25 37
    endloop
  endfacet
  facet normal 0 0 1
    outer loop
      vertex 15.9819 -8.18668 37
      vertex 16.4645 -7.46447 37
      vertex 15.9271 -8.14683 37
    endloop
  endfacet
  facet normal 0 0 1
    outer loop
      vertex 20 -16 37
      vertex 18.0866 -15.6194 37
      vertex 40 -25 37
    endloop
  endfacet
  facet normal 0 0 1
    outer loop
      vertex -45 51 37
      vertex -45 -25 37
      vertex -1 11 37
    endloop
  endfacet
  facet normal 0 0 1
    outer loop
      vertex 40 51 37
      vertex -45 51 37
      vertex -1 36 37
    endloop
  endfacet
  facet normal 0 0 1
    outer loop
      vertex 40 51 37
      vertex 24 36 37
      vertex 40 -25 37
    endloop
  endfacet
  facet normal 0 0 1
    outer loop
      vertex 40 51 37
      vertex -1 36 37
      vertex 24 36 37
    endloop
  endfacet
  facet normal 0 0 1
    outer loop
      vertex 24 36 37
      vertex 24 11 37
      vertex 40 -25 37
    endloop
  endfacet
  facet normal 0 0 1
    outer loop
      vertex 16.4645 -14.5355 37
      vertex 15.9819 -13.8133 37
      vertex 15.9271 -13.8532 37
    endloop
  endfacet
  facet normal 0 0 1
    outer loop
      vertex -1 11 37
      vertex -45 -25 37
      vertex 12.5729 -12.7634 37
    endloop
  endfacet
  facet normal 0 0 1
    outer loop
      vertex -1 11 37
      vertex 12.5729 -12.7634 37
      vertex 12 -11 37
    endloop
  endfacet
  facet normal 0 0 1
    outer loop
      vertex 21.9134 -15.6194 37
      vertex 20 -16 37
      vertex 40 -25 37
    endloop
  endfacet
  facet normal 0 0 1
    outer loop
      vertex -1 11 37
      vertex 12 -11 37
      vertex 12.5729 -9.23664 37
    endloop
  endfacet
  facet normal 0 0 1
    outer loop
      vertex 23.5355 -14.5355 37
      vertex 21.9134 -15.6194 37
      vertex 40 -25 37
    endloop
  endfacet
  facet normal 0 0 1
    outer loop
      vertex -1 11 37
      vertex 12.5729 -9.23664 37
      vertex 14.0729 -8.14683 37
    endloop
  endfacet
  facet normal 0 0 1
    outer loop
      vertex -1 11 37
      vertex 14.0729 -8.14683 37
      vertex 15.9271 -8.14683 37
    endloop
  endfacet
  facet normal 0 0 1
    outer loop
      vertex -1 11 37
      vertex 15.9271 -8.14683 37
      vertex 16.4645 -7.46447 37
    endloop
  endfacet
  facet normal 0 0 1
    outer loop
      vertex 24.6194 -9.08658 37
      vertex 25 -11 37
      vertex 40 -25 37
    endloop
  endfacet
  facet normal 0 0 1
    outer loop
      vertex -1 11 37
      vertex 16.4645 -7.46447 37
      vertex 18.0866 -6.3806 37
    endloop
  endfacet
  facet normal 0 0 1
    outer loop
      vertex 25 -11 37
      vertex 24.6194 -12.9134 37
      vertex 40 -25 37
    endloop
  endfacet
  facet normal 0 0 1
    outer loop
      vertex 24.6194 -12.9134 37
      vertex 23.5355 -14.5355 37
      vertex 40 -25 37
    endloop
  endfacet
  facet normal 0 0 1
    outer loop
      vertex 23.5355 -7.46447 37
      vertex 24.6194 -9.08658 37
      vertex 40 -25 37
    endloop
  endfacet
  facet normal 0 0 1
    outer loop
      vertex 18.0866 -6.3806 37
      vertex 20 -6 37
      vertex -1 11 37
    endloop
  endfacet
  facet normal 0 0 1
    outer loop
      vertex 15.9271 -13.8532 37
      vertex 14.0729 -13.8532 37
      vertex 16.4645 -14.5355 37
    endloop
  endfacet
  facet normal 0 0 1
    outer loop
      vertex 16.4645 -14.5355 37
      vertex 14.0729 -13.8532 37
      vertex 18.0866 -15.6194 37
    endloop
  endfacet
  facet normal 0 0 1
    outer loop
      vertex 14.0729 -13.8532 37
      vertex -45 -25 37
      vertex 18.0866 -15.6194 37
    endloop
  endfacet
  facet normal 0 0 1
    outer loop
      vertex 12.5729 -12.7634 37
      vertex -45 -25 37
      vertex 14.0729 -13.8532 37
    endloop
  endfacet
  facet normal 0 0 1
    outer loop
      vertex -1 11 37
      vertex -1 36 37
      vertex -45 51 37
    endloop
  endfacet
  facet normal 0 0 1
    outer loop
      vertex 24 11 37
      vertex 23.5355 -7.46447 37
      vertex 40 -25 37
    endloop
  endfacet
  facet normal 0 0 1
    outer loop
      vertex 24 11 37
      vertex 21.9134 -6.3806 37
      vertex 23.5355 -7.46447 37
    endloop
  endfacet
  facet normal 0 0 1
    outer loop
      vertex 24 11 37
      vertex 20 -6 37
      vertex 21.9134 -6.3806 37
    endloop
  endfacet
  facet normal 0 0 1
    outer loop
      vertex 24 11 37
      vertex -1 11 37
      vertex 20 -6 37
    endloop
  endfacet
  facet normal 1 0 0
    outer loop
      vertex 40 -25 37
      vertex 40 -25 35
      vertex 40 51 35
    endloop
  endfacet
  facet normal 1 0 0
    outer loop
      vertex 40 51 37
      vertex 40 -25 37
      vertex 40 51 35
    endloop
  endfacet
  facet normal 1 0 0
    outer loop
      vertex -1 36 35
      vertex -1 36 37
      vertex -1 11 37
    endloop
  endfacet
  facet normal 1 0 0
    outer loop
      vertex -1 11 35
      vertex -1 36 35
      vertex -1 11 37
    endloop
  endfacet
  facet normal 0 -1 0
    outer loop
      vertex 24 36 35
      vertex 24 36 37
      vertex -1 36 37
    endloop
  endfacet
  facet normal 0 -1 0
    outer loop
      vertex -1 36 35
      vertex 24 36 35
      vertex -1 36 37
    endloop
  endfacet
  facet normal -1 0 0
    outer loop
      vertex 24 36 37
      vertex 24 36 35
      vertex 24 11 37
    endloop
  endfacet
  facet normal -1 0 0
    outer loop
      vertex 24 11 37
      vertex 24 36 35
      vertex 24 11 35
    endloop
  endfacet
  facet normal 0 1 0
    outer loop
      vertex 24 11 37
      vertex 24 11 35
      vertex -1 11 37
    endloop
  endfacet
  facet normal 0 1 0
    outer loop
      vertex -1 11 37
      vertex 24 11 35
      vertex -1 11 35
    endloop
  endfacet
  facet normal 0.951057 0.309017 0
    outer loop
      vertex 12 -11 37
      vertex 12.5729 -12.7634 37
      vertex 12.5729 -12.7634 35
    endloop
  endfacet
  facet normal 0.951057 0.309017 0
    outer loop
      vertex 12 -11 35
      vertex 12 -11 37
      vertex 12.5729 -12.7634 35
    endloop
  endfacet
  facet normal 0.951057 -0.309017 0
    outer loop
      vertex 12.5729 -9.23664 35
      vertex 12.5729 -9.23664 37
      vertex 12 -11 37
    endloop
  endfacet
  facet normal 0.951057 -0.309017 0
    outer loop
      vertex 12 -11 35
      vertex 12.5729 -9.23664 35
      vertex 12 -11 37
    endloop
  endfacet
  facet normal 0.587785 -0.809017 0
    outer loop
      vertex 14.0729 -8.14683 35
      vertex 14.0729 -8.14683 37
      vertex 12.5729 -9.23664 37
    endloop
  endfacet
  facet normal 0.587785 -0.809017 0
    outer loop
      vertex 12.5729 -9.23664 35
      vertex 14.0729 -8.14683 35
      vertex 12.5729 -9.23664 37
    endloop
  endfacet
  facet normal 0 -1 0
    outer loop
      vertex 15.9271 -8.14683 35
      vertex 15.9271 -8.14683 37
      vertex 14.0729 -8.14683 37
    endloop
  endfacet
  facet normal 0 -1 0
    outer loop
      vertex 14.0729 -8.14683 35
      vertex 15.9271 -8.14683 35
      vertex 14.0729 -8.14683 37
    endloop
  endfacet
  facet normal -0.587785 -0.809017 0
    outer loop
      vertex 15.9819 -8.18668 35
      vertex 15.9819 -8.18668 37
      vertex 15.9271 -8.14683 37
    endloop
  endfacet
  facet normal -0.587785 -0.809017 0
    outer loop
      vertex 15.9271 -8.14683 35
      vertex 15.9819 -8.18668 35
      vertex 15.9271 -8.14683 37
    endloop
  endfacet
  facet normal 0.83147 -0.55557 0
    outer loop
      vertex 16.4645 -7.46447 35
      vertex 16.4645 -7.46447 37
      vertex 15.9819 -8.18668 37
    endloop
  endfacet
  facet normal 0.83147 -0.55557 0
    outer loop
      vertex 15.9819 -8.18668 35
      vertex 16.4645 -7.46447 35
      vertex 15.9819 -8.18668 37
    endloop
  endfacet
  facet normal 0.55557 -0.83147 0
    outer loop
      vertex 18.0866 -6.3806 35
      vertex 18.0866 -6.3806 37
      vertex 16.4645 -7.46447 37
    endloop
  endfacet
  facet normal 0.55557 -0.83147 0
    outer loop
      vertex 16.4645 -7.46447 35
      vertex 18.0866 -6.3806 35
      vertex 16.4645 -7.46447 37
    endloop
  endfacet
  facet normal 0.19509 -0.980785 0
    outer loop
      vertex 20 -6 35
      vertex 20 -6 37
      vertex 18.0866 -6.3806 37
    endloop
  endfacet
  facet normal 0.19509 -0.980785 0
    outer loop
      vertex 18.0866 -6.3806 35
      vertex 20 -6 35
      vertex 18.0866 -6.3806 37
    endloop
  endfacet
  facet normal -0.19509 -0.980785 0
    outer loop
      vertex 21.9134 -6.3806 35
      vertex 21.9134 -6.3806 37
      vertex 20 -6 37
    endloop
  endfacet
  facet normal -0.19509 -0.980785 0
    outer loop
      vertex 20 -6 35
      vertex 21.9134 -6.3806 35
      vertex 20 -6 37
    endloop
  endfacet
  facet normal -0.55557 -0.83147 0
    outer loop
      vertex 23.5355 -7.46447 35
      vertex 23.5355 -7.46447 37
      vertex 21.9134 -6.3806 37
    endloop
  endfacet
  facet normal -0.55557 -0.83147 0
    outer loop
      vertex 21.9134 -6.3806 35
      vertex 23.5355 -7.46447 35
      vertex 21.9134 -6.3806 37
    endloop
  endfacet
  facet normal -0.83147 -0.55557 0
    outer loop
      vertex 24.6194 -9.08658 37
      vertex 23.5355 -7.46447 37
      vertex 24.6194 -9.08658 35
    endloop
  endfacet
  facet normal -0.83147 -0.55557 0
    outer loop
      vertex 24.6194 -9.08658 35
      vertex 23.5355 -7.46447 37
      vertex 23.5355 -7.46447 35
    endloop
  endfacet
  facet normal -0.980785 -0.19509 0
    outer loop
      vertex 25 -11 37
      vertex 24.6194 -9.08658 37
      vertex 25 -11 35
    endloop
  endfacet
  facet normal -0.980785 -0.19509 0
    outer loop
      vertex 25 -11 35
      vertex 24.6194 -9.08658 37
      vertex 24.6194 -9.08658 35
    endloop
  endfacet
  facet normal -0.980785 0.19509 0
    outer loop
      vertex 25 -11 37
      vertex 25 -11 35
      vertex 24.6194 -12.9134 37
    endloop
  endfacet
  facet normal -0.980785 0.19509 0
    outer loop
      vertex 24.6194 -12.9134 37
      vertex 25 -11 35
      vertex 24.6194 -12.9134 35
    endloop
  endfacet
  facet normal -0.83147 0.55557 0
    outer loop
      vertex 24.6194 -12.9134 37
      vertex 24.6194 -12.9134 35
      vertex 23.5355 -14.5355 37
    endloop
  endfacet
  facet normal -0.83147 0.55557 0
    outer loop
      vertex 23.5355 -14.5355 37
      vertex 24.6194 -12.9134 35
      vertex 23.5355 -14.5355 35
    endloop
  endfacet
  facet normal -0.55557 0.83147 0
    outer loop
      vertex 23.5355 -14.5355 37
      vertex 23.5355 -14.5355 35
      vertex 21.9134 -15.6194 37
    endloop
  endfacet
  facet normal -0.55557 0.83147 0
    outer loop
      vertex 21.9134 -15.6194 37
      vertex 23.5355 -14.5355 35
      vertex 21.9134 -15.6194 35
    endloop
  endfacet
  facet normal -0.19509 0.980785 0
    outer loop
      vertex 21.9134 -15.6194 37
      vertex 21.9134 -15.6194 35
      vertex 20 -16 37
    endloop
  endfacet
  facet normal -0.19509 0.980785 0
    outer loop
      vertex 20 -16 37
      vertex 21.9134 -15.6194 35
      vertex 20 -16 35
    endloop
  endfacet
  facet normal 0.19509 0.980785 0
    outer loop
      vertex 20 -16 37
      vertex 20 -16 35
      vertex 18.0866 -15.6194 37
    endloop
  endfacet
  facet normal 0.19509 0.980785 0
    outer loop
      vertex 18.0866 -15.6194 37
      vertex 20 -16 35
      vertex 18.0866 -15.6194 35
    endloop
  endfacet
  facet normal 0.55557 0.83147 0
    outer loop
      vertex 18.0866 -15.6194 37
      vertex 18.0866 -15.6194 35
      vertex 16.4645 -14.5355 37
    endloop
  endfacet
  facet normal 0.55557 0.83147 0
    outer loop
      vertex 16.4645 -14.5355 37
      vertex 18.0866 -15.6194 35
      vertex 16.4645 -14.5355 35
    endloop
  endfacet
  facet normal 0.83147 0.55557 0
    outer loop
      vertex 15.9819 -13.8133 37
      vertex 16.4645 -14.5355 37
      vertex 16.4645 -14.5355 35
    endloop
  endfacet
  facet normal 0.83147 0.55557 0
    outer loop
      vertex 15.9819 -13.8133 35
      vertex 15.9819 -13.8133 37
      vertex 16.4645 -14.5355 35
    endloop
  endfacet
  facet normal -0.587785 0.809017 0
    outer loop
      vertex 15.9819 -13.8133 37
      vertex 15.9819 -13.8133 35
      vertex 15.9271 -13.8532 37
    endloop
  endfacet
  facet normal -0.587785 0.809017 0
    outer loop
      vertex 15.9271 -13.8532 37
      vertex 15.9819 -13.8133 35
      vertex 15.9271 -13.8532 35
    endloop
  endfacet
  facet normal 0 1 0
    outer loop
      vertex 15.9271 -13.8532 37
      vertex 15.9271 -13.8532 35
      vertex 14.0729 -13.8532 37
    endloop
  endfacet
  facet normal 0 1 0
    outer loop
      vertex 14.0729 -13.8532 37
      vertex 15.9271 -13.8532 35
      vertex 14.0729 -13.8532 35
    endloop
  endfacet
  facet normal 0.587785 0.809017 0
    outer loop
      vertex 14.0729 -13.8532 37
      vertex 14.0729 -13.8532 35
      vertex 12.5729 -12.7634 37
    endloop
  endfacet
  facet normal 0.587785 0.809017 0
    outer loop
      vertex 12.5729 -12.7634 37
      vertex 14.0729 -13.8532 35
      vertex 12.5729 -12.7634 35
    endloop
  endfacet
endsolid OpenSCAD_Model
