solid OpenSCAD_Model
  facet normal -2.22045e-16 -1 0
    outer loop
      vertex 13.5 -12 0
      vertex 16.5 -12 0
      vertex 16.5 -12 2
    endloop
  endfacet
  facet normal -2.22045e-16 -1 0
    outer loop
      vertex 13.5 -12 2
      vertex 13.5 -12 0
      vertex 16.5 -12 2
    endloop
  endfacet
  facet normal 1 -2.22045e-16 0
    outer loop
      vertex 16.5 -12 2
      vertex 16.5 -12 0
      vertex 16.5 4 0
    endloop
  endfacet
  facet normal 1 -2.22045e-16 0
    outer loop
      vertex 16.5 4 2
      vertex 16.5 -12 2
      vertex 16.5 4 0
    endloop
  endfacet
  facet normal 0 0 -1
    outer loop
      vertex 12.5 -0.1 0
      vertex 16.5 4 0
      vertex 15.5 -0.1 0
    endloop
  endfacet
  facet normal 0 0 -1
    outer loop
      vertex 7 -0.5 0
      vertex 2.5 -0.1 0
      vertex 7 2.5 0
    endloop
  endfacet
  facet normal 0 0 -1
    outer loop
      vertex 16.5 -12 0
      vertex 13.5 -12 0
      vertex 15.5 -2.1 0
    endloop
  endfacet
  facet normal 0 0 -1
    outer loop
      vertex 16.5 -12 0
      vertex 15.5 -2.1 0
      vertex 16.5 4 0
    endloop
  endfacet
  facet normal 0 0 -1
    outer loop
      vertex 1.5 -12 0
      vertex -0.5 -2.1 0
      vertex 1.5 -2.1 0
    endloop
  endfacet
  facet normal 0 0 -1
    outer loop
      vertex 12.5 -0.1 0
      vertex 12.5 -2 0
      vertex 2.5 -2 0
    endloop
  endfacet
  facet normal 0 0 -1
    outer loop
      vertex 8 2.5 0
      vertex 16.5 4 0
      vertex 12.5 -0.1 0
    endloop
  endfacet
  facet normal 0 0 -1
    outer loop
      vertex 8 2.5 0
      vertex 12.5 -0.1 0
      vertex 8 -0.5 0
    endloop
  endfacet
  facet normal 0 0 -1
    outer loop
      vertex 2.5 -0.1 0
      vertex -0.5 -0.1 0
      vertex 7 2.5 0
    endloop
  endfacet
  facet normal 0 0 -1
    outer loop
      vertex 7 -0.5 0
      vertex 2.5 -2 0
      vertex 2.5 -0.1 0
    endloop
  endfacet
  facet normal 0 0 -1
    outer loop
      vertex -0.5 -2.1 0
      vertex 1.5 -12 0
      vertex -1.5 -12 0
    endloop
  endfacet
  facet normal 0 0 -1
    outer loop
      vertex -0.5 -2.1 0
      vertex -1.5 -12 0
      vertex -0.5 -0.1 0
    endloop
  endfacet
  facet normal 0 0 -1
    outer loop
      vertex -0.5 -0.1 0
      vertex -1.5 -12 0
      vertex -1.5 4 0
    endloop
  endfacet
  facet normal 0 0 -1
    outer loop
      vertex 8 2.5 0
      vertex -1.5 4 0
      vertex 16.5 4 0
    endloop
  endfacet
  facet normal 0 0 -1
    outer loop
      vertex 8 -0.5 0
      vertex 2.5 -2 0
      vertex 7 -0.5 0
    endloop
  endfacet
  facet normal 0 0 -1
    outer loop
      vertex 12.5 -0.1 0
      vertex 2.5 -2 0
      vertex 8 -0.5 0
    endloop
  endfacet
  facet normal 0 0 -1
    outer loop
      vertex 7 2.5 0
      vertex -1.5 4 0
      vertex 8 2.5 0
    endloop
  endfacet
  facet normal 0 0 -1
    outer loop
      vertex -0.5 -0.1 0
      vertex -1.5 4 0
      vertex 7 2.5 0
    endloop
  endfacet
  facet normal 0 0 -1
    outer loop
      vertex 15.5 -2.1 0
      vertex 13.5 -12 0
      vertex 13.5 -2.1 0
    endloop
  endfacet
  facet normal 0 0 -1
    outer loop
      vertex 15.5 -0.1 0
      vertex 16.5 4 0
      vertex 15.5 -2.1 0
    endloop
  endfacet
  facet normal -1 2.22045e-16 0
    outer loop
      vertex 13.5 -12 0
      vertex 13.5 -12 2
      vertex 13.5 -2.1 0
    endloop
  endfacet
  facet normal -1 2.22045e-16 0
    outer loop
      vertex 13.5 -2.1 1
      vertex 13.5 -12 2
      vertex 13.5 -2 2
    endloop
  endfacet
  facet normal -1 2.22045e-16 0
    outer loop
      vertex 13.5 -2.1 0
      vertex 13.5 -12 2
      vertex 13.5 -2.1 1
    endloop
  endfacet
  facet normal -1 2.22045e-16 0
    outer loop
      vertex 13.5 -2.1 1
      vertex 13.5 -2 2
      vertex 13.5 -2 1
    endloop
  endfacet
  facet normal 0 0 1
    outer loop
      vertex 13.5 -12 2
      vertex 16.5 -12 2
      vertex 16.5 4 2
    endloop
  endfacet
  facet normal 0 0 1
    outer loop
      vertex 13.5 -2 2
      vertex 13.5 -12 2
      vertex 16.5 4 2
    endloop
  endfacet
  facet normal 0 0 1
    outer loop
      vertex -1.5 -12 2
      vertex 1.5 -12 2
      vertex -1.5 4 2
    endloop
  endfacet
  facet normal 0 0 1
    outer loop
      vertex 1.5 -12 2
      vertex 1.5 -2 2
      vertex -1.5 4 2
    endloop
  endfacet
  facet normal 0 0 1
    outer loop
      vertex 8 2.5 2
      vertex 13.5 -2 2
      vertex 16.5 4 2
    endloop
  endfacet
  facet normal 0 0 1
    outer loop
      vertex 8 2.5 2
      vertex 8 -0.5 2
      vertex 13.5 -2 2
    endloop
  endfacet
  facet normal 0 0 1
    outer loop
      vertex -1.5 4 2
      vertex 7 2.5 2
      vertex 16.5 4 2
    endloop
  endfacet
  facet normal 0 0 1
    outer loop
      vertex 7 -0.5 2
      vertex 7 2.5 2
      vertex -1.5 4 2
    endloop
  endfacet
  facet normal 0 0 1
    outer loop
      vertex 7 2.5 2
      vertex 8 2.5 2
      vertex 16.5 4 2
    endloop
  endfacet
  facet normal 0 0 1
    outer loop
      vertex 1.5 -2 2
      vertex 7 -0.5 2
      vertex -1.5 4 2
    endloop
  endfacet
  facet normal 0 0 1
    outer loop
      vertex 1.5 -2 2
      vertex 8 -0.5 2
      vertex 7 -0.5 2
    endloop
  endfacet
  facet normal 0 0 1
    outer loop
      vertex 1.5 -2 2
      vertex 13.5 -2 2
      vertex 8 -0.5 2
    endloop
  endfacet
  facet normal 2.22045e-16 1 0
    outer loop
      vertex 16.5 4 0
      vertex -1.5 4 0
      vertex 16.5 4 2
    endloop
  endfacet
  facet normal 2.22045e-16 1 0
    outer loop
      vertex 16.5 4 2
      vertex -1.5 4 0
      vertex -1.5 4 2
    endloop
  endfacet
  facet normal -1 2.22045e-16 0
    outer loop
      vertex -1.5 -12 0
      vertex -1.5 -12 2
      vertex -1.5 4 0
    endloop
  endfacet
  facet normal -1 2.22045e-16 0
    outer loop
      vertex -1.5 4 0
      vertex -1.5 -12 2
      vertex -1.5 4 2
    endloop
  endfacet
  facet normal -2.22045e-16 -1 0
    outer loop
      vertex -1.5 -12 0
      vertex 1.5 -12 0
      vertex 1.5 -12 2
    endloop
  endfacet
  facet normal -2.22045e-16 -1 0
    outer loop
      vertex -1.5 -12 2
      vertex -1.5 -12 0
      vertex 1.5 -12 2
    endloop
  endfacet
  facet normal 1 -2.22045e-16 0
    outer loop
      vertex 1.5 -12 2
      vertex 1.5 -12 0
      vertex 1.5 -2.1 0
    endloop
  endfacet
  facet normal 1 -2.22045e-16 0
    outer loop
      vertex 1.5 -2 1
      vertex 1.5 -12 2
      vertex 1.5 -2.1 1
    endloop
  endfacet
  facet normal 1 -2.22045e-16 0
    outer loop
      vertex 1.5 -2.1 1
      vertex 1.5 -12 2
      vertex 1.5 -2.1 0
    endloop
  endfacet
  facet normal 1 -2.22045e-16 0
    outer loop
      vertex 1.5 -2 2
      vertex 1.5 -12 2
      vertex 1.5 -2 1
    endloop
  endfacet
  facet normal -2.22045e-16 -1 0
    outer loop
      vertex -0.5 -2.1 -4
      vertex 2.5 -2.1 -4
      vertex 2.5 -2.1 1
    endloop
  endfacet
  facet normal -2.22045e-16 -1 0
    outer loop
      vertex 1.5 -2.1 0
      vertex -0.5 -2.1 -4
      vertex 2.5 -2.1 1
    endloop
  endfacet
  facet normal -2.22045e-16 -1 0
    outer loop
      vertex 1.5 -2.1 1
      vertex 1.5 -2.1 0
      vertex 2.5 -2.1 1
    endloop
  endfacet
  facet normal -2.22045e-16 -1 0
    outer loop
      vertex 1.5 -2.1 0
      vertex -0.5 -2.1 0
      vertex -0.5 -2.1 -4
    endloop
  endfacet
  facet normal -1 2.22045e-16 0
    outer loop
      vertex -0.5 -2.1 -4
      vertex -0.5 -2.1 0
      vertex -0.5 -0.1 -4
    endloop
  endfacet
  facet normal -1 2.22045e-16 0
    outer loop
      vertex -0.5 -0.1 -4
      vertex -0.5 -2.1 0
      vertex -0.5 -0.1 0
    endloop
  endfacet
  facet normal 2.22045e-16 1 0
    outer loop
      vertex 2.5 -0.1 -4
      vertex -0.5 -0.1 -4
      vertex 2.5 -0.1 0
    endloop
  endfacet
  facet normal 2.22045e-16 1 0
    outer loop
      vertex 2.5 -0.1 0
      vertex -0.5 -0.1 -4
      vertex -0.5 -0.1 0
    endloop
  endfacet
  facet normal 1 -2.22045e-16 0
    outer loop
      vertex 2.5 -2 0
      vertex 2.5 -2.1 -4
      vertex 2.5 -0.1 -4
    endloop
  endfacet
  facet normal 1 -2.22045e-16 0
    outer loop
      vertex 2.5 -2 0
      vertex 2.5 -2 1
      vertex 2.5 -2.1 1
    endloop
  endfacet
  facet normal 1 -2.22045e-16 0
    outer loop
      vertex 2.5 -2.1 1
      vertex 2.5 -2.1 -4
      vertex 2.5 -2 0
    endloop
  endfacet
  facet normal 1 -2.22045e-16 0
    outer loop
      vertex 2.5 -0.1 0
      vertex 2.5 -2 0
      vertex 2.5 -0.1 -4
    endloop
  endfacet
  facet normal -2.22045e-16 -1 0
    outer loop
      vertex 12.5 -2 1
      vertex 13.5 -2 1
      vertex 13.5 -2 2
    endloop
  endfacet
  facet normal -2.22045e-16 -1 0
    outer loop
      vertex 2.5 -2 1
      vertex 12.5 -2 1
      vertex 1.5 -2 2
    endloop
  endfacet
  facet normal -2.22045e-16 -1 0
    outer loop
      vertex 1.5 -2 2
      vertex 12.5 -2 1
      vertex 13.5 -2 2
    endloop
  endfacet
  facet normal -2.22045e-16 -1 0
    outer loop
      vertex 2.5 -2 0
      vertex 12.5 -2 1
      vertex 2.5 -2 1
    endloop
  endfacet
  facet normal -2.22045e-16 -1 0
    outer loop
      vertex 1.5 -2 1
      vertex 2.5 -2 1
      vertex 1.5 -2 2
    endloop
  endfacet
  facet normal -2.22045e-16 -1 0
    outer loop
      vertex 12.5 -2 0
      vertex 12.5 -2 1
      vertex 2.5 -2 0
    endloop
  endfacet
  facet normal -1 2.22045e-16 0
    outer loop
      vertex 12.5 -0.1 0
      vertex 12.5 -0.1 -4
      vertex 12.5 -2 0
    endloop
  endfacet
  facet normal -1 2.22045e-16 0
    outer loop
      vertex 12.5 -2.1 -4
      vertex 12.5 -2.1 1
      vertex 12.5 -2 0
    endloop
  endfacet
  facet normal -1 2.22045e-16 0
    outer loop
      vertex 12.5 -2.1 -4
      vertex 12.5 -2 0
      vertex 12.5 -0.1 -4
    endloop
  endfacet
  facet normal -1 2.22045e-16 0
    outer loop
      vertex 12.5 -2 0
      vertex 12.5 -2.1 1
      vertex 12.5 -2 1
    endloop
  endfacet
  facet normal 2.22045e-16 1 0
    outer loop
      vertex 15.5 -0.1 -4
      vertex 12.5 -0.1 -4
      vertex 15.5 -0.1 0
    endloop
  endfacet
  facet normal 2.22045e-16 1 0
    outer loop
      vertex 15.5 -0.1 0
      vertex 12.5 -0.1 -4
      vertex 12.5 -0.1 0
    endloop
  endfacet
  facet normal 1 -2.22045e-16 0
    outer loop
      vertex 15.5 -2.1 0
      vertex 15.5 -2.1 -4
      vertex 15.5 -0.1 -4
    endloop
  endfacet
  facet normal 1 -2.22045e-16 0
    outer loop
      vertex 15.5 -0.1 0
      vertex 15.5 -2.1 0
      vertex 15.5 -0.1 -4
    endloop
  endfacet
  facet normal -2.22045e-16 -1 0
    outer loop
      vertex 12.5 -2.1 -4
      vertex 15.5 -2.1 -4
      vertex 15.5 -2.1 0
    endloop
  endfacet
  facet normal -2.22045e-16 -1 0
    outer loop
      vertex 13.5 -2.1 1
      vertex 12.5 -2.1 -4
      vertex 13.5 -2.1 0
    endloop
  endfacet
  facet normal -2.22045e-16 -1 0
    outer loop
      vertex 13.5 -2.1 0
      vertex 12.5 -2.1 -4
      vertex 15.5 -2.1 0
    endloop
  endfacet
  facet normal -2.22045e-16 -1 0
    outer loop
      vertex 12.5 -2.1 1
      vertex 12.5 -2.1 -4
      vertex 13.5 -2.1 1
    endloop
  endfacet
  facet normal 2.22045e-16 1 0
    outer loop
      vertex 7 -0.5 2
      vertex 8 -0.5 2
      vertex 7 -0.5 0
    endloop
  endfacet
  facet normal 2.22045e-16 1 0
    outer loop
      vertex 7 -0.5 0
      vertex 8 -0.5 2
      vertex 8 -0.5 0
    endloop
  endfacet
  facet normal 1 -2.22045e-16 0
    outer loop
      vertex 7 2.5 0
      vertex 7 2.5 2
      vertex 7 -0.5 2
    endloop
  endfacet
  facet normal 1 -2.22045e-16 0
    outer loop
      vertex 7 -0.5 0
      vertex 7 2.5 0
      vertex 7 -0.5 2
    endloop
  endfacet
  facet normal -2.22045e-16 -1 0
    outer loop
      vertex 8 2.5 2
      vertex 7 2.5 2
      vertex 7 2.5 0
    endloop
  endfacet
  facet normal -2.22045e-16 -1 0
    outer loop
      vertex 8 2.5 0
      vertex 8 2.5 2
      vertex 7 2.5 0
    endloop
  endfacet
  facet normal -1 2.22045e-16 0
    outer loop
      vertex 8 2.5 2
      vertex 8 2.5 0
      vertex 8 -0.5 2
    endloop
  endfacet
  facet normal -1 2.22045e-16 0
    outer loop
      vertex 8 -0.5 2
      vertex 8 2.5 0
      vertex 8 -0.5 0
    endloop
  endfacet
  facet normal 0 0 1
    outer loop
      vertex 12.5 -2.1 1
      vertex 13.5 -2.1 1
      vertex 13.5 -2 1
    endloop
  endfacet
  facet normal 0 0 1
    outer loop
      vertex 12.5 -2 1
      vertex 12.5 -2.1 1
      vertex 13.5 -2 1
    endloop
  endfacet
  facet normal 0 0 1
    outer loop
      vertex 1.5 -2.1 1
      vertex 2.5 -2.1 1
      vertex 2.5 -2 1
    endloop
  endfacet
  facet normal 0 0 1
    outer loop
      vertex 1.5 -2 1
      vertex 1.5 -2.1 1
      vertex 2.5 -2 1
    endloop
  endfacet
  facet normal 0 0 -1
    outer loop
      vertex 2.5 -2.1 -4
      vertex -0.5 -2.1 -4
      vertex 2.5 -0.1 -4
    endloop
  endfacet
  facet normal 0 0 -1
    outer loop
      vertex 2.5 -0.1 -4
      vertex -0.5 -2.1 -4
      vertex -0.5 -0.1 -4
    endloop
  endfacet
  facet normal 0 0 -1
    outer loop
      vertex 15.5 -2.1 -4
      vertex 12.5 -2.1 -4
      vertex 15.5 -0.1 -4
    endloop
  endfacet
  facet normal 0 0 -1
    outer loop
      vertex 15.5 -0.1 -4
      vertex 12.5 -2.1 -4
      vertex 12.5 -0.1 -4
    endloop
  endfacet
endsolid OpenSCAD_Model
