solid OpenSCAD_Model
  facet normal 1 0 1.22465e-16
    outer loop
      vertex 20.5 -15.1 15.2
      vertex 20.5 -18.1 15.2
      vertex 20.5 -18.1 13.2
    endloop
  endfacet
  facet normal 1 0 1.22465e-16
    outer loop
      vertex 20.5 -15.1 13.2
      vertex 20.5 -15.1 15.2
      vertex 20.5 -18.1 13.2
    endloop
  endfacet
  facet normal 0 -1 0
    outer loop
      vertex 20.5 -18.1 13.2
      vertex 20.5 -18.1 15.2
      vertex -1.5 -18.1 15.2
    endloop
  endfacet
  facet normal 0 -1 0
    outer loop
      vertex -1.5 -18.1 13.2
      vertex 20.5 -18.1 13.2
      vertex -1.5 -18.1 15.2
    endloop
  endfacet
  facet normal -1.22465e-16 0 1
    outer loop
      vertex -1.5 -18.1 15.2
      vertex 20.5 -18.1 15.2
      vertex 20.5 -15.1 15.2
    endloop
  endfacet
  facet normal -1.22465e-16 0 1
    outer loop
      vertex 4.6 -17.1 15.2
      vertex -1.5 -18.1 15.2
      vertex 20.5 -15.1 15.2
    endloop
  endfacet
  facet normal -1.22465e-16 0 1
    outer loop
      vertex 4.6 -15.1 15.2
      vertex 4.6 -17.1 15.2
      vertex 20.5 -15.1 15.2
    endloop
  endfacet
  facet normal -1.22465e-16 0 1
    outer loop
      vertex 2.6 -17.1 15.2
      vertex -1.5 -18.1 15.2
      vertex 4.6 -17.1 15.2
    endloop
  endfacet
  facet normal -1.22465e-16 0 1
    outer loop
      vertex 2.7 -9.4 15.2
      vertex -1.5 -18.1 15.2
      vertex 2.6 -14.1 15.2
    endloop
  endfacet
  facet normal -1.22465e-16 0 1
    outer loop
      vertex 4.6 -3.1 15.2
      vertex 20.5 -3.1 15.2
      vertex 4.6 -1.1 15.2
    endloop
  endfacet
  facet normal -1.22465e-16 0 1
    outer loop
      vertex 4.5 -4.1 15.2
      vertex 2.6 -14.1 15.2
      vertex 4.5 -14.1 15.2
    endloop
  endfacet
  facet normal -1.22465e-16 0 1
    outer loop
      vertex 2.7 -9.4 15.2
      vertex -0.6 -9.4 15.2
      vertex -1.5 -18.1 15.2
    endloop
  endfacet
  facet normal -1.22465e-16 0 1
    outer loop
      vertex 2.7 -8.1 15.2
      vertex 2.7 -9.4 15.2
      vertex 4.5 -4.1 15.2
    endloop
  endfacet
  facet normal -1.22465e-16 0 1
    outer loop
      vertex 20.5 -0.1 15.2
      vertex 2.6 -1.1 15.2
      vertex 4.6 -1.1 15.2
    endloop
  endfacet
  facet normal -1.22465e-16 0 1
    outer loop
      vertex 20.5 -0.1 15.2
      vertex 4.6 -1.1 15.2
      vertex 20.5 -3.1 15.2
    endloop
  endfacet
  facet normal -1.22465e-16 0 1
    outer loop
      vertex -1.5 -0.1 15.2
      vertex 2.6 -1.1 15.2
      vertex 20.5 -0.1 15.2
    endloop
  endfacet
  facet normal -1.22465e-16 0 1
    outer loop
      vertex 2.6 -4.1 15.2
      vertex 2.7 -8.1 15.2
      vertex 4.5 -4.1 15.2
    endloop
  endfacet
  facet normal -1.22465e-16 0 1
    outer loop
      vertex 4.5 -4.1 15.2
      vertex 2.7 -9.4 15.2
      vertex 2.6 -14.1 15.2
    endloop
  endfacet
  facet normal -1.22465e-16 0 1
    outer loop
      vertex -1.5 -0.1 15.2
      vertex -1.5 -18.1 15.2
      vertex -0.6 -9.4 15.2
    endloop
  endfacet
  facet normal -1.22465e-16 0 1
    outer loop
      vertex -1.5 -0.1 15.2
      vertex -0.6 -8.1 15.2
      vertex 2.6 -1.1 15.2
    endloop
  endfacet
  facet normal -1.22465e-16 0 1
    outer loop
      vertex -1.5 -0.1 15.2
      vertex -0.6 -9.4 15.2
      vertex -0.6 -8.1 15.2
    endloop
  endfacet
  facet normal -1.22465e-16 0 1
    outer loop
      vertex 2.6 -17.1 15.2
      vertex 2.6 -14.1 15.2
      vertex -1.5 -18.1 15.2
    endloop
  endfacet
  facet normal -1.22465e-16 0 1
    outer loop
      vertex -0.6 -8.1 15.2
      vertex 2.6 -4.1 15.2
      vertex 2.6 -1.1 15.2
    endloop
  endfacet
  facet normal -1.22465e-16 0 1
    outer loop
      vertex -0.6 -8.1 15.2
      vertex 2.7 -8.1 15.2
      vertex 2.6 -4.1 15.2
    endloop
  endfacet
  facet normal 0 1 0
    outer loop
      vertex 20.5 -15.1 15.2
      vertex 20.5 -15.1 13.2
      vertex 4.6 -15.1 15.2
    endloop
  endfacet
  facet normal 0 1 0
    outer loop
      vertex 4.6 -15.1 14.2
      vertex 20.5 -15.1 13.2
      vertex 4.5 -15.1 13.2
    endloop
  endfacet
  facet normal 0 1 0
    outer loop
      vertex 4.6 -15.1 15.2
      vertex 20.5 -15.1 13.2
      vertex 4.6 -15.1 14.2
    endloop
  endfacet
  facet normal 0 1 0
    outer loop
      vertex 4.6 -15.1 14.2
      vertex 4.5 -15.1 13.2
      vertex 4.5 -15.1 14.2
    endloop
  endfacet
  facet normal 1.22465e-16 0 -1
    outer loop
      vertex 20.5 -18.1 13.2
      vertex -1.5 -18.1 13.2
      vertex 20.5 -15.1 13.2
    endloop
  endfacet
  facet normal 1.22465e-16 0 -1
    outer loop
      vertex -0.6 -8.1 13.2
      vertex -1.5 -18.1 13.2
      vertex -1.5 -0.1 13.2
    endloop
  endfacet
  facet normal 1.22465e-16 0 -1
    outer loop
      vertex 20.5 -3.1 13.2
      vertex -1.5 -0.1 13.2
      vertex 20.5 -0.1 13.2
    endloop
  endfacet
  facet normal 1.22465e-16 0 -1
    outer loop
      vertex 4.5 -3.1 13.2
      vertex -1.5 -0.1 13.2
      vertex 20.5 -3.1 13.2
    endloop
  endfacet
  facet normal 1.22465e-16 0 -1
    outer loop
      vertex 20.5 -15.1 13.2
      vertex -1.5 -18.1 13.2
      vertex 4.5 -15.1 13.2
    endloop
  endfacet
  facet normal 1.22465e-16 0 -1
    outer loop
      vertex -0.6 -8.1 13.2
      vertex -1.5 -0.1 13.2
      vertex 2.7 -8.1 13.2
    endloop
  endfacet
  facet normal 1.22465e-16 0 -1
    outer loop
      vertex 2.7 -9.4 13.2
      vertex 4.5 -15.1 13.2
      vertex -0.6 -9.4 13.2
    endloop
  endfacet
  facet normal 1.22465e-16 0 -1
    outer loop
      vertex -0.6 -9.4 13.2
      vertex -1.5 -18.1 13.2
      vertex -0.6 -8.1 13.2
    endloop
  endfacet
  facet normal 1.22465e-16 0 -1
    outer loop
      vertex 4.5 -15.1 13.2
      vertex -1.5 -18.1 13.2
      vertex -0.6 -9.4 13.2
    endloop
  endfacet
  facet normal 1.22465e-16 0 -1
    outer loop
      vertex 4.5 -15.1 13.2
      vertex 2.7 -9.4 13.2
      vertex 2.7 -8.1 13.2
    endloop
  endfacet
  facet normal 1.22465e-16 0 -1
    outer loop
      vertex 2.7 -8.1 13.2
      vertex -1.5 -0.1 13.2
      vertex 4.5 -3.1 13.2
    endloop
  endfacet
  facet normal 1.22465e-16 0 -1
    outer loop
      vertex 4.5 -15.1 13.2
      vertex 2.7 -8.1 13.2
      vertex 4.5 -3.1 13.2
    endloop
  endfacet
  facet normal -1 0 -1.22465e-16
    outer loop
      vertex -1.5 -18.1 15.2
      vertex -1.5 -0.1 15.2
      vertex -1.5 -18.1 13.2
    endloop
  endfacet
  facet normal -1 0 -1.22465e-16
    outer loop
      vertex -1.5 -18.1 13.2
      vertex -1.5 -0.1 15.2
      vertex -1.5 -0.1 13.2
    endloop
  endfacet
  facet normal 0 1 0
    outer loop
      vertex 20.5 -0.1 15.2
      vertex 20.5 -0.1 13.2
      vertex -1.5 -0.1 15.2
    endloop
  endfacet
  facet normal 0 1 0
    outer loop
      vertex -1.5 -0.1 15.2
      vertex 20.5 -0.1 13.2
      vertex -1.5 -0.1 13.2
    endloop
  endfacet
  facet normal 1 0 1.22465e-16
    outer loop
      vertex 20.5 -0.1 15.2
      vertex 20.5 -3.1 15.2
      vertex 20.5 -3.1 13.2
    endloop
  endfacet
  facet normal 1 0 1.22465e-16
    outer loop
      vertex 20.5 -0.1 13.2
      vertex 20.5 -0.1 15.2
      vertex 20.5 -3.1 13.2
    endloop
  endfacet
  facet normal 0 -1 0
    outer loop
      vertex 20.5 -3.1 13.2
      vertex 20.5 -3.1 15.2
      vertex 4.6 -3.1 15.2
    endloop
  endfacet
  facet normal 0 -1 0
    outer loop
      vertex 4.5 -3.1 14.2
      vertex 20.5 -3.1 13.2
      vertex 4.6 -3.1 14.2
    endloop
  endfacet
  facet normal 0 -1 0
    outer loop
      vertex 4.6 -3.1 14.2
      vertex 20.5 -3.1 13.2
      vertex 4.6 -3.1 15.2
    endloop
  endfacet
  facet normal 0 -1 0
    outer loop
      vertex 4.5 -3.1 13.2
      vertex 20.5 -3.1 13.2
      vertex 4.5 -3.1 14.2
    endloop
  endfacet
  facet normal 1 0 1.22465e-16
    outer loop
      vertex 4.6 -1.1 21.2
      vertex 4.6 -4.1 21.2
      vertex 4.6 -4.1 14.2
    endloop
  endfacet
  facet normal 1 0 1.22465e-16
    outer loop
      vertex 4.6 -3.1 15.2
      vertex 4.6 -1.1 21.2
      vertex 4.6 -4.1 14.2
    endloop
  endfacet
  facet normal 1 0 1.22465e-16
    outer loop
      vertex 4.6 -3.1 14.2
      vertex 4.6 -3.1 15.2
      vertex 4.6 -4.1 14.2
    endloop
  endfacet
  facet normal 1 0 1.22465e-16
    outer loop
      vertex 4.6 -3.1 15.2
      vertex 4.6 -1.1 15.2
      vertex 4.6 -1.1 21.2
    endloop
  endfacet
  facet normal 0 1 0
    outer loop
      vertex 4.6 -1.1 21.2
      vertex 4.6 -1.1 15.2
      vertex 2.6 -1.1 21.2
    endloop
  endfacet
  facet normal 0 1 0
    outer loop
      vertex 2.6 -1.1 21.2
      vertex 4.6 -1.1 15.2
      vertex 2.6 -1.1 15.2
    endloop
  endfacet
  facet normal -1 0 -1.22465e-16
    outer loop
      vertex 2.6 -4.1 21.2
      vertex 2.6 -1.1 21.2
      vertex 2.6 -4.1 15.2
    endloop
  endfacet
  facet normal -1 0 -1.22465e-16
    outer loop
      vertex 2.6 -4.1 15.2
      vertex 2.6 -1.1 21.2
      vertex 2.6 -1.1 15.2
    endloop
  endfacet
  facet normal 0 -1 0
    outer loop
      vertex 4.5 -4.1 15.2
      vertex 4.6 -4.1 21.2
      vertex 2.6 -4.1 21.2
    endloop
  endfacet
  facet normal 0 -1 0
    outer loop
      vertex 4.5 -4.1 15.2
      vertex 4.5 -4.1 14.2
      vertex 4.6 -4.1 14.2
    endloop
  endfacet
  facet normal 0 -1 0
    outer loop
      vertex 4.6 -4.1 14.2
      vertex 4.6 -4.1 21.2
      vertex 4.5 -4.1 15.2
    endloop
  endfacet
  facet normal 0 -1 0
    outer loop
      vertex 2.6 -4.1 15.2
      vertex 4.5 -4.1 15.2
      vertex 2.6 -4.1 21.2
    endloop
  endfacet
  facet normal 1 0 1.22465e-16
    outer loop
      vertex 4.5 -14.1 14.2
      vertex 4.5 -15.1 14.2
      vertex 4.5 -15.1 13.2
    endloop
  endfacet
  facet normal 1 0 1.22465e-16
    outer loop
      vertex 4.5 -4.1 14.2
      vertex 4.5 -14.1 14.2
      vertex 4.5 -3.1 13.2
    endloop
  endfacet
  facet normal 1 0 1.22465e-16
    outer loop
      vertex 4.5 -3.1 13.2
      vertex 4.5 -14.1 14.2
      vertex 4.5 -15.1 13.2
    endloop
  endfacet
  facet normal 1 0 1.22465e-16
    outer loop
      vertex 4.5 -4.1 15.2
      vertex 4.5 -14.1 14.2
      vertex 4.5 -4.1 14.2
    endloop
  endfacet
  facet normal 1 0 1.22465e-16
    outer loop
      vertex 4.5 -3.1 14.2
      vertex 4.5 -4.1 14.2
      vertex 4.5 -3.1 13.2
    endloop
  endfacet
  facet normal 1 0 1.22465e-16
    outer loop
      vertex 4.5 -14.1 15.2
      vertex 4.5 -14.1 14.2
      vertex 4.5 -4.1 15.2
    endloop
  endfacet
  facet normal 0 1 0
    outer loop
      vertex 2.6 -14.1 15.2
      vertex 2.6 -14.1 21.2
      vertex 4.5 -14.1 15.2
    endloop
  endfacet
  facet normal 0 1 0
    outer loop
      vertex 4.6 -14.1 21.2
      vertex 4.6 -14.1 14.2
      vertex 4.5 -14.1 15.2
    endloop
  endfacet
  facet normal 0 1 0
    outer loop
      vertex 4.6 -14.1 21.2
      vertex 4.5 -14.1 15.2
      vertex 2.6 -14.1 21.2
    endloop
  endfacet
  facet normal 0 1 0
    outer loop
      vertex 4.5 -14.1 15.2
      vertex 4.6 -14.1 14.2
      vertex 4.5 -14.1 14.2
    endloop
  endfacet
  facet normal -1 0 -1.22465e-16
    outer loop
      vertex 2.6 -17.1 21.2
      vertex 2.6 -14.1 21.2
      vertex 2.6 -17.1 15.2
    endloop
  endfacet
  facet normal -1 0 -1.22465e-16
    outer loop
      vertex 2.6 -17.1 15.2
      vertex 2.6 -14.1 21.2
      vertex 2.6 -14.1 15.2
    endloop
  endfacet
  facet normal 0 -1 0
    outer loop
      vertex 4.6 -17.1 15.2
      vertex 4.6 -17.1 21.2
      vertex 2.6 -17.1 21.2
    endloop
  endfacet
  facet normal 0 -1 0
    outer loop
      vertex 2.6 -17.1 15.2
      vertex 4.6 -17.1 15.2
      vertex 2.6 -17.1 21.2
    endloop
  endfacet
  facet normal 1 0 1.22465e-16
    outer loop
      vertex 4.6 -14.1 21.2
      vertex 4.6 -17.1 21.2
      vertex 4.6 -17.1 15.2
    endloop
  endfacet
  facet normal 1 0 1.22465e-16
    outer loop
      vertex 4.6 -15.1 14.2
      vertex 4.6 -14.1 21.2
      vertex 4.6 -15.1 15.2
    endloop
  endfacet
  facet normal 1 0 1.22465e-16
    outer loop
      vertex 4.6 -15.1 15.2
      vertex 4.6 -14.1 21.2
      vertex 4.6 -17.1 15.2
    endloop
  endfacet
  facet normal 1 0 1.22465e-16
    outer loop
      vertex 4.6 -14.1 14.2
      vertex 4.6 -14.1 21.2
      vertex 4.6 -15.1 14.2
    endloop
  endfacet
  facet normal -1 0 -1.22465e-16
    outer loop
      vertex 2.7 -8.1 13.2
      vertex 2.7 -9.4 13.2
      vertex 2.7 -8.1 15.2
    endloop
  endfacet
  facet normal -1 0 -1.22465e-16
    outer loop
      vertex 2.7 -8.1 15.2
      vertex 2.7 -9.4 13.2
      vertex 2.7 -9.4 15.2
    endloop
  endfacet
  facet normal 0 -1 0
    outer loop
      vertex -0.6 -8.1 15.2
      vertex -0.6 -8.1 13.2
      vertex 2.7 -8.1 13.2
    endloop
  endfacet
  facet normal 0 -1 0
    outer loop
      vertex 2.7 -8.1 15.2
      vertex -0.6 -8.1 15.2
      vertex 2.7 -8.1 13.2
    endloop
  endfacet
  facet normal 1 0 1.22465e-16
    outer loop
      vertex -0.6 -9.4 13.2
      vertex -0.6 -8.1 13.2
      vertex -0.6 -8.1 15.2
    endloop
  endfacet
  facet normal 1 0 1.22465e-16
    outer loop
      vertex -0.6 -9.4 15.2
      vertex -0.6 -9.4 13.2
      vertex -0.6 -8.1 15.2
    endloop
  endfacet
  facet normal 0 1 0
    outer loop
      vertex -0.6 -9.4 13.2
      vertex -0.6 -9.4 15.2
      vertex 2.7 -9.4 13.2
    endloop
  endfacet
  facet normal 0 1 0
    outer loop
      vertex 2.7 -9.4 13.2
      vertex -0.6 -9.4 15.2
      vertex 2.7 -9.4 15.2
    endloop
  endfacet
  facet normal 1.22465e-16 0 -1
    outer loop
      vertex 4.6 -15.1 14.2
      vertex 4.5 -15.1 14.2
      vertex 4.6 -14.1 14.2
    endloop
  endfacet
  facet normal 1.22465e-16 0 -1
    outer loop
      vertex 4.6 -14.1 14.2
      vertex 4.5 -15.1 14.2
      vertex 4.5 -14.1 14.2
    endloop
  endfacet
  facet normal 1.22465e-16 0 -1
    outer loop
      vertex 4.6 -4.1 14.2
      vertex 4.5 -4.1 14.2
      vertex 4.6 -3.1 14.2
    endloop
  endfacet
  facet normal 1.22465e-16 0 -1
    outer loop
      vertex 4.6 -3.1 14.2
      vertex 4.5 -4.1 14.2
      vertex 4.5 -3.1 14.2
    endloop
  endfacet
  facet normal -1.22465e-16 0 1
    outer loop
      vertex 2.6 -4.1 21.2
      vertex 4.6 -4.1 21.2
      vertex 4.6 -1.1 21.2
    endloop
  endfacet
  facet normal -1.22465e-16 0 1
    outer loop
      vertex 2.6 -1.1 21.2
      vertex 2.6 -4.1 21.2
      vertex 4.6 -1.1 21.2
    endloop
  endfacet
  facet normal -1.22465e-16 0 1
    outer loop
      vertex 2.6 -17.1 21.2
      vertex 4.6 -17.1 21.2
      vertex 4.6 -14.1 21.2
    endloop
  endfacet
  facet normal -1.22465e-16 0 1
    outer loop
      vertex 2.6 -14.1 21.2
      vertex 2.6 -17.1 21.2
      vertex 4.6 -14.1 21.2
    endloop
  endfacet
endsolid OpenSCAD_Model
