solid OpenSCAD_Model
  facet normal -1 0 0
    outer loop
      vertex 0 0 0
      vertex 0 0 10
      vertex 0 20 0
    endloop
  endfacet
  facet normal -1 0 0
    outer loop
      vertex 0 20 0
      vertex 0 0 10
      vertex 0 20 10
    endloop
  endfacet
  facet normal 0 -1 0
    outer loop
      vertex 0 0 10
      vertex 0 0 0
      vertex 15 0 0
    endloop
  endfacet
  facet normal 0 -1 0
    outer loop
      vertex 7.125 0 10
      vertex 0 0 10
      vertex 15 0 0
    endloop
  endfacet
  facet normal 0 -1 0
    outer loop
      vertex 7.875 0 10
      vertex 7.125 0 10
      vertex 15 0 0
    endloop
  endfacet
  facet normal 0 -1 0
    outer loop
      vertex 15 0 10
      vertex 7.875 0 10
      vertex 15 0 0
    endloop
  endfacet
  facet normal 0 -1 0
    outer loop
      vertex 7.875 0 14
      vertex 7.125 0 10
      vertex 7.875 0 10
    endloop
  endfacet
  facet normal 0 -1 0
    outer loop
      vertex 7.125 0 14
      vertex 7.125 0 10
      vertex 7.875 0 14
    endloop
  endfacet
  facet normal 0 0 -1
    outer loop
      vertex 0 0 0
      vertex 0 20 0
      vertex 15 0 0
    endloop
  endfacet
  facet normal 0 0 -1
    outer loop
      vertex 15 0 0
      vertex 0 20 0
      vertex 15 20 0
    endloop
  endfacet
  facet normal 0 1 0
    outer loop
      vertex 0 20 0
      vertex 0 20 10
      vertex 15 20 0
    endloop
  endfacet
  facet normal 0 1 0
    outer loop
      vertex 15 20 0
      vertex 0 20 10
      vertex 15 20 10
    endloop
  endfacet
  facet normal 0 0 1
    outer loop
      vertex 3.75 5 10
      vertex 0 0 10
      vertex 7.125 0 10
    endloop
  endfacet
  facet normal 0 0 1
    outer loop
      vertex 15 0 10
      vertex 11.25 5 10
      vertex 7.875 2 10
    endloop
  endfacet
  facet normal 0 0 1
    outer loop
      vertex 15 0 10
      vertex 7.875 2 10
      vertex 7.875 0 10
    endloop
  endfacet
  facet normal 0 0 1
    outer loop
      vertex 0 20 10
      vertex 0 0 10
      vertex 3.75 5 10
    endloop
  endfacet
  facet normal 0 0 1
    outer loop
      vertex 15 20 10
      vertex 0 20 10
      vertex 3.75 15 10
    endloop
  endfacet
  facet normal 0 0 1
    outer loop
      vertex 15 20 10
      vertex 11.25 15 10
      vertex 15 0 10
    endloop
  endfacet
  facet normal 0 0 1
    outer loop
      vertex 15 20 10
      vertex 3.75 15 10
      vertex 11.25 15 10
    endloop
  endfacet
  facet normal 0 0 1
    outer loop
      vertex 11.25 15 10
      vertex 11.25 5 10
      vertex 15 0 10
    endloop
  endfacet
  facet normal 0 0 1
    outer loop
      vertex 3.75 5 10
      vertex 3.75 15 10
      vertex 0 20 10
    endloop
  endfacet
  facet normal 0 0 1
    outer loop
      vertex 11.25 5 10
      vertex 7.125 2 10
      vertex 7.875 2 10
    endloop
  endfacet
  facet normal 0 0 1
    outer loop
      vertex 7.125 2 10
      vertex 3.75 5 10
      vertex 7.125 0 10
    endloop
  endfacet
  facet normal 0 0 1
    outer loop
      vertex 11.25 5 10
      vertex 3.75 5 10
      vertex 7.125 2 10
    endloop
  endfacet
  facet normal -1 0 0
    outer loop
      vertex 7.125 0.706107 12.3955
      vertex 7.125 2 10
      vertex 7.125 0.595492 12.5061
    endloop
  endfacet
  facet normal -1 0 0
    outer loop
      vertex 7.125 1.29389 13.2045
      vertex 7.125 0 14
      vertex 7.125 2 14
    endloop
  endfacet
  facet normal -1 0 0
    outer loop
      vertex 7.125 0 10
      vertex 7.125 0 14
      vertex 7.125 0.5 12.8
    endloop
  endfacet
  facet normal -1 0 0
    outer loop
      vertex 7.125 0 10
      vertex 7.125 0.5 12.8
      vertex 7.125 0.524472 12.6455
    endloop
  endfacet
  facet normal -1 0 0
    outer loop
      vertex 7.125 0 10
      vertex 7.125 0.524472 12.6455
      vertex 7.125 0.595492 12.5061
    endloop
  endfacet
  facet normal -1 0 0
    outer loop
      vertex 7.125 0 10
      vertex 7.125 0.595492 12.5061
      vertex 7.125 2 10
    endloop
  endfacet
  facet normal -1 0 0
    outer loop
      vertex 7.125 0.845492 12.3245
      vertex 7.125 2 10
      vertex 7.125 0.706107 12.3955
    endloop
  endfacet
  facet normal -1 0 0
    outer loop
      vertex 7.125 2 10
      vertex 7.125 0.845492 12.3245
      vertex 7.125 1 12.3
    endloop
  endfacet
  facet normal -1 0 0
    outer loop
      vertex 7.125 2 10
      vertex 7.125 1 12.3
      vertex 7.125 1.15451 12.3245
    endloop
  endfacet
  facet normal -1 0 0
    outer loop
      vertex 7.125 2 10
      vertex 7.125 1.15451 12.3245
      vertex 7.125 1.29389 12.3955
    endloop
  endfacet
  facet normal -1 0 0
    outer loop
      vertex 7.125 2 10
      vertex 7.125 1.29389 12.3955
      vertex 7.125 1.40451 12.5061
    endloop
  endfacet
  facet normal -1 0 0
    outer loop
      vertex 7.125 2 10
      vertex 7.125 1.40451 12.5061
      vertex 7.125 1.47553 12.6455
    endloop
  endfacet
  facet normal -1 0 0
    outer loop
      vertex 7.125 2 10
      vertex 7.125 1.47553 12.6455
      vertex 7.125 2 14
    endloop
  endfacet
  facet normal -1 0 0
    outer loop
      vertex 7.125 1.47553 12.9545
      vertex 7.125 2 14
      vertex 7.125 1.5 12.8
    endloop
  endfacet
  facet normal -1 0 0
    outer loop
      vertex 7.125 1.40451 13.0939
      vertex 7.125 2 14
      vertex 7.125 1.47553 12.9545
    endloop
  endfacet
  facet normal -1 0 0
    outer loop
      vertex 7.125 1.29389 13.2045
      vertex 7.125 2 14
      vertex 7.125 1.40451 13.0939
    endloop
  endfacet
  facet normal -1 0 0
    outer loop
      vertex 7.125 1.15451 13.2755
      vertex 7.125 0 14
      vertex 7.125 1.29389 13.2045
    endloop
  endfacet
  facet normal -1 0 0
    outer loop
      vertex 7.125 0.524472 12.9545
      vertex 7.125 0 14
      vertex 7.125 0.595492 13.0939
    endloop
  endfacet
  facet normal -1 0 0
    outer loop
      vertex 7.125 1 13.3
      vertex 7.125 0 14
      vertex 7.125 1.15451 13.2755
    endloop
  endfacet
  facet normal -1 0 0
    outer loop
      vertex 7.125 0.845492 13.2755
      vertex 7.125 0 14
      vertex 7.125 1 13.3
    endloop
  endfacet
  facet normal -1 0 0
    outer loop
      vertex 7.125 0.706107 13.2045
      vertex 7.125 0 14
      vertex 7.125 0.845492 13.2755
    endloop
  endfacet
  facet normal -1 0 0
    outer loop
      vertex 7.125 0.595492 13.0939
      vertex 7.125 0 14
      vertex 7.125 0.706107 13.2045
    endloop
  endfacet
  facet normal -1 0 0
    outer loop
      vertex 7.125 1.5 12.8
      vertex 7.125 2 14
      vertex 7.125 1.47553 12.6455
    endloop
  endfacet
  facet normal -1 0 0
    outer loop
      vertex 7.125 0.5 12.8
      vertex 7.125 0 14
      vertex 7.125 0.524472 12.9545
    endloop
  endfacet
  facet normal 0 0 1
    outer loop
      vertex 7.125 2 14
      vertex 7.125 0 14
      vertex 7.875 0 14
    endloop
  endfacet
  facet normal 0 0 1
    outer loop
      vertex 7.875 2 14
      vertex 7.125 2 14
      vertex 7.875 0 14
    endloop
  endfacet
  facet normal 1 0 0
    outer loop
      vertex 7.875 0.595492 12.5061
      vertex 7.875 0 10
      vertex 7.875 2 10
    endloop
  endfacet
  facet normal 1 0 0
    outer loop
      vertex 7.875 0 14
      vertex 7.875 0 10
      vertex 7.875 0.524472 12.6455
    endloop
  endfacet
  facet normal 1 0 0
    outer loop
      vertex 7.875 0.845492 13.2755
      vertex 7.875 1 13.3
      vertex 7.875 2 14
    endloop
  endfacet
  facet normal 1 0 0
    outer loop
      vertex 7.875 0 14
      vertex 7.875 0.524472 12.6455
      vertex 7.875 0.5 12.8
    endloop
  endfacet
  facet normal 1 0 0
    outer loop
      vertex 7.875 0.595492 13.0939
      vertex 7.875 0 14
      vertex 7.875 0.524472 12.9545
    endloop
  endfacet
  facet normal 1 0 0
    outer loop
      vertex 7.875 0.706107 13.2045
      vertex 7.875 0 14
      vertex 7.875 0.595492 13.0939
    endloop
  endfacet
  facet normal 1 0 0
    outer loop
      vertex 7.875 2 14
      vertex 7.875 0 14
      vertex 7.875 0.706107 13.2045
    endloop
  endfacet
  facet normal 1 0 0
    outer loop
      vertex 7.875 1 13.3
      vertex 7.875 1.15451 13.2755
      vertex 7.875 2 14
    endloop
  endfacet
  facet normal 1 0 0
    outer loop
      vertex 7.875 2 14
      vertex 7.875 0.706107 13.2045
      vertex 7.875 0.845492 13.2755
    endloop
  endfacet
  facet normal 1 0 0
    outer loop
      vertex 7.875 1.5 12.8
      vertex 7.875 1.47553 12.6455
      vertex 7.875 2 10
    endloop
  endfacet
  facet normal 1 0 0
    outer loop
      vertex 7.875 1.40451 12.5061
      vertex 7.875 1.29389 12.3955
      vertex 7.875 2 10
    endloop
  endfacet
  facet normal 1 0 0
    outer loop
      vertex 7.875 2 14
      vertex 7.875 1.15451 13.2755
      vertex 7.875 1.29389 13.2045
    endloop
  endfacet
  facet normal 1 0 0
    outer loop
      vertex 7.875 1.47553 12.6455
      vertex 7.875 1.40451 12.5061
      vertex 7.875 2 10
    endloop
  endfacet
  facet normal 1 0 0
    outer loop
      vertex 7.875 2 14
      vertex 7.875 1.29389 13.2045
      vertex 7.875 1.40451 13.0939
    endloop
  endfacet
  facet normal 1 0 0
    outer loop
      vertex 7.875 2 14
      vertex 7.875 1.47553 12.9545
      vertex 7.875 2 10
    endloop
  endfacet
  facet normal 1 0 0
    outer loop
      vertex 7.875 2 14
      vertex 7.875 1.40451 13.0939
      vertex 7.875 1.47553 12.9545
    endloop
  endfacet
  facet normal 1 0 0
    outer loop
      vertex 7.875 1.47553 12.9545
      vertex 7.875 1.5 12.8
      vertex 7.875 2 10
    endloop
  endfacet
  facet normal 1 0 0
    outer loop
      vertex 7.875 1.29389 12.3955
      vertex 7.875 1.15451 12.3245
      vertex 7.875 2 10
    endloop
  endfacet
  facet normal 1 0 0
    outer loop
      vertex 7.875 1.15451 12.3245
      vertex 7.875 1 12.3
      vertex 7.875 2 10
    endloop
  endfacet
  facet normal 1 0 0
    outer loop
      vertex 7.875 1 12.3
      vertex 7.875 0.845492 12.3245
      vertex 7.875 2 10
    endloop
  endfacet
  facet normal 1 0 0
    outer loop
      vertex 7.875 0.524472 12.6455
      vertex 7.875 0 10
      vertex 7.875 0.595492 12.5061
    endloop
  endfacet
  facet normal 1 0 0
    outer loop
      vertex 7.875 0.706107 12.3955
      vertex 7.875 0.595492 12.5061
      vertex 7.875 2 10
    endloop
  endfacet
  facet normal 1 0 0
    outer loop
      vertex 7.875 0.5 12.8
      vertex 7.875 0.524472 12.9545
      vertex 7.875 0 14
    endloop
  endfacet
  facet normal 1 0 0
    outer loop
      vertex 7.875 0.845492 12.3245
      vertex 7.875 0.706107 12.3955
      vertex 7.875 2 10
    endloop
  endfacet
  facet normal 1 0 0
    outer loop
      vertex 15 0 10
      vertex 15 0 0
      vertex 15 20 0
    endloop
  endfacet
  facet normal 1 0 0
    outer loop
      vertex 15 20 10
      vertex 15 0 10
      vertex 15 20 0
    endloop
  endfacet
  facet normal 0 1 0
    outer loop
      vertex 7.125 2 10
      vertex 7.125 2 14
      vertex 7.875 2 10
    endloop
  endfacet
  facet normal 0 1 0
    outer loop
      vertex 7.875 2 10
      vertex 7.125 2 14
      vertex 7.875 2 14
    endloop
  endfacet
  facet normal -1 0 0
    outer loop
      vertex 3.75 5 10
      vertex 3.75 5 13.3333
      vertex 3.75 15 10
    endloop
  endfacet
  facet normal -1 0 0
    outer loop
      vertex 3.75 15 10
      vertex 3.75 5 13.3333
      vertex 3.75 15 13.3333
    endloop
  endfacet
  facet normal 0 -1 0
    outer loop
      vertex 3.75 5 13.3333
      vertex 3.75 5 10
      vertex 11.25 5 10
    endloop
  endfacet
  facet normal 0 -1 0
    outer loop
      vertex 11.25 5 13.3333
      vertex 3.75 5 13.3333
      vertex 11.25 5 10
    endloop
  endfacet
  facet normal 1 0 0
    outer loop
      vertex 11.25 5 13.3333
      vertex 11.25 5 10
      vertex 11.25 15 10
    endloop
  endfacet
  facet normal 1 0 0
    outer loop
      vertex 11.25 15 13.3333
      vertex 11.25 5 13.3333
      vertex 11.25 15 10
    endloop
  endfacet
  facet normal 0 1 0
    outer loop
      vertex 3.75 15 10
      vertex 3.75 15 13.3333
      vertex 11.25 15 10
    endloop
  endfacet
  facet normal 0 1 0
    outer loop
      vertex 11.25 15 10
      vertex 3.75 15 13.3333
      vertex 11.25 15 13.3333
    endloop
  endfacet
  facet normal 3.47359e-17 0.987688 -0.156437
    outer loop
      vertex 7.875 0.524472 12.9545
      vertex 7.875 0.5 12.8
      vertex 7.125 0.524472 12.9545
    endloop
  endfacet
  facet normal 3.47359e-17 0.987688 -0.156437
    outer loop
      vertex 7.125 0.524472 12.9545
      vertex 7.875 0.5 12.8
      vertex 7.125 0.5 12.8
    endloop
  endfacet
  facet normal -3.47359e-17 0.987688 0.156437
    outer loop
      vertex 7.875 0.524472 12.6455
      vertex 7.125 0.524472 12.6455
      vertex 7.875 0.5 12.8
    endloop
  endfacet
  facet normal -3.47359e-17 0.987688 0.156437
    outer loop
      vertex 7.875 0.5 12.8
      vertex 7.125 0.524472 12.6455
      vertex 7.125 0.5 12.8
    endloop
  endfacet
  facet normal 1.00806e-16 0.891007 -0.453989
    outer loop
      vertex 7.875 0.595492 13.0939
      vertex 7.875 0.524472 12.9545
      vertex 7.125 0.595492 13.0939
    endloop
  endfacet
  facet normal 1.00806e-16 0.891007 -0.453989
    outer loop
      vertex 7.125 0.595492 13.0939
      vertex 7.875 0.524472 12.9545
      vertex 7.125 0.524472 12.9545
    endloop
  endfacet
  facet normal 1.57009e-16 0.707107 -0.707107
    outer loop
      vertex 7.875 0.706107 13.2045
      vertex 7.875 0.595492 13.0939
      vertex 7.125 0.706107 13.2045
    endloop
  endfacet
  facet normal 1.57009e-16 0.707107 -0.707107
    outer loop
      vertex 7.125 0.706107 13.2045
      vertex 7.875 0.595492 13.0939
      vertex 7.125 0.595492 13.0939
    endloop
  endfacet
  facet normal 1.97843e-16 0.453989 -0.891007
    outer loop
      vertex 7.875 0.845492 13.2755
      vertex 7.875 0.706107 13.2045
      vertex 7.125 0.845492 13.2755
    endloop
  endfacet
  facet normal 1.97843e-16 0.453989 -0.891007
    outer loop
      vertex 7.125 0.845492 13.2755
      vertex 7.875 0.706107 13.2045
      vertex 7.125 0.706107 13.2045
    endloop
  endfacet
  facet normal 2.19311e-16 0.156437 -0.987688
    outer loop
      vertex 7.875 1 13.3
      vertex 7.875 0.845492 13.2755
      vertex 7.125 1 13.3
    endloop
  endfacet
  facet normal 2.19311e-16 0.156437 -0.987688
    outer loop
      vertex 7.125 1 13.3
      vertex 7.875 0.845492 13.2755
      vertex 7.125 0.845492 13.2755
    endloop
  endfacet
  facet normal 2.19311e-16 -0.156437 -0.987688
    outer loop
      vertex 7.875 1.15451 13.2755
      vertex 7.875 1 13.3
      vertex 7.125 1.15451 13.2755
    endloop
  endfacet
  facet normal 2.19311e-16 -0.156437 -0.987688
    outer loop
      vertex 7.125 1.15451 13.2755
      vertex 7.875 1 13.3
      vertex 7.125 1 13.3
    endloop
  endfacet
  facet normal 1.97843e-16 -0.453989 -0.891007
    outer loop
      vertex 7.875 1.29389 13.2045
      vertex 7.875 1.15451 13.2755
      vertex 7.125 1.29389 13.2045
    endloop
  endfacet
  facet normal 1.97843e-16 -0.453989 -0.891007
    outer loop
      vertex 7.125 1.29389 13.2045
      vertex 7.875 1.15451 13.2755
      vertex 7.125 1.15451 13.2755
    endloop
  endfacet
  facet normal 1.57009e-16 -0.707107 -0.707107
    outer loop
      vertex 7.125 1.40451 13.0939
      vertex 7.875 1.40451 13.0939
      vertex 7.875 1.29389 13.2045
    endloop
  endfacet
  facet normal 1.57009e-16 -0.707107 -0.707107
    outer loop
      vertex 7.125 1.29389 13.2045
      vertex 7.125 1.40451 13.0939
      vertex 7.875 1.29389 13.2045
    endloop
  endfacet
  facet normal 1.00806e-16 -0.891007 -0.453989
    outer loop
      vertex 7.125 1.47553 12.9545
      vertex 7.875 1.47553 12.9545
      vertex 7.875 1.40451 13.0939
    endloop
  endfacet
  facet normal 1.00806e-16 -0.891007 -0.453989
    outer loop
      vertex 7.125 1.40451 13.0939
      vertex 7.125 1.47553 12.9545
      vertex 7.875 1.40451 13.0939
    endloop
  endfacet
  facet normal 3.47359e-17 -0.987688 -0.156437
    outer loop
      vertex 7.125 1.5 12.8
      vertex 7.875 1.5 12.8
      vertex 7.875 1.47553 12.9545
    endloop
  endfacet
  facet normal 3.47359e-17 -0.987688 -0.156437
    outer loop
      vertex 7.125 1.47553 12.9545
      vertex 7.125 1.5 12.8
      vertex 7.875 1.47553 12.9545
    endloop
  endfacet
  facet normal -3.47359e-17 -0.987688 0.156437
    outer loop
      vertex 7.875 1.47553 12.6455
      vertex 7.875 1.5 12.8
      vertex 7.125 1.5 12.8
    endloop
  endfacet
  facet normal -3.47359e-17 -0.987688 0.156437
    outer loop
      vertex 7.125 1.47553 12.6455
      vertex 7.875 1.47553 12.6455
      vertex 7.125 1.5 12.8
    endloop
  endfacet
  facet normal -1.00806e-16 -0.891007 0.453989
    outer loop
      vertex 7.875 1.40451 12.5061
      vertex 7.875 1.47553 12.6455
      vertex 7.125 1.47553 12.6455
    endloop
  endfacet
  facet normal -1.00806e-16 -0.891007 0.453989
    outer loop
      vertex 7.125 1.40451 12.5061
      vertex 7.875 1.40451 12.5061
      vertex 7.125 1.47553 12.6455
    endloop
  endfacet
  facet normal -1.57009e-16 -0.707107 0.707107
    outer loop
      vertex 7.875 1.29389 12.3955
      vertex 7.875 1.40451 12.5061
      vertex 7.125 1.40451 12.5061
    endloop
  endfacet
  facet normal -1.57009e-16 -0.707107 0.707107
    outer loop
      vertex 7.125 1.29389 12.3955
      vertex 7.875 1.29389 12.3955
      vertex 7.125 1.40451 12.5061
    endloop
  endfacet
  facet normal -1.97843e-16 -0.453989 0.891007
    outer loop
      vertex 7.875 1.15451 12.3245
      vertex 7.875 1.29389 12.3955
      vertex 7.125 1.29389 12.3955
    endloop
  endfacet
  facet normal -1.97843e-16 -0.453989 0.891007
    outer loop
      vertex 7.125 1.15451 12.3245
      vertex 7.875 1.15451 12.3245
      vertex 7.125 1.29389 12.3955
    endloop
  endfacet
  facet normal -2.19311e-16 -0.156437 0.987688
    outer loop
      vertex 7.875 1 12.3
      vertex 7.875 1.15451 12.3245
      vertex 7.125 1.15451 12.3245
    endloop
  endfacet
  facet normal -2.19311e-16 -0.156437 0.987688
    outer loop
      vertex 7.125 1 12.3
      vertex 7.875 1 12.3
      vertex 7.125 1.15451 12.3245
    endloop
  endfacet
  facet normal -2.19311e-16 0.156437 0.987688
    outer loop
      vertex 7.875 0.845492 12.3245
      vertex 7.875 1 12.3
      vertex 7.125 1 12.3
    endloop
  endfacet
  facet normal -2.19311e-16 0.156437 0.987688
    outer loop
      vertex 7.125 0.845492 12.3245
      vertex 7.875 0.845492 12.3245
      vertex 7.125 1 12.3
    endloop
  endfacet
  facet normal -1.97843e-16 0.453989 0.891007
    outer loop
      vertex 7.875 0.706107 12.3955
      vertex 7.875 0.845492 12.3245
      vertex 7.125 0.845492 12.3245
    endloop
  endfacet
  facet normal -1.97843e-16 0.453989 0.891007
    outer loop
      vertex 7.125 0.706107 12.3955
      vertex 7.875 0.706107 12.3955
      vertex 7.125 0.845492 12.3245
    endloop
  endfacet
  facet normal -1.57009e-16 0.707107 0.707107
    outer loop
      vertex 7.875 0.706107 12.3955
      vertex 7.125 0.706107 12.3955
      vertex 7.875 0.595492 12.5061
    endloop
  endfacet
  facet normal -1.57009e-16 0.707107 0.707107
    outer loop
      vertex 7.875 0.595492 12.5061
      vertex 7.125 0.706107 12.3955
      vertex 7.125 0.595492 12.5061
    endloop
  endfacet
  facet normal -1.00806e-16 0.891007 0.453989
    outer loop
      vertex 7.875 0.595492 12.5061
      vertex 7.125 0.595492 12.5061
      vertex 7.875 0.524472 12.6455
    endloop
  endfacet
  facet normal -1.00806e-16 0.891007 0.453989
    outer loop
      vertex 7.875 0.524472 12.6455
      vertex 7.125 0.595492 12.5061
      vertex 7.125 0.524472 12.6455
    endloop
  endfacet
  facet normal 0 0 1
    outer loop
      vertex 3.75 15 13.3333
      vertex 3.75 5 13.3333
      vertex 11.25 5 13.3333
    endloop
  endfacet
  facet normal 0 0 1
    outer loop
      vertex 11.25 15 13.3333
      vertex 3.75 15 13.3333
      vertex 11.25 5 13.3333
    endloop
  endfacet
  facet normal -1 0 0
    outer loop
      vertex 3.75 5 13.3333
      vertex 3.75 5 16.6667
      vertex 3.75 15 13.3333
    endloop
  endfacet
  facet normal -1 0 0
    outer loop
      vertex 3.75 15 13.3333
      vertex 3.75 5 16.6667
      vertex 3.75 15 16.6667
    endloop
  endfacet
  facet normal 0 -1 0
    outer loop
      vertex 3.75 5 16.6667
      vertex 3.75 5 13.3333
      vertex 11.25 5 13.3333
    endloop
  endfacet
  facet normal 0 -1 0
    outer loop
      vertex 11.25 5 16.6667
      vertex 3.75 5 16.6667
      vertex 11.25 5 13.3333
    endloop
  endfacet
  facet normal 0 0 -1
    outer loop
      vertex 3.75 5 13.3333
      vertex 3.75 15 13.3333
      vertex 11.25 5 13.3333
    endloop
  endfacet
  facet normal 0 0 -1
    outer loop
      vertex 11.25 5 13.3333
      vertex 3.75 15 13.3333
      vertex 11.25 15 13.3333
    endloop
  endfacet
  facet normal 0 1 0
    outer loop
      vertex 3.75 15 13.3333
      vertex 3.75 15 16.6667
      vertex 11.25 15 13.3333
    endloop
  endfacet
  facet normal 0 1 0
    outer loop
      vertex 11.25 15 13.3333
      vertex 3.75 15 16.6667
      vertex 11.25 15 16.6667
    endloop
  endfacet
  facet normal 0 0 1
    outer loop
      vertex 3.75 15 16.6667
      vertex 3.75 5 16.6667
      vertex 11.25 5 16.6667
    endloop
  endfacet
  facet normal 0 0 1
    outer loop
      vertex 11.25 15 16.6667
      vertex 3.75 15 16.6667
      vertex 11.25 5 16.6667
    endloop
  endfacet
  facet normal 1 0 0
    outer loop
      vertex 11.25 5 16.6667
      vertex 11.25 5 13.3333
      vertex 11.25 15 13.3333
    endloop
  endfacet
  facet normal 1 0 0
    outer loop
      vertex 11.25 15 16.6667
      vertex 11.25 5 16.6667
      vertex 11.25 15 13.3333
    endloop
  endfacet
  facet normal -2.22045e-16 -1 0
    outer loop
      vertex -1.5 -12 12.2
      vertex -1.5 -12 10.2
      vertex 1.5 -12 10.2
    endloop
  endfacet
  facet normal -2.22045e-16 -1 0
    outer loop
      vertex 1.5 -12 12.2
      vertex -1.5 -12 12.2
      vertex 1.5 -12 10.2
    endloop
  endfacet
  facet normal 0 0 -1
    outer loop
      vertex 1.5 -2.1 10.2
      vertex 1.5 -12 10.2
      vertex -0.5 -2.1 10.2
    endloop
  endfacet
  facet normal 0 0 -1
    outer loop
      vertex 7 2.5 10.2
      vertex -1.5 4 10.2
      vertex 16.5 4 10.2
    endloop
  endfacet
  facet normal 0 0 -1
    outer loop
      vertex 15.5 -2.1 10.2
      vertex 16.5 4 10.2
      vertex 16.5 -12 10.2
    endloop
  endfacet
  facet normal 0 0 -1
    outer loop
      vertex 12.5 -0.1 10.2
      vertex 16.5 4 10.2
      vertex 15.5 -0.1 10.2
    endloop
  endfacet
  facet normal 0 0 -1
    outer loop
      vertex 13.5 -12 10.2
      vertex 15.5 -2.1 10.2
      vertex 16.5 -12 10.2
    endloop
  endfacet
  facet normal 0 0 -1
    outer loop
      vertex 2.5 -2 10.2
      vertex 12.5 -0.1 10.2
      vertex 12.5 -2 10.2
    endloop
  endfacet
  facet normal 0 0 -1
    outer loop
      vertex -0.5 -2.1 10.2
      vertex -1.5 4 10.2
      vertex -0.5 -0.1 10.2
    endloop
  endfacet
  facet normal 0 0 -1
    outer loop
      vertex -0.5 -0.1 10.2
      vertex -1.5 4 10.2
      vertex 2.5 -0.1 10.2
    endloop
  endfacet
  facet normal 0 0 -1
    outer loop
      vertex 7 -0.5 10.2
      vertex -1.5 4 10.2
      vertex 7 2.5 10.2
    endloop
  endfacet
  facet normal 0 0 -1
    outer loop
      vertex 8 2.5 10.2
      vertex 12.5 -0.1 10.2
      vertex 8 -0.5 10.2
    endloop
  endfacet
  facet normal 0 0 -1
    outer loop
      vertex -1.5 -12 10.2
      vertex -1.5 4 10.2
      vertex -0.5 -2.1 10.2
    endloop
  endfacet
  facet normal 0 0 -1
    outer loop
      vertex -1.5 -12 10.2
      vertex -0.5 -2.1 10.2
      vertex 1.5 -12 10.2
    endloop
  endfacet
  facet normal 0 0 -1
    outer loop
      vertex 7 -0.5 10.2
      vertex 2.5 -0.1 10.2
      vertex -1.5 4 10.2
    endloop
  endfacet
  facet normal 0 0 -1
    outer loop
      vertex 8 2.5 10.2
      vertex 7 2.5 10.2
      vertex 16.5 4 10.2
    endloop
  endfacet
  facet normal 0 0 -1
    outer loop
      vertex 2.5 -2 10.2
      vertex 2.5 -0.1 10.2
      vertex 7 -0.5 10.2
    endloop
  endfacet
  facet normal 0 0 -1
    outer loop
      vertex 2.5 -2 10.2
      vertex 7 -0.5 10.2
      vertex 8 -0.5 10.2
    endloop
  endfacet
  facet normal 0 0 -1
    outer loop
      vertex 2.5 -2 10.2
      vertex 8 -0.5 10.2
      vertex 12.5 -0.1 10.2
    endloop
  endfacet
  facet normal 0 0 -1
    outer loop
      vertex 12.5 -0.1 10.2
      vertex 8 2.5 10.2
      vertex 16.5 4 10.2
    endloop
  endfacet
  facet normal 0 0 -1
    outer loop
      vertex 15.5 -2.1 10.2
      vertex 13.5 -12 10.2
      vertex 13.5 -2.1 10.2
    endloop
  endfacet
  facet normal 0 0 -1
    outer loop
      vertex 15.5 -0.1 10.2
      vertex 16.5 4 10.2
      vertex 15.5 -2.1 10.2
    endloop
  endfacet
  facet normal -1 2.22045e-16 0
    outer loop
      vertex -1.5 -12 10.2
      vertex -1.5 -12 12.2
      vertex -1.5 4 10.2
    endloop
  endfacet
  facet normal -1 2.22045e-16 0
    outer loop
      vertex -1.5 4 10.2
      vertex -1.5 -12 12.2
      vertex -1.5 4 12.2
    endloop
  endfacet
  facet normal 0 0 1
    outer loop
      vertex -1.5 4 12.2
      vertex -1.5 -12 12.2
      vertex 1.5 -12 12.2
    endloop
  endfacet
  facet normal 0 0 1
    outer loop
      vertex 7 -0.5 12.2
      vertex -1.5 4 12.2
      vertex 1.5 -2 12.2
    endloop
  endfacet
  facet normal 0 0 1
    outer loop
      vertex 1.5 -2 12.2
      vertex -1.5 4 12.2
      vertex 1.5 -12 12.2
    endloop
  endfacet
  facet normal 0 0 1
    outer loop
      vertex 16.5 -12 12.2
      vertex 13.5 -2 12.2
      vertex 13.5 -12 12.2
    endloop
  endfacet
  facet normal 0 0 1
    outer loop
      vertex 16.5 4 12.2
      vertex 13.5 -2 12.2
      vertex 16.5 -12 12.2
    endloop
  endfacet
  facet normal 0 0 1
    outer loop
      vertex 13.5 -2 12.2
      vertex 7 -0.5 12.2
      vertex 1.5 -2 12.2
    endloop
  endfacet
  facet normal 0 0 1
    outer loop
      vertex 16.5 4 12.2
      vertex -1.5 4 12.2
      vertex 7 2.5 12.2
    endloop
  endfacet
  facet normal 0 0 1
    outer loop
      vertex 16.5 4 12.2
      vertex 8 2.5 12.2
      vertex 13.5 -2 12.2
    endloop
  endfacet
  facet normal 0 0 1
    outer loop
      vertex 16.5 4 12.2
      vertex 7 2.5 12.2
      vertex 8 2.5 12.2
    endloop
  endfacet
  facet normal 0 0 1
    outer loop
      vertex 13.5 -2 12.2
      vertex 8 -0.5 12.2
      vertex 7 -0.5 12.2
    endloop
  endfacet
  facet normal 0 0 1
    outer loop
      vertex 8 2.5 12.2
      vertex 8 -0.5 12.2
      vertex 13.5 -2 12.2
    endloop
  endfacet
  facet normal 0 0 1
    outer loop
      vertex 7 -0.5 12.2
      vertex 7 2.5 12.2
      vertex -1.5 4 12.2
    endloop
  endfacet
  facet normal 1 -2.22045e-16 0
    outer loop
      vertex 1.5 -12 12.2
      vertex 1.5 -12 10.2
      vertex 1.5 -2.1 10.2
    endloop
  endfacet
  facet normal 1 -2.22045e-16 0
    outer loop
      vertex 1.5 -2 11.2
      vertex 1.5 -12 12.2
      vertex 1.5 -2.1 11.2
    endloop
  endfacet
  facet normal 1 -2.22045e-16 0
    outer loop
      vertex 1.5 -2.1 11.2
      vertex 1.5 -12 12.2
      vertex 1.5 -2.1 10.2
    endloop
  endfacet
  facet normal 1 -2.22045e-16 0
    outer loop
      vertex 1.5 -2 12.2
      vertex 1.5 -12 12.2
      vertex 1.5 -2 11.2
    endloop
  endfacet
  facet normal -2.22045e-16 -1 0
    outer loop
      vertex -0.5 -2.1 10.2
      vertex -0.5 -2.1 6.2
      vertex 2.5 -2.1 6.2
    endloop
  endfacet
  facet normal -2.22045e-16 -1 0
    outer loop
      vertex 1.5 -2.1 10.2
      vertex -0.5 -2.1 10.2
      vertex 2.5 -2.1 6.2
    endloop
  endfacet
  facet normal -2.22045e-16 -1 0
    outer loop
      vertex 2.5 -2.1 11.2
      vertex 1.5 -2.1 10.2
      vertex 2.5 -2.1 6.2
    endloop
  endfacet
  facet normal -2.22045e-16 -1 0
    outer loop
      vertex 1.5 -2.1 11.2
      vertex 1.5 -2.1 10.2
      vertex 2.5 -2.1 11.2
    endloop
  endfacet
  facet normal -1 2.22045e-16 0
    outer loop
      vertex -0.5 -2.1 6.2
      vertex -0.5 -2.1 10.2
      vertex -0.5 -0.1 6.2
    endloop
  endfacet
  facet normal -1 2.22045e-16 0
    outer loop
      vertex -0.5 -0.1 6.2
      vertex -0.5 -2.1 10.2
      vertex -0.5 -0.1 10.2
    endloop
  endfacet
  facet normal 2.22045e-16 1 0
    outer loop
      vertex -0.5 -0.1 6.2
      vertex -0.5 -0.1 10.2
      vertex 2.5 -0.1 6.2
    endloop
  endfacet
  facet normal 2.22045e-16 1 0
    outer loop
      vertex 2.5 -0.1 6.2
      vertex -0.5 -0.1 10.2
      vertex 2.5 -0.1 10.2
    endloop
  endfacet
  facet normal 1 -2.22045e-16 0
    outer loop
      vertex 2.5 -2 10.2
      vertex 2.5 -2.1 6.2
      vertex 2.5 -0.1 6.2
    endloop
  endfacet
  facet normal 1 -2.22045e-16 0
    outer loop
      vertex 2.5 -2 10.2
      vertex 2.5 -2 11.2
      vertex 2.5 -2.1 11.2
    endloop
  endfacet
  facet normal 1 -2.22045e-16 0
    outer loop
      vertex 2.5 -2.1 11.2
      vertex 2.5 -2.1 6.2
      vertex 2.5 -2 10.2
    endloop
  endfacet
  facet normal 1 -2.22045e-16 0
    outer loop
      vertex 2.5 -0.1 10.2
      vertex 2.5 -2 10.2
      vertex 2.5 -0.1 6.2
    endloop
  endfacet
  facet normal -2.22045e-16 -1 0
    outer loop
      vertex 12.5 -2 11.2
      vertex 13.5 -2 11.2
      vertex 1.5 -2 12.2
    endloop
  endfacet
  facet normal -2.22045e-16 -1 0
    outer loop
      vertex 1.5 -2 12.2
      vertex 1.5 -2 11.2
      vertex 2.5 -2 11.2
    endloop
  endfacet
  facet normal -2.22045e-16 -1 0
    outer loop
      vertex 12.5 -2 10.2
      vertex 1.5 -2 12.2
      vertex 2.5 -2 11.2
    endloop
  endfacet
  facet normal -2.22045e-16 -1 0
    outer loop
      vertex 2.5 -2 10.2
      vertex 12.5 -2 10.2
      vertex 2.5 -2 11.2
    endloop
  endfacet
  facet normal -2.22045e-16 -1 0
    outer loop
      vertex 12.5 -2 10.2
      vertex 12.5 -2 11.2
      vertex 1.5 -2 12.2
    endloop
  endfacet
  facet normal -2.22045e-16 -1 0
    outer loop
      vertex 13.5 -2 11.2
      vertex 13.5 -2 12.2
      vertex 1.5 -2 12.2
    endloop
  endfacet
  facet normal -1 2.22045e-16 0
    outer loop
      vertex 12.5 -0.1 10.2
      vertex 12.5 -0.1 6.2
      vertex 12.5 -2 10.2
    endloop
  endfacet
  facet normal -1 2.22045e-16 0
    outer loop
      vertex 12.5 -2.1 6.2
      vertex 12.5 -2.1 11.2
      vertex 12.5 -2 10.2
    endloop
  endfacet
  facet normal -1 2.22045e-16 0
    outer loop
      vertex 12.5 -2.1 6.2
      vertex 12.5 -2 10.2
      vertex 12.5 -0.1 6.2
    endloop
  endfacet
  facet normal -1 2.22045e-16 0
    outer loop
      vertex 12.5 -2 10.2
      vertex 12.5 -2.1 11.2
      vertex 12.5 -2 11.2
    endloop
  endfacet
  facet normal 2.22045e-16 1 0
    outer loop
      vertex 12.5 -0.1 6.2
      vertex 12.5 -0.1 10.2
      vertex 15.5 -0.1 6.2
    endloop
  endfacet
  facet normal 2.22045e-16 1 0
    outer loop
      vertex 15.5 -0.1 6.2
      vertex 12.5 -0.1 10.2
      vertex 15.5 -0.1 10.2
    endloop
  endfacet
  facet normal 1 -2.22045e-16 0
    outer loop
      vertex 15.5 -2.1 10.2
      vertex 15.5 -2.1 6.2
      vertex 15.5 -0.1 6.2
    endloop
  endfacet
  facet normal 1 -2.22045e-16 0
    outer loop
      vertex 15.5 -0.1 10.2
      vertex 15.5 -2.1 10.2
      vertex 15.5 -0.1 6.2
    endloop
  endfacet
  facet normal -2.22045e-16 -1 0
    outer loop
      vertex 12.5 -2.1 11.2
      vertex 12.5 -2.1 6.2
      vertex 15.5 -2.1 6.2
    endloop
  endfacet
  facet normal -2.22045e-16 -1 0
    outer loop
      vertex 13.5 -2.1 10.2
      vertex 12.5 -2.1 11.2
      vertex 15.5 -2.1 6.2
    endloop
  endfacet
  facet normal -2.22045e-16 -1 0
    outer loop
      vertex 15.5 -2.1 10.2
      vertex 13.5 -2.1 10.2
      vertex 15.5 -2.1 6.2
    endloop
  endfacet
  facet normal -2.22045e-16 -1 0
    outer loop
      vertex 13.5 -2.1 10.2
      vertex 13.5 -2.1 11.2
      vertex 12.5 -2.1 11.2
    endloop
  endfacet
  facet normal -1 2.22045e-16 0
    outer loop
      vertex 13.5 -12 10.2
      vertex 13.5 -12 12.2
      vertex 13.5 -2.1 10.2
    endloop
  endfacet
  facet normal -1 2.22045e-16 0
    outer loop
      vertex 13.5 -2.1 11.2
      vertex 13.5 -12 12.2
      vertex 13.5 -2 12.2
    endloop
  endfacet
  facet normal -1 2.22045e-16 0
    outer loop
      vertex 13.5 -2.1 10.2
      vertex 13.5 -12 12.2
      vertex 13.5 -2.1 11.2
    endloop
  endfacet
  facet normal -1 2.22045e-16 0
    outer loop
      vertex 13.5 -2.1 11.2
      vertex 13.5 -2 12.2
      vertex 13.5 -2 11.2
    endloop
  endfacet
  facet normal -2.22045e-16 -1 0
    outer loop
      vertex 13.5 -12 12.2
      vertex 13.5 -12 10.2
      vertex 16.5 -12 10.2
    endloop
  endfacet
  facet normal -2.22045e-16 -1 0
    outer loop
      vertex 16.5 -12 12.2
      vertex 13.5 -12 12.2
      vertex 16.5 -12 10.2
    endloop
  endfacet
  facet normal 1 -2.22045e-16 0
    outer loop
      vertex 16.5 -12 12.2
      vertex 16.5 -12 10.2
      vertex 16.5 4 10.2
    endloop
  endfacet
  facet normal 1 -2.22045e-16 0
    outer loop
      vertex 16.5 4 12.2
      vertex 16.5 -12 12.2
      vertex 16.5 4 10.2
    endloop
  endfacet
  facet normal 2.22045e-16 1 0
    outer loop
      vertex -1.5 4 10.2
      vertex -1.5 4 12.2
      vertex 16.5 4 10.2
    endloop
  endfacet
  facet normal 2.22045e-16 1 0
    outer loop
      vertex 16.5 4 10.2
      vertex -1.5 4 12.2
      vertex 16.5 4 12.2
    endloop
  endfacet
  facet normal 1 -2.22045e-16 0
    outer loop
      vertex 7 2.5 10.2
      vertex 7 2.5 12.2
      vertex 7 -0.5 12.2
    endloop
  endfacet
  facet normal 1 -2.22045e-16 0
    outer loop
      vertex 7 -0.5 10.2
      vertex 7 2.5 10.2
      vertex 7 -0.5 12.2
    endloop
  endfacet
  facet normal -2.22045e-16 -1 0
    outer loop
      vertex 8 2.5 10.2
      vertex 8 2.5 12.2
      vertex 7 2.5 12.2
    endloop
  endfacet
  facet normal -2.22045e-16 -1 0
    outer loop
      vertex 7 2.5 10.2
      vertex 8 2.5 10.2
      vertex 7 2.5 12.2
    endloop
  endfacet
  facet normal -1 2.22045e-16 0
    outer loop
      vertex 8 2.5 12.2
      vertex 8 2.5 10.2
      vertex 8 -0.5 12.2
    endloop
  endfacet
  facet normal -1 2.22045e-16 0
    outer loop
      vertex 8 -0.5 12.2
      vertex 8 2.5 10.2
      vertex 8 -0.5 10.2
    endloop
  endfacet
  facet normal 2.22045e-16 1 0
    outer loop
      vertex 8 -0.5 12.2
      vertex 8 -0.5 10.2
      vertex 7 -0.5 12.2
    endloop
  endfacet
  facet normal 2.22045e-16 1 0
    outer loop
      vertex 7 -0.5 12.2
      vertex 8 -0.5 10.2
      vertex 7 -0.5 10.2
    endloop
  endfacet
  facet normal 0 0 1
    outer loop
      vertex 1.5 -2 11.2
      vertex 1.5 -2.1 11.2
      vertex 2.5 -2.1 11.2
    endloop
  endfacet
  facet normal 0 0 1
    outer loop
      vertex 2.5 -2 11.2
      vertex 1.5 -2 11.2
      vertex 2.5 -2.1 11.2
    endloop
  endfacet
  facet normal 0 0 -1
    outer loop
      vertex -0.5 -2.1 6.2
      vertex -0.5 -0.1 6.2
      vertex 2.5 -2.1 6.2
    endloop
  endfacet
  facet normal 0 0 -1
    outer loop
      vertex 2.5 -2.1 6.2
      vertex -0.5 -0.1 6.2
      vertex 2.5 -0.1 6.2
    endloop
  endfacet
  facet normal 0 0 1
    outer loop
      vertex 12.5 -2 11.2
      vertex 12.5 -2.1 11.2
      vertex 13.5 -2.1 11.2
    endloop
  endfacet
  facet normal 0 0 1
    outer loop
      vertex 13.5 -2 11.2
      vertex 12.5 -2 11.2
      vertex 13.5 -2.1 11.2
    endloop
  endfacet
  facet normal 0 0 -1
    outer loop
      vertex 12.5 -2.1 6.2
      vertex 12.5 -0.1 6.2
      vertex 15.5 -2.1 6.2
    endloop
  endfacet
  facet normal 0 0 -1
    outer loop
      vertex 15.5 -2.1 6.2
      vertex 12.5 -0.1 6.2
      vertex 15.5 -0.1 6.2
    endloop
  endfacet
  facet normal 0 0 -1
    outer loop
      vertex -1.4 -1 0
      vertex -1.38042 -0.876393 0
      vertex -1.38042 -1.12361 0
    endloop
  endfacet
  facet normal 0 0 -1
    outer loop
      vertex -1.38042 -1.12361 0
      vertex -1.38042 -0.876393 0
      vertex -1.32361 -0.764886 0
    endloop
  endfacet
  facet normal 0 0 -1
    outer loop
      vertex -1.38042 -1.12361 0
      vertex -1.32361 -0.764886 0
      vertex -1.23511 -0.676393 0
    endloop
  endfacet
  facet normal 0 0 -1
    outer loop
      vertex -1.38042 -1.12361 0
      vertex -1.23511 -0.676393 0
      vertex -1.12361 -0.619577 0
    endloop
  endfacet
  facet normal 0 0 -1
    outer loop
      vertex -1.38042 -1.12361 0
      vertex -1.12361 -0.619577 0
      vertex -1 -0.6 0
    endloop
  endfacet
  facet normal 0 0 -1
    outer loop
      vertex -1.38042 -1.12361 0
      vertex -1 -0.6 0
      vertex -0.876393 -0.619577 0
    endloop
  endfacet
  facet normal 0 0 -1
    outer loop
      vertex -1.38042 -1.12361 0
      vertex -0.876393 -0.619577 0
      vertex -0.764886 -0.676393 0
    endloop
  endfacet
  facet normal 0 0 -1
    outer loop
      vertex -1.38042 -1.12361 0
      vertex -0.764886 -0.676393 0
      vertex -0.676393 -0.764886 0
    endloop
  endfacet
  facet normal 0 0 -1
    outer loop
      vertex -1.38042 -1.12361 0
      vertex -0.676393 -0.764886 0
      vertex -0.619577 -0.876393 0
    endloop
  endfacet
  facet normal 0 0 -1
    outer loop
      vertex -1.38042 -1.12361 0
      vertex -0.619577 -0.876393 0
      vertex -0.6 -1 0
    endloop
  endfacet
  facet normal 0 0 -1
    outer loop
      vertex -1.38042 -1.12361 0
      vertex -0.6 -1 0
      vertex -0.619577 -1.12361 0
    endloop
  endfacet
  facet normal 0 0 -1
    outer loop
      vertex -1.38042 -1.12361 0
      vertex -0.619577 -1.12361 0
      vertex -0.676393 -1.23511 0
    endloop
  endfacet
  facet normal 0 0 -1
    outer loop
      vertex -1.38042 -1.12361 0
      vertex -0.676393 -1.23511 0
      vertex -0.764886 -1.32361 0
    endloop
  endfacet
  facet normal 0 0 -1
    outer loop
      vertex -1.38042 -1.12361 0
      vertex -0.764886 -1.32361 0
      vertex -0.876393 -1.38042 0
    endloop
  endfacet
  facet normal 0 0 -1
    outer loop
      vertex -1.38042 -1.12361 0
      vertex -0.876393 -1.38042 0
      vertex -1 -1.4 0
    endloop
  endfacet
  facet normal 0 0 -1
    outer loop
      vertex -1.38042 -1.12361 0
      vertex -1 -1.4 0
      vertex -1.12361 -1.38042 0
    endloop
  endfacet
  facet normal 0 0 -1
    outer loop
      vertex -1.38042 -1.12361 0
      vertex -1.12361 -1.38042 0
      vertex -1.23511 -1.32361 0
    endloop
  endfacet
  facet normal 0 0 -1
    outer loop
      vertex -1.38042 -1.12361 0
      vertex -1.23511 -1.32361 0
      vertex -1.32361 -1.23511 0
    endloop
  endfacet
  facet normal -0.987689 0.156431 0
    outer loop
      vertex -1.4 -1 0
      vertex -1.4 -1 5
      vertex -1.38042 -0.876393 0
    endloop
  endfacet
  facet normal -0.987689 0.156431 0
    outer loop
      vertex -1.38042 -0.876393 0
      vertex -1.4 -1 5
      vertex -1.38042 -0.876393 5
    endloop
  endfacet
  facet normal -0.987689 -0.156431 0
    outer loop
      vertex -1.4 -1 0
      vertex -1.38042 -1.12361 0
      vertex -1.4 -1 5
    endloop
  endfacet
  facet normal -0.987689 -0.156431 0
    outer loop
      vertex -1.4 -1 5
      vertex -1.38042 -1.12361 0
      vertex -1.38042 -1.12361 5
    endloop
  endfacet
  facet normal -0.891005 -0.453993 0
    outer loop
      vertex -1.38042 -1.12361 0
      vertex -1.32361 -1.23511 0
      vertex -1.38042 -1.12361 5
    endloop
  endfacet
  facet normal -0.891005 -0.453993 0
    outer loop
      vertex -1.38042 -1.12361 5
      vertex -1.32361 -1.23511 0
      vertex -1.32361 -1.23511 5
    endloop
  endfacet
  facet normal -0.707107 -0.707107 0
    outer loop
      vertex -1.32361 -1.23511 5
      vertex -1.32361 -1.23511 0
      vertex -1.23511 -1.32361 0
    endloop
  endfacet
  facet normal -0.707107 -0.707107 0
    outer loop
      vertex -1.23511 -1.32361 5
      vertex -1.32361 -1.23511 5
      vertex -1.23511 -1.32361 0
    endloop
  endfacet
  facet normal -0.453993 -0.891005 0
    outer loop
      vertex -1.23511 -1.32361 5
      vertex -1.23511 -1.32361 0
      vertex -1.12361 -1.38042 0
    endloop
  endfacet
  facet normal -0.453993 -0.891005 0
    outer loop
      vertex -1.12361 -1.38042 5
      vertex -1.23511 -1.32361 5
      vertex -1.12361 -1.38042 0
    endloop
  endfacet
  facet normal -0.156431 -0.987689 0
    outer loop
      vertex -1.12361 -1.38042 5
      vertex -1.12361 -1.38042 0
      vertex -1 -1.4 0
    endloop
  endfacet
  facet normal -0.156431 -0.987689 0
    outer loop
      vertex -1 -1.4 5
      vertex -1.12361 -1.38042 5
      vertex -1 -1.4 0
    endloop
  endfacet
  facet normal 0.156431 -0.987689 0
    outer loop
      vertex -1 -1.4 5
      vertex -1 -1.4 0
      vertex -0.876393 -1.38042 0
    endloop
  endfacet
  facet normal 0.156431 -0.987689 0
    outer loop
      vertex -0.876393 -1.38042 5
      vertex -1 -1.4 5
      vertex -0.876393 -1.38042 0
    endloop
  endfacet
  facet normal 0.453993 -0.891005 0
    outer loop
      vertex -0.876393 -1.38042 5
      vertex -0.876393 -1.38042 0
      vertex -0.764886 -1.32361 0
    endloop
  endfacet
  facet normal 0.453993 -0.891005 0
    outer loop
      vertex -0.764886 -1.32361 5
      vertex -0.876393 -1.38042 5
      vertex -0.764886 -1.32361 0
    endloop
  endfacet
  facet normal 0.707107 -0.707107 0
    outer loop
      vertex -0.764886 -1.32361 5
      vertex -0.764886 -1.32361 0
      vertex -0.676393 -1.23511 0
    endloop
  endfacet
  facet normal 0.707107 -0.707107 0
    outer loop
      vertex -0.676393 -1.23511 5
      vertex -0.764886 -1.32361 5
      vertex -0.676393 -1.23511 0
    endloop
  endfacet
  facet normal 0.891005 -0.453993 0
    outer loop
      vertex -0.676393 -1.23511 5
      vertex -0.676393 -1.23511 0
      vertex -0.619577 -1.12361 0
    endloop
  endfacet
  facet normal 0.891005 -0.453993 0
    outer loop
      vertex -0.619577 -1.12361 5
      vertex -0.676393 -1.23511 5
      vertex -0.619577 -1.12361 0
    endloop
  endfacet
  facet normal 0.987689 -0.156431 0
    outer loop
      vertex -0.619577 -1.12361 5
      vertex -0.619577 -1.12361 0
      vertex -0.6 -1 0
    endloop
  endfacet
  facet normal 0.987689 -0.156431 0
    outer loop
      vertex -0.6 -1 5
      vertex -0.619577 -1.12361 5
      vertex -0.6 -1 0
    endloop
  endfacet
  facet normal 0.987689 0.156431 0
    outer loop
      vertex -0.6 -1 0
      vertex -0.619577 -0.876393 0
      vertex -0.619577 -0.876393 5
    endloop
  endfacet
  facet normal 0.987689 0.156431 0
    outer loop
      vertex -0.6 -1 5
      vertex -0.6 -1 0
      vertex -0.619577 -0.876393 5
    endloop
  endfacet
  facet normal 0.891005 0.453993 0
    outer loop
      vertex -0.619577 -0.876393 0
      vertex -0.676393 -0.764886 0
      vertex -0.676393 -0.764886 5
    endloop
  endfacet
  facet normal 0.891005 0.453993 0
    outer loop
      vertex -0.619577 -0.876393 5
      vertex -0.619577 -0.876393 0
      vertex -0.676393 -0.764886 5
    endloop
  endfacet
  facet normal 0.707107 0.707107 0
    outer loop
      vertex -0.764886 -0.676393 0
      vertex -0.764886 -0.676393 5
      vertex -0.676393 -0.764886 0
    endloop
  endfacet
  facet normal 0.707107 0.707107 0
    outer loop
      vertex -0.676393 -0.764886 0
      vertex -0.764886 -0.676393 5
      vertex -0.676393 -0.764886 5
    endloop
  endfacet
  facet normal 0.453993 0.891005 0
    outer loop
      vertex -0.876393 -0.619577 0
      vertex -0.876393 -0.619577 5
      vertex -0.764886 -0.676393 0
    endloop
  endfacet
  facet normal 0.453993 0.891005 0
    outer loop
      vertex -0.764886 -0.676393 0
      vertex -0.876393 -0.619577 5
      vertex -0.764886 -0.676393 5
    endloop
  endfacet
  facet normal 0.156431 0.987689 0
    outer loop
      vertex -1 -0.6 0
      vertex -1 -0.6 5
      vertex -0.876393 -0.619577 0
    endloop
  endfacet
  facet normal 0.156431 0.987689 0
    outer loop
      vertex -0.876393 -0.619577 0
      vertex -1 -0.6 5
      vertex -0.876393 -0.619577 5
    endloop
  endfacet
  facet normal -0.156431 0.987689 0
    outer loop
      vertex -1.12361 -0.619577 0
      vertex -1.12361 -0.619577 5
      vertex -1 -0.6 0
    endloop
  endfacet
  facet normal -0.156431 0.987689 0
    outer loop
      vertex -1 -0.6 0
      vertex -1.12361 -0.619577 5
      vertex -1 -0.6 5
    endloop
  endfacet
  facet normal -0.453993 0.891005 0
    outer loop
      vertex -1.23511 -0.676393 0
      vertex -1.23511 -0.676393 5
      vertex -1.12361 -0.619577 0
    endloop
  endfacet
  facet normal -0.453993 0.891005 0
    outer loop
      vertex -1.12361 -0.619577 0
      vertex -1.23511 -0.676393 5
      vertex -1.12361 -0.619577 5
    endloop
  endfacet
  facet normal -0.707107 0.707107 0
    outer loop
      vertex -1.32361 -0.764886 0
      vertex -1.32361 -0.764886 5
      vertex -1.23511 -0.676393 0
    endloop
  endfacet
  facet normal -0.707107 0.707107 0
    outer loop
      vertex -1.23511 -0.676393 0
      vertex -1.32361 -0.764886 5
      vertex -1.23511 -0.676393 5
    endloop
  endfacet
  facet normal -0.891005 0.453993 0
    outer loop
      vertex -1.38042 -0.876393 0
      vertex -1.38042 -0.876393 5
      vertex -1.32361 -0.764886 0
    endloop
  endfacet
  facet normal -0.891005 0.453993 0
    outer loop
      vertex -1.32361 -0.764886 0
      vertex -1.38042 -0.876393 5
      vertex -1.32361 -0.764886 5
    endloop
  endfacet
  facet normal 0 0 1
    outer loop
      vertex -1.38042 -0.876393 5
      vertex -1.4 -1 5
      vertex -1.38042 -1.12361 5
    endloop
  endfacet
  facet normal 0 0 1
    outer loop
      vertex -1.23511 -1.32361 5
      vertex -1.38042 -0.876393 5
      vertex -1.32361 -1.23511 5
    endloop
  endfacet
  facet normal 0 0 1
    outer loop
      vertex -1.32361 -1.23511 5
      vertex -1.38042 -0.876393 5
      vertex -1.38042 -1.12361 5
    endloop
  endfacet
  facet normal 0 0 1
    outer loop
      vertex -1.12361 -1.38042 5
      vertex -1.38042 -0.876393 5
      vertex -1.23511 -1.32361 5
    endloop
  endfacet
  facet normal 0 0 1
    outer loop
      vertex -1 -1.4 5
      vertex -1.38042 -0.876393 5
      vertex -1.12361 -1.38042 5
    endloop
  endfacet
  facet normal 0 0 1
    outer loop
      vertex -0.876393 -1.38042 5
      vertex -1.38042 -0.876393 5
      vertex -1 -1.4 5
    endloop
  endfacet
  facet normal 0 0 1
    outer loop
      vertex -0.764886 -1.32361 5
      vertex -1.38042 -0.876393 5
      vertex -0.876393 -1.38042 5
    endloop
  endfacet
  facet normal 0 0 1
    outer loop
      vertex -0.676393 -1.23511 5
      vertex -1.38042 -0.876393 5
      vertex -0.764886 -1.32361 5
    endloop
  endfacet
  facet normal 0 0 1
    outer loop
      vertex -0.619577 -1.12361 5
      vertex -1.38042 -0.876393 5
      vertex -0.676393 -1.23511 5
    endloop
  endfacet
  facet normal 0 0 1
    outer loop
      vertex -0.6 -1 5
      vertex -1.38042 -0.876393 5
      vertex -0.619577 -1.12361 5
    endloop
  endfacet
  facet normal 0 0 1
    outer loop
      vertex -0.619577 -0.876393 5
      vertex -1.38042 -0.876393 5
      vertex -0.6 -1 5
    endloop
  endfacet
  facet normal 0 0 1
    outer loop
      vertex -0.676393 -0.764886 5
      vertex -1.38042 -0.876393 5
      vertex -0.619577 -0.876393 5
    endloop
  endfacet
  facet normal 0 0 1
    outer loop
      vertex -0.764886 -0.676393 5
      vertex -1.38042 -0.876393 5
      vertex -0.676393 -0.764886 5
    endloop
  endfacet
  facet normal 0 0 1
    outer loop
      vertex -0.876393 -0.619577 5
      vertex -1.38042 -0.876393 5
      vertex -0.764886 -0.676393 5
    endloop
  endfacet
  facet normal 0 0 1
    outer loop
      vertex -1 -0.6 5
      vertex -1.38042 -0.876393 5
      vertex -0.876393 -0.619577 5
    endloop
  endfacet
  facet normal 0 0 1
    outer loop
      vertex -1.12361 -0.619577 5
      vertex -1.38042 -0.876393 5
      vertex -1 -0.6 5
    endloop
  endfacet
  facet normal 0 0 1
    outer loop
      vertex -1.23511 -0.676393 5
      vertex -1.38042 -0.876393 5
      vertex -1.12361 -0.619577 5
    endloop
  endfacet
  facet normal 0 0 1
    outer loop
      vertex -1.32361 -0.764886 5
      vertex -1.38042 -0.876393 5
      vertex -1.23511 -0.676393 5
    endloop
  endfacet
endsolid OpenSCAD_Model
