solid OpenSCAD_Model
  facet normal 0 0 -1
    outer loop
      vertex -1.57063 -0.81459 0
      vertex -1.48541 -0.647329 0
      vertex -1.6 -1 0
    endloop
  endfacet
  facet normal 0 0 -1
    outer loop
      vertex -1.6 -1 0
      vertex -1.48541 -0.647329 0
      vertex -1.35267 -0.51459 0
    endloop
  endfacet
  facet normal 0 0 -1
    outer loop
      vertex -1.6 -1 0
      vertex -1.35267 -0.51459 0
      vertex -1.18541 -0.429366 0
    endloop
  endfacet
  facet normal 0 0 -1
    outer loop
      vertex -1.6 -1 0
      vertex -1.18541 -0.429366 0
      vertex -1 -0.4 0
    endloop
  endfacet
  facet normal 0 0 -1
    outer loop
      vertex -1.6 -1 0
      vertex -1 -0.4 0
      vertex -0.81459 -0.429366 0
    endloop
  endfacet
  facet normal 0 0 -1
    outer loop
      vertex -1.6 -1 0
      vertex -0.81459 -0.429366 0
      vertex -0.647329 -0.51459 0
    endloop
  endfacet
  facet normal 0 0 -1
    outer loop
      vertex -1.6 -1 0
      vertex -0.647329 -0.51459 0
      vertex -0.51459 -0.647329 0
    endloop
  endfacet
  facet normal 0 0 -1
    outer loop
      vertex -1.6 -1 0
      vertex -0.51459 -0.647329 0
      vertex -0.429366 -0.81459 0
    endloop
  endfacet
  facet normal 0 0 -1
    outer loop
      vertex -1.6 -1 0
      vertex -0.429366 -0.81459 0
      vertex -0.4 -1 0
    endloop
  endfacet
  facet normal 0 0 -1
    outer loop
      vertex -1.6 -1 0
      vertex -0.4 -1 0
      vertex -0.429366 -1.18541 0
    endloop
  endfacet
  facet normal 0 0 -1
    outer loop
      vertex -1.6 -1 0
      vertex -0.429366 -1.18541 0
      vertex -0.51459 -1.35267 0
    endloop
  endfacet
  facet normal 0 0 -1
    outer loop
      vertex -1.6 -1 0
      vertex -0.51459 -1.35267 0
      vertex -0.647329 -1.48541 0
    endloop
  endfacet
  facet normal 0 0 -1
    outer loop
      vertex -1.6 -1 0
      vertex -0.647329 -1.48541 0
      vertex -0.81459 -1.57063 0
    endloop
  endfacet
  facet normal 0 0 -1
    outer loop
      vertex -1.6 -1 0
      vertex -0.81459 -1.57063 0
      vertex -1 -1.6 0
    endloop
  endfacet
  facet normal 0 0 -1
    outer loop
      vertex -1.6 -1 0
      vertex -1 -1.6 0
      vertex -1.18541 -1.57063 0
    endloop
  endfacet
  facet normal 0 0 -1
    outer loop
      vertex -1.6 -1 0
      vertex -1.18541 -1.57063 0
      vertex -1.35267 -1.48541 0
    endloop
  endfacet
  facet normal 0 0 -1
    outer loop
      vertex -1.6 -1 0
      vertex -1.35267 -1.48541 0
      vertex -1.48541 -1.35267 0
    endloop
  endfacet
  facet normal 0 0 -1
    outer loop
      vertex -1.6 -1 0
      vertex -1.48541 -1.35267 0
      vertex -1.57063 -1.18541 0
    endloop
  endfacet
  facet normal 0.987688 0.156434 0
    outer loop
      vertex -0.429366 -0.81459 0
      vertex -0.429366 -0.81459 5
      vertex -0.4 -1 5
    endloop
  endfacet
  facet normal 0.987688 0.156434 0
    outer loop
      vertex -0.4 -1 0
      vertex -0.429366 -0.81459 0
      vertex -0.4 -1 5
    endloop
  endfacet
  facet normal 0.891006 0.453992 0
    outer loop
      vertex -0.51459 -0.647329 0
      vertex -0.51459 -0.647329 5
      vertex -0.429366 -0.81459 5
    endloop
  endfacet
  facet normal 0.891006 0.453992 0
    outer loop
      vertex -0.429366 -0.81459 0
      vertex -0.51459 -0.647329 0
      vertex -0.429366 -0.81459 5
    endloop
  endfacet
  facet normal -0.987688 0.156434 0
    outer loop
      vertex -1.6 -1 5
      vertex -1.57063 -0.81459 5
      vertex -1.6 -1 0
    endloop
  endfacet
  facet normal -0.987688 0.156434 0
    outer loop
      vertex -1.6 -1 0
      vertex -1.57063 -0.81459 5
      vertex -1.57063 -0.81459 0
    endloop
  endfacet
  facet normal -0.987688 -0.156434 0
    outer loop
      vertex -1.57063 -1.18541 0
      vertex -1.57063 -1.18541 5
      vertex -1.6 -1 0
    endloop
  endfacet
  facet normal -0.987688 -0.156434 0
    outer loop
      vertex -1.6 -1 0
      vertex -1.57063 -1.18541 5
      vertex -1.6 -1 5
    endloop
  endfacet
  facet normal -0.891006 -0.453992 0
    outer loop
      vertex -1.48541 -1.35267 0
      vertex -1.48541 -1.35267 5
      vertex -1.57063 -1.18541 0
    endloop
  endfacet
  facet normal -0.891006 -0.453992 0
    outer loop
      vertex -1.57063 -1.18541 0
      vertex -1.48541 -1.35267 5
      vertex -1.57063 -1.18541 5
    endloop
  endfacet
  facet normal -0.707107 -0.707107 0
    outer loop
      vertex -1.48541 -1.35267 0
      vertex -1.35267 -1.48541 0
      vertex -1.35267 -1.48541 5
    endloop
  endfacet
  facet normal -0.707107 -0.707107 0
    outer loop
      vertex -1.48541 -1.35267 5
      vertex -1.48541 -1.35267 0
      vertex -1.35267 -1.48541 5
    endloop
  endfacet
  facet normal -0.453992 -0.891006 0
    outer loop
      vertex -1.35267 -1.48541 0
      vertex -1.18541 -1.57063 0
      vertex -1.18541 -1.57063 5
    endloop
  endfacet
  facet normal -0.453992 -0.891006 0
    outer loop
      vertex -1.35267 -1.48541 5
      vertex -1.35267 -1.48541 0
      vertex -1.18541 -1.57063 5
    endloop
  endfacet
  facet normal -0.156434 -0.987688 0
    outer loop
      vertex -1.18541 -1.57063 0
      vertex -1 -1.6 0
      vertex -1 -1.6 5
    endloop
  endfacet
  facet normal -0.156434 -0.987688 0
    outer loop
      vertex -1.18541 -1.57063 5
      vertex -1.18541 -1.57063 0
      vertex -1 -1.6 5
    endloop
  endfacet
  facet normal 0.156434 -0.987688 0
    outer loop
      vertex -1 -1.6 0
      vertex -0.81459 -1.57063 0
      vertex -0.81459 -1.57063 5
    endloop
  endfacet
  facet normal 0.156434 -0.987688 0
    outer loop
      vertex -1 -1.6 5
      vertex -1 -1.6 0
      vertex -0.81459 -1.57063 5
    endloop
  endfacet
  facet normal 0.453992 -0.891006 0
    outer loop
      vertex -0.81459 -1.57063 0
      vertex -0.647329 -1.48541 0
      vertex -0.647329 -1.48541 5
    endloop
  endfacet
  facet normal 0.453992 -0.891006 0
    outer loop
      vertex -0.81459 -1.57063 5
      vertex -0.81459 -1.57063 0
      vertex -0.647329 -1.48541 5
    endloop
  endfacet
  facet normal 0.707107 -0.707107 0
    outer loop
      vertex -0.647329 -1.48541 0
      vertex -0.51459 -1.35267 0
      vertex -0.51459 -1.35267 5
    endloop
  endfacet
  facet normal 0.707107 -0.707107 0
    outer loop
      vertex -0.647329 -1.48541 5
      vertex -0.647329 -1.48541 0
      vertex -0.51459 -1.35267 5
    endloop
  endfacet
  facet normal 0.891006 -0.453992 0
    outer loop
      vertex -0.51459 -1.35267 0
      vertex -0.429366 -1.18541 0
      vertex -0.429366 -1.18541 5
    endloop
  endfacet
  facet normal 0.891006 -0.453992 0
    outer loop
      vertex -0.51459 -1.35267 5
      vertex -0.51459 -1.35267 0
      vertex -0.429366 -1.18541 5
    endloop
  endfacet
  facet normal 0.987688 -0.156434 0
    outer loop
      vertex -0.429366 -1.18541 0
      vertex -0.4 -1 0
      vertex -0.4 -1 5
    endloop
  endfacet
  facet normal 0.987688 -0.156434 0
    outer loop
      vertex -0.429366 -1.18541 5
      vertex -0.429366 -1.18541 0
      vertex -0.4 -1 5
    endloop
  endfacet
  facet normal 0.707107 0.707107 0
    outer loop
      vertex -0.647329 -0.51459 5
      vertex -0.51459 -0.647329 5
      vertex -0.647329 -0.51459 0
    endloop
  endfacet
  facet normal 0.707107 0.707107 0
    outer loop
      vertex -0.647329 -0.51459 0
      vertex -0.51459 -0.647329 5
      vertex -0.51459 -0.647329 0
    endloop
  endfacet
  facet normal 0.453992 0.891006 0
    outer loop
      vertex -0.81459 -0.429366 5
      vertex -0.647329 -0.51459 5
      vertex -0.81459 -0.429366 0
    endloop
  endfacet
  facet normal 0.453992 0.891006 0
    outer loop
      vertex -0.81459 -0.429366 0
      vertex -0.647329 -0.51459 5
      vertex -0.647329 -0.51459 0
    endloop
  endfacet
  facet normal 0.156434 0.987688 0
    outer loop
      vertex -1 -0.4 5
      vertex -0.81459 -0.429366 5
      vertex -1 -0.4 0
    endloop
  endfacet
  facet normal 0.156434 0.987688 0
    outer loop
      vertex -1 -0.4 0
      vertex -0.81459 -0.429366 5
      vertex -0.81459 -0.429366 0
    endloop
  endfacet
  facet normal -0.156434 0.987688 0
    outer loop
      vertex -1.18541 -0.429366 5
      vertex -1 -0.4 5
      vertex -1.18541 -0.429366 0
    endloop
  endfacet
  facet normal -0.156434 0.987688 0
    outer loop
      vertex -1.18541 -0.429366 0
      vertex -1 -0.4 5
      vertex -1 -0.4 0
    endloop
  endfacet
  facet normal -0.453992 0.891006 0
    outer loop
      vertex -1.35267 -0.51459 5
      vertex -1.18541 -0.429366 5
      vertex -1.35267 -0.51459 0
    endloop
  endfacet
  facet normal -0.453992 0.891006 0
    outer loop
      vertex -1.35267 -0.51459 0
      vertex -1.18541 -0.429366 5
      vertex -1.18541 -0.429366 0
    endloop
  endfacet
  facet normal -0.707107 0.707107 0
    outer loop
      vertex -1.48541 -0.647329 5
      vertex -1.35267 -0.51459 5
      vertex -1.48541 -0.647329 0
    endloop
  endfacet
  facet normal -0.707107 0.707107 0
    outer loop
      vertex -1.48541 -0.647329 0
      vertex -1.35267 -0.51459 5
      vertex -1.35267 -0.51459 0
    endloop
  endfacet
  facet normal -0.891006 0.453992 0
    outer loop
      vertex -1.57063 -0.81459 5
      vertex -1.48541 -0.647329 5
      vertex -1.57063 -0.81459 0
    endloop
  endfacet
  facet normal -0.891006 0.453992 0
    outer loop
      vertex -1.57063 -0.81459 0
      vertex -1.48541 -0.647329 5
      vertex -1.48541 -0.647329 0
    endloop
  endfacet
  facet normal 0 0 1
    outer loop
      vertex -1.6 -1 5
      vertex -1.57063 -1.18541 5
      vertex -1.48541 -1.35267 5
    endloop
  endfacet
  facet normal 0 0 1
    outer loop
      vertex -1.18541 -1.57063 5
      vertex -1.6 -1 5
      vertex -1.35267 -1.48541 5
    endloop
  endfacet
  facet normal 0 0 1
    outer loop
      vertex -1.35267 -1.48541 5
      vertex -1.6 -1 5
      vertex -1.48541 -1.35267 5
    endloop
  endfacet
  facet normal 0 0 1
    outer loop
      vertex -1 -1.6 5
      vertex -1.6 -1 5
      vertex -1.18541 -1.57063 5
    endloop
  endfacet
  facet normal 0 0 1
    outer loop
      vertex -0.81459 -1.57063 5
      vertex -1.6 -1 5
      vertex -1 -1.6 5
    endloop
  endfacet
  facet normal 0 0 1
    outer loop
      vertex -0.647329 -1.48541 5
      vertex -1.6 -1 5
      vertex -0.81459 -1.57063 5
    endloop
  endfacet
  facet normal 0 0 1
    outer loop
      vertex -0.51459 -1.35267 5
      vertex -1.6 -1 5
      vertex -0.647329 -1.48541 5
    endloop
  endfacet
  facet normal 0 0 1
    outer loop
      vertex -0.429366 -1.18541 5
      vertex -1.6 -1 5
      vertex -0.51459 -1.35267 5
    endloop
  endfacet
  facet normal 0 0 1
    outer loop
      vertex -0.4 -1 5
      vertex -1.6 -1 5
      vertex -0.429366 -1.18541 5
    endloop
  endfacet
  facet normal 0 0 1
    outer loop
      vertex -0.429366 -0.81459 5
      vertex -1.6 -1 5
      vertex -0.4 -1 5
    endloop
  endfacet
  facet normal 0 0 1
    outer loop
      vertex -0.51459 -0.647329 5
      vertex -1.6 -1 5
      vertex -0.429366 -0.81459 5
    endloop
  endfacet
  facet normal 0 0 1
    outer loop
      vertex -0.647329 -0.51459 5
      vertex -1.6 -1 5
      vertex -0.51459 -0.647329 5
    endloop
  endfacet
  facet normal 0 0 1
    outer loop
      vertex -0.81459 -0.429366 5
      vertex -1.6 -1 5
      vertex -0.647329 -0.51459 5
    endloop
  endfacet
  facet normal 0 0 1
    outer loop
      vertex -1 -0.4 5
      vertex -1.6 -1 5
      vertex -0.81459 -0.429366 5
    endloop
  endfacet
  facet normal 0 0 1
    outer loop
      vertex -1.18541 -0.429366 5
      vertex -1.6 -1 5
      vertex -1 -0.4 5
    endloop
  endfacet
  facet normal 0 0 1
    outer loop
      vertex -1.35267 -0.51459 5
      vertex -1.6 -1 5
      vertex -1.18541 -0.429366 5
    endloop
  endfacet
  facet normal 0 0 1
    outer loop
      vertex -1.48541 -0.647329 5
      vertex -1.6 -1 5
      vertex -1.35267 -0.51459 5
    endloop
  endfacet
  facet normal 0 0 1
    outer loop
      vertex -1.57063 -0.81459 5
      vertex -1.6 -1 5
      vertex -1.48541 -0.647329 5
    endloop
  endfacet
endsolid OpenSCAD_Model
