solid OpenSCAD_Model
  facet normal 0 0 -1
    outer loop
      vertex -9.3 0 0
      vertex -9.09677 1.93358 0
      vertex -9.09677 -1.93358 0
    endloop
  endfacet
  facet normal 0 0 -1
    outer loop
      vertex -9.09677 -1.93358 0
      vertex -9.09677 1.93358 0
      vertex -8.49597 3.78265 0
    endloop
  endfacet
  facet normal 0 0 -1
    outer loop
      vertex -9.09677 -1.93358 0
      vertex -8.49597 3.78265 0
      vertex -7.52386 5.4664 0
    endloop
  endfacet
  facet normal 0 0 -1
    outer loop
      vertex -9.09677 -1.93358 0
      vertex -7.52386 5.4664 0
      vertex -6.22291 6.91125 0
    endloop
  endfacet
  facet normal 0 0 -1
    outer loop
      vertex -9.09677 -1.93358 0
      vertex -6.22291 6.91125 0
      vertex -4.65 8.05404 0
    endloop
  endfacet
  facet normal 0 0 -1
    outer loop
      vertex -9.09677 -1.93358 0
      vertex -4.65 8.05404 0
      vertex -2.87386 8.84483 0
    endloop
  endfacet
  facet normal 0 0 -1
    outer loop
      vertex -9.09677 -1.93358 0
      vertex -2.87386 8.84483 0
      vertex -0.972115 9.24905 0
    endloop
  endfacet
  facet normal 0 0 -1
    outer loop
      vertex -9.09677 -1.93358 0
      vertex -0.972115 9.24905 0
      vertex 0.972115 9.24905 0
    endloop
  endfacet
  facet normal 0 0 -1
    outer loop
      vertex -9.09677 -1.93358 0
      vertex 0.972115 9.24905 0
      vertex 2.87386 8.84483 0
    endloop
  endfacet
  facet normal 0 0 -1
    outer loop
      vertex -9.09677 -1.93358 0
      vertex 2.87386 8.84483 0
      vertex 4.65 8.05404 0
    endloop
  endfacet
  facet normal 0 0 -1
    outer loop
      vertex -0.957953 2.94827 0
      vertex 4.65 8.05404 0
      vertex 6.22291 6.91125 0
    endloop
  endfacet
  facet normal 0 0 -1
    outer loop
      vertex 0.957953 2.94827 0
      vertex 6.22291 6.91125 0
      vertex 7.52386 5.4664 0
    endloop
  endfacet
  facet normal 0 0 -1
    outer loop
      vertex 2.50795 1.82213 0
      vertex 8.49597 3.78265 0
      vertex 9.09677 1.93358 0
    endloop
  endfacet
  facet normal 0 0 -1
    outer loop
      vertex 3.1 0 0
      vertex 9.09677 1.93358 0
      vertex 9.3 0 0
    endloop
  endfacet
  facet normal 0 0 -1
    outer loop
      vertex 2.50795 -1.82213 0
      vertex 9.3 0 0
      vertex 9.09677 -1.93358 0
    endloop
  endfacet
  facet normal 0 0 -1
    outer loop
      vertex 0.957953 -2.94827 0
      vertex 9.09677 -1.93358 0
      vertex 8.49597 -3.78265 0
    endloop
  endfacet
  facet normal 0 0 -1
    outer loop
      vertex -0.957953 -2.94827 0
      vertex 8.49597 -3.78265 0
      vertex 7.52386 -5.4664 0
    endloop
  endfacet
  facet normal 0 0 -1
    outer loop
      vertex -9.09677 -1.93358 0
      vertex 7.52386 -5.4664 0
      vertex 6.22291 -6.91125 0
    endloop
  endfacet
  facet normal 0 0 -1
    outer loop
      vertex -9.09677 -1.93358 0
      vertex 6.22291 -6.91125 0
      vertex 4.65 -8.05404 0
    endloop
  endfacet
  facet normal 0 0 -1
    outer loop
      vertex -9.09677 -1.93358 0
      vertex 4.65 -8.05404 0
      vertex 2.87386 -8.84483 0
    endloop
  endfacet
  facet normal 0 0 -1
    outer loop
      vertex -9.09677 -1.93358 0
      vertex 2.87386 -8.84483 0
      vertex 0.972115 -9.24905 0
    endloop
  endfacet
  facet normal 0 0 -1
    outer loop
      vertex -9.09677 -1.93358 0
      vertex 0.972115 -9.24905 0
      vertex -0.972115 -9.24905 0
    endloop
  endfacet
  facet normal 0 0 -1
    outer loop
      vertex -9.09677 -1.93358 0
      vertex -0.972115 -9.24905 0
      vertex -2.87386 -8.84483 0
    endloop
  endfacet
  facet normal 0 0 -1
    outer loop
      vertex -9.09677 -1.93358 0
      vertex -2.87386 -8.84483 0
      vertex -4.65 -8.05404 0
    endloop
  endfacet
  facet normal 0 0 -1
    outer loop
      vertex -9.09677 -1.93358 0
      vertex -4.65 -8.05404 0
      vertex -6.22291 -6.91125 0
    endloop
  endfacet
  facet normal 0 0 -1
    outer loop
      vertex -9.09677 -1.93358 0
      vertex -6.22291 -6.91125 0
      vertex -7.52386 -5.4664 0
    endloop
  endfacet
  facet normal 0 0 -1
    outer loop
      vertex -9.09677 -1.93358 0
      vertex -7.52386 -5.4664 0
      vertex -8.49597 -3.78265 0
    endloop
  endfacet
  facet normal 0 0 -1
    outer loop
      vertex -2.50795 -1.82213 0
      vertex -9.09677 -1.93358 0
      vertex -3.1 0 0
    endloop
  endfacet
  facet normal 0 0 -1
    outer loop
      vertex -0.957953 -2.94827 0
      vertex -9.09677 -1.93358 0
      vertex -2.50795 -1.82213 0
    endloop
  endfacet
  facet normal 0 0 -1
    outer loop
      vertex 2.50795 -1.82213 0
      vertex 9.09677 -1.93358 0
      vertex 0.957953 -2.94827 0
    endloop
  endfacet
  facet normal 0 0 -1
    outer loop
      vertex -9.09677 -1.93358 0
      vertex -0.957953 -2.94827 0
      vertex 7.52386 -5.4664 0
    endloop
  endfacet
  facet normal 0 0 -1
    outer loop
      vertex 3.1 0 0
      vertex 9.3 0 0
      vertex 2.50795 -1.82213 0
    endloop
  endfacet
  facet normal 0 0 -1
    outer loop
      vertex 0.957953 -2.94827 0
      vertex 8.49597 -3.78265 0
      vertex -0.957953 -2.94827 0
    endloop
  endfacet
  facet normal 0 0 -1
    outer loop
      vertex 0.957953 2.94827 0
      vertex 8.49597 3.78265 0
      vertex 2.50795 1.82213 0
    endloop
  endfacet
  facet normal 0 0 -1
    outer loop
      vertex 2.50795 1.82213 0
      vertex 9.09677 1.93358 0
      vertex 3.1 0 0
    endloop
  endfacet
  facet normal 0 0 -1
    outer loop
      vertex -9.09677 -1.93358 0
      vertex 4.65 8.05404 0
      vertex -0.957953 2.94827 0
    endloop
  endfacet
  facet normal 0 0 -1
    outer loop
      vertex -3.1 0 0
      vertex -9.09677 -1.93358 0
      vertex -2.50795 1.82213 0
    endloop
  endfacet
  facet normal 0 0 -1
    outer loop
      vertex 0.957953 2.94827 0
      vertex 7.52386 5.4664 0
      vertex 8.49597 3.78265 0
    endloop
  endfacet
  facet normal 0 0 -1
    outer loop
      vertex -0.957953 2.94827 0
      vertex 6.22291 6.91125 0
      vertex 0.957953 2.94827 0
    endloop
  endfacet
  facet normal 0 0 -1
    outer loop
      vertex -2.50795 1.82213 0
      vertex -9.09677 -1.93358 0
      vertex -0.957953 2.94827 0
    endloop
  endfacet
  facet normal -0.994522 0.104528 0
    outer loop
      vertex -9.3 0 0
      vertex -9.3 0 8
      vertex -9.09677 1.93358 0
    endloop
  endfacet
  facet normal -0.994522 0.104528 0
    outer loop
      vertex -9.09677 1.93358 0
      vertex -9.3 0 8
      vertex -9.09677 1.93358 8
    endloop
  endfacet
  facet normal -0.994522 -0.104528 0
    outer loop
      vertex -9.3 0 0
      vertex -9.09677 -1.93358 0
      vertex -9.3 0 8
    endloop
  endfacet
  facet normal -0.994522 -0.104528 0
    outer loop
      vertex -9.3 0 8
      vertex -9.09677 -1.93358 0
      vertex -9.09677 -1.93358 8
    endloop
  endfacet
  facet normal -0.951057 -0.309017 0
    outer loop
      vertex -9.09677 -1.93358 0
      vertex -8.49597 -3.78265 0
      vertex -9.09677 -1.93358 8
    endloop
  endfacet
  facet normal -0.951057 -0.309017 0
    outer loop
      vertex -9.09677 -1.93358 8
      vertex -8.49597 -3.78265 0
      vertex -8.49597 -3.78265 8
    endloop
  endfacet
  facet normal -0.866025 -0.5 0
    outer loop
      vertex -8.49597 -3.78265 0
      vertex -7.52386 -5.4664 0
      vertex -8.49597 -3.78265 8
    endloop
  endfacet
  facet normal -0.866025 -0.5 0
    outer loop
      vertex -8.49597 -3.78265 8
      vertex -7.52386 -5.4664 0
      vertex -7.52386 -5.4664 8
    endloop
  endfacet
  facet normal -0.743145 -0.66913 0
    outer loop
      vertex -7.52386 -5.4664 0
      vertex -6.22291 -6.91125 0
      vertex -7.52386 -5.4664 8
    endloop
  endfacet
  facet normal -0.743145 -0.66913 0
    outer loop
      vertex -7.52386 -5.4664 8
      vertex -6.22291 -6.91125 0
      vertex -6.22291 -6.91125 8
    endloop
  endfacet
  facet normal -0.587785 -0.809017 0
    outer loop
      vertex -6.22291 -6.91125 8
      vertex -6.22291 -6.91125 0
      vertex -4.65 -8.05404 0
    endloop
  endfacet
  facet normal -0.587785 -0.809017 0
    outer loop
      vertex -4.65 -8.05404 8
      vertex -6.22291 -6.91125 8
      vertex -4.65 -8.05404 0
    endloop
  endfacet
  facet normal -0.406737 -0.913545 0
    outer loop
      vertex -4.65 -8.05404 8
      vertex -4.65 -8.05404 0
      vertex -2.87386 -8.84483 0
    endloop
  endfacet
  facet normal -0.406737 -0.913545 0
    outer loop
      vertex -2.87386 -8.84483 8
      vertex -4.65 -8.05404 8
      vertex -2.87386 -8.84483 0
    endloop
  endfacet
  facet normal -0.207912 -0.978148 0
    outer loop
      vertex -2.87386 -8.84483 8
      vertex -2.87386 -8.84483 0
      vertex -0.972115 -9.24905 0
    endloop
  endfacet
  facet normal -0.207912 -0.978148 0
    outer loop
      vertex -0.972115 -9.24905 8
      vertex -2.87386 -8.84483 8
      vertex -0.972115 -9.24905 0
    endloop
  endfacet
  facet normal 0 -1 0
    outer loop
      vertex -0.972115 -9.24905 8
      vertex -0.972115 -9.24905 0
      vertex 0.972115 -9.24905 0
    endloop
  endfacet
  facet normal 0 -1 0
    outer loop
      vertex 0.972115 -9.24905 8
      vertex -0.972115 -9.24905 8
      vertex 0.972115 -9.24905 0
    endloop
  endfacet
  facet normal 0.207912 -0.978148 0
    outer loop
      vertex 0.972115 -9.24905 8
      vertex 0.972115 -9.24905 0
      vertex 2.87386 -8.84483 0
    endloop
  endfacet
  facet normal 0.207912 -0.978148 0
    outer loop
      vertex 2.87386 -8.84483 8
      vertex 0.972115 -9.24905 8
      vertex 2.87386 -8.84483 0
    endloop
  endfacet
  facet normal 0.406737 -0.913545 0
    outer loop
      vertex 2.87386 -8.84483 8
      vertex 2.87386 -8.84483 0
      vertex 4.65 -8.05404 0
    endloop
  endfacet
  facet normal 0.406737 -0.913545 0
    outer loop
      vertex 4.65 -8.05404 8
      vertex 2.87386 -8.84483 8
      vertex 4.65 -8.05404 0
    endloop
  endfacet
  facet normal 0.587785 -0.809017 0
    outer loop
      vertex 4.65 -8.05404 8
      vertex 4.65 -8.05404 0
      vertex 6.22291 -6.91125 0
    endloop
  endfacet
  facet normal 0.587785 -0.809017 0
    outer loop
      vertex 6.22291 -6.91125 8
      vertex 4.65 -8.05404 8
      vertex 6.22291 -6.91125 0
    endloop
  endfacet
  facet normal 0.743145 -0.66913 0
    outer loop
      vertex 6.22291 -6.91125 8
      vertex 6.22291 -6.91125 0
      vertex 7.52386 -5.4664 0
    endloop
  endfacet
  facet normal 0.743145 -0.66913 0
    outer loop
      vertex 7.52386 -5.4664 8
      vertex 6.22291 -6.91125 8
      vertex 7.52386 -5.4664 0
    endloop
  endfacet
  facet normal 0.866025 -0.5 0
    outer loop
      vertex 7.52386 -5.4664 8
      vertex 7.52386 -5.4664 0
      vertex 8.49597 -3.78265 0
    endloop
  endfacet
  facet normal 0.866025 -0.5 0
    outer loop
      vertex 8.49597 -3.78265 8
      vertex 7.52386 -5.4664 8
      vertex 8.49597 -3.78265 0
    endloop
  endfacet
  facet normal 0.951057 -0.309017 0
    outer loop
      vertex 8.49597 -3.78265 8
      vertex 8.49597 -3.78265 0
      vertex 9.09677 -1.93358 0
    endloop
  endfacet
  facet normal 0.951057 -0.309017 0
    outer loop
      vertex 9.09677 -1.93358 8
      vertex 8.49597 -3.78265 8
      vertex 9.09677 -1.93358 0
    endloop
  endfacet
  facet normal 0.994522 -0.104528 0
    outer loop
      vertex 9.09677 -1.93358 8
      vertex 9.09677 -1.93358 0
      vertex 9.3 0 0
    endloop
  endfacet
  facet normal 0.994522 -0.104528 0
    outer loop
      vertex 9.3 0 8
      vertex 9.09677 -1.93358 8
      vertex 9.3 0 0
    endloop
  endfacet
  facet normal 0.994522 0.104528 0
    outer loop
      vertex 9.3 0 0
      vertex 9.09677 1.93358 0
      vertex 9.09677 1.93358 8
    endloop
  endfacet
  facet normal 0.994522 0.104528 0
    outer loop
      vertex 9.3 0 8
      vertex 9.3 0 0
      vertex 9.09677 1.93358 8
    endloop
  endfacet
  facet normal 0.951057 0.309017 0
    outer loop
      vertex 9.09677 1.93358 0
      vertex 8.49597 3.78265 0
      vertex 8.49597 3.78265 8
    endloop
  endfacet
  facet normal 0.951057 0.309017 0
    outer loop
      vertex 9.09677 1.93358 8
      vertex 9.09677 1.93358 0
      vertex 8.49597 3.78265 8
    endloop
  endfacet
  facet normal 0.866025 0.5 0
    outer loop
      vertex 8.49597 3.78265 0
      vertex 7.52386 5.4664 0
      vertex 7.52386 5.4664 8
    endloop
  endfacet
  facet normal 0.866025 0.5 0
    outer loop
      vertex 8.49597 3.78265 8
      vertex 8.49597 3.78265 0
      vertex 7.52386 5.4664 8
    endloop
  endfacet
  facet normal 0.743145 0.66913 0
    outer loop
      vertex 7.52386 5.4664 0
      vertex 6.22291 6.91125 0
      vertex 6.22291 6.91125 8
    endloop
  endfacet
  facet normal 0.743145 0.66913 0
    outer loop
      vertex 7.52386 5.4664 8
      vertex 7.52386 5.4664 0
      vertex 6.22291 6.91125 8
    endloop
  endfacet
  facet normal 0.587785 0.809017 0
    outer loop
      vertex 4.65 8.05404 0
      vertex 4.65 8.05404 8
      vertex 6.22291 6.91125 0
    endloop
  endfacet
  facet normal 0.587785 0.809017 0
    outer loop
      vertex 6.22291 6.91125 0
      vertex 4.65 8.05404 8
      vertex 6.22291 6.91125 8
    endloop
  endfacet
  facet normal 0.406737 0.913545 0
    outer loop
      vertex 2.87386 8.84483 0
      vertex 2.87386 8.84483 8
      vertex 4.65 8.05404 0
    endloop
  endfacet
  facet normal 0.406737 0.913545 0
    outer loop
      vertex 4.65 8.05404 0
      vertex 2.87386 8.84483 8
      vertex 4.65 8.05404 8
    endloop
  endfacet
  facet normal 0.207912 0.978148 0
    outer loop
      vertex 0.972115 9.24905 0
      vertex 0.972115 9.24905 8
      vertex 2.87386 8.84483 0
    endloop
  endfacet
  facet normal 0.207912 0.978148 0
    outer loop
      vertex 2.87386 8.84483 0
      vertex 0.972115 9.24905 8
      vertex 2.87386 8.84483 8
    endloop
  endfacet
  facet normal 0 1 0
    outer loop
      vertex -0.972115 9.24905 0
      vertex -0.972115 9.24905 8
      vertex 0.972115 9.24905 0
    endloop
  endfacet
  facet normal 0 1 0
    outer loop
      vertex 0.972115 9.24905 0
      vertex -0.972115 9.24905 8
      vertex 0.972115 9.24905 8
    endloop
  endfacet
  facet normal -0.207912 0.978148 0
    outer loop
      vertex -2.87386 8.84483 0
      vertex -2.87386 8.84483 8
      vertex -0.972115 9.24905 0
    endloop
  endfacet
  facet normal -0.207912 0.978148 0
    outer loop
      vertex -0.972115 9.24905 0
      vertex -2.87386 8.84483 8
      vertex -0.972115 9.24905 8
    endloop
  endfacet
  facet normal -0.406737 0.913545 0
    outer loop
      vertex -4.65 8.05404 0
      vertex -4.65 8.05404 8
      vertex -2.87386 8.84483 0
    endloop
  endfacet
  facet normal -0.406737 0.913545 0
    outer loop
      vertex -2.87386 8.84483 0
      vertex -4.65 8.05404 8
      vertex -2.87386 8.84483 8
    endloop
  endfacet
  facet normal -0.587785 0.809017 0
    outer loop
      vertex -6.22291 6.91125 0
      vertex -6.22291 6.91125 8
      vertex -4.65 8.05404 0
    endloop
  endfacet
  facet normal -0.587785 0.809017 0
    outer loop
      vertex -4.65 8.05404 0
      vertex -6.22291 6.91125 8
      vertex -4.65 8.05404 8
    endloop
  endfacet
  facet normal -0.743145 0.66913 0
    outer loop
      vertex -7.52386 5.4664 0
      vertex -7.52386 5.4664 8
      vertex -6.22291 6.91125 0
    endloop
  endfacet
  facet normal -0.743145 0.66913 0
    outer loop
      vertex -6.22291 6.91125 0
      vertex -7.52386 5.4664 8
      vertex -6.22291 6.91125 8
    endloop
  endfacet
  facet normal -0.866025 0.5 0
    outer loop
      vertex -8.49597 3.78265 0
      vertex -8.49597 3.78265 8
      vertex -7.52386 5.4664 0
    endloop
  endfacet
  facet normal -0.866025 0.5 0
    outer loop
      vertex -7.52386 5.4664 0
      vertex -8.49597 3.78265 8
      vertex -7.52386 5.4664 8
    endloop
  endfacet
  facet normal -0.951057 0.309017 0
    outer loop
      vertex -9.09677 1.93358 0
      vertex -9.09677 1.93358 8
      vertex -8.49597 3.78265 0
    endloop
  endfacet
  facet normal -0.951057 0.309017 0
    outer loop
      vertex -8.49597 3.78265 0
      vertex -9.09677 1.93358 8
      vertex -8.49597 3.78265 8
    endloop
  endfacet
  facet normal 0.951057 0.309017 0
    outer loop
      vertex -3.1 0 8
      vertex -2.50795 -1.82213 8
      vertex -2.50795 -1.82213 0
    endloop
  endfacet
  facet normal 0.951057 0.309017 0
    outer loop
      vertex -3.1 0 0
      vertex -3.1 0 8
      vertex -2.50795 -1.82213 0
    endloop
  endfacet
  facet normal 0.951057 -0.309017 0
    outer loop
      vertex -2.50795 1.82213 0
      vertex -2.50795 1.82213 8
      vertex -3.1 0 8
    endloop
  endfacet
  facet normal 0.951057 -0.309017 0
    outer loop
      vertex -3.1 0 0
      vertex -2.50795 1.82213 0
      vertex -3.1 0 8
    endloop
  endfacet
  facet normal 0.587785 -0.809017 0
    outer loop
      vertex -0.957953 2.94827 0
      vertex -0.957953 2.94827 8
      vertex -2.50795 1.82213 8
    endloop
  endfacet
  facet normal 0.587785 -0.809017 0
    outer loop
      vertex -2.50795 1.82213 0
      vertex -0.957953 2.94827 0
      vertex -2.50795 1.82213 8
    endloop
  endfacet
  facet normal 0 -1 0
    outer loop
      vertex 0.957953 2.94827 0
      vertex 0.957953 2.94827 8
      vertex -0.957953 2.94827 8
    endloop
  endfacet
  facet normal 0 -1 0
    outer loop
      vertex -0.957953 2.94827 0
      vertex 0.957953 2.94827 0
      vertex -0.957953 2.94827 8
    endloop
  endfacet
  facet normal -0.587785 -0.809017 0
    outer loop
      vertex 2.50795 1.82213 0
      vertex 2.50795 1.82213 8
      vertex 0.957953 2.94827 8
    endloop
  endfacet
  facet normal -0.587785 -0.809017 0
    outer loop
      vertex 0.957953 2.94827 0
      vertex 2.50795 1.82213 0
      vertex 0.957953 2.94827 8
    endloop
  endfacet
  facet normal -0.951057 -0.309017 0
    outer loop
      vertex 3.1 0 8
      vertex 2.50795 1.82213 8
      vertex 3.1 0 0
    endloop
  endfacet
  facet normal -0.951057 -0.309017 0
    outer loop
      vertex 3.1 0 0
      vertex 2.50795 1.82213 8
      vertex 2.50795 1.82213 0
    endloop
  endfacet
  facet normal -0.951057 0.309017 0
    outer loop
      vertex 3.1 0 8
      vertex 3.1 0 0
      vertex 2.50795 -1.82213 8
    endloop
  endfacet
  facet normal -0.951057 0.309017 0
    outer loop
      vertex 2.50795 -1.82213 8
      vertex 3.1 0 0
      vertex 2.50795 -1.82213 0
    endloop
  endfacet
  facet normal -0.587785 0.809017 0
    outer loop
      vertex 2.50795 -1.82213 8
      vertex 2.50795 -1.82213 0
      vertex 0.957953 -2.94827 8
    endloop
  endfacet
  facet normal -0.587785 0.809017 0
    outer loop
      vertex 0.957953 -2.94827 8
      vertex 2.50795 -1.82213 0
      vertex 0.957953 -2.94827 0
    endloop
  endfacet
  facet normal 0 1 0
    outer loop
      vertex 0.957953 -2.94827 8
      vertex 0.957953 -2.94827 0
      vertex -0.957953 -2.94827 8
    endloop
  endfacet
  facet normal 0 1 0
    outer loop
      vertex -0.957953 -2.94827 8
      vertex 0.957953 -2.94827 0
      vertex -0.957953 -2.94827 0
    endloop
  endfacet
  facet normal 0.587785 0.809017 0
    outer loop
      vertex -0.957953 -2.94827 8
      vertex -0.957953 -2.94827 0
      vertex -2.50795 -1.82213 8
    endloop
  endfacet
  facet normal 0.587785 0.809017 0
    outer loop
      vertex -2.50795 -1.82213 8
      vertex -0.957953 -2.94827 0
      vertex -2.50795 -1.82213 0
    endloop
  endfacet
  facet normal 0 0 1
    outer loop
      vertex -9.09677 1.93358 8
      vertex -9.3 0 8
      vertex -9.09677 -1.93358 8
    endloop
  endfacet
  facet normal 0 0 1
    outer loop
      vertex -7.52386 -5.4664 8
      vertex -9.09677 1.93358 8
      vertex -8.49597 -3.78265 8
    endloop
  endfacet
  facet normal 0 0 1
    outer loop
      vertex -8.49597 -3.78265 8
      vertex -9.09677 1.93358 8
      vertex -9.09677 -1.93358 8
    endloop
  endfacet
  facet normal 0 0 1
    outer loop
      vertex -6.22291 -6.91125 8
      vertex -9.09677 1.93358 8
      vertex -7.52386 -5.4664 8
    endloop
  endfacet
  facet normal 0 0 1
    outer loop
      vertex -4.65 -8.05404 8
      vertex -9.09677 1.93358 8
      vertex -6.22291 -6.91125 8
    endloop
  endfacet
  facet normal 0 0 1
    outer loop
      vertex -2.87386 -8.84483 8
      vertex -9.09677 1.93358 8
      vertex -4.65 -8.05404 8
    endloop
  endfacet
  facet normal 0 0 1
    outer loop
      vertex -0.972115 -9.24905 8
      vertex -9.09677 1.93358 8
      vertex -2.87386 -8.84483 8
    endloop
  endfacet
  facet normal 0 0 1
    outer loop
      vertex 0.972115 -9.24905 8
      vertex -9.09677 1.93358 8
      vertex -0.972115 -9.24905 8
    endloop
  endfacet
  facet normal 0 0 1
    outer loop
      vertex 2.87386 -8.84483 8
      vertex -9.09677 1.93358 8
      vertex 0.972115 -9.24905 8
    endloop
  endfacet
  facet normal 0 0 1
    outer loop
      vertex 4.65 -8.05404 8
      vertex -9.09677 1.93358 8
      vertex 2.87386 -8.84483 8
    endloop
  endfacet
  facet normal 0 0 1
    outer loop
      vertex -0.957953 -2.94827 8
      vertex -9.09677 1.93358 8
      vertex 4.65 -8.05404 8
    endloop
  endfacet
  facet normal 0 0 1
    outer loop
      vertex 0.957953 -2.94827 8
      vertex 6.22291 -6.91125 8
      vertex 7.52386 -5.4664 8
    endloop
  endfacet
  facet normal 0 0 1
    outer loop
      vertex 2.50795 -1.82213 8
      vertex 7.52386 -5.4664 8
      vertex 8.49597 -3.78265 8
    endloop
  endfacet
  facet normal 0 0 1
    outer loop
      vertex 2.50795 1.82213 8
      vertex 3.1 0 8
      vertex 9.3 0 8
    endloop
  endfacet
  facet normal 0 0 1
    outer loop
      vertex -0.957953 2.94827 8
      vertex 0.957953 2.94827 8
      vertex 8.49597 3.78265 8
    endloop
  endfacet
  facet normal 0 0 1
    outer loop
      vertex 0.957953 2.94827 8
      vertex 2.50795 1.82213 8
      vertex 9.09677 1.93358 8
    endloop
  endfacet
  facet normal 0 0 1
    outer loop
      vertex 6.22291 6.91125 8
      vertex -9.09677 1.93358 8
      vertex 7.52386 5.4664 8
    endloop
  endfacet
  facet normal 0 0 1
    outer loop
      vertex 4.65 8.05404 8
      vertex -9.09677 1.93358 8
      vertex 6.22291 6.91125 8
    endloop
  endfacet
  facet normal 0 0 1
    outer loop
      vertex 2.87386 8.84483 8
      vertex -9.09677 1.93358 8
      vertex 4.65 8.05404 8
    endloop
  endfacet
  facet normal 0 0 1
    outer loop
      vertex 0.972115 9.24905 8
      vertex -9.09677 1.93358 8
      vertex 2.87386 8.84483 8
    endloop
  endfacet
  facet normal 0 0 1
    outer loop
      vertex -0.972115 9.24905 8
      vertex -9.09677 1.93358 8
      vertex 0.972115 9.24905 8
    endloop
  endfacet
  facet normal 0 0 1
    outer loop
      vertex -2.87386 8.84483 8
      vertex -9.09677 1.93358 8
      vertex -0.972115 9.24905 8
    endloop
  endfacet
  facet normal 0 0 1
    outer loop
      vertex -4.65 8.05404 8
      vertex -9.09677 1.93358 8
      vertex -2.87386 8.84483 8
    endloop
  endfacet
  facet normal 0 0 1
    outer loop
      vertex -6.22291 6.91125 8
      vertex -9.09677 1.93358 8
      vertex -4.65 8.05404 8
    endloop
  endfacet
  facet normal 0 0 1
    outer loop
      vertex -7.52386 5.4664 8
      vertex -9.09677 1.93358 8
      vertex -6.22291 6.91125 8
    endloop
  endfacet
  facet normal 0 0 1
    outer loop
      vertex -8.49597 3.78265 8
      vertex -9.09677 1.93358 8
      vertex -7.52386 5.4664 8
    endloop
  endfacet
  facet normal 0 0 1
    outer loop
      vertex -3.1 0 8
      vertex -2.50795 1.82213 8
      vertex -9.09677 1.93358 8
    endloop
  endfacet
  facet normal 0 0 1
    outer loop
      vertex 0.957953 -2.94827 8
      vertex -0.957953 -2.94827 8
      vertex 6.22291 -6.91125 8
    endloop
  endfacet
  facet normal 0 0 1
    outer loop
      vertex -2.50795 1.82213 8
      vertex -0.957953 2.94827 8
      vertex -9.09677 1.93358 8
    endloop
  endfacet
  facet normal 0 0 1
    outer loop
      vertex 3.1 0 8
      vertex 2.50795 -1.82213 8
      vertex 9.09677 -1.93358 8
    endloop
  endfacet
  facet normal 0 0 1
    outer loop
      vertex 7.52386 5.4664 8
      vertex -0.957953 2.94827 8
      vertex 8.49597 3.78265 8
    endloop
  endfacet
  facet normal 0 0 1
    outer loop
      vertex 7.52386 5.4664 8
      vertex -9.09677 1.93358 8
      vertex -0.957953 2.94827 8
    endloop
  endfacet
  facet normal 0 0 1
    outer loop
      vertex 8.49597 3.78265 8
      vertex 0.957953 2.94827 8
      vertex 9.09677 1.93358 8
    endloop
  endfacet
  facet normal 0 0 1
    outer loop
      vertex 9.09677 1.93358 8
      vertex 2.50795 1.82213 8
      vertex 9.3 0 8
    endloop
  endfacet
  facet normal 0 0 1
    outer loop
      vertex 9.3 0 8
      vertex 3.1 0 8
      vertex 9.09677 -1.93358 8
    endloop
  endfacet
  facet normal 0 0 1
    outer loop
      vertex 2.50795 -1.82213 8
      vertex 0.957953 -2.94827 8
      vertex 7.52386 -5.4664 8
    endloop
  endfacet
  facet normal 0 0 1
    outer loop
      vertex 9.09677 -1.93358 8
      vertex 2.50795 -1.82213 8
      vertex 8.49597 -3.78265 8
    endloop
  endfacet
  facet normal 0 0 1
    outer loop
      vertex 6.22291 -6.91125 8
      vertex -0.957953 -2.94827 8
      vertex 4.65 -8.05404 8
    endloop
  endfacet
  facet normal 0 0 1
    outer loop
      vertex -0.957953 -2.94827 8
      vertex -2.50795 -1.82213 8
      vertex -9.09677 1.93358 8
    endloop
  endfacet
  facet normal 0 0 1
    outer loop
      vertex -2.50795 -1.82213 8
      vertex -3.1 0 8
      vertex -9.09677 1.93358 8
    endloop
  endfacet
endsolid OpenSCAD_Model
