solid OpenSCAD_Model
  facet normal -1 0 0
    outer loop
      vertex 0 0 0
      vertex 0 0 9
      vertex 0 75 0
    endloop
  endfacet
  facet normal -1 0 0
    outer loop
      vertex 0 75 0
      vertex 0 0 9
      vertex 0 75 9
    endloop
  endfacet
  facet normal 0 -1 0
    outer loop
      vertex 0 0 9
      vertex 0 0 0
      vertex 54 0 0
    endloop
  endfacet
  facet normal 0 -1 0
    outer loop
      vertex 69 0 8
      vertex 0 0 9
      vertex 54 0 8
    endloop
  endfacet
  facet normal 0 -1 0
    outer loop
      vertex 54 0 8
      vertex 0 0 9
      vertex 54 0 0
    endloop
  endfacet
  facet normal 0 -1 0
    outer loop
      vertex 123 0 9
      vertex 0 0 9
      vertex 69 0 8
    endloop
  endfacet
  facet normal 0 -1 0
    outer loop
      vertex 123 0 0
      vertex 69 0 8
      vertex 69 0 0
    endloop
  endfacet
  facet normal 0 -1 0
    outer loop
      vertex 123 0 9
      vertex 69 0 8
      vertex 123 0 0
    endloop
  endfacet
  facet normal 0 0 -1
    outer loop
      vertex 0 0 0
      vertex 0 75 0
      vertex 54 0 0
    endloop
  endfacet
  facet normal 0 0 -1
    outer loop
      vertex 54 0 0
      vertex 0 75 0
      vertex 54 75 0
    endloop
  endfacet
  facet normal 0 0 -1
    outer loop
      vertex 62.4811 85.5196 0
      vertex 54 90 0
      vertex 69 90 0
    endloop
  endfacet
  facet normal 0 0 -1
    outer loop
      vertex 64.0686 80.6338 0
      vertex 69 90 0
      vertex 54 0 0
    endloop
  endfacet
  facet normal 0 0 -1
    outer loop
      vertex 54 0 0
      vertex 69 90 0
      vertex 69 75 0
    endloop
  endfacet
  facet normal 0 0 -1
    outer loop
      vertex 54 0 0
      vertex 69 75 0
      vertex 123 75 0
    endloop
  endfacet
  facet normal 0 0 -1
    outer loop
      vertex 69 0 0
      vertex 123 75 0
      vertex 123 0 0
    endloop
  endfacet
  facet normal 0 0 -1
    outer loop
      vertex 54 0 0
      vertex 123 75 0
      vertex 69 0 0
    endloop
  endfacet
  facet normal 0 0 -1
    outer loop
      vertex 61.5 -4.325 0
      vertex 54 0 0
      vertex 62.4811 -4.4804 0
    endloop
  endfacet
  facet normal 0 0 -1
    outer loop
      vertex 64.0686 -9.36622 0
      vertex 69 -15 0
      vertex 63.3662 -10.0686 0
    endloop
  endfacet
  facet normal 0 0 -1
    outer loop
      vertex 61.5 -10.675 0
      vertex 69 -15 0
      vertex 60.5189 -10.5196 0
    endloop
  endfacet
  facet normal 0 0 -1
    outer loop
      vertex 63.3662 -10.0686 0
      vertex 69 -15 0
      vertex 62.4811 -10.5196 0
    endloop
  endfacet
  facet normal 0 0 -1
    outer loop
      vertex 62.4811 -10.5196 0
      vertex 69 -15 0
      vertex 61.5 -10.675 0
    endloop
  endfacet
  facet normal 0 0 -1
    outer loop
      vertex 60.5189 -10.5196 0
      vertex 69 -15 0
      vertex 59.6338 -10.0686 0
    endloop
  endfacet
  facet normal 0 0 -1
    outer loop
      vertex 69 0 0
      vertex 69 -15 0
      vertex 64.0686 -9.36622 0
    endloop
  endfacet
  facet normal 0 0 -1
    outer loop
      vertex 69 0 0
      vertex 64.0686 -9.36622 0
      vertex 64.5196 -8.48113 0
    endloop
  endfacet
  facet normal 0 0 -1
    outer loop
      vertex 69 0 0
      vertex 64.5196 -8.48113 0
      vertex 64.675 -7.5 0
    endloop
  endfacet
  facet normal 0 0 -1
    outer loop
      vertex 69 0 0
      vertex 64.675 -7.5 0
      vertex 64.5196 -6.51887 0
    endloop
  endfacet
  facet normal 0 0 -1
    outer loop
      vertex 69 0 0
      vertex 64.5196 -6.51887 0
      vertex 64.0686 -5.63378 0
    endloop
  endfacet
  facet normal 0 0 -1
    outer loop
      vertex 69 0 0
      vertex 64.0686 -5.63378 0
      vertex 63.3662 -4.93137 0
    endloop
  endfacet
  facet normal 0 0 -1
    outer loop
      vertex 69 0 0
      vertex 63.3662 -4.93137 0
      vertex 54 0 0
    endloop
  endfacet
  facet normal 0 0 -1
    outer loop
      vertex 63.3662 -4.93137 0
      vertex 62.4811 -4.4804 0
      vertex 54 0 0
    endloop
  endfacet
  facet normal 0 0 -1
    outer loop
      vertex 60.5189 -4.4804 0
      vertex 54 0 0
      vertex 61.5 -4.325 0
    endloop
  endfacet
  facet normal 0 0 -1
    outer loop
      vertex 59.6338 -4.93137 0
      vertex 54 0 0
      vertex 60.5189 -4.4804 0
    endloop
  endfacet
  facet normal 0 0 -1
    outer loop
      vertex 58.9314 -5.63378 0
      vertex 54 0 0
      vertex 59.6338 -4.93137 0
    endloop
  endfacet
  facet normal 0 0 -1
    outer loop
      vertex 59.6338 79.9314 0
      vertex 54 75 0
      vertex 58.9314 80.6338 0
    endloop
  endfacet
  facet normal 0 0 -1
    outer loop
      vertex 54 0 0
      vertex 58.9314 -5.63378 0
      vertex 58.4804 -6.51887 0
    endloop
  endfacet
  facet normal 0 0 -1
    outer loop
      vertex 54 0 0
      vertex 58.4804 -6.51887 0
      vertex 58.325 -7.5 0
    endloop
  endfacet
  facet normal 0 0 -1
    outer loop
      vertex 54 75 0
      vertex 54 90 0
      vertex 58.325 82.5 0
    endloop
  endfacet
  facet normal 0 0 -1
    outer loop
      vertex 54 75 0
      vertex 58.325 82.5 0
      vertex 58.4804 81.5189 0
    endloop
  endfacet
  facet normal 0 0 -1
    outer loop
      vertex 54 75 0
      vertex 58.4804 81.5189 0
      vertex 58.9314 80.6338 0
    endloop
  endfacet
  facet normal 0 0 -1
    outer loop
      vertex 64.675 82.5 0
      vertex 69 90 0
      vertex 64.5196 81.5189 0
    endloop
  endfacet
  facet normal 0 0 -1
    outer loop
      vertex 54 75 0
      vertex 59.6338 79.9314 0
      vertex 54 0 0
    endloop
  endfacet
  facet normal 0 0 -1
    outer loop
      vertex 63.3662 85.0686 0
      vertex 69 90 0
      vertex 64.0686 84.3662 0
    endloop
  endfacet
  facet normal 0 0 -1
    outer loop
      vertex 59.6338 79.9314 0
      vertex 60.5189 79.4804 0
      vertex 54 0 0
    endloop
  endfacet
  facet normal 0 0 -1
    outer loop
      vertex 60.5189 79.4804 0
      vertex 61.5 79.325 0
      vertex 54 0 0
    endloop
  endfacet
  facet normal 0 0 -1
    outer loop
      vertex 64.0686 84.3662 0
      vertex 69 90 0
      vertex 64.5196 83.4811 0
    endloop
  endfacet
  facet normal 0 0 -1
    outer loop
      vertex 61.5 79.325 0
      vertex 62.4811 79.4804 0
      vertex 54 0 0
    endloop
  endfacet
  facet normal 0 0 -1
    outer loop
      vertex 64.5196 83.4811 0
      vertex 69 90 0
      vertex 64.675 82.5 0
    endloop
  endfacet
  facet normal 0 0 -1
    outer loop
      vertex 62.4811 79.4804 0
      vertex 63.3662 79.9314 0
      vertex 54 0 0
    endloop
  endfacet
  facet normal 0 0 -1
    outer loop
      vertex 64.5196 81.5189 0
      vertex 69 90 0
      vertex 64.0686 80.6338 0
    endloop
  endfacet
  facet normal 0 0 -1
    outer loop
      vertex 63.3662 79.9314 0
      vertex 64.0686 80.6338 0
      vertex 54 0 0
    endloop
  endfacet
  facet normal 0 0 -1
    outer loop
      vertex 62.4811 85.5196 0
      vertex 69 90 0
      vertex 63.3662 85.0686 0
    endloop
  endfacet
  facet normal 0 0 -1
    outer loop
      vertex 61.5 85.675 0
      vertex 54 90 0
      vertex 62.4811 85.5196 0
    endloop
  endfacet
  facet normal 0 0 -1
    outer loop
      vertex 60.5189 85.5196 0
      vertex 54 90 0
      vertex 61.5 85.675 0
    endloop
  endfacet
  facet normal 0 0 -1
    outer loop
      vertex 59.6338 85.0686 0
      vertex 54 90 0
      vertex 60.5189 85.5196 0
    endloop
  endfacet
  facet normal 0 0 -1
    outer loop
      vertex 58.9314 84.3662 0
      vertex 54 90 0
      vertex 59.6338 85.0686 0
    endloop
  endfacet
  facet normal 0 0 -1
    outer loop
      vertex 58.4804 83.4811 0
      vertex 54 90 0
      vertex 58.9314 84.3662 0
    endloop
  endfacet
  facet normal 0 0 -1
    outer loop
      vertex 58.325 82.5 0
      vertex 54 90 0
      vertex 58.4804 83.4811 0
    endloop
  endfacet
  facet normal 0 0 -1
    outer loop
      vertex 54 0 0
      vertex 58.325 -7.5 0
      vertex 58.4804 -8.48113 0
    endloop
  endfacet
  facet normal 0 0 -1
    outer loop
      vertex 54 0 0
      vertex 58.4804 -8.48113 0
      vertex 58.9314 -9.36622 0
    endloop
  endfacet
  facet normal 0 0 -1
    outer loop
      vertex 59.6338 -10.0686 0
      vertex 69 -15 0
      vertex 54 -15 0
    endloop
  endfacet
  facet normal 0 0 -1
    outer loop
      vertex 58.9314 -9.36622 0
      vertex 59.6338 -10.0686 0
      vertex 54 -15 0
    endloop
  endfacet
  facet normal 0 0 -1
    outer loop
      vertex 54 0 0
      vertex 58.9314 -9.36622 0
      vertex 54 -15 0
    endloop
  endfacet
  facet normal 0 1 0
    outer loop
      vertex 0 75 0
      vertex 0 75 9
      vertex 54 75 0
    endloop
  endfacet
  facet normal 0 1 0
    outer loop
      vertex 69 75 8
      vertex 0 75 9
      vertex 123 75 9
    endloop
  endfacet
  facet normal 0 1 0
    outer loop
      vertex 69 75 0
      vertex 123 75 9
      vertex 123 75 0
    endloop
  endfacet
  facet normal 0 1 0
    outer loop
      vertex 54 75 8
      vertex 0 75 9
      vertex 69 75 8
    endloop
  endfacet
  facet normal 0 1 0
    outer loop
      vertex 54 75 0
      vertex 0 75 9
      vertex 54 75 8
    endloop
  endfacet
  facet normal 0 1 0
    outer loop
      vertex 69 75 8
      vertex 123 75 9
      vertex 69 75 0
    endloop
  endfacet
  facet normal 0 0 1
    outer loop
      vertex 87 2.5 9
      vertex 0 0 9
      vertex 123 0 9
    endloop
  endfacet
  facet normal 0 0 1
    outer loop
      vertex 0 75 9
      vertex 0 0 9
      vertex 2.5 10 9
    endloop
  endfacet
  facet normal 0 0 1
    outer loop
      vertex 0 75 9
      vertex 2.5 10 9
      vertex 2.5 61 9
    endloop
  endfacet
  facet normal 0 0 1
    outer loop
      vertex 87 72.5 9
      vertex 0 75 9
      vertex 85.5 61 9
    endloop
  endfacet
  facet normal 0 0 1
    outer loop
      vertex 87 2.5 9
      vertex 85.5 10 9
      vertex 2.5 10 9
    endloop
  endfacet
  facet normal 0 0 1
    outer loop
      vertex 87 72.5 9
      vertex 121 72.5 9
      vertex 123 75 9
    endloop
  endfacet
  facet normal 0 0 1
    outer loop
      vertex 2.5 10 9
      vertex 0 0 9
      vertex 87 2.5 9
    endloop
  endfacet
  facet normal 0 0 1
    outer loop
      vertex 123 75 9
      vertex 0 75 9
      vertex 87 72.5 9
    endloop
  endfacet
  facet normal 0 0 1
    outer loop
      vertex 123 75 9
      vertex 121 72.5 9
      vertex 123 0 9
    endloop
  endfacet
  facet normal 0 0 1
    outer loop
      vertex 121 72.5 9
      vertex 121 2.5 9
      vertex 123 0 9
    endloop
  endfacet
  facet normal 0 0 1
    outer loop
      vertex 121 2.5 9
      vertex 87 2.5 9
      vertex 123 0 9
    endloop
  endfacet
  facet normal 0 0 1
    outer loop
      vertex 2.5 61 9
      vertex 85.5 61 9
      vertex 0 75 9
    endloop
  endfacet
  facet normal 0 0 1
    outer loop
      vertex 87 2.5 9
      vertex 85.5 61 9
      vertex 85.5 10 9
    endloop
  endfacet
  facet normal 0 0 1
    outer loop
      vertex 87 2.5 9
      vertex 87 72.5 9
      vertex 85.5 61 9
    endloop
  endfacet
  facet normal 1 0 0
    outer loop
      vertex 123 0 9
      vertex 123 0 0
      vertex 123 75 0
    endloop
  endfacet
  facet normal 1 0 0
    outer loop
      vertex 123 75 9
      vertex 123 0 9
      vertex 123 75 0
    endloop
  endfacet
  facet normal 1 0 0
    outer loop
      vertex 69 -15 8
      vertex 69 -15 0
      vertex 69 0 0
    endloop
  endfacet
  facet normal 1 0 0
    outer loop
      vertex 69 0 8
      vertex 69 -15 8
      vertex 69 0 0
    endloop
  endfacet
  facet normal 0 0 1
    outer loop
      vertex 61.5 -10.675 8
      vertex 54 -15 8
      vertex 69 -15 8
    endloop
  endfacet
  facet normal 0 0 1
    outer loop
      vertex 54 0 8
      vertex 54 -15 8
      vertex 58.4804 -8.48113 8
    endloop
  endfacet
  facet normal 0 0 1
    outer loop
      vertex 62.4811 -10.5196 8
      vertex 61.5 -10.675 8
      vertex 69 -15 8
    endloop
  endfacet
  facet normal 0 0 1
    outer loop
      vertex 54 0 8
      vertex 58.4804 -8.48113 8
      vertex 58.325 -7.5 8
    endloop
  endfacet
  facet normal 0 0 1
    outer loop
      vertex 54 0 8
      vertex 58.325 -7.5 8
      vertex 58.4804 -6.51887 8
    endloop
  endfacet
  facet normal 0 0 1
    outer loop
      vertex 64.5196 -6.51887 8
      vertex 64.675 -7.5 8
      vertex 69 -15 8
    endloop
  endfacet
  facet normal 0 0 1
    outer loop
      vertex 54 0 8
      vertex 58.4804 -6.51887 8
      vertex 58.9314 -5.63378 8
    endloop
  endfacet
  facet normal 0 0 1
    outer loop
      vertex 63.3662 -10.0686 8
      vertex 62.4811 -10.5196 8
      vertex 69 -15 8
    endloop
  endfacet
  facet normal 0 0 1
    outer loop
      vertex 69 0 8
      vertex 54 0 8
      vertex 59.6338 -4.93137 8
    endloop
  endfacet
  facet normal 0 0 1
    outer loop
      vertex 69 0 8
      vertex 59.6338 -4.93137 8
      vertex 60.5189 -4.4804 8
    endloop
  endfacet
  facet normal 0 0 1
    outer loop
      vertex 64.0686 -9.36622 8
      vertex 63.3662 -10.0686 8
      vertex 69 -15 8
    endloop
  endfacet
  facet normal 0 0 1
    outer loop
      vertex 69 0 8
      vertex 60.5189 -4.4804 8
      vertex 61.5 -4.325 8
    endloop
  endfacet
  facet normal 0 0 1
    outer loop
      vertex 69 0 8
      vertex 61.5 -4.325 8
      vertex 62.4811 -4.4804 8
    endloop
  endfacet
  facet normal 0 0 1
    outer loop
      vertex 64.675 -7.5 8
      vertex 64.5196 -8.48113 8
      vertex 69 -15 8
    endloop
  endfacet
  facet normal 0 0 1
    outer loop
      vertex 69 0 8
      vertex 62.4811 -4.4804 8
      vertex 63.3662 -4.93137 8
    endloop
  endfacet
  facet normal 0 0 1
    outer loop
      vertex 69 0 8
      vertex 64.0686 -5.63378 8
      vertex 69 -15 8
    endloop
  endfacet
  facet normal 0 0 1
    outer loop
      vertex 69 0 8
      vertex 63.3662 -4.93137 8
      vertex 64.0686 -5.63378 8
    endloop
  endfacet
  facet normal 0 0 1
    outer loop
      vertex 64.0686 -5.63378 8
      vertex 64.5196 -6.51887 8
      vertex 69 -15 8
    endloop
  endfacet
  facet normal 0 0 1
    outer loop
      vertex 60.5189 -10.5196 8
      vertex 54 -15 8
      vertex 61.5 -10.675 8
    endloop
  endfacet
  facet normal 0 0 1
    outer loop
      vertex 59.6338 -10.0686 8
      vertex 54 -15 8
      vertex 60.5189 -10.5196 8
    endloop
  endfacet
  facet normal 0 0 1
    outer loop
      vertex 58.9314 -9.36622 8
      vertex 54 -15 8
      vertex 59.6338 -10.0686 8
    endloop
  endfacet
  facet normal 0 0 1
    outer loop
      vertex 58.4804 -8.48113 8
      vertex 54 -15 8
      vertex 58.9314 -9.36622 8
    endloop
  endfacet
  facet normal 0 0 1
    outer loop
      vertex 58.9314 -5.63378 8
      vertex 59.6338 -4.93137 8
      vertex 54 0 8
    endloop
  endfacet
  facet normal 0 0 1
    outer loop
      vertex 64.5196 -8.48113 8
      vertex 64.0686 -9.36622 8
      vertex 69 -15 8
    endloop
  endfacet
  facet normal -1 0 0
    outer loop
      vertex 54 -15 0
      vertex 54 -15 8
      vertex 54 0 0
    endloop
  endfacet
  facet normal -1 0 0
    outer loop
      vertex 54 0 0
      vertex 54 -15 8
      vertex 54 0 8
    endloop
  endfacet
  facet normal 0 -1 0
    outer loop
      vertex 54 -15 8
      vertex 54 -15 0
      vertex 69 -15 0
    endloop
  endfacet
  facet normal 0 -1 0
    outer loop
      vertex 69 -15 8
      vertex 54 -15 8
      vertex 69 -15 0
    endloop
  endfacet
  facet normal 1 0 0
    outer loop
      vertex 69 75 8
      vertex 69 75 0
      vertex 69 90 0
    endloop
  endfacet
  facet normal 1 0 0
    outer loop
      vertex 69 90 8
      vertex 69 75 8
      vertex 69 90 0
    endloop
  endfacet
  facet normal 0 1 0
    outer loop
      vertex 54 90 0
      vertex 54 90 8
      vertex 69 90 0
    endloop
  endfacet
  facet normal 0 1 0
    outer loop
      vertex 69 90 0
      vertex 54 90 8
      vertex 69 90 8
    endloop
  endfacet
  facet normal -1 0 0
    outer loop
      vertex 54 75 0
      vertex 54 75 8
      vertex 54 90 0
    endloop
  endfacet
  facet normal -1 0 0
    outer loop
      vertex 54 90 0
      vertex 54 75 8
      vertex 54 90 8
    endloop
  endfacet
  facet normal 0.987688 -0.156435 0
    outer loop
      vertex 58.4804 -6.51887 0
      vertex 58.4804 -6.51887 8
      vertex 58.325 -7.5 8
    endloop
  endfacet
  facet normal 0.987688 -0.156435 0
    outer loop
      vertex 58.325 -7.5 0
      vertex 58.4804 -6.51887 0
      vertex 58.325 -7.5 8
    endloop
  endfacet
  facet normal 0.987688 0.156435 0
    outer loop
      vertex 58.325 -7.5 8
      vertex 58.4804 -8.48113 8
      vertex 58.4804 -8.48113 0
    endloop
  endfacet
  facet normal 0.987688 0.156435 0
    outer loop
      vertex 58.325 -7.5 0
      vertex 58.325 -7.5 8
      vertex 58.4804 -8.48113 0
    endloop
  endfacet
  facet normal 0.891007 -0.45399 0
    outer loop
      vertex 58.9314 -5.63378 0
      vertex 58.9314 -5.63378 8
      vertex 58.4804 -6.51887 8
    endloop
  endfacet
  facet normal 0.891007 -0.45399 0
    outer loop
      vertex 58.4804 -6.51887 0
      vertex 58.9314 -5.63378 0
      vertex 58.4804 -6.51887 8
    endloop
  endfacet
  facet normal 0.707107 -0.707107 0
    outer loop
      vertex 59.6338 -4.93137 0
      vertex 59.6338 -4.93137 8
      vertex 58.9314 -5.63378 8
    endloop
  endfacet
  facet normal 0.707107 -0.707107 0
    outer loop
      vertex 58.9314 -5.63378 0
      vertex 59.6338 -4.93137 0
      vertex 58.9314 -5.63378 8
    endloop
  endfacet
  facet normal 0.45399 -0.891007 0
    outer loop
      vertex 60.5189 -4.4804 0
      vertex 60.5189 -4.4804 8
      vertex 59.6338 -4.93137 8
    endloop
  endfacet
  facet normal 0.45399 -0.891007 0
    outer loop
      vertex 59.6338 -4.93137 0
      vertex 60.5189 -4.4804 0
      vertex 59.6338 -4.93137 8
    endloop
  endfacet
  facet normal 0.156435 -0.987688 0
    outer loop
      vertex 61.5 -4.325 0
      vertex 61.5 -4.325 8
      vertex 60.5189 -4.4804 8
    endloop
  endfacet
  facet normal 0.156435 -0.987688 0
    outer loop
      vertex 60.5189 -4.4804 0
      vertex 61.5 -4.325 0
      vertex 60.5189 -4.4804 8
    endloop
  endfacet
  facet normal -0.156435 -0.987688 0
    outer loop
      vertex 62.4811 -4.4804 0
      vertex 62.4811 -4.4804 8
      vertex 61.5 -4.325 8
    endloop
  endfacet
  facet normal -0.156435 -0.987688 0
    outer loop
      vertex 61.5 -4.325 0
      vertex 62.4811 -4.4804 0
      vertex 61.5 -4.325 8
    endloop
  endfacet
  facet normal -0.45399 -0.891007 0
    outer loop
      vertex 63.3662 -4.93137 0
      vertex 63.3662 -4.93137 8
      vertex 62.4811 -4.4804 8
    endloop
  endfacet
  facet normal -0.45399 -0.891007 0
    outer loop
      vertex 62.4811 -4.4804 0
      vertex 63.3662 -4.93137 0
      vertex 62.4811 -4.4804 8
    endloop
  endfacet
  facet normal -0.707107 -0.707107 0
    outer loop
      vertex 64.0686 -5.63378 0
      vertex 64.0686 -5.63378 8
      vertex 63.3662 -4.93137 8
    endloop
  endfacet
  facet normal -0.707107 -0.707107 0
    outer loop
      vertex 63.3662 -4.93137 0
      vertex 64.0686 -5.63378 0
      vertex 63.3662 -4.93137 8
    endloop
  endfacet
  facet normal -0.891007 -0.45399 0
    outer loop
      vertex 64.5196 -6.51887 8
      vertex 64.0686 -5.63378 8
      vertex 64.5196 -6.51887 0
    endloop
  endfacet
  facet normal -0.891007 -0.45399 0
    outer loop
      vertex 64.5196 -6.51887 0
      vertex 64.0686 -5.63378 8
      vertex 64.0686 -5.63378 0
    endloop
  endfacet
  facet normal -0.987688 -0.156435 0
    outer loop
      vertex 64.675 -7.5 8
      vertex 64.5196 -6.51887 8
      vertex 64.675 -7.5 0
    endloop
  endfacet
  facet normal -0.987688 -0.156435 0
    outer loop
      vertex 64.675 -7.5 0
      vertex 64.5196 -6.51887 8
      vertex 64.5196 -6.51887 0
    endloop
  endfacet
  facet normal -0.987688 0.156435 0
    outer loop
      vertex 64.675 -7.5 8
      vertex 64.675 -7.5 0
      vertex 64.5196 -8.48113 8
    endloop
  endfacet
  facet normal -0.987688 0.156435 0
    outer loop
      vertex 64.5196 -8.48113 8
      vertex 64.675 -7.5 0
      vertex 64.5196 -8.48113 0
    endloop
  endfacet
  facet normal -0.891007 0.45399 0
    outer loop
      vertex 64.5196 -8.48113 8
      vertex 64.5196 -8.48113 0
      vertex 64.0686 -9.36622 8
    endloop
  endfacet
  facet normal -0.891007 0.45399 0
    outer loop
      vertex 64.0686 -9.36622 8
      vertex 64.5196 -8.48113 0
      vertex 64.0686 -9.36622 0
    endloop
  endfacet
  facet normal -0.707107 0.707107 0
    outer loop
      vertex 64.0686 -9.36622 8
      vertex 64.0686 -9.36622 0
      vertex 63.3662 -10.0686 8
    endloop
  endfacet
  facet normal -0.707107 0.707107 0
    outer loop
      vertex 63.3662 -10.0686 8
      vertex 64.0686 -9.36622 0
      vertex 63.3662 -10.0686 0
    endloop
  endfacet
  facet normal -0.45399 0.891007 0
    outer loop
      vertex 63.3662 -10.0686 8
      vertex 63.3662 -10.0686 0
      vertex 62.4811 -10.5196 8
    endloop
  endfacet
  facet normal -0.45399 0.891007 0
    outer loop
      vertex 62.4811 -10.5196 8
      vertex 63.3662 -10.0686 0
      vertex 62.4811 -10.5196 0
    endloop
  endfacet
  facet normal -0.156435 0.987688 0
    outer loop
      vertex 62.4811 -10.5196 8
      vertex 62.4811 -10.5196 0
      vertex 61.5 -10.675 8
    endloop
  endfacet
  facet normal -0.156435 0.987688 0
    outer loop
      vertex 61.5 -10.675 8
      vertex 62.4811 -10.5196 0
      vertex 61.5 -10.675 0
    endloop
  endfacet
  facet normal 0.156435 0.987688 0
    outer loop
      vertex 61.5 -10.675 8
      vertex 61.5 -10.675 0
      vertex 60.5189 -10.5196 8
    endloop
  endfacet
  facet normal 0.156435 0.987688 0
    outer loop
      vertex 60.5189 -10.5196 8
      vertex 61.5 -10.675 0
      vertex 60.5189 -10.5196 0
    endloop
  endfacet
  facet normal 0.45399 0.891007 0
    outer loop
      vertex 60.5189 -10.5196 8
      vertex 60.5189 -10.5196 0
      vertex 59.6338 -10.0686 8
    endloop
  endfacet
  facet normal 0.45399 0.891007 0
    outer loop
      vertex 59.6338 -10.0686 8
      vertex 60.5189 -10.5196 0
      vertex 59.6338 -10.0686 0
    endloop
  endfacet
  facet normal 0.707107 0.707107 0
    outer loop
      vertex 59.6338 -10.0686 8
      vertex 59.6338 -10.0686 0
      vertex 58.9314 -9.36622 8
    endloop
  endfacet
  facet normal 0.707107 0.707107 0
    outer loop
      vertex 58.9314 -9.36622 8
      vertex 59.6338 -10.0686 0
      vertex 58.9314 -9.36622 0
    endloop
  endfacet
  facet normal 0.891007 0.45399 0
    outer loop
      vertex 58.4804 -8.48113 8
      vertex 58.9314 -9.36622 8
      vertex 58.9314 -9.36622 0
    endloop
  endfacet
  facet normal 0.891007 0.45399 0
    outer loop
      vertex 58.4804 -8.48113 0
      vertex 58.4804 -8.48113 8
      vertex 58.9314 -9.36622 0
    endloop
  endfacet
  facet normal 0.987688 -0.156435 0
    outer loop
      vertex 58.4804 83.4811 0
      vertex 58.4804 83.4811 8
      vertex 58.325 82.5 8
    endloop
  endfacet
  facet normal 0.987688 -0.156435 0
    outer loop
      vertex 58.325 82.5 0
      vertex 58.4804 83.4811 0
      vertex 58.325 82.5 8
    endloop
  endfacet
  facet normal 0.987688 0.156435 0
    outer loop
      vertex 58.325 82.5 8
      vertex 58.4804 81.5189 8
      vertex 58.4804 81.5189 0
    endloop
  endfacet
  facet normal 0.987688 0.156435 0
    outer loop
      vertex 58.325 82.5 0
      vertex 58.325 82.5 8
      vertex 58.4804 81.5189 0
    endloop
  endfacet
  facet normal 0.891007 -0.45399 0
    outer loop
      vertex 58.9314 84.3662 0
      vertex 58.9314 84.3662 8
      vertex 58.4804 83.4811 8
    endloop
  endfacet
  facet normal 0.891007 -0.45399 0
    outer loop
      vertex 58.4804 83.4811 0
      vertex 58.9314 84.3662 0
      vertex 58.4804 83.4811 8
    endloop
  endfacet
  facet normal 0.707107 -0.707107 0
    outer loop
      vertex 59.6338 85.0686 0
      vertex 59.6338 85.0686 8
      vertex 58.9314 84.3662 8
    endloop
  endfacet
  facet normal 0.707107 -0.707107 0
    outer loop
      vertex 58.9314 84.3662 0
      vertex 59.6338 85.0686 0
      vertex 58.9314 84.3662 8
    endloop
  endfacet
  facet normal 0.45399 -0.891007 0
    outer loop
      vertex 60.5189 85.5196 0
      vertex 60.5189 85.5196 8
      vertex 59.6338 85.0686 8
    endloop
  endfacet
  facet normal 0.45399 -0.891007 0
    outer loop
      vertex 59.6338 85.0686 0
      vertex 60.5189 85.5196 0
      vertex 59.6338 85.0686 8
    endloop
  endfacet
  facet normal 0.156435 -0.987688 0
    outer loop
      vertex 61.5 85.675 0
      vertex 61.5 85.675 8
      vertex 60.5189 85.5196 8
    endloop
  endfacet
  facet normal 0.156435 -0.987688 0
    outer loop
      vertex 60.5189 85.5196 0
      vertex 61.5 85.675 0
      vertex 60.5189 85.5196 8
    endloop
  endfacet
  facet normal -0.156435 -0.987688 0
    outer loop
      vertex 62.4811 85.5196 0
      vertex 62.4811 85.5196 8
      vertex 61.5 85.675 8
    endloop
  endfacet
  facet normal -0.156435 -0.987688 0
    outer loop
      vertex 61.5 85.675 0
      vertex 62.4811 85.5196 0
      vertex 61.5 85.675 8
    endloop
  endfacet
  facet normal -0.45399 -0.891007 0
    outer loop
      vertex 63.3662 85.0686 0
      vertex 63.3662 85.0686 8
      vertex 62.4811 85.5196 8
    endloop
  endfacet
  facet normal -0.45399 -0.891007 0
    outer loop
      vertex 62.4811 85.5196 0
      vertex 63.3662 85.0686 0
      vertex 62.4811 85.5196 8
    endloop
  endfacet
  facet normal -0.707107 -0.707107 0
    outer loop
      vertex 64.0686 84.3662 0
      vertex 64.0686 84.3662 8
      vertex 63.3662 85.0686 8
    endloop
  endfacet
  facet normal -0.707107 -0.707107 0
    outer loop
      vertex 63.3662 85.0686 0
      vertex 64.0686 84.3662 0
      vertex 63.3662 85.0686 8
    endloop
  endfacet
  facet normal -0.891007 -0.45399 0
    outer loop
      vertex 64.5196 83.4811 8
      vertex 64.0686 84.3662 8
      vertex 64.5196 83.4811 0
    endloop
  endfacet
  facet normal -0.891007 -0.45399 0
    outer loop
      vertex 64.5196 83.4811 0
      vertex 64.0686 84.3662 8
      vertex 64.0686 84.3662 0
    endloop
  endfacet
  facet normal -0.987688 -0.156435 0
    outer loop
      vertex 64.675 82.5 8
      vertex 64.5196 83.4811 8
      vertex 64.675 82.5 0
    endloop
  endfacet
  facet normal -0.987688 -0.156435 0
    outer loop
      vertex 64.675 82.5 0
      vertex 64.5196 83.4811 8
      vertex 64.5196 83.4811 0
    endloop
  endfacet
  facet normal -0.987688 0.156435 0
    outer loop
      vertex 64.675 82.5 8
      vertex 64.675 82.5 0
      vertex 64.5196 81.5189 8
    endloop
  endfacet
  facet normal -0.987688 0.156435 0
    outer loop
      vertex 64.5196 81.5189 8
      vertex 64.675 82.5 0
      vertex 64.5196 81.5189 0
    endloop
  endfacet
  facet normal -0.891007 0.45399 0
    outer loop
      vertex 64.5196 81.5189 8
      vertex 64.5196 81.5189 0
      vertex 64.0686 80.6338 8
    endloop
  endfacet
  facet normal -0.891007 0.45399 0
    outer loop
      vertex 64.0686 80.6338 8
      vertex 64.5196 81.5189 0
      vertex 64.0686 80.6338 0
    endloop
  endfacet
  facet normal -0.707107 0.707107 0
    outer loop
      vertex 64.0686 80.6338 8
      vertex 64.0686 80.6338 0
      vertex 63.3662 79.9314 8
    endloop
  endfacet
  facet normal -0.707107 0.707107 0
    outer loop
      vertex 63.3662 79.9314 8
      vertex 64.0686 80.6338 0
      vertex 63.3662 79.9314 0
    endloop
  endfacet
  facet normal -0.45399 0.891007 0
    outer loop
      vertex 63.3662 79.9314 8
      vertex 63.3662 79.9314 0
      vertex 62.4811 79.4804 8
    endloop
  endfacet
  facet normal -0.45399 0.891007 0
    outer loop
      vertex 62.4811 79.4804 8
      vertex 63.3662 79.9314 0
      vertex 62.4811 79.4804 0
    endloop
  endfacet
  facet normal -0.156435 0.987688 0
    outer loop
      vertex 62.4811 79.4804 8
      vertex 62.4811 79.4804 0
      vertex 61.5 79.325 8
    endloop
  endfacet
  facet normal -0.156435 0.987688 0
    outer loop
      vertex 61.5 79.325 8
      vertex 62.4811 79.4804 0
      vertex 61.5 79.325 0
    endloop
  endfacet
  facet normal 0.156435 0.987688 0
    outer loop
      vertex 61.5 79.325 8
      vertex 61.5 79.325 0
      vertex 60.5189 79.4804 8
    endloop
  endfacet
  facet normal 0.156435 0.987688 0
    outer loop
      vertex 60.5189 79.4804 8
      vertex 61.5 79.325 0
      vertex 60.5189 79.4804 0
    endloop
  endfacet
  facet normal 0.45399 0.891007 0
    outer loop
      vertex 60.5189 79.4804 8
      vertex 60.5189 79.4804 0
      vertex 59.6338 79.9314 8
    endloop
  endfacet
  facet normal 0.45399 0.891007 0
    outer loop
      vertex 59.6338 79.9314 8
      vertex 60.5189 79.4804 0
      vertex 59.6338 79.9314 0
    endloop
  endfacet
  facet normal 0.707107 0.707107 0
    outer loop
      vertex 59.6338 79.9314 8
      vertex 59.6338 79.9314 0
      vertex 58.9314 80.6338 8
    endloop
  endfacet
  facet normal 0.707107 0.707107 0
    outer loop
      vertex 58.9314 80.6338 8
      vertex 59.6338 79.9314 0
      vertex 58.9314 80.6338 0
    endloop
  endfacet
  facet normal 0.891007 0.45399 0
    outer loop
      vertex 58.4804 81.5189 8
      vertex 58.9314 80.6338 8
      vertex 58.9314 80.6338 0
    endloop
  endfacet
  facet normal 0.891007 0.45399 0
    outer loop
      vertex 58.4804 81.5189 0
      vertex 58.4804 81.5189 8
      vertex 58.9314 80.6338 0
    endloop
  endfacet
  facet normal 0 0 1
    outer loop
      vertex 61.5 79.325 8
      vertex 54 75 8
      vertex 69 75 8
    endloop
  endfacet
  facet normal 0 0 1
    outer loop
      vertex 54 90 8
      vertex 54 75 8
      vertex 58.4804 81.5189 8
    endloop
  endfacet
  facet normal 0 0 1
    outer loop
      vertex 62.4811 79.4804 8
      vertex 61.5 79.325 8
      vertex 69 75 8
    endloop
  endfacet
  facet normal 0 0 1
    outer loop
      vertex 54 90 8
      vertex 58.4804 81.5189 8
      vertex 58.325 82.5 8
    endloop
  endfacet
  facet normal 0 0 1
    outer loop
      vertex 54 90 8
      vertex 58.325 82.5 8
      vertex 58.4804 83.4811 8
    endloop
  endfacet
  facet normal 0 0 1
    outer loop
      vertex 64.5196 83.4811 8
      vertex 64.675 82.5 8
      vertex 69 75 8
    endloop
  endfacet
  facet normal 0 0 1
    outer loop
      vertex 54 90 8
      vertex 58.4804 83.4811 8
      vertex 58.9314 84.3662 8
    endloop
  endfacet
  facet normal 0 0 1
    outer loop
      vertex 63.3662 79.9314 8
      vertex 62.4811 79.4804 8
      vertex 69 75 8
    endloop
  endfacet
  facet normal 0 0 1
    outer loop
      vertex 69 90 8
      vertex 54 90 8
      vertex 59.6338 85.0686 8
    endloop
  endfacet
  facet normal 0 0 1
    outer loop
      vertex 69 90 8
      vertex 59.6338 85.0686 8
      vertex 60.5189 85.5196 8
    endloop
  endfacet
  facet normal 0 0 1
    outer loop
      vertex 64.0686 80.6338 8
      vertex 63.3662 79.9314 8
      vertex 69 75 8
    endloop
  endfacet
  facet normal 0 0 1
    outer loop
      vertex 69 90 8
      vertex 60.5189 85.5196 8
      vertex 61.5 85.675 8
    endloop
  endfacet
  facet normal 0 0 1
    outer loop
      vertex 69 90 8
      vertex 61.5 85.675 8
      vertex 62.4811 85.5196 8
    endloop
  endfacet
  facet normal 0 0 1
    outer loop
      vertex 64.675 82.5 8
      vertex 64.5196 81.5189 8
      vertex 69 75 8
    endloop
  endfacet
  facet normal 0 0 1
    outer loop
      vertex 69 90 8
      vertex 62.4811 85.5196 8
      vertex 63.3662 85.0686 8
    endloop
  endfacet
  facet normal 0 0 1
    outer loop
      vertex 69 90 8
      vertex 64.0686 84.3662 8
      vertex 69 75 8
    endloop
  endfacet
  facet normal 0 0 1
    outer loop
      vertex 69 90 8
      vertex 63.3662 85.0686 8
      vertex 64.0686 84.3662 8
    endloop
  endfacet
  facet normal 0 0 1
    outer loop
      vertex 64.0686 84.3662 8
      vertex 64.5196 83.4811 8
      vertex 69 75 8
    endloop
  endfacet
  facet normal 0 0 1
    outer loop
      vertex 60.5189 79.4804 8
      vertex 54 75 8
      vertex 61.5 79.325 8
    endloop
  endfacet
  facet normal 0 0 1
    outer loop
      vertex 59.6338 79.9314 8
      vertex 54 75 8
      vertex 60.5189 79.4804 8
    endloop
  endfacet
  facet normal 0 0 1
    outer loop
      vertex 58.9314 80.6338 8
      vertex 54 75 8
      vertex 59.6338 79.9314 8
    endloop
  endfacet
  facet normal 0 0 1
    outer loop
      vertex 58.4804 81.5189 8
      vertex 54 75 8
      vertex 58.9314 80.6338 8
    endloop
  endfacet
  facet normal 0 0 1
    outer loop
      vertex 58.9314 84.3662 8
      vertex 59.6338 85.0686 8
      vertex 54 90 8
    endloop
  endfacet
  facet normal 0 0 1
    outer loop
      vertex 64.5196 81.5189 8
      vertex 64.0686 80.6338 8
      vertex 69 75 8
    endloop
  endfacet
  facet normal 1 0 0
    outer loop
      vertex 2.5 61 1
      vertex 2.5 61 9
      vertex 2.5 10 9
    endloop
  endfacet
  facet normal 1 0 0
    outer loop
      vertex 2.5 10 1
      vertex 2.5 61 1
      vertex 2.5 10 9
    endloop
  endfacet
  facet normal 0 1 0
    outer loop
      vertex 85.5 10 9
      vertex 85.5 10 1
      vertex 2.5 10 9
    endloop
  endfacet
  facet normal 0 1 0
    outer loop
      vertex 2.5 10 9
      vertex 85.5 10 1
      vertex 2.5 10 1
    endloop
  endfacet
  facet normal -1 0 0
    outer loop
      vertex 85.5 61 9
      vertex 85.5 61 1
      vertex 85.5 10 9
    endloop
  endfacet
  facet normal -1 0 0
    outer loop
      vertex 85.5 10 9
      vertex 85.5 61 1
      vertex 85.5 10 1
    endloop
  endfacet
  facet normal 0 -1 0
    outer loop
      vertex 85.5 61 1
      vertex 85.5 61 9
      vertex 2.5 61 9
    endloop
  endfacet
  facet normal 0 -1 0
    outer loop
      vertex 2.5 61 1
      vertex 85.5 61 1
      vertex 2.5 61 9
    endloop
  endfacet
  facet normal 1 0 0
    outer loop
      vertex 87 72.5 1
      vertex 87 72.5 9
      vertex 87 2.5 9
    endloop
  endfacet
  facet normal 1 0 0
    outer loop
      vertex 87 2.5 1
      vertex 87 72.5 1
      vertex 87 2.5 9
    endloop
  endfacet
  facet normal 0 1 0
    outer loop
      vertex 121 2.5 9
      vertex 121 2.5 1
      vertex 87 2.5 9
    endloop
  endfacet
  facet normal 0 1 0
    outer loop
      vertex 87 2.5 9
      vertex 121 2.5 1
      vertex 87 2.5 1
    endloop
  endfacet
  facet normal -1 0 0
    outer loop
      vertex 121 72.5 9
      vertex 121 72.5 1
      vertex 121 2.5 9
    endloop
  endfacet
  facet normal -1 0 0
    outer loop
      vertex 121 2.5 9
      vertex 121 72.5 1
      vertex 121 2.5 1
    endloop
  endfacet
  facet normal 0 -1 0
    outer loop
      vertex 121 72.5 1
      vertex 121 72.5 9
      vertex 87 72.5 9
    endloop
  endfacet
  facet normal 0 -1 0
    outer loop
      vertex 87 72.5 1
      vertex 121 72.5 1
      vertex 87 72.5 9
    endloop
  endfacet
  facet normal 0 0 1
    outer loop
      vertex 85.5 10 1
      vertex 85.5 61 1
      vertex 2.5 61 1
    endloop
  endfacet
  facet normal 0 0 1
    outer loop
      vertex 2.5 10 1
      vertex 85.5 10 1
      vertex 2.5 61 1
    endloop
  endfacet
  facet normal 0 0 1
    outer loop
      vertex 121 2.5 1
      vertex 121 72.5 1
      vertex 87 72.5 1
    endloop
  endfacet
  facet normal 0 0 1
    outer loop
      vertex 87 2.5 1
      vertex 121 2.5 1
      vertex 87 72.5 1
    endloop
  endfacet
endsolid OpenSCAD_Model
