solid OpenSCAD_Model
  facet normal -1 0 0
    outer loop
      vertex 0 0 0
      vertex 0 0 7.5
      vertex 0 75 0
    endloop
  endfacet
  facet normal -1 0 0
    outer loop
      vertex 0 75 0
      vertex 0 0 7.5
      vertex 0 75 7.5
    endloop
  endfacet
  facet normal 0 -1 0
    outer loop
      vertex 0 0 7.5
      vertex 0 0 0
      vertex 54 0 0
    endloop
  endfacet
  facet normal 0 -1 0
    outer loop
      vertex 54 0 7.5
      vertex 0 0 7.5
      vertex 54 0 0
    endloop
  endfacet
  facet normal 0 0 -1
    outer loop
      vertex 0 0 0
      vertex 0 75 0
      vertex 54 0 0
    endloop
  endfacet
  facet normal 0 0 -1
    outer loop
      vertex 54 0 0
      vertex 0 75 0
      vertex 54 75 0
    endloop
  endfacet
  facet normal 0 0 -1
    outer loop
      vertex 62.4811 85.5196 0
      vertex 54 90 0
      vertex 69 90 0
    endloop
  endfacet
  facet normal 0 0 -1
    outer loop
      vertex 64.0686 80.6338 0
      vertex 69 90 0
      vertex 54 0 0
    endloop
  endfacet
  facet normal 0 0 -1
    outer loop
      vertex 54 0 0
      vertex 69 90 0
      vertex 69 75 0
    endloop
  endfacet
  facet normal 0 0 -1
    outer loop
      vertex 54 0 0
      vertex 69 75 0
      vertex 123 75 0
    endloop
  endfacet
  facet normal 0 0 -1
    outer loop
      vertex 69 0 0
      vertex 123 75 0
      vertex 123 0 0
    endloop
  endfacet
  facet normal 0 0 -1
    outer loop
      vertex 54 0 0
      vertex 123 75 0
      vertex 69 0 0
    endloop
  endfacet
  facet normal 0 0 -1
    outer loop
      vertex 61.5 -4.325 0
      vertex 54 0 0
      vertex 62.4811 -4.4804 0
    endloop
  endfacet
  facet normal 0 0 -1
    outer loop
      vertex 64.0686 -9.36622 0
      vertex 69 -15 0
      vertex 63.3662 -10.0686 0
    endloop
  endfacet
  facet normal 0 0 -1
    outer loop
      vertex 61.5 -10.675 0
      vertex 69 -15 0
      vertex 60.5189 -10.5196 0
    endloop
  endfacet
  facet normal 0 0 -1
    outer loop
      vertex 63.3662 -10.0686 0
      vertex 69 -15 0
      vertex 62.4811 -10.5196 0
    endloop
  endfacet
  facet normal 0 0 -1
    outer loop
      vertex 62.4811 -10.5196 0
      vertex 69 -15 0
      vertex 61.5 -10.675 0
    endloop
  endfacet
  facet normal 0 0 -1
    outer loop
      vertex 60.5189 -10.5196 0
      vertex 69 -15 0
      vertex 59.6338 -10.0686 0
    endloop
  endfacet
  facet normal 0 0 -1
    outer loop
      vertex 69 0 0
      vertex 69 -15 0
      vertex 64.0686 -9.36622 0
    endloop
  endfacet
  facet normal 0 0 -1
    outer loop
      vertex 69 0 0
      vertex 64.0686 -9.36622 0
      vertex 64.5196 -8.48113 0
    endloop
  endfacet
  facet normal 0 0 -1
    outer loop
      vertex 69 0 0
      vertex 64.5196 -8.48113 0
      vertex 64.675 -7.5 0
    endloop
  endfacet
  facet normal 0 0 -1
    outer loop
      vertex 69 0 0
      vertex 64.675 -7.5 0
      vertex 64.5196 -6.51887 0
    endloop
  endfacet
  facet normal 0 0 -1
    outer loop
      vertex 69 0 0
      vertex 64.5196 -6.51887 0
      vertex 64.0686 -5.63378 0
    endloop
  endfacet
  facet normal 0 0 -1
    outer loop
      vertex 69 0 0
      vertex 64.0686 -5.63378 0
      vertex 63.3662 -4.93137 0
    endloop
  endfacet
  facet normal 0 0 -1
    outer loop
      vertex 69 0 0
      vertex 63.3662 -4.93137 0
      vertex 54 0 0
    endloop
  endfacet
  facet normal 0 0 -1
    outer loop
      vertex 63.3662 -4.93137 0
      vertex 62.4811 -4.4804 0
      vertex 54 0 0
    endloop
  endfacet
  facet normal 0 0 -1
    outer loop
      vertex 60.5189 -4.4804 0
      vertex 54 0 0
      vertex 61.5 -4.325 0
    endloop
  endfacet
  facet normal 0 0 -1
    outer loop
      vertex 59.6338 -4.93137 0
      vertex 54 0 0
      vertex 60.5189 -4.4804 0
    endloop
  endfacet
  facet normal 0 0 -1
    outer loop
      vertex 58.9314 -5.63378 0
      vertex 54 0 0
      vertex 59.6338 -4.93137 0
    endloop
  endfacet
  facet normal 0 0 -1
    outer loop
      vertex 59.6338 79.9314 0
      vertex 54 75 0
      vertex 58.9314 80.6338 0
    endloop
  endfacet
  facet normal 0 0 -1
    outer loop
      vertex 54 0 0
      vertex 58.9314 -5.63378 0
      vertex 58.4804 -6.51887 0
    endloop
  endfacet
  facet normal 0 0 -1
    outer loop
      vertex 54 0 0
      vertex 58.4804 -6.51887 0
      vertex 58.325 -7.5 0
    endloop
  endfacet
  facet normal 0 0 -1
    outer loop
      vertex 54 75 0
      vertex 54 90 0
      vertex 58.325 82.5 0
    endloop
  endfacet
  facet normal 0 0 -1
    outer loop
      vertex 54 75 0
      vertex 58.325 82.5 0
      vertex 58.4804 81.5189 0
    endloop
  endfacet
  facet normal 0 0 -1
    outer loop
      vertex 54 75 0
      vertex 58.4804 81.5189 0
      vertex 58.9314 80.6338 0
    endloop
  endfacet
  facet normal 0 0 -1
    outer loop
      vertex 64.675 82.5 0
      vertex 69 90 0
      vertex 64.5196 81.5189 0
    endloop
  endfacet
  facet normal 0 0 -1
    outer loop
      vertex 54 75 0
      vertex 59.6338 79.9314 0
      vertex 54 0 0
    endloop
  endfacet
  facet normal 0 0 -1
    outer loop
      vertex 63.3662 85.0686 0
      vertex 69 90 0
      vertex 64.0686 84.3662 0
    endloop
  endfacet
  facet normal 0 0 -1
    outer loop
      vertex 59.6338 79.9314 0
      vertex 60.5189 79.4804 0
      vertex 54 0 0
    endloop
  endfacet
  facet normal 0 0 -1
    outer loop
      vertex 60.5189 79.4804 0
      vertex 61.5 79.325 0
      vertex 54 0 0
    endloop
  endfacet
  facet normal 0 0 -1
    outer loop
      vertex 64.0686 84.3662 0
      vertex 69 90 0
      vertex 64.5196 83.4811 0
    endloop
  endfacet
  facet normal 0 0 -1
    outer loop
      vertex 61.5 79.325 0
      vertex 62.4811 79.4804 0
      vertex 54 0 0
    endloop
  endfacet
  facet normal 0 0 -1
    outer loop
      vertex 64.5196 83.4811 0
      vertex 69 90 0
      vertex 64.675 82.5 0
    endloop
  endfacet
  facet normal 0 0 -1
    outer loop
      vertex 62.4811 79.4804 0
      vertex 63.3662 79.9314 0
      vertex 54 0 0
    endloop
  endfacet
  facet normal 0 0 -1
    outer loop
      vertex 64.5196 81.5189 0
      vertex 69 90 0
      vertex 64.0686 80.6338 0
    endloop
  endfacet
  facet normal 0 0 -1
    outer loop
      vertex 63.3662 79.9314 0
      vertex 64.0686 80.6338 0
      vertex 54 0 0
    endloop
  endfacet
  facet normal 0 0 -1
    outer loop
      vertex 62.4811 85.5196 0
      vertex 69 90 0
      vertex 63.3662 85.0686 0
    endloop
  endfacet
  facet normal 0 0 -1
    outer loop
      vertex 61.5 85.675 0
      vertex 54 90 0
      vertex 62.4811 85.5196 0
    endloop
  endfacet
  facet normal 0 0 -1
    outer loop
      vertex 60.5189 85.5196 0
      vertex 54 90 0
      vertex 61.5 85.675 0
    endloop
  endfacet
  facet normal 0 0 -1
    outer loop
      vertex 59.6338 85.0686 0
      vertex 54 90 0
      vertex 60.5189 85.5196 0
    endloop
  endfacet
  facet normal 0 0 -1
    outer loop
      vertex 58.9314 84.3662 0
      vertex 54 90 0
      vertex 59.6338 85.0686 0
    endloop
  endfacet
  facet normal 0 0 -1
    outer loop
      vertex 58.4804 83.4811 0
      vertex 54 90 0
      vertex 58.9314 84.3662 0
    endloop
  endfacet
  facet normal 0 0 -1
    outer loop
      vertex 58.325 82.5 0
      vertex 54 90 0
      vertex 58.4804 83.4811 0
    endloop
  endfacet
  facet normal 0 0 -1
    outer loop
      vertex 54 0 0
      vertex 58.325 -7.5 0
      vertex 58.4804 -8.48113 0
    endloop
  endfacet
  facet normal 0 0 -1
    outer loop
      vertex 54 0 0
      vertex 58.4804 -8.48113 0
      vertex 58.9314 -9.36622 0
    endloop
  endfacet
  facet normal 0 0 -1
    outer loop
      vertex 59.6338 -10.0686 0
      vertex 69 -15 0
      vertex 54 -15 0
    endloop
  endfacet
  facet normal 0 0 -1
    outer loop
      vertex 58.9314 -9.36622 0
      vertex 59.6338 -10.0686 0
      vertex 54 -15 0
    endloop
  endfacet
  facet normal 0 0 -1
    outer loop
      vertex 54 0 0
      vertex 58.9314 -9.36622 0
      vertex 54 -15 0
    endloop
  endfacet
  facet normal 0 1 0
    outer loop
      vertex 0 75 0
      vertex 0 75 7.5
      vertex 54 75 0
    endloop
  endfacet
  facet normal 0 1 0
    outer loop
      vertex 54 75 0
      vertex 0 75 7.5
      vertex 54 75 7.5
    endloop
  endfacet
  facet normal 0 0 1
    outer loop
      vertex 2.5 2.5 7.5
      vertex 0 0 7.5
      vertex 54 0 7.5
    endloop
  endfacet
  facet normal 0 0 1
    outer loop
      vertex 2.5 72.5 7.5
      vertex 54 75 7.5
      vertex 0 75 7.5
    endloop
  endfacet
  facet normal 0 0 1
    outer loop
      vertex 64.5196 -6.51887 7.5
      vertex 64.675 -7.5 7.5
      vertex 69 -15 7.5
    endloop
  endfacet
  facet normal 0 0 1
    outer loop
      vertex 69 0 7.5
      vertex 54 0 7.5
      vertex 59.6338 -4.93137 7.5
    endloop
  endfacet
  facet normal 0 0 1
    outer loop
      vertex 118.5 72.5 7.5
      vertex 118.5 2.5 7.5
      vertex 123 0 7.5
    endloop
  endfacet
  facet normal 0 0 1
    outer loop
      vertex 118.5 72.5 7.5
      vertex 123 75 7.5
      vertex 69 75 7.5
    endloop
  endfacet
  facet normal 0 0 1
    outer loop
      vertex 118.5 2.5 7.5
      vertex 54 0 7.5
      vertex 69 0 7.5
    endloop
  endfacet
  facet normal 0 0 1
    outer loop
      vertex 64.5196 -8.48113 7.5
      vertex 64.0686 -9.36622 7.5
      vertex 69 -15 7.5
    endloop
  endfacet
  facet normal 0 0 1
    outer loop
      vertex 58.9314 -5.63378 7.5
      vertex 59.6338 -4.93137 7.5
      vertex 54 0 7.5
    endloop
  endfacet
  facet normal 0 0 1
    outer loop
      vertex 0 75 7.5
      vertex 0 0 7.5
      vertex 2.5 2.5 7.5
    endloop
  endfacet
  facet normal 0 0 1
    outer loop
      vertex 123 0 7.5
      vertex 123 75 7.5
      vertex 118.5 72.5 7.5
    endloop
  endfacet
  facet normal 0 0 1
    outer loop
      vertex 69 0 7.5
      vertex 123 0 7.5
      vertex 118.5 2.5 7.5
    endloop
  endfacet
  facet normal 0 0 1
    outer loop
      vertex 54 -15 7.5
      vertex 58.4804 -8.48113 7.5
      vertex 54 0 7.5
    endloop
  endfacet
  facet normal 0 0 1
    outer loop
      vertex 58.4804 -8.48113 7.5
      vertex 58.325 -7.5 7.5
      vertex 54 0 7.5
    endloop
  endfacet
  facet normal 0 0 1
    outer loop
      vertex 58.325 -7.5 7.5
      vertex 58.4804 -6.51887 7.5
      vertex 54 0 7.5
    endloop
  endfacet
  facet normal 0 0 1
    outer loop
      vertex 62.4811 -10.5196 7.5
      vertex 61.5 -10.675 7.5
      vertex 69 -15 7.5
    endloop
  endfacet
  facet normal 0 0 1
    outer loop
      vertex 58.4804 -6.51887 7.5
      vertex 58.9314 -5.63378 7.5
      vertex 54 0 7.5
    endloop
  endfacet
  facet normal 0 0 1
    outer loop
      vertex 2.5 72.5 7.5
      vertex 69 75 7.5
      vertex 54 75 7.5
    endloop
  endfacet
  facet normal 0 0 1
    outer loop
      vertex 2.5 72.5 7.5
      vertex 118.5 72.5 7.5
      vertex 69 75 7.5
    endloop
  endfacet
  facet normal 0 0 1
    outer loop
      vertex 62.4811 -4.4804 7.5
      vertex 69 0 7.5
      vertex 61.5 -4.325 7.5
    endloop
  endfacet
  facet normal 0 0 1
    outer loop
      vertex 63.3662 -4.93137 7.5
      vertex 69 0 7.5
      vertex 62.4811 -4.4804 7.5
    endloop
  endfacet
  facet normal 0 0 1
    outer loop
      vertex 64.0686 -5.63378 7.5
      vertex 69 0 7.5
      vertex 63.3662 -4.93137 7.5
    endloop
  endfacet
  facet normal 0 0 1
    outer loop
      vertex 69 -15 7.5
      vertex 69 0 7.5
      vertex 64.0686 -5.63378 7.5
    endloop
  endfacet
  facet normal 0 0 1
    outer loop
      vertex 64.675 -7.5 7.5
      vertex 64.5196 -8.48113 7.5
      vertex 69 -15 7.5
    endloop
  endfacet
  facet normal 0 0 1
    outer loop
      vertex 69 -15 7.5
      vertex 64.0686 -5.63378 7.5
      vertex 64.5196 -6.51887 7.5
    endloop
  endfacet
  facet normal 0 0 1
    outer loop
      vertex 64.0686 -9.36622 7.5
      vertex 63.3662 -10.0686 7.5
      vertex 69 -15 7.5
    endloop
  endfacet
  facet normal 0 0 1
    outer loop
      vertex 63.3662 -10.0686 7.5
      vertex 62.4811 -10.5196 7.5
      vertex 69 -15 7.5
    endloop
  endfacet
  facet normal 0 0 1
    outer loop
      vertex 62.4811 85.5196 7.5
      vertex 63.3662 85.0686 7.5
      vertex 69 90 7.5
    endloop
  endfacet
  facet normal 0 0 1
    outer loop
      vertex 60.5189 85.5196 7.5
      vertex 61.5 85.675 7.5
      vertex 69 90 7.5
    endloop
  endfacet
  facet normal 0 0 1
    outer loop
      vertex 54 -15 7.5
      vertex 69 -15 7.5
      vertex 61.5 -10.675 7.5
    endloop
  endfacet
  facet normal 0 0 1
    outer loop
      vertex 54 -15 7.5
      vertex 61.5 -10.675 7.5
      vertex 60.5189 -10.5196 7.5
    endloop
  endfacet
  facet normal 0 0 1
    outer loop
      vertex 54 -15 7.5
      vertex 60.5189 -10.5196 7.5
      vertex 59.6338 -10.0686 7.5
    endloop
  endfacet
  facet normal 0 0 1
    outer loop
      vertex 54 -15 7.5
      vertex 58.9314 -9.36622 7.5
      vertex 58.4804 -8.48113 7.5
    endloop
  endfacet
  facet normal 0 0 1
    outer loop
      vertex 54 -15 7.5
      vertex 59.6338 -10.0686 7.5
      vertex 58.9314 -9.36622 7.5
    endloop
  endfacet
  facet normal 0 0 1
    outer loop
      vertex 2.5 2.5 7.5
      vertex 2.5 72.5 7.5
      vertex 0 75 7.5
    endloop
  endfacet
  facet normal 0 0 1
    outer loop
      vertex 63.3662 85.0686 7.5
      vertex 64.0686 84.3662 7.5
      vertex 69 90 7.5
    endloop
  endfacet
  facet normal 0 0 1
    outer loop
      vertex 69 0 7.5
      vertex 60.5189 -4.4804 7.5
      vertex 61.5 -4.325 7.5
    endloop
  endfacet
  facet normal 0 0 1
    outer loop
      vertex 69 0 7.5
      vertex 59.6338 -4.93137 7.5
      vertex 60.5189 -4.4804 7.5
    endloop
  endfacet
  facet normal 0 0 1
    outer loop
      vertex 60.5189 85.5196 7.5
      vertex 69 90 7.5
      vertex 59.6338 85.0686 7.5
    endloop
  endfacet
  facet normal 0 0 1
    outer loop
      vertex 61.5 85.675 7.5
      vertex 62.4811 85.5196 7.5
      vertex 69 90 7.5
    endloop
  endfacet
  facet normal 0 0 1
    outer loop
      vertex 60.5189 79.4804 7.5
      vertex 59.6338 79.9314 7.5
      vertex 54 75 7.5
    endloop
  endfacet
  facet normal 0 0 1
    outer loop
      vertex 62.4811 79.4804 7.5
      vertex 61.5 79.325 7.5
      vertex 54 75 7.5
    endloop
  endfacet
  facet normal 0 0 1
    outer loop
      vertex 69 75 7.5
      vertex 69 90 7.5
      vertex 64.0686 84.3662 7.5
    endloop
  endfacet
  facet normal 0 0 1
    outer loop
      vertex 69 75 7.5
      vertex 64.0686 84.3662 7.5
      vertex 64.5196 83.4811 7.5
    endloop
  endfacet
  facet normal 0 0 1
    outer loop
      vertex 59.6338 79.9314 7.5
      vertex 58.9314 80.6338 7.5
      vertex 54 75 7.5
    endloop
  endfacet
  facet normal 0 0 1
    outer loop
      vertex 69 75 7.5
      vertex 64.5196 83.4811 7.5
      vertex 64.675 82.5 7.5
    endloop
  endfacet
  facet normal 0 0 1
    outer loop
      vertex 69 75 7.5
      vertex 64.675 82.5 7.5
      vertex 64.5196 81.5189 7.5
    endloop
  endfacet
  facet normal 0 0 1
    outer loop
      vertex 61.5 79.325 7.5
      vertex 60.5189 79.4804 7.5
      vertex 54 75 7.5
    endloop
  endfacet
  facet normal 0 0 1
    outer loop
      vertex 69 75 7.5
      vertex 64.5196 81.5189 7.5
      vertex 64.0686 80.6338 7.5
    endloop
  endfacet
  facet normal 0 0 1
    outer loop
      vertex 69 75 7.5
      vertex 63.3662 79.9314 7.5
      vertex 54 75 7.5
    endloop
  endfacet
  facet normal 0 0 1
    outer loop
      vertex 69 75 7.5
      vertex 64.0686 80.6338 7.5
      vertex 63.3662 79.9314 7.5
    endloop
  endfacet
  facet normal 0 0 1
    outer loop
      vertex 63.3662 79.9314 7.5
      vertex 62.4811 79.4804 7.5
      vertex 54 75 7.5
    endloop
  endfacet
  facet normal 0 0 1
    outer loop
      vertex 54 75 7.5
      vertex 58.9314 80.6338 7.5
      vertex 58.4804 81.5189 7.5
    endloop
  endfacet
  facet normal 0 0 1
    outer loop
      vertex 54 90 7.5
      vertex 59.6338 85.0686 7.5
      vertex 69 90 7.5
    endloop
  endfacet
  facet normal 0 0 1
    outer loop
      vertex 54 90 7.5
      vertex 58.9314 84.3662 7.5
      vertex 59.6338 85.0686 7.5
    endloop
  endfacet
  facet normal 0 0 1
    outer loop
      vertex 54 90 7.5
      vertex 58.4804 83.4811 7.5
      vertex 58.9314 84.3662 7.5
    endloop
  endfacet
  facet normal 0 0 1
    outer loop
      vertex 54 90 7.5
      vertex 58.325 82.5 7.5
      vertex 58.4804 83.4811 7.5
    endloop
  endfacet
  facet normal 0 0 1
    outer loop
      vertex 54 90 7.5
      vertex 58.4804 81.5189 7.5
      vertex 58.325 82.5 7.5
    endloop
  endfacet
  facet normal 0 0 1
    outer loop
      vertex 54 90 7.5
      vertex 54 75 7.5
      vertex 58.4804 81.5189 7.5
    endloop
  endfacet
  facet normal 0 0 1
    outer loop
      vertex 118.5 2.5 7.5
      vertex 2.5 2.5 7.5
      vertex 54 0 7.5
    endloop
  endfacet
  facet normal -1 0 0
    outer loop
      vertex 54 -15 0
      vertex 54 -15 7.5
      vertex 54 0 0
    endloop
  endfacet
  facet normal -1 0 0
    outer loop
      vertex 54 0 0
      vertex 54 -15 7.5
      vertex 54 0 7.5
    endloop
  endfacet
  facet normal 0 -1 0
    outer loop
      vertex 54 -15 7.5
      vertex 54 -15 0
      vertex 69 -15 0
    endloop
  endfacet
  facet normal 0 -1 0
    outer loop
      vertex 69 -15 7.5
      vertex 54 -15 7.5
      vertex 69 -15 0
    endloop
  endfacet
  facet normal 1 0 0
    outer loop
      vertex 69 -15 7.5
      vertex 69 -15 0
      vertex 69 0 0
    endloop
  endfacet
  facet normal 1 0 0
    outer loop
      vertex 69 0 7.5
      vertex 69 -15 7.5
      vertex 69 0 0
    endloop
  endfacet
  facet normal 0 -1 0
    outer loop
      vertex 69 0 7.5
      vertex 69 0 0
      vertex 123 0 0
    endloop
  endfacet
  facet normal 0 -1 0
    outer loop
      vertex 123 0 7.5
      vertex 69 0 7.5
      vertex 123 0 0
    endloop
  endfacet
  facet normal 1 0 0
    outer loop
      vertex 123 0 7.5
      vertex 123 0 0
      vertex 123 75 0
    endloop
  endfacet
  facet normal 1 0 0
    outer loop
      vertex 123 75 7.5
      vertex 123 0 7.5
      vertex 123 75 0
    endloop
  endfacet
  facet normal 0 1 0
    outer loop
      vertex 69 75 0
      vertex 69 75 7.5
      vertex 123 75 0
    endloop
  endfacet
  facet normal 0 1 0
    outer loop
      vertex 123 75 0
      vertex 69 75 7.5
      vertex 123 75 7.5
    endloop
  endfacet
  facet normal 1 0 0
    outer loop
      vertex 69 75 7.5
      vertex 69 75 0
      vertex 69 90 0
    endloop
  endfacet
  facet normal 1 0 0
    outer loop
      vertex 69 90 7.5
      vertex 69 75 7.5
      vertex 69 90 0
    endloop
  endfacet
  facet normal 0 1 0
    outer loop
      vertex 54 90 0
      vertex 54 90 7.5
      vertex 69 90 0
    endloop
  endfacet
  facet normal 0 1 0
    outer loop
      vertex 69 90 0
      vertex 54 90 7.5
      vertex 69 90 7.5
    endloop
  endfacet
  facet normal -1 0 0
    outer loop
      vertex 54 75 0
      vertex 54 75 7.5
      vertex 54 90 0
    endloop
  endfacet
  facet normal -1 0 0
    outer loop
      vertex 54 90 0
      vertex 54 75 7.5
      vertex 54 90 7.5
    endloop
  endfacet
  facet normal 0.987688 -0.156435 0
    outer loop
      vertex 58.4804 -6.51887 0
      vertex 58.4804 -6.51887 7.5
      vertex 58.325 -7.5 7.5
    endloop
  endfacet
  facet normal 0.987688 -0.156435 0
    outer loop
      vertex 58.325 -7.5 0
      vertex 58.4804 -6.51887 0
      vertex 58.325 -7.5 7.5
    endloop
  endfacet
  facet normal 0.987688 0.156435 0
    outer loop
      vertex 58.325 -7.5 7.5
      vertex 58.4804 -8.48113 7.5
      vertex 58.4804 -8.48113 0
    endloop
  endfacet
  facet normal 0.987688 0.156435 0
    outer loop
      vertex 58.325 -7.5 0
      vertex 58.325 -7.5 7.5
      vertex 58.4804 -8.48113 0
    endloop
  endfacet
  facet normal 0.891007 -0.45399 0
    outer loop
      vertex 58.9314 -5.63378 0
      vertex 58.9314 -5.63378 7.5
      vertex 58.4804 -6.51887 7.5
    endloop
  endfacet
  facet normal 0.891007 -0.45399 0
    outer loop
      vertex 58.4804 -6.51887 0
      vertex 58.9314 -5.63378 0
      vertex 58.4804 -6.51887 7.5
    endloop
  endfacet
  facet normal 0.707107 -0.707107 0
    outer loop
      vertex 59.6338 -4.93137 0
      vertex 59.6338 -4.93137 7.5
      vertex 58.9314 -5.63378 7.5
    endloop
  endfacet
  facet normal 0.707107 -0.707107 0
    outer loop
      vertex 58.9314 -5.63378 0
      vertex 59.6338 -4.93137 0
      vertex 58.9314 -5.63378 7.5
    endloop
  endfacet
  facet normal 0.45399 -0.891007 0
    outer loop
      vertex 60.5189 -4.4804 0
      vertex 60.5189 -4.4804 7.5
      vertex 59.6338 -4.93137 7.5
    endloop
  endfacet
  facet normal 0.45399 -0.891007 0
    outer loop
      vertex 59.6338 -4.93137 0
      vertex 60.5189 -4.4804 0
      vertex 59.6338 -4.93137 7.5
    endloop
  endfacet
  facet normal 0.156435 -0.987688 0
    outer loop
      vertex 61.5 -4.325 0
      vertex 61.5 -4.325 7.5
      vertex 60.5189 -4.4804 7.5
    endloop
  endfacet
  facet normal 0.156435 -0.987688 0
    outer loop
      vertex 60.5189 -4.4804 0
      vertex 61.5 -4.325 0
      vertex 60.5189 -4.4804 7.5
    endloop
  endfacet
  facet normal -0.156435 -0.987688 0
    outer loop
      vertex 62.4811 -4.4804 0
      vertex 62.4811 -4.4804 7.5
      vertex 61.5 -4.325 7.5
    endloop
  endfacet
  facet normal -0.156435 -0.987688 0
    outer loop
      vertex 61.5 -4.325 0
      vertex 62.4811 -4.4804 0
      vertex 61.5 -4.325 7.5
    endloop
  endfacet
  facet normal -0.45399 -0.891007 0
    outer loop
      vertex 63.3662 -4.93137 0
      vertex 63.3662 -4.93137 7.5
      vertex 62.4811 -4.4804 7.5
    endloop
  endfacet
  facet normal -0.45399 -0.891007 0
    outer loop
      vertex 62.4811 -4.4804 0
      vertex 63.3662 -4.93137 0
      vertex 62.4811 -4.4804 7.5
    endloop
  endfacet
  facet normal -0.707107 -0.707107 0
    outer loop
      vertex 64.0686 -5.63378 0
      vertex 64.0686 -5.63378 7.5
      vertex 63.3662 -4.93137 7.5
    endloop
  endfacet
  facet normal -0.707107 -0.707107 0
    outer loop
      vertex 63.3662 -4.93137 0
      vertex 64.0686 -5.63378 0
      vertex 63.3662 -4.93137 7.5
    endloop
  endfacet
  facet normal -0.891007 -0.45399 0
    outer loop
      vertex 64.5196 -6.51887 7.5
      vertex 64.0686 -5.63378 7.5
      vertex 64.5196 -6.51887 0
    endloop
  endfacet
  facet normal -0.891007 -0.45399 0
    outer loop
      vertex 64.5196 -6.51887 0
      vertex 64.0686 -5.63378 7.5
      vertex 64.0686 -5.63378 0
    endloop
  endfacet
  facet normal -0.987688 -0.156435 0
    outer loop
      vertex 64.675 -7.5 7.5
      vertex 64.5196 -6.51887 7.5
      vertex 64.675 -7.5 0
    endloop
  endfacet
  facet normal -0.987688 -0.156435 0
    outer loop
      vertex 64.675 -7.5 0
      vertex 64.5196 -6.51887 7.5
      vertex 64.5196 -6.51887 0
    endloop
  endfacet
  facet normal -0.987688 0.156435 0
    outer loop
      vertex 64.675 -7.5 7.5
      vertex 64.675 -7.5 0
      vertex 64.5196 -8.48113 7.5
    endloop
  endfacet
  facet normal -0.987688 0.156435 0
    outer loop
      vertex 64.5196 -8.48113 7.5
      vertex 64.675 -7.5 0
      vertex 64.5196 -8.48113 0
    endloop
  endfacet
  facet normal -0.891007 0.45399 0
    outer loop
      vertex 64.5196 -8.48113 7.5
      vertex 64.5196 -8.48113 0
      vertex 64.0686 -9.36622 7.5
    endloop
  endfacet
  facet normal -0.891007 0.45399 0
    outer loop
      vertex 64.0686 -9.36622 7.5
      vertex 64.5196 -8.48113 0
      vertex 64.0686 -9.36622 0
    endloop
  endfacet
  facet normal -0.707107 0.707107 0
    outer loop
      vertex 64.0686 -9.36622 7.5
      vertex 64.0686 -9.36622 0
      vertex 63.3662 -10.0686 7.5
    endloop
  endfacet
  facet normal -0.707107 0.707107 0
    outer loop
      vertex 63.3662 -10.0686 7.5
      vertex 64.0686 -9.36622 0
      vertex 63.3662 -10.0686 0
    endloop
  endfacet
  facet normal -0.45399 0.891007 0
    outer loop
      vertex 63.3662 -10.0686 7.5
      vertex 63.3662 -10.0686 0
      vertex 62.4811 -10.5196 7.5
    endloop
  endfacet
  facet normal -0.45399 0.891007 0
    outer loop
      vertex 62.4811 -10.5196 7.5
      vertex 63.3662 -10.0686 0
      vertex 62.4811 -10.5196 0
    endloop
  endfacet
  facet normal -0.156435 0.987688 0
    outer loop
      vertex 62.4811 -10.5196 7.5
      vertex 62.4811 -10.5196 0
      vertex 61.5 -10.675 7.5
    endloop
  endfacet
  facet normal -0.156435 0.987688 0
    outer loop
      vertex 61.5 -10.675 7.5
      vertex 62.4811 -10.5196 0
      vertex 61.5 -10.675 0
    endloop
  endfacet
  facet normal 0.156435 0.987688 0
    outer loop
      vertex 61.5 -10.675 7.5
      vertex 61.5 -10.675 0
      vertex 60.5189 -10.5196 7.5
    endloop
  endfacet
  facet normal 0.156435 0.987688 0
    outer loop
      vertex 60.5189 -10.5196 7.5
      vertex 61.5 -10.675 0
      vertex 60.5189 -10.5196 0
    endloop
  endfacet
  facet normal 0.45399 0.891007 0
    outer loop
      vertex 60.5189 -10.5196 7.5
      vertex 60.5189 -10.5196 0
      vertex 59.6338 -10.0686 7.5
    endloop
  endfacet
  facet normal 0.45399 0.891007 0
    outer loop
      vertex 59.6338 -10.0686 7.5
      vertex 60.5189 -10.5196 0
      vertex 59.6338 -10.0686 0
    endloop
  endfacet
  facet normal 0.707107 0.707107 0
    outer loop
      vertex 59.6338 -10.0686 7.5
      vertex 59.6338 -10.0686 0
      vertex 58.9314 -9.36622 7.5
    endloop
  endfacet
  facet normal 0.707107 0.707107 0
    outer loop
      vertex 58.9314 -9.36622 7.5
      vertex 59.6338 -10.0686 0
      vertex 58.9314 -9.36622 0
    endloop
  endfacet
  facet normal 0.891007 0.45399 0
    outer loop
      vertex 58.4804 -8.48113 7.5
      vertex 58.9314 -9.36622 7.5
      vertex 58.9314 -9.36622 0
    endloop
  endfacet
  facet normal 0.891007 0.45399 0
    outer loop
      vertex 58.4804 -8.48113 0
      vertex 58.4804 -8.48113 7.5
      vertex 58.9314 -9.36622 0
    endloop
  endfacet
  facet normal 0.987688 -0.156435 0
    outer loop
      vertex 58.4804 83.4811 0
      vertex 58.4804 83.4811 7.5
      vertex 58.325 82.5 7.5
    endloop
  endfacet
  facet normal 0.987688 -0.156435 0
    outer loop
      vertex 58.325 82.5 0
      vertex 58.4804 83.4811 0
      vertex 58.325 82.5 7.5
    endloop
  endfacet
  facet normal 0.987688 0.156435 0
    outer loop
      vertex 58.325 82.5 7.5
      vertex 58.4804 81.5189 7.5
      vertex 58.4804 81.5189 0
    endloop
  endfacet
  facet normal 0.987688 0.156435 0
    outer loop
      vertex 58.325 82.5 0
      vertex 58.325 82.5 7.5
      vertex 58.4804 81.5189 0
    endloop
  endfacet
  facet normal 0.891007 -0.45399 0
    outer loop
      vertex 58.9314 84.3662 0
      vertex 58.9314 84.3662 7.5
      vertex 58.4804 83.4811 7.5
    endloop
  endfacet
  facet normal 0.891007 -0.45399 0
    outer loop
      vertex 58.4804 83.4811 0
      vertex 58.9314 84.3662 0
      vertex 58.4804 83.4811 7.5
    endloop
  endfacet
  facet normal 0.707107 -0.707107 0
    outer loop
      vertex 59.6338 85.0686 0
      vertex 59.6338 85.0686 7.5
      vertex 58.9314 84.3662 7.5
    endloop
  endfacet
  facet normal 0.707107 -0.707107 0
    outer loop
      vertex 58.9314 84.3662 0
      vertex 59.6338 85.0686 0
      vertex 58.9314 84.3662 7.5
    endloop
  endfacet
  facet normal 0.45399 -0.891007 0
    outer loop
      vertex 60.5189 85.5196 0
      vertex 60.5189 85.5196 7.5
      vertex 59.6338 85.0686 7.5
    endloop
  endfacet
  facet normal 0.45399 -0.891007 0
    outer loop
      vertex 59.6338 85.0686 0
      vertex 60.5189 85.5196 0
      vertex 59.6338 85.0686 7.5
    endloop
  endfacet
  facet normal 0.156435 -0.987688 0
    outer loop
      vertex 61.5 85.675 0
      vertex 61.5 85.675 7.5
      vertex 60.5189 85.5196 7.5
    endloop
  endfacet
  facet normal 0.156435 -0.987688 0
    outer loop
      vertex 60.5189 85.5196 0
      vertex 61.5 85.675 0
      vertex 60.5189 85.5196 7.5
    endloop
  endfacet
  facet normal -0.156435 -0.987688 0
    outer loop
      vertex 62.4811 85.5196 0
      vertex 62.4811 85.5196 7.5
      vertex 61.5 85.675 7.5
    endloop
  endfacet
  facet normal -0.156435 -0.987688 0
    outer loop
      vertex 61.5 85.675 0
      vertex 62.4811 85.5196 0
      vertex 61.5 85.675 7.5
    endloop
  endfacet
  facet normal -0.45399 -0.891007 0
    outer loop
      vertex 63.3662 85.0686 0
      vertex 63.3662 85.0686 7.5
      vertex 62.4811 85.5196 7.5
    endloop
  endfacet
  facet normal -0.45399 -0.891007 0
    outer loop
      vertex 62.4811 85.5196 0
      vertex 63.3662 85.0686 0
      vertex 62.4811 85.5196 7.5
    endloop
  endfacet
  facet normal -0.707107 -0.707107 0
    outer loop
      vertex 64.0686 84.3662 0
      vertex 64.0686 84.3662 7.5
      vertex 63.3662 85.0686 7.5
    endloop
  endfacet
  facet normal -0.707107 -0.707107 0
    outer loop
      vertex 63.3662 85.0686 0
      vertex 64.0686 84.3662 0
      vertex 63.3662 85.0686 7.5
    endloop
  endfacet
  facet normal -0.891007 -0.45399 0
    outer loop
      vertex 64.5196 83.4811 7.5
      vertex 64.0686 84.3662 7.5
      vertex 64.5196 83.4811 0
    endloop
  endfacet
  facet normal -0.891007 -0.45399 0
    outer loop
      vertex 64.5196 83.4811 0
      vertex 64.0686 84.3662 7.5
      vertex 64.0686 84.3662 0
    endloop
  endfacet
  facet normal -0.987688 -0.156435 0
    outer loop
      vertex 64.675 82.5 7.5
      vertex 64.5196 83.4811 7.5
      vertex 64.675 82.5 0
    endloop
  endfacet
  facet normal -0.987688 -0.156435 0
    outer loop
      vertex 64.675 82.5 0
      vertex 64.5196 83.4811 7.5
      vertex 64.5196 83.4811 0
    endloop
  endfacet
  facet normal -0.987688 0.156435 0
    outer loop
      vertex 64.675 82.5 7.5
      vertex 64.675 82.5 0
      vertex 64.5196 81.5189 7.5
    endloop
  endfacet
  facet normal -0.987688 0.156435 0
    outer loop
      vertex 64.5196 81.5189 7.5
      vertex 64.675 82.5 0
      vertex 64.5196 81.5189 0
    endloop
  endfacet
  facet normal -0.891007 0.45399 0
    outer loop
      vertex 64.5196 81.5189 7.5
      vertex 64.5196 81.5189 0
      vertex 64.0686 80.6338 7.5
    endloop
  endfacet
  facet normal -0.891007 0.45399 0
    outer loop
      vertex 64.0686 80.6338 7.5
      vertex 64.5196 81.5189 0
      vertex 64.0686 80.6338 0
    endloop
  endfacet
  facet normal -0.707107 0.707107 0
    outer loop
      vertex 64.0686 80.6338 7.5
      vertex 64.0686 80.6338 0
      vertex 63.3662 79.9314 7.5
    endloop
  endfacet
  facet normal -0.707107 0.707107 0
    outer loop
      vertex 63.3662 79.9314 7.5
      vertex 64.0686 80.6338 0
      vertex 63.3662 79.9314 0
    endloop
  endfacet
  facet normal -0.45399 0.891007 0
    outer loop
      vertex 63.3662 79.9314 7.5
      vertex 63.3662 79.9314 0
      vertex 62.4811 79.4804 7.5
    endloop
  endfacet
  facet normal -0.45399 0.891007 0
    outer loop
      vertex 62.4811 79.4804 7.5
      vertex 63.3662 79.9314 0
      vertex 62.4811 79.4804 0
    endloop
  endfacet
  facet normal -0.156435 0.987688 0
    outer loop
      vertex 62.4811 79.4804 7.5
      vertex 62.4811 79.4804 0
      vertex 61.5 79.325 7.5
    endloop
  endfacet
  facet normal -0.156435 0.987688 0
    outer loop
      vertex 61.5 79.325 7.5
      vertex 62.4811 79.4804 0
      vertex 61.5 79.325 0
    endloop
  endfacet
  facet normal 0.156435 0.987688 0
    outer loop
      vertex 61.5 79.325 7.5
      vertex 61.5 79.325 0
      vertex 60.5189 79.4804 7.5
    endloop
  endfacet
  facet normal 0.156435 0.987688 0
    outer loop
      vertex 60.5189 79.4804 7.5
      vertex 61.5 79.325 0
      vertex 60.5189 79.4804 0
    endloop
  endfacet
  facet normal 0.45399 0.891007 0
    outer loop
      vertex 60.5189 79.4804 7.5
      vertex 60.5189 79.4804 0
      vertex 59.6338 79.9314 7.5
    endloop
  endfacet
  facet normal 0.45399 0.891007 0
    outer loop
      vertex 59.6338 79.9314 7.5
      vertex 60.5189 79.4804 0
      vertex 59.6338 79.9314 0
    endloop
  endfacet
  facet normal 0.707107 0.707107 0
    outer loop
      vertex 59.6338 79.9314 7.5
      vertex 59.6338 79.9314 0
      vertex 58.9314 80.6338 7.5
    endloop
  endfacet
  facet normal 0.707107 0.707107 0
    outer loop
      vertex 58.9314 80.6338 7.5
      vertex 59.6338 79.9314 0
      vertex 58.9314 80.6338 0
    endloop
  endfacet
  facet normal 0.891007 0.45399 0
    outer loop
      vertex 58.4804 81.5189 7.5
      vertex 58.9314 80.6338 7.5
      vertex 58.9314 80.6338 0
    endloop
  endfacet
  facet normal 0.891007 0.45399 0
    outer loop
      vertex 58.4804 81.5189 0
      vertex 58.4804 81.5189 7.5
      vertex 58.9314 80.6338 0
    endloop
  endfacet
  facet normal 1 0 0
    outer loop
      vertex 2.5 72.5 2.5
      vertex 2.5 72.5 7.5
      vertex 2.5 2.5 7.5
    endloop
  endfacet
  facet normal 1 0 0
    outer loop
      vertex 2.5 2.5 2.5
      vertex 2.5 72.5 2.5
      vertex 2.5 2.5 7.5
    endloop
  endfacet
  facet normal 0 1 0
    outer loop
      vertex 118.5 2.5 7.5
      vertex 118.5 2.5 2.5
      vertex 2.5 2.5 7.5
    endloop
  endfacet
  facet normal 0 1 0
    outer loop
      vertex 2.5 2.5 7.5
      vertex 118.5 2.5 2.5
      vertex 2.5 2.5 2.5
    endloop
  endfacet
  facet normal -1 0 0
    outer loop
      vertex 118.5 72.5 7.5
      vertex 118.5 72.5 2.5
      vertex 118.5 2.5 7.5
    endloop
  endfacet
  facet normal -1 0 0
    outer loop
      vertex 118.5 2.5 7.5
      vertex 118.5 72.5 2.5
      vertex 118.5 2.5 2.5
    endloop
  endfacet
  facet normal 0 -1 0
    outer loop
      vertex 118.5 72.5 2.5
      vertex 118.5 72.5 7.5
      vertex 2.5 72.5 7.5
    endloop
  endfacet
  facet normal 0 -1 0
    outer loop
      vertex 2.5 72.5 2.5
      vertex 118.5 72.5 2.5
      vertex 2.5 72.5 7.5
    endloop
  endfacet
  facet normal 0 0 1
    outer loop
      vertex 118.5 2.5 2.5
      vertex 118.5 72.5 2.5
      vertex 2.5 72.5 2.5
    endloop
  endfacet
  facet normal 0 0 1
    outer loop
      vertex 2.5 2.5 2.5
      vertex 118.5 2.5 2.5
      vertex 2.5 72.5 2.5
    endloop
  endfacet
endsolid OpenSCAD_Model
