solid OpenSCAD_Model
  facet normal -1 0 0
    outer loop
      vertex -45 -25 35
      vertex -45 -25 36
      vertex -45 29 35
    endloop
  endfacet
  facet normal -1 0 0
    outer loop
      vertex -45 29 35
      vertex -45 -25 36
      vertex -45 29 36
    endloop
  endfacet
  facet normal 0 -1 0
    outer loop
      vertex -45 -25 36
      vertex -45 -25 35
      vertex 25 -25 35
    endloop
  endfacet
  facet normal 0 -1 0
    outer loop
      vertex 25 -25 36
      vertex -45 -25 36
      vertex 25 -25 35
    endloop
  endfacet
  facet normal 0 0 -1
    outer loop
      vertex 5 17 35
      vertex -45 29 35
      vertex 25 29 35
    endloop
  endfacet
  facet normal 0 0 -1
    outer loop
      vertex -45 -25 35
      vertex -45 29 35
      vertex 2 -15 35
    endloop
  endfacet
  facet normal 0 0 -1
    outer loop
      vertex 4.07295 -12.1468 35
      vertex -45 29 35
      vertex 5.92705 -12.1468 35
    endloop
  endfacet
  facet normal 0 0 -1
    outer loop
      vertex -45 -25 35
      vertex 2 -15 35
      vertex 2.57295 -16.7634 35
    endloop
  endfacet
  facet normal 0 0 -1
    outer loop
      vertex -45 -25 35
      vertex 2.57295 -16.7634 35
      vertex 4.07295 -17.8532 35
    endloop
  endfacet
  facet normal 0 0 -1
    outer loop
      vertex 6.46447 -18.5355 35
      vertex 5.92705 -17.8532 35
      vertex 5.9819 -17.8133 35
    endloop
  endfacet
  facet normal 0 0 -1
    outer loop
      vertex -45 -25 35
      vertex 4.07295 -17.8532 35
      vertex 8.08658 -19.6194 35
    endloop
  endfacet
  facet normal 0 0 -1
    outer loop
      vertex -45 -25 35
      vertex 8.08658 -19.6194 35
      vertex 25 -25 35
    endloop
  endfacet
  facet normal 0 0 -1
    outer loop
      vertex 11.9134 -19.6194 35
      vertex 25 -25 35
      vertex 10 -20 35
    endloop
  endfacet
  facet normal 0 0 -1
    outer loop
      vertex 8.08658 -19.6194 35
      vertex 10 -20 35
      vertex 25 -25 35
    endloop
  endfacet
  facet normal 0 0 -1
    outer loop
      vertex 13.5355 -18.5355 35
      vertex 25 -25 35
      vertex 11.9134 -19.6194 35
    endloop
  endfacet
  facet normal 0 0 -1
    outer loop
      vertex 15 7 35
      vertex 13.5355 -11.4645 35
      vertex 5 7 35
    endloop
  endfacet
  facet normal 0 0 -1
    outer loop
      vertex 14.6194 -16.9134 35
      vertex 25 -25 35
      vertex 13.5355 -18.5355 35
    endloop
  endfacet
  facet normal 0 0 -1
    outer loop
      vertex 10 -10 35
      vertex -45 29 35
      vertex 11.9134 -10.3806 35
    endloop
  endfacet
  facet normal 0 0 -1
    outer loop
      vertex 25 -25 35
      vertex 14.6194 -16.9134 35
      vertex 25 29 35
    endloop
  endfacet
  facet normal 0 0 -1
    outer loop
      vertex 6.46447 -11.4645 35
      vertex -45 29 35
      vertex 8.08658 -10.3806 35
    endloop
  endfacet
  facet normal 0 0 -1
    outer loop
      vertex 14.6194 -16.9134 35
      vertex 15 -15 35
      vertex 25 29 35
    endloop
  endfacet
  facet normal 0 0 -1
    outer loop
      vertex 8.08658 -10.3806 35
      vertex -45 29 35
      vertex 10 -10 35
    endloop
  endfacet
  facet normal 0 0 -1
    outer loop
      vertex 15 -15 35
      vertex 14.6194 -13.0866 35
      vertex 25 29 35
    endloop
  endfacet
  facet normal 0 0 -1
    outer loop
      vertex 11.9134 -10.3806 35
      vertex -45 29 35
      vertex 13.5355 -11.4645 35
    endloop
  endfacet
  facet normal 0 0 -1
    outer loop
      vertex 14.6194 -13.0866 35
      vertex 13.5355 -11.4645 35
      vertex 25 29 35
    endloop
  endfacet
  facet normal 0 0 -1
    outer loop
      vertex 5.9819 -12.1867 35
      vertex -45 29 35
      vertex 6.46447 -11.4645 35
    endloop
  endfacet
  facet normal 0 0 -1
    outer loop
      vertex 5.92705 -12.1468 35
      vertex -45 29 35
      vertex 5.9819 -12.1867 35
    endloop
  endfacet
  facet normal 0 0 -1
    outer loop
      vertex 2.57295 -13.2366 35
      vertex -45 29 35
      vertex 4.07295 -12.1468 35
    endloop
  endfacet
  facet normal 0 0 -1
    outer loop
      vertex 2 -15 35
      vertex -45 29 35
      vertex 2.57295 -13.2366 35
    endloop
  endfacet
  facet normal 0 0 -1
    outer loop
      vertex 5 7 35
      vertex -45 29 35
      vertex 5 17 35
    endloop
  endfacet
  facet normal 0 0 -1
    outer loop
      vertex 15 17 35
      vertex 5 17 35
      vertex 25 29 35
    endloop
  endfacet
  facet normal 0 0 -1
    outer loop
      vertex 13.5355 -11.4645 35
      vertex -45 29 35
      vertex 5 7 35
    endloop
  endfacet
  facet normal 0 0 -1
    outer loop
      vertex 13.5355 -11.4645 35
      vertex 15 7 35
      vertex 25 29 35
    endloop
  endfacet
  facet normal 0 0 -1
    outer loop
      vertex 15 7 35
      vertex 15 17 35
      vertex 25 29 35
    endloop
  endfacet
  facet normal 0 0 -1
    outer loop
      vertex 8.08658 -19.6194 35
      vertex 4.07295 -17.8532 35
      vertex 6.46447 -18.5355 35
    endloop
  endfacet
  facet normal 0 0 -1
    outer loop
      vertex 5.92705 -17.8532 35
      vertex 6.46447 -18.5355 35
      vertex 4.07295 -17.8532 35
    endloop
  endfacet
  facet normal 0 1 0
    outer loop
      vertex -45 29 35
      vertex -45 29 36
      vertex 25 29 35
    endloop
  endfacet
  facet normal 0 1 0
    outer loop
      vertex 25 29 35
      vertex -45 29 36
      vertex 25 29 36
    endloop
  endfacet
  facet normal 0 0 1
    outer loop
      vertex 10 -20 36
      vertex -45 -25 36
      vertex 25 -25 36
    endloop
  endfacet
  facet normal 0 0 1
    outer loop
      vertex 14.6194 -13.0866 36
      vertex 15 -15 36
      vertex 25 -25 36
    endloop
  endfacet
  facet normal 0 0 1
    outer loop
      vertex -45 29 36
      vertex -45 -25 36
      vertex 2.57295 -16.7634 36
    endloop
  endfacet
  facet normal 0 0 1
    outer loop
      vertex -45 29 36
      vertex 2.57295 -16.7634 36
      vertex 2 -15 36
    endloop
  endfacet
  facet normal 0 0 1
    outer loop
      vertex -45 29 36
      vertex 2 -15 36
      vertex 2.57295 -13.2366 36
    endloop
  endfacet
  facet normal 0 0 1
    outer loop
      vertex -45 29 36
      vertex 2.57295 -13.2366 36
      vertex 4.07295 -12.1468 36
    endloop
  endfacet
  facet normal 0 0 1
    outer loop
      vertex 11.9134 -19.6194 36
      vertex 10 -20 36
      vertex 25 -25 36
    endloop
  endfacet
  facet normal 0 0 1
    outer loop
      vertex -45 29 36
      vertex 4.07295 -12.1468 36
      vertex 5.92705 -12.1468 36
    endloop
  endfacet
  facet normal 0 0 1
    outer loop
      vertex -45 29 36
      vertex 5.92705 -12.1468 36
      vertex 6.46447 -11.4645 36
    endloop
  endfacet
  facet normal 0 0 1
    outer loop
      vertex 5 7 36
      vertex -45 29 36
      vertex 8.08658 -10.3806 36
    endloop
  endfacet
  facet normal 0 0 1
    outer loop
      vertex 25 29 36
      vertex 8.08658 -10.3806 36
      vertex 10 -10 36
    endloop
  endfacet
  facet normal 0 0 1
    outer loop
      vertex 15 -15 36
      vertex 14.6194 -16.9134 36
      vertex 25 -25 36
    endloop
  endfacet
  facet normal 0 0 1
    outer loop
      vertex 25 29 36
      vertex 10 -10 36
      vertex 11.9134 -10.3806 36
    endloop
  endfacet
  facet normal 0 0 1
    outer loop
      vertex 25 29 36
      vertex 13.5355 -11.4645 36
      vertex 25 -25 36
    endloop
  endfacet
  facet normal 0 0 1
    outer loop
      vertex 25 29 36
      vertex 11.9134 -10.3806 36
      vertex 13.5355 -11.4645 36
    endloop
  endfacet
  facet normal 0 0 1
    outer loop
      vertex 13.5355 -11.4645 36
      vertex 14.6194 -13.0866 36
      vertex 25 -25 36
    endloop
  endfacet
  facet normal 0 0 1
    outer loop
      vertex 6.46447 -18.5355 36
      vertex 4.07295 -17.8532 36
      vertex 8.08658 -19.6194 36
    endloop
  endfacet
  facet normal 0 0 1
    outer loop
      vertex 8.08658 -19.6194 36
      vertex -45 -25 36
      vertex 10 -20 36
    endloop
  endfacet
  facet normal 0 0 1
    outer loop
      vertex 4.07295 -17.8532 36
      vertex -45 -25 36
      vertex 8.08658 -19.6194 36
    endloop
  endfacet
  facet normal 0 0 1
    outer loop
      vertex 5.92705 -17.8532 36
      vertex 4.07295 -17.8532 36
      vertex 6.46447 -18.5355 36
    endloop
  endfacet
  facet normal 0 0 1
    outer loop
      vertex 15 7 36
      vertex 5 7 36
      vertex 8.08658 -10.3806 36
    endloop
  endfacet
  facet normal 0 0 1
    outer loop
      vertex 6.46447 -18.5355 36
      vertex 5.9819 -17.8133 36
      vertex 5.92705 -17.8532 36
    endloop
  endfacet
  facet normal 0 0 1
    outer loop
      vertex 2.57295 -16.7634 36
      vertex -45 -25 36
      vertex 4.07295 -17.8532 36
    endloop
  endfacet
  facet normal 0 0 1
    outer loop
      vertex 5 17 36
      vertex -45 29 36
      vertex 5 7 36
    endloop
  endfacet
  facet normal 0 0 1
    outer loop
      vertex 25 29 36
      vertex -45 29 36
      vertex 5 17 36
    endloop
  endfacet
  facet normal 0 0 1
    outer loop
      vertex 5 17 36
      vertex 15 17 36
      vertex 25 29 36
    endloop
  endfacet
  facet normal 0 0 1
    outer loop
      vertex 25 29 36
      vertex 15 7 36
      vertex 8.08658 -10.3806 36
    endloop
  endfacet
  facet normal 0 0 1
    outer loop
      vertex 25 29 36
      vertex 15 17 36
      vertex 15 7 36
    endloop
  endfacet
  facet normal 0 0 1
    outer loop
      vertex 13.5355 -18.5355 36
      vertex 11.9134 -19.6194 36
      vertex 25 -25 36
    endloop
  endfacet
  facet normal 0 0 1
    outer loop
      vertex 5.9819 -12.1867 36
      vertex 6.46447 -11.4645 36
      vertex 5.92705 -12.1468 36
    endloop
  endfacet
  facet normal 0 0 1
    outer loop
      vertex 6.46447 -11.4645 36
      vertex 8.08658 -10.3806 36
      vertex -45 29 36
    endloop
  endfacet
  facet normal 0 0 1
    outer loop
      vertex 14.6194 -16.9134 36
      vertex 13.5355 -18.5355 36
      vertex 25 -25 36
    endloop
  endfacet
  facet normal 1 0 0
    outer loop
      vertex 25 -25 36
      vertex 25 -25 35
      vertex 25 29 35
    endloop
  endfacet
  facet normal 1 0 0
    outer loop
      vertex 25 29 36
      vertex 25 -25 36
      vertex 25 29 35
    endloop
  endfacet
  facet normal 0.951057 0.309017 0
    outer loop
      vertex 2 -15 36
      vertex 2.57295 -16.7634 36
      vertex 2.57295 -16.7634 35
    endloop
  endfacet
  facet normal 0.951057 0.309017 0
    outer loop
      vertex 2 -15 35
      vertex 2 -15 36
      vertex 2.57295 -16.7634 35
    endloop
  endfacet
  facet normal 0.951057 -0.309017 0
    outer loop
      vertex 2.57295 -13.2366 35
      vertex 2.57295 -13.2366 36
      vertex 2 -15 36
    endloop
  endfacet
  facet normal 0.951057 -0.309017 0
    outer loop
      vertex 2 -15 35
      vertex 2.57295 -13.2366 35
      vertex 2 -15 36
    endloop
  endfacet
  facet normal 0.587785 -0.809017 0
    outer loop
      vertex 4.07295 -12.1468 35
      vertex 4.07295 -12.1468 36
      vertex 2.57295 -13.2366 36
    endloop
  endfacet
  facet normal 0.587785 -0.809017 0
    outer loop
      vertex 2.57295 -13.2366 35
      vertex 4.07295 -12.1468 35
      vertex 2.57295 -13.2366 36
    endloop
  endfacet
  facet normal 0 -1 0
    outer loop
      vertex 5.92705 -12.1468 35
      vertex 5.92705 -12.1468 36
      vertex 4.07295 -12.1468 36
    endloop
  endfacet
  facet normal 0 -1 0
    outer loop
      vertex 4.07295 -12.1468 35
      vertex 5.92705 -12.1468 35
      vertex 4.07295 -12.1468 36
    endloop
  endfacet
  facet normal -0.587785 -0.809017 0
    outer loop
      vertex 5.9819 -12.1867 35
      vertex 5.9819 -12.1867 36
      vertex 5.92705 -12.1468 36
    endloop
  endfacet
  facet normal -0.587785 -0.809017 0
    outer loop
      vertex 5.92705 -12.1468 35
      vertex 5.9819 -12.1867 35
      vertex 5.92705 -12.1468 36
    endloop
  endfacet
  facet normal 0.83147 -0.55557 0
    outer loop
      vertex 6.46447 -11.4645 35
      vertex 6.46447 -11.4645 36
      vertex 5.9819 -12.1867 36
    endloop
  endfacet
  facet normal 0.83147 -0.55557 0
    outer loop
      vertex 5.9819 -12.1867 35
      vertex 6.46447 -11.4645 35
      vertex 5.9819 -12.1867 36
    endloop
  endfacet
  facet normal 0.55557 -0.83147 0
    outer loop
      vertex 8.08658 -10.3806 35
      vertex 8.08658 -10.3806 36
      vertex 6.46447 -11.4645 36
    endloop
  endfacet
  facet normal 0.55557 -0.83147 0
    outer loop
      vertex 6.46447 -11.4645 35
      vertex 8.08658 -10.3806 35
      vertex 6.46447 -11.4645 36
    endloop
  endfacet
  facet normal 0.19509 -0.980785 0
    outer loop
      vertex 10 -10 35
      vertex 10 -10 36
      vertex 8.08658 -10.3806 36
    endloop
  endfacet
  facet normal 0.19509 -0.980785 0
    outer loop
      vertex 8.08658 -10.3806 35
      vertex 10 -10 35
      vertex 8.08658 -10.3806 36
    endloop
  endfacet
  facet normal -0.19509 -0.980785 0
    outer loop
      vertex 11.9134 -10.3806 35
      vertex 11.9134 -10.3806 36
      vertex 10 -10 36
    endloop
  endfacet
  facet normal -0.19509 -0.980785 0
    outer loop
      vertex 10 -10 35
      vertex 11.9134 -10.3806 35
      vertex 10 -10 36
    endloop
  endfacet
  facet normal -0.55557 -0.83147 0
    outer loop
      vertex 13.5355 -11.4645 35
      vertex 13.5355 -11.4645 36
      vertex 11.9134 -10.3806 36
    endloop
  endfacet
  facet normal -0.55557 -0.83147 0
    outer loop
      vertex 11.9134 -10.3806 35
      vertex 13.5355 -11.4645 35
      vertex 11.9134 -10.3806 36
    endloop
  endfacet
  facet normal -0.83147 -0.55557 0
    outer loop
      vertex 14.6194 -13.0866 36
      vertex 13.5355 -11.4645 36
      vertex 14.6194 -13.0866 35
    endloop
  endfacet
  facet normal -0.83147 -0.55557 0
    outer loop
      vertex 14.6194 -13.0866 35
      vertex 13.5355 -11.4645 36
      vertex 13.5355 -11.4645 35
    endloop
  endfacet
  facet normal -0.980785 -0.19509 0
    outer loop
      vertex 15 -15 36
      vertex 14.6194 -13.0866 36
      vertex 15 -15 35
    endloop
  endfacet
  facet normal -0.980785 -0.19509 0
    outer loop
      vertex 15 -15 35
      vertex 14.6194 -13.0866 36
      vertex 14.6194 -13.0866 35
    endloop
  endfacet
  facet normal -0.980785 0.19509 0
    outer loop
      vertex 15 -15 36
      vertex 15 -15 35
      vertex 14.6194 -16.9134 36
    endloop
  endfacet
  facet normal -0.980785 0.19509 0
    outer loop
      vertex 14.6194 -16.9134 36
      vertex 15 -15 35
      vertex 14.6194 -16.9134 35
    endloop
  endfacet
  facet normal -0.83147 0.55557 0
    outer loop
      vertex 14.6194 -16.9134 36
      vertex 14.6194 -16.9134 35
      vertex 13.5355 -18.5355 36
    endloop
  endfacet
  facet normal -0.83147 0.55557 0
    outer loop
      vertex 13.5355 -18.5355 36
      vertex 14.6194 -16.9134 35
      vertex 13.5355 -18.5355 35
    endloop
  endfacet
  facet normal -0.55557 0.83147 0
    outer loop
      vertex 13.5355 -18.5355 36
      vertex 13.5355 -18.5355 35
      vertex 11.9134 -19.6194 36
    endloop
  endfacet
  facet normal -0.55557 0.83147 0
    outer loop
      vertex 11.9134 -19.6194 36
      vertex 13.5355 -18.5355 35
      vertex 11.9134 -19.6194 35
    endloop
  endfacet
  facet normal -0.19509 0.980785 0
    outer loop
      vertex 11.9134 -19.6194 36
      vertex 11.9134 -19.6194 35
      vertex 10 -20 36
    endloop
  endfacet
  facet normal -0.19509 0.980785 0
    outer loop
      vertex 10 -20 36
      vertex 11.9134 -19.6194 35
      vertex 10 -20 35
    endloop
  endfacet
  facet normal 0.19509 0.980785 0
    outer loop
      vertex 10 -20 36
      vertex 10 -20 35
      vertex 8.08658 -19.6194 36
    endloop
  endfacet
  facet normal 0.19509 0.980785 0
    outer loop
      vertex 8.08658 -19.6194 36
      vertex 10 -20 35
      vertex 8.08658 -19.6194 35
    endloop
  endfacet
  facet normal 0.55557 0.83147 0
    outer loop
      vertex 8.08658 -19.6194 36
      vertex 8.08658 -19.6194 35
      vertex 6.46447 -18.5355 36
    endloop
  endfacet
  facet normal 0.55557 0.83147 0
    outer loop
      vertex 6.46447 -18.5355 36
      vertex 8.08658 -19.6194 35
      vertex 6.46447 -18.5355 35
    endloop
  endfacet
  facet normal 0.83147 0.55557 0
    outer loop
      vertex 5.9819 -17.8133 36
      vertex 6.46447 -18.5355 36
      vertex 6.46447 -18.5355 35
    endloop
  endfacet
  facet normal 0.83147 0.55557 0
    outer loop
      vertex 5.9819 -17.8133 35
      vertex 5.9819 -17.8133 36
      vertex 6.46447 -18.5355 35
    endloop
  endfacet
  facet normal -0.587785 0.809017 0
    outer loop
      vertex 5.9819 -17.8133 36
      vertex 5.9819 -17.8133 35
      vertex 5.92705 -17.8532 36
    endloop
  endfacet
  facet normal -0.587785 0.809017 0
    outer loop
      vertex 5.92705 -17.8532 36
      vertex 5.9819 -17.8133 35
      vertex 5.92705 -17.8532 35
    endloop
  endfacet
  facet normal 0 1 0
    outer loop
      vertex 5.92705 -17.8532 36
      vertex 5.92705 -17.8532 35
      vertex 4.07295 -17.8532 36
    endloop
  endfacet
  facet normal 0 1 0
    outer loop
      vertex 4.07295 -17.8532 36
      vertex 5.92705 -17.8532 35
      vertex 4.07295 -17.8532 35
    endloop
  endfacet
  facet normal 0.587785 0.809017 0
    outer loop
      vertex 4.07295 -17.8532 36
      vertex 4.07295 -17.8532 35
      vertex 2.57295 -16.7634 36
    endloop
  endfacet
  facet normal 0.587785 0.809017 0
    outer loop
      vertex 2.57295 -16.7634 36
      vertex 4.07295 -17.8532 35
      vertex 2.57295 -16.7634 35
    endloop
  endfacet
  facet normal 1 0 0
    outer loop
      vertex 5 17 35
      vertex 5 17 36
      vertex 5 7 36
    endloop
  endfacet
  facet normal 1 0 0
    outer loop
      vertex 5 7 35
      vertex 5 17 35
      vertex 5 7 36
    endloop
  endfacet
  facet normal 0 -1 0
    outer loop
      vertex 15 17 35
      vertex 15 17 36
      vertex 5 17 36
    endloop
  endfacet
  facet normal 0 -1 0
    outer loop
      vertex 5 17 35
      vertex 15 17 35
      vertex 5 17 36
    endloop
  endfacet
  facet normal -1 0 0
    outer loop
      vertex 15 17 36
      vertex 15 17 35
      vertex 15 7 36
    endloop
  endfacet
  facet normal -1 0 0
    outer loop
      vertex 15 7 36
      vertex 15 17 35
      vertex 15 7 35
    endloop
  endfacet
  facet normal 0 1 0
    outer loop
      vertex 15 7 36
      vertex 15 7 35
      vertex 5 7 36
    endloop
  endfacet
  facet normal 0 1 0
    outer loop
      vertex 5 7 36
      vertex 15 7 35
      vertex 5 7 35
    endloop
  endfacet
endsolid OpenSCAD_Model
