solid OpenSCAD_Model
  facet normal -1 0 0
    outer loop
      vertex -65 -28 5
      vertex -65 -28 21
      vertex -65 55 5
    endloop
  endfacet
  facet normal -1 0 0
    outer loop
      vertex -65 55 5
      vertex -65 -28 21
      vertex -65 55 21
    endloop
  endfacet
  facet normal 0 -1 0
    outer loop
      vertex -65 -28 21
      vertex -65 -28 5
      vertex -19 -28 5
    endloop
  endfacet
  facet normal 0 -1 0
    outer loop
      vertex -19 -28 21
      vertex -65 -28 21
      vertex -19 -28 5
    endloop
  endfacet
  facet normal 0 0 -1
    outer loop
      vertex -40.4184 10.2599 5
      vertex -19 -28 5
      vertex -41.994 11.3475 5
    endloop
  endfacet
  facet normal 0 0 -1
    outer loop
      vertex -36.7277 17.2919 5
      vertex -65 55 5
      vertex -19 55 5
    endloop
  endfacet
  facet normal 0 0 -1
    outer loop
      vertex -19 -28 5
      vertex -19 55 5
      vertex -19 72.5 5
    endloop
  endfacet
  facet normal 0 0 -1
    outer loop
      vertex -10.5189 68.0196 5
      vertex -19 72.5 5
      vertex -4 72.5 5
    endloop
  endfacet
  facet normal 0 0 -1
    outer loop
      vertex -19 -28 5
      vertex -4 72.5 5
      vertex -4 55 5
    endloop
  endfacet
  facet normal 0 0 -1
    outer loop
      vertex -19 -28 5
      vertex -4 55 5
      vertex 47 55 5
    endloop
  endfacet
  facet normal 0 0 -1
    outer loop
      vertex -4 -28 5
      vertex 47 55 5
      vertex 47 -28 5
    endloop
  endfacet
  facet normal 0 0 -1
    outer loop
      vertex -19 -28 5
      vertex 47 55 5
      vertex -4 -28 5
    endloop
  endfacet
  facet normal 0 0 -1
    outer loop
      vertex -65 -28 5
      vertex -65 55 5
      vertex -42.8838 14.9573 5
    endloop
  endfacet
  facet normal 0 0 -1
    outer loop
      vertex -65 -28 5
      vertex -42.8838 14.9573 5
      vertex -42.8838 13.0427 5
    endloop
  endfacet
  facet normal 0 0 -1
    outer loop
      vertex -65 -28 5
      vertex -42.8838 13.0427 5
      vertex -41.994 11.3475 5
    endloop
  endfacet
  facet normal 0 0 -1
    outer loop
      vertex -65 -28 5
      vertex -41.994 11.3475 5
      vertex -19 -28 5
    endloop
  endfacet
  facet normal 0 0 -1
    outer loop
      vertex -38.5179 10.0292 5
      vertex -19 -28 5
      vertex -40.4184 10.2599 5
    endloop
  endfacet
  facet normal 0 0 -1
    outer loop
      vertex -19 -28 5
      vertex -38.5179 10.0292 5
      vertex -36.7277 10.7081 5
    endloop
  endfacet
  facet normal 0 0 -1
    outer loop
      vertex -19 -28 5
      vertex -36.7277 10.7081 5
      vertex -35.4582 12.1411 5
    endloop
  endfacet
  facet normal 0 0 -1
    outer loop
      vertex -19 -28 5
      vertex -35.4582 12.1411 5
      vertex -19 55 5
    endloop
  endfacet
  facet normal 0 0 -1
    outer loop
      vertex -35.4582 12.1411 5
      vertex -35 14 5
      vertex -19 55 5
    endloop
  endfacet
  facet normal 0 0 -1
    outer loop
      vertex -36.7277 17.2919 5
      vertex -19 55 5
      vertex -35.4582 15.8589 5
    endloop
  endfacet
  facet normal 0 0 -1
    outer loop
      vertex -38.5179 17.9708 5
      vertex -65 55 5
      vertex -36.7277 17.2919 5
    endloop
  endfacet
  facet normal 0 0 -1
    outer loop
      vertex -8.93137 66.8662 5
      vertex -4 72.5 5
      vertex -8.325 65 5
    endloop
  endfacet
  facet normal 0 0 -1
    outer loop
      vertex -40.4184 17.7401 5
      vertex -65 55 5
      vertex -38.5179 17.9708 5
    endloop
  endfacet
  facet normal 0 0 -1
    outer loop
      vertex -41.994 16.6525 5
      vertex -65 55 5
      vertex -40.4184 17.7401 5
    endloop
  endfacet
  facet normal 0 0 -1
    outer loop
      vertex -19 -28 5
      vertex -19 72.5 5
      vertex -14.675 65 5
    endloop
  endfacet
  facet normal 0 0 -1
    outer loop
      vertex -19 -28 5
      vertex -14.675 65 5
      vertex -14.0686 63.1338 5
    endloop
  endfacet
  facet normal 0 0 -1
    outer loop
      vertex -19 -28 5
      vertex -14.0686 63.1338 5
      vertex -12.4811 61.9804 5
    endloop
  endfacet
  facet normal 0 0 -1
    outer loop
      vertex -19 -28 5
      vertex -12.4811 61.9804 5
      vertex -10.5189 61.9804 5
    endloop
  endfacet
  facet normal 0 0 -1
    outer loop
      vertex -19 -28 5
      vertex -10.5189 61.9804 5
      vertex -8.93137 63.1338 5
    endloop
  endfacet
  facet normal 0 0 -1
    outer loop
      vertex -19 -28 5
      vertex -8.93137 63.1338 5
      vertex -4 72.5 5
    endloop
  endfacet
  facet normal 0 0 -1
    outer loop
      vertex -8.93137 63.1338 5
      vertex -8.325 65 5
      vertex -4 72.5 5
    endloop
  endfacet
  facet normal 0 0 -1
    outer loop
      vertex -10.5189 68.0196 5
      vertex -4 72.5 5
      vertex -8.93137 66.8662 5
    endloop
  endfacet
  facet normal 0 0 -1
    outer loop
      vertex -12.4811 68.0196 5
      vertex -19 72.5 5
      vertex -10.5189 68.0196 5
    endloop
  endfacet
  facet normal 0 0 -1
    outer loop
      vertex -10.5189 -41.0196 5
      vertex -4 -45.5 5
      vertex -12.4811 -41.0196 5
    endloop
  endfacet
  facet normal 0 0 -1
    outer loop
      vertex -14.0686 66.8662 5
      vertex -19 72.5 5
      vertex -12.4811 68.0196 5
    endloop
  endfacet
  facet normal 0 0 -1
    outer loop
      vertex -14.675 65 5
      vertex -19 72.5 5
      vertex -14.0686 66.8662 5
    endloop
  endfacet
  facet normal 0 0 -1
    outer loop
      vertex -8.325 -38 5
      vertex -4 -45.5 5
      vertex -8.93137 -39.8662 5
    endloop
  endfacet
  facet normal 0 0 -1
    outer loop
      vertex -42.8838 14.9573 5
      vertex -65 55 5
      vertex -41.994 16.6525 5
    endloop
  endfacet
  facet normal 0 0 -1
    outer loop
      vertex -8.93137 -39.8662 5
      vertex -4 -45.5 5
      vertex -10.5189 -41.0196 5
    endloop
  endfacet
  facet normal 0 0 -1
    outer loop
      vertex -35.4582 15.8589 5
      vertex -19 55 5
      vertex -35 14 5
    endloop
  endfacet
  facet normal 0 0 -1
    outer loop
      vertex -4 -28 5
      vertex -4 -45.5 5
      vertex -8.325 -38 5
    endloop
  endfacet
  facet normal 0 0 -1
    outer loop
      vertex -4 -28 5
      vertex -8.325 -38 5
      vertex -8.93137 -36.1338 5
    endloop
  endfacet
  facet normal 0 0 -1
    outer loop
      vertex -4 -28 5
      vertex -8.93137 -36.1338 5
      vertex -19 -28 5
    endloop
  endfacet
  facet normal 0 0 -1
    outer loop
      vertex -8.93137 -36.1338 5
      vertex -10.5189 -34.9804 5
      vertex -19 -28 5
    endloop
  endfacet
  facet normal 0 0 -1
    outer loop
      vertex -12.4811 -34.9804 5
      vertex -19 -28 5
      vertex -10.5189 -34.9804 5
    endloop
  endfacet
  facet normal 0 0 -1
    outer loop
      vertex -14.0686 -36.1338 5
      vertex -19 -28 5
      vertex -12.4811 -34.9804 5
    endloop
  endfacet
  facet normal 0 0 -1
    outer loop
      vertex -19 -28 5
      vertex -14.0686 -36.1338 5
      vertex -14.675 -38 5
    endloop
  endfacet
  facet normal 0 0 -1
    outer loop
      vertex -19 -28 5
      vertex -14.675 -38 5
      vertex -14.0686 -39.8662 5
    endloop
  endfacet
  facet normal 0 0 -1
    outer loop
      vertex -12.4811 -41.0196 5
      vertex -4 -45.5 5
      vertex -19 -45.5 5
    endloop
  endfacet
  facet normal 0 0 -1
    outer loop
      vertex -14.0686 -39.8662 5
      vertex -12.4811 -41.0196 5
      vertex -19 -45.5 5
    endloop
  endfacet
  facet normal 0 0 -1
    outer loop
      vertex -19 -28 5
      vertex -14.0686 -39.8662 5
      vertex -19 -45.5 5
    endloop
  endfacet
  facet normal 0 1 0
    outer loop
      vertex -65 55 5
      vertex -65 55 21
      vertex -19 55 5
    endloop
  endfacet
  facet normal 0 1 0
    outer loop
      vertex -19 55 5
      vertex -65 55 21
      vertex -19 55 21
    endloop
  endfacet
  facet normal 0 0 1
    outer loop
      vertex -62 -25 21
      vertex -65 -28 21
      vertex -19 -28 21
    endloop
  endfacet
  facet normal 0 0 1
    outer loop
      vertex -62 -25 21
      vertex -62 52 21
      vertex -65 55 21
    endloop
  endfacet
  facet normal 0 0 1
    outer loop
      vertex -65 55 21
      vertex -65 -28 21
      vertex -62 -25 21
    endloop
  endfacet
  facet normal 0 0 1
    outer loop
      vertex -19 52 21
      vertex -65 55 21
      vertex -62 52 21
    endloop
  endfacet
  facet normal 0 0 1
    outer loop
      vertex -19 55 21
      vertex -65 55 21
      vertex -19 52 21
    endloop
  endfacet
  facet normal 0 0 1
    outer loop
      vertex -19 72.5 21
      vertex -19 55 21
      vertex -19 52 21
    endloop
  endfacet
  facet normal 0 0 1
    outer loop
      vertex -19 -25 21
      vertex -62 -25 21
      vertex -19 -28 21
    endloop
  endfacet
  facet normal -1 0 0
    outer loop
      vertex -19 -45.5 5
      vertex -19 -45.5 23
      vertex -19 -28 5
    endloop
  endfacet
  facet normal -1 0 0
    outer loop
      vertex -19 -25 21
      vertex -19 -45.5 23
      vertex -19 -24.5 23
    endloop
  endfacet
  facet normal -1 0 0
    outer loop
      vertex -19 -28 21
      vertex -19 -45.5 23
      vertex -19 -25 21
    endloop
  endfacet
  facet normal -1 0 0
    outer loop
      vertex -19 -28 5
      vertex -19 -45.5 23
      vertex -19 -28 21
    endloop
  endfacet
  facet normal -1 0 0
    outer loop
      vertex -19 -25 21
      vertex -19 -24.5 23
      vertex -19 -24.5 21
    endloop
  endfacet
  facet normal 0 -1 0
    outer loop
      vertex -19 -45.5 23
      vertex -19 -45.5 5
      vertex -4 -45.5 5
    endloop
  endfacet
  facet normal 0 -1 0
    outer loop
      vertex -4 -45.5 23
      vertex -19 -45.5 23
      vertex -4 -45.5 5
    endloop
  endfacet
  facet normal 1 0 0
    outer loop
      vertex -4 -45.5 23
      vertex -4 -45.5 5
      vertex -4 -28 5
    endloop
  endfacet
  facet normal 1 0 0
    outer loop
      vertex -4 -25 21
      vertex -4 -45.5 23
      vertex -4 -28 21
    endloop
  endfacet
  facet normal 1 0 0
    outer loop
      vertex -4 -28 21
      vertex -4 -45.5 23
      vertex -4 -28 5
    endloop
  endfacet
  facet normal 1 0 0
    outer loop
      vertex -4 -24.5 21
      vertex -4 -45.5 23
      vertex -4 -25 21
    endloop
  endfacet
  facet normal 1 0 0
    outer loop
      vertex -4 -24.5 23
      vertex -4 -45.5 23
      vertex -4 -24.5 21
    endloop
  endfacet
  facet normal 0 -1 0
    outer loop
      vertex -4 -28 21
      vertex -4 -28 5
      vertex 47 -28 5
    endloop
  endfacet
  facet normal 0 -1 0
    outer loop
      vertex 27 -28 21
      vertex -4 -28 21
      vertex 47 -28 5
    endloop
  endfacet
  facet normal 0.624695 0 0.780869
    outer loop
      vertex 27 55 21
      vertex 27 -28 21
      vertex 47 -28 5
    endloop
  endfacet
  facet normal 0.624695 0 0.780869
    outer loop
      vertex 47 55 5
      vertex 27 55 21
      vertex 47 -28 5
    endloop
  endfacet
  facet normal 0 1 0
    outer loop
      vertex -4 55 5
      vertex -4 55 21
      vertex 47 55 5
    endloop
  endfacet
  facet normal 0 1 0
    outer loop
      vertex 47 55 5
      vertex -4 55 21
      vertex 27 55 21
    endloop
  endfacet
  facet normal 1 -1.22465e-16 0
    outer loop
      vertex -4 55 21
      vertex -4 55 5
      vertex -4 72.5 5
    endloop
  endfacet
  facet normal 1 -1.22465e-16 0
    outer loop
      vertex -4 72.5 21
      vertex -4 55 21
      vertex -4 72.5 5
    endloop
  endfacet
  facet normal 1.22465e-16 1 0
    outer loop
      vertex -19 72.5 5
      vertex -19 72.5 21
      vertex -4 72.5 5
    endloop
  endfacet
  facet normal 1.22465e-16 1 0
    outer loop
      vertex -4 72.5 5
      vertex -19 72.5 21
      vertex -4 72.5 21
    endloop
  endfacet
  facet normal -1 1.22465e-16 0
    outer loop
      vertex -19 55 5
      vertex -19 55 21
      vertex -19 72.5 5
    endloop
  endfacet
  facet normal -1 1.22465e-16 0
    outer loop
      vertex -19 72.5 5
      vertex -19 55 21
      vertex -19 72.5 21
    endloop
  endfacet
  facet normal 1 0 0
    outer loop
      vertex -42.8838 14.9573 5
      vertex -42.8838 14.9573 8.25
      vertex -42.8838 13.0427 8.25
    endloop
  endfacet
  facet normal 1 0 0
    outer loop
      vertex -42.8838 13.0427 5
      vertex -42.8838 14.9573 5
      vertex -42.8838 13.0427 8.25
    endloop
  endfacet
  facet normal 0.885456 -0.464723 0
    outer loop
      vertex -41.994 16.6525 5
      vertex -41.994 16.6525 8.25
      vertex -42.8838 14.9573 8.25
    endloop
  endfacet
  facet normal 0.885456 -0.464723 0
    outer loop
      vertex -42.8838 14.9573 5
      vertex -41.994 16.6525 5
      vertex -42.8838 14.9573 8.25
    endloop
  endfacet
  facet normal 0.568065 -0.822984 0
    outer loop
      vertex -40.4184 17.7401 5
      vertex -40.4184 17.7401 8.25
      vertex -41.994 16.6525 8.25
    endloop
  endfacet
  facet normal 0.568065 -0.822984 0
    outer loop
      vertex -41.994 16.6525 5
      vertex -40.4184 17.7401 5
      vertex -41.994 16.6525 8.25
    endloop
  endfacet
  facet normal 0.120536 -0.992709 0
    outer loop
      vertex -38.5179 17.9708 5
      vertex -38.5179 17.9708 8.25
      vertex -40.4184 17.7401 8.25
    endloop
  endfacet
  facet normal 0.120536 -0.992709 0
    outer loop
      vertex -40.4184 17.7401 5
      vertex -38.5179 17.9708 5
      vertex -40.4184 17.7401 8.25
    endloop
  endfacet
  facet normal -0.354605 -0.935016 0
    outer loop
      vertex -36.7277 17.2919 5
      vertex -36.7277 17.2919 8.25
      vertex -38.5179 17.9708 8.25
    endloop
  endfacet
  facet normal -0.354605 -0.935016 0
    outer loop
      vertex -38.5179 17.9708 5
      vertex -36.7277 17.2919 5
      vertex -38.5179 17.9708 8.25
    endloop
  endfacet
  facet normal -0.748511 -0.663123 0
    outer loop
      vertex -35.4582 15.8589 8.25
      vertex -36.7277 17.2919 8.25
      vertex -35.4582 15.8589 5
    endloop
  endfacet
  facet normal -0.748511 -0.663123 0
    outer loop
      vertex -35.4582 15.8589 5
      vertex -36.7277 17.2919 8.25
      vertex -36.7277 17.2919 5
    endloop
  endfacet
  facet normal -0.970942 -0.239316 0
    outer loop
      vertex -35 14 8.25
      vertex -35.4582 15.8589 8.25
      vertex -35 14 5
    endloop
  endfacet
  facet normal -0.970942 -0.239316 0
    outer loop
      vertex -35 14 5
      vertex -35.4582 15.8589 8.25
      vertex -35.4582 15.8589 5
    endloop
  endfacet
  facet normal -0.970942 0.239316 0
    outer loop
      vertex -35 14 8.25
      vertex -35 14 5
      vertex -35.4582 12.1411 8.25
    endloop
  endfacet
  facet normal -0.970942 0.239316 0
    outer loop
      vertex -35.4582 12.1411 8.25
      vertex -35 14 5
      vertex -35.4582 12.1411 5
    endloop
  endfacet
  facet normal -0.748511 0.663123 0
    outer loop
      vertex -35.4582 12.1411 8.25
      vertex -35.4582 12.1411 5
      vertex -36.7277 10.7081 8.25
    endloop
  endfacet
  facet normal -0.748511 0.663123 0
    outer loop
      vertex -36.7277 10.7081 8.25
      vertex -35.4582 12.1411 5
      vertex -36.7277 10.7081 5
    endloop
  endfacet
  facet normal -0.354605 0.935016 0
    outer loop
      vertex -36.7277 10.7081 8.25
      vertex -36.7277 10.7081 5
      vertex -38.5179 10.0292 8.25
    endloop
  endfacet
  facet normal -0.354605 0.935016 0
    outer loop
      vertex -38.5179 10.0292 8.25
      vertex -36.7277 10.7081 5
      vertex -38.5179 10.0292 5
    endloop
  endfacet
  facet normal 0.120536 0.992709 0
    outer loop
      vertex -38.5179 10.0292 8.25
      vertex -38.5179 10.0292 5
      vertex -40.4184 10.2599 8.25
    endloop
  endfacet
  facet normal 0.120536 0.992709 0
    outer loop
      vertex -40.4184 10.2599 8.25
      vertex -38.5179 10.0292 5
      vertex -40.4184 10.2599 5
    endloop
  endfacet
  facet normal 0.568065 0.822984 0
    outer loop
      vertex -40.4184 10.2599 8.25
      vertex -40.4184 10.2599 5
      vertex -41.994 11.3475 8.25
    endloop
  endfacet
  facet normal 0.568065 0.822984 0
    outer loop
      vertex -41.994 11.3475 8.25
      vertex -40.4184 10.2599 5
      vertex -41.994 11.3475 5
    endloop
  endfacet
  facet normal 0.885456 0.464723 0
    outer loop
      vertex -42.8838 13.0427 8.25
      vertex -41.994 11.3475 8.25
      vertex -41.994 11.3475 5
    endloop
  endfacet
  facet normal 0.885456 0.464723 0
    outer loop
      vertex -42.8838 13.0427 5
      vertex -42.8838 13.0427 8.25
      vertex -41.994 11.3475 5
    endloop
  endfacet
  facet normal 0.951057 0.309017 0
    outer loop
      vertex -14.675 65 21
      vertex -14.0686 63.1338 21
      vertex -14.0686 63.1338 5
    endloop
  endfacet
  facet normal 0.951057 0.309017 0
    outer loop
      vertex -14.675 65 5
      vertex -14.675 65 21
      vertex -14.0686 63.1338 5
    endloop
  endfacet
  facet normal 0.951057 -0.309017 0
    outer loop
      vertex -14.0686 66.8662 5
      vertex -14.0686 66.8662 21
      vertex -14.675 65 21
    endloop
  endfacet
  facet normal 0.951057 -0.309017 0
    outer loop
      vertex -14.675 65 5
      vertex -14.0686 66.8662 5
      vertex -14.675 65 21
    endloop
  endfacet
  facet normal 0.587785 -0.809017 0
    outer loop
      vertex -12.4811 68.0196 5
      vertex -12.4811 68.0196 21
      vertex -14.0686 66.8662 21
    endloop
  endfacet
  facet normal 0.587785 -0.809017 0
    outer loop
      vertex -14.0686 66.8662 5
      vertex -12.4811 68.0196 5
      vertex -14.0686 66.8662 21
    endloop
  endfacet
  facet normal -1.22465e-16 -1 0
    outer loop
      vertex -10.5189 68.0196 5
      vertex -10.5189 68.0196 21
      vertex -12.4811 68.0196 21
    endloop
  endfacet
  facet normal -1.22465e-16 -1 0
    outer loop
      vertex -12.4811 68.0196 5
      vertex -10.5189 68.0196 5
      vertex -12.4811 68.0196 21
    endloop
  endfacet
  facet normal -0.587785 -0.809017 0
    outer loop
      vertex -8.93137 66.8662 5
      vertex -8.93137 66.8662 21
      vertex -10.5189 68.0196 21
    endloop
  endfacet
  facet normal -0.587785 -0.809017 0
    outer loop
      vertex -10.5189 68.0196 5
      vertex -8.93137 66.8662 5
      vertex -10.5189 68.0196 21
    endloop
  endfacet
  facet normal -0.951057 -0.309017 0
    outer loop
      vertex -8.325 65 21
      vertex -8.93137 66.8662 21
      vertex -8.325 65 5
    endloop
  endfacet
  facet normal -0.951057 -0.309017 0
    outer loop
      vertex -8.325 65 5
      vertex -8.93137 66.8662 21
      vertex -8.93137 66.8662 5
    endloop
  endfacet
  facet normal -0.951057 0.309017 0
    outer loop
      vertex -8.325 65 21
      vertex -8.325 65 5
      vertex -8.93137 63.1338 21
    endloop
  endfacet
  facet normal -0.951057 0.309017 0
    outer loop
      vertex -8.93137 63.1338 21
      vertex -8.325 65 5
      vertex -8.93137 63.1338 5
    endloop
  endfacet
  facet normal -0.587785 0.809017 0
    outer loop
      vertex -8.93137 63.1338 21
      vertex -8.93137 63.1338 5
      vertex -10.5189 61.9804 21
    endloop
  endfacet
  facet normal -0.587785 0.809017 0
    outer loop
      vertex -10.5189 61.9804 21
      vertex -8.93137 63.1338 5
      vertex -10.5189 61.9804 5
    endloop
  endfacet
  facet normal 1.22465e-16 1 0
    outer loop
      vertex -10.5189 61.9804 21
      vertex -10.5189 61.9804 5
      vertex -12.4811 61.9804 21
    endloop
  endfacet
  facet normal 1.22465e-16 1 0
    outer loop
      vertex -12.4811 61.9804 21
      vertex -10.5189 61.9804 5
      vertex -12.4811 61.9804 5
    endloop
  endfacet
  facet normal 0.587785 0.809017 0
    outer loop
      vertex -12.4811 61.9804 21
      vertex -12.4811 61.9804 5
      vertex -14.0686 63.1338 21
    endloop
  endfacet
  facet normal 0.587785 0.809017 0
    outer loop
      vertex -14.0686 63.1338 21
      vertex -12.4811 61.9804 5
      vertex -14.0686 63.1338 5
    endloop
  endfacet
  facet normal 0.951057 -0.309017 0
    outer loop
      vertex -14.0686 -36.1338 5
      vertex -14.0686 -36.1338 23
      vertex -14.675 -38 23
    endloop
  endfacet
  facet normal 0.951057 -0.309017 0
    outer loop
      vertex -14.675 -38 5
      vertex -14.0686 -36.1338 5
      vertex -14.675 -38 23
    endloop
  endfacet
  facet normal 0.951057 0.309017 0
    outer loop
      vertex -14.675 -38 23
      vertex -14.0686 -39.8662 23
      vertex -14.0686 -39.8662 5
    endloop
  endfacet
  facet normal 0.951057 0.309017 0
    outer loop
      vertex -14.675 -38 5
      vertex -14.675 -38 23
      vertex -14.0686 -39.8662 5
    endloop
  endfacet
  facet normal 0.587785 -0.809017 0
    outer loop
      vertex -12.4811 -34.9804 5
      vertex -12.4811 -34.9804 23
      vertex -14.0686 -36.1338 23
    endloop
  endfacet
  facet normal 0.587785 -0.809017 0
    outer loop
      vertex -14.0686 -36.1338 5
      vertex -12.4811 -34.9804 5
      vertex -14.0686 -36.1338 23
    endloop
  endfacet
  facet normal 0 -1 0
    outer loop
      vertex -10.5189 -34.9804 5
      vertex -10.5189 -34.9804 23
      vertex -12.4811 -34.9804 23
    endloop
  endfacet
  facet normal 0 -1 0
    outer loop
      vertex -12.4811 -34.9804 5
      vertex -10.5189 -34.9804 5
      vertex -12.4811 -34.9804 23
    endloop
  endfacet
  facet normal -0.587785 -0.809017 0
    outer loop
      vertex -8.93137 -36.1338 5
      vertex -8.93137 -36.1338 23
      vertex -10.5189 -34.9804 23
    endloop
  endfacet
  facet normal -0.587785 -0.809017 0
    outer loop
      vertex -10.5189 -34.9804 5
      vertex -8.93137 -36.1338 5
      vertex -10.5189 -34.9804 23
    endloop
  endfacet
  facet normal -0.951057 -0.309017 0
    outer loop
      vertex -8.325 -38 23
      vertex -8.93137 -36.1338 23
      vertex -8.325 -38 5
    endloop
  endfacet
  facet normal -0.951057 -0.309017 0
    outer loop
      vertex -8.325 -38 5
      vertex -8.93137 -36.1338 23
      vertex -8.93137 -36.1338 5
    endloop
  endfacet
  facet normal -0.951057 0.309017 0
    outer loop
      vertex -8.325 -38 23
      vertex -8.325 -38 5
      vertex -8.93137 -39.8662 23
    endloop
  endfacet
  facet normal -0.951057 0.309017 0
    outer loop
      vertex -8.93137 -39.8662 23
      vertex -8.325 -38 5
      vertex -8.93137 -39.8662 5
    endloop
  endfacet
  facet normal -0.587785 0.809017 0
    outer loop
      vertex -8.93137 -39.8662 23
      vertex -8.93137 -39.8662 5
      vertex -10.5189 -41.0196 23
    endloop
  endfacet
  facet normal -0.587785 0.809017 0
    outer loop
      vertex -10.5189 -41.0196 23
      vertex -8.93137 -39.8662 5
      vertex -10.5189 -41.0196 5
    endloop
  endfacet
  facet normal 0 1 0
    outer loop
      vertex -10.5189 -41.0196 23
      vertex -10.5189 -41.0196 5
      vertex -12.4811 -41.0196 23
    endloop
  endfacet
  facet normal 0 1 0
    outer loop
      vertex -12.4811 -41.0196 23
      vertex -10.5189 -41.0196 5
      vertex -12.4811 -41.0196 5
    endloop
  endfacet
  facet normal 0.587785 0.809017 0
    outer loop
      vertex -12.4811 -41.0196 23
      vertex -12.4811 -41.0196 5
      vertex -14.0686 -39.8662 23
    endloop
  endfacet
  facet normal 0.587785 0.809017 0
    outer loop
      vertex -14.0686 -39.8662 23
      vertex -12.4811 -41.0196 5
      vertex -14.0686 -39.8662 5
    endloop
  endfacet
  facet normal 1 0 0
    outer loop
      vertex -4 51.5 23
      vertex -4 51.5 21
      vertex -4 52 21
    endloop
  endfacet
  facet normal 1 0 0
    outer loop
      vertex -4 72.5 21
      vertex -4 51.5 23
      vertex -4 55 21
    endloop
  endfacet
  facet normal 1 0 0
    outer loop
      vertex -4 55 21
      vertex -4 51.5 23
      vertex -4 52 21
    endloop
  endfacet
  facet normal 1 0 0
    outer loop
      vertex -4 72.5 23
      vertex -4 51.5 23
      vertex -4 72.5 21
    endloop
  endfacet
  facet normal 0 1 0
    outer loop
      vertex -19 72.5 21
      vertex -19 72.5 23
      vertex -4 72.5 21
    endloop
  endfacet
  facet normal 0 1 0
    outer loop
      vertex -4 72.5 21
      vertex -19 72.5 23
      vertex -4 72.5 23
    endloop
  endfacet
  facet normal -1 0 0
    outer loop
      vertex -19 51.5 21
      vertex -19 51.5 23
      vertex -19 52 21
    endloop
  endfacet
  facet normal -1 0 0
    outer loop
      vertex -19 52 21
      vertex -19 51.5 23
      vertex -19 72.5 23
    endloop
  endfacet
  facet normal -1 0 0
    outer loop
      vertex -19 52 21
      vertex -19 72.5 23
      vertex -19 72.5 21
    endloop
  endfacet
  facet normal 0 0 -1
    outer loop
      vertex -19 51.5 21
      vertex -19 52 21
      vertex -4 52 21
    endloop
  endfacet
  facet normal 0 0 -1
    outer loop
      vertex -19 51.5 21
      vertex -4 52 21
      vertex -4 51.5 21
    endloop
  endfacet
  facet normal 0 0 -1
    outer loop
      vertex 9 11.5 21
      vertex 8.1194 -8.58658 21
      vertex 7.03553 -6.96447 21
    endloop
  endfacet
  facet normal 0 0 -1
    outer loop
      vertex 9 38 21
      vertex 23.5 51.5 21
      vertex 23.5 -24.5 21
    endloop
  endfacet
  facet normal 0 0 -1
    outer loop
      vertex 9 38 21
      vertex 23.5 -24.5 21
      vertex 9 11.5 21
    endloop
  endfacet
  facet normal 0 0 -1
    outer loop
      vertex -17.5 11.5 21
      vertex -4 -24.5 21
      vertex -61.5 51.5 21
    endloop
  endfacet
  facet normal 0 0 -1
    outer loop
      vertex -4 -24.5 21
      vertex -4 -25 21
      vertex -61.5 51.5 21
    endloop
  endfacet
  facet normal 0 0 -1
    outer loop
      vertex -4 -25 21
      vertex -19 -25 21
      vertex -19 -24.5 21
    endloop
  endfacet
  facet normal 0 0 -1
    outer loop
      vertex -4 -25 21
      vertex -19 -24.5 21
      vertex -61.5 51.5 21
    endloop
  endfacet
  facet normal 0 0 -1
    outer loop
      vertex -17.5 11.5 21
      vertex -61.5 51.5 21
      vertex -17.5 38 21
    endloop
  endfacet
  facet normal 0 0 -1
    outer loop
      vertex -3.92705 -12.2634 21
      vertex -4 -24.5 21
      vertex -17.5 11.5 21
    endloop
  endfacet
  facet normal 0 0 -1
    outer loop
      vertex 9 11.5 21
      vertex 23.5 -24.5 21
      vertex 8.1194 -8.58658 21
    endloop
  endfacet
  facet normal 0 0 -1
    outer loop
      vertex -17.5 38 21
      vertex -4 51.5 21
      vertex 9 38 21
    endloop
  endfacet
  facet normal 0 0 -1
    outer loop
      vertex 1.58658 -15.1194 21
      vertex -2.42705 -13.3532 21
      vertex -0.035534 -14.0355 21
    endloop
  endfacet
  facet normal 0 0 -1
    outer loop
      vertex -4 51.5 21
      vertex 23.5 51.5 21
      vertex 9 38 21
    endloop
  endfacet
  facet normal 0 0 -1
    outer loop
      vertex -17.5 38 21
      vertex -19 51.5 21
      vertex -4 51.5 21
    endloop
  endfacet
  facet normal 0 0 -1
    outer loop
      vertex -0.572949 -13.3532 21
      vertex -0.035534 -14.0355 21
      vertex -2.42705 -13.3532 21
    endloop
  endfacet
  facet normal 0 0 -1
    outer loop
      vertex -19 51.5 21
      vertex -17.5 38 21
      vertex -61.5 51.5 21
    endloop
  endfacet
  facet normal 0 0 -1
    outer loop
      vertex -2.42705 -13.3532 21
      vertex -4 -24.5 21
      vertex -3.92705 -12.2634 21
    endloop
  endfacet
  facet normal 0 0 -1
    outer loop
      vertex -4.5 -10.5 21
      vertex -3.92705 -12.2634 21
      vertex -17.5 11.5 21
    endloop
  endfacet
  facet normal 0 0 -1
    outer loop
      vertex 1.58658 -15.1194 21
      vertex -4 -24.5 21
      vertex -2.42705 -13.3532 21
    endloop
  endfacet
  facet normal 0 0 -1
    outer loop
      vertex -0.035534 -14.0355 21
      vertex -0.572949 -13.3532 21
      vertex -0.518101 -13.3133 21
    endloop
  endfacet
  facet normal 0 0 -1
    outer loop
      vertex 23.5 -24.5 21
      vertex -4 -24.5 21
      vertex 1.58658 -15.1194 21
    endloop
  endfacet
  facet normal 0 0 -1
    outer loop
      vertex 3.5 -15.5 21
      vertex 23.5 -24.5 21
      vertex 1.58658 -15.1194 21
    endloop
  endfacet
  facet normal 0 0 -1
    outer loop
      vertex -0.035534 -6.96447 21
      vertex -17.5 11.5 21
      vertex 1.58658 -5.8806 21
    endloop
  endfacet
  facet normal 0 0 -1
    outer loop
      vertex 8.5 -10.5 21
      vertex 23.5 -24.5 21
      vertex 8.1194 -12.4134 21
    endloop
  endfacet
  facet normal 0 0 -1
    outer loop
      vertex 23.5 -24.5 21
      vertex 5.41342 -15.1194 21
      vertex 7.03553 -14.0355 21
    endloop
  endfacet
  facet normal 0 0 -1
    outer loop
      vertex 23.5 -24.5 21
      vertex 7.03553 -14.0355 21
      vertex 8.1194 -12.4134 21
    endloop
  endfacet
  facet normal 0 0 -1
    outer loop
      vertex 8.1194 -8.58658 21
      vertex 23.5 -24.5 21
      vertex 8.5 -10.5 21
    endloop
  endfacet
  facet normal 0 0 -1
    outer loop
      vertex 9 11.5 21
      vertex 5.41342 -5.8806 21
      vertex 3.5 -5.5 21
    endloop
  endfacet
  facet normal 0 0 -1
    outer loop
      vertex 9 11.5 21
      vertex 7.03553 -6.96447 21
      vertex 5.41342 -5.8806 21
    endloop
  endfacet
  facet normal 0 0 -1
    outer loop
      vertex -2.42705 -7.64683 21
      vertex -17.5 11.5 21
      vertex -0.572949 -7.64683 21
    endloop
  endfacet
  facet normal 0 0 -1
    outer loop
      vertex -0.035534 -6.96447 21
      vertex -0.518101 -7.68668 21
      vertex -17.5 11.5 21
    endloop
  endfacet
  facet normal 0 0 -1
    outer loop
      vertex -0.518101 -7.68668 21
      vertex -0.572949 -7.64683 21
      vertex -17.5 11.5 21
    endloop
  endfacet
  facet normal 0 0 -1
    outer loop
      vertex -3.92705 -8.73664 21
      vertex -17.5 11.5 21
      vertex -2.42705 -7.64683 21
    endloop
  endfacet
  facet normal 0 0 -1
    outer loop
      vertex -3.92705 -8.73664 21
      vertex -4.5 -10.5 21
      vertex -17.5 11.5 21
    endloop
  endfacet
  facet normal 0 0 -1
    outer loop
      vertex -61.5 -24.5 21
      vertex -61.5 51.5 21
      vertex -19 -24.5 21
    endloop
  endfacet
  facet normal 0 0 -1
    outer loop
      vertex 1.58658 -5.8806 21
      vertex -17.5 11.5 21
      vertex 3.5 -5.5 21
    endloop
  endfacet
  facet normal 0 0 -1
    outer loop
      vertex 9 11.5 21
      vertex 3.5 -5.5 21
      vertex -17.5 11.5 21
    endloop
  endfacet
  facet normal 0 0 -1
    outer loop
      vertex 5.41342 -15.1194 21
      vertex 23.5 -24.5 21
      vertex 3.5 -15.5 21
    endloop
  endfacet
  facet normal 0 -1 0
    outer loop
      vertex 24 52 8.25
      vertex 24 52 21
      vertex -4 52 21
    endloop
  endfacet
  facet normal 0 -1 0
    outer loop
      vertex -62 52 21
      vertex 24 52 8.25
      vertex -19 52 21
    endloop
  endfacet
  facet normal 0 -1 0
    outer loop
      vertex -19 52 21
      vertex 24 52 8.25
      vertex -4 52 21
    endloop
  endfacet
  facet normal 0 -1 0
    outer loop
      vertex -62 52 8.25
      vertex 24 52 8.25
      vertex -62 52 21
    endloop
  endfacet
  facet normal 1 0 0
    outer loop
      vertex -62 52 8.25
      vertex -62 52 21
      vertex -62 -25 21
    endloop
  endfacet
  facet normal 1 0 0
    outer loop
      vertex -62 -25 8.25
      vertex -62 52 8.25
      vertex -62 -25 21
    endloop
  endfacet
  facet normal 0 1 0
    outer loop
      vertex -4 -25 21
      vertex 24 -25 8.25
      vertex -19 -25 21
    endloop
  endfacet
  facet normal 0 1 0
    outer loop
      vertex -19 -25 21
      vertex 24 -25 8.25
      vertex -62 -25 21
    endloop
  endfacet
  facet normal 0 1 0
    outer loop
      vertex 24 -25 21
      vertex 24 -25 8.25
      vertex -4 -25 21
    endloop
  endfacet
  facet normal 0 1 0
    outer loop
      vertex -62 -25 21
      vertex 24 -25 8.25
      vertex -62 -25 8.25
    endloop
  endfacet
  facet normal 0 -1 0
    outer loop
      vertex -61.5 -24.5 23
      vertex -61.5 -24.5 21
      vertex -19 -24.5 21
    endloop
  endfacet
  facet normal 0 -1 0
    outer loop
      vertex -19 -24.5 23
      vertex -61.5 -24.5 23
      vertex -19 -24.5 21
    endloop
  endfacet
  facet normal 0 0 1
    outer loop
      vertex 9 38 23
      vertex 9 11.5 23
      vertex 23.5 -24.5 23
    endloop
  endfacet
  facet normal 0 0 1
    outer loop
      vertex -61.5 51.5 23
      vertex -61.5 -24.5 23
      vertex -19 -24.5 23
    endloop
  endfacet
  facet normal 0 0 1
    outer loop
      vertex -10.5189 -34.9804 23
      vertex -61.5 51.5 23
      vertex -19 -24.5 23
    endloop
  endfacet
  facet normal 0 0 1
    outer loop
      vertex -8.93137 -36.1338 23
      vertex -4 -24.5 23
      vertex -61.5 51.5 23
    endloop
  endfacet
  facet normal 0 0 1
    outer loop
      vertex 9 11.5 23
      vertex 5.41342 -5.8806 23
      vertex 7.03553 -6.96447 23
    endloop
  endfacet
  facet normal 0 0 1
    outer loop
      vertex -10.5189 -34.9804 23
      vertex -8.93137 -36.1338 23
      vertex -61.5 51.5 23
    endloop
  endfacet
  facet normal 0 0 1
    outer loop
      vertex 9 38 23
      vertex 23.5 51.5 23
      vertex -4 51.5 23
    endloop
  endfacet
  facet normal 0 0 1
    outer loop
      vertex 9 11.5 23
      vertex 3.5 -5.5 23
      vertex 5.41342 -5.8806 23
    endloop
  endfacet
  facet normal 0 0 1
    outer loop
      vertex -17.5 38 23
      vertex -19 51.5 23
      vertex -61.5 51.5 23
    endloop
  endfacet
  facet normal 0 0 1
    outer loop
      vertex -4 -24.5 23
      vertex -17.5 11.5 23
      vertex -61.5 51.5 23
    endloop
  endfacet
  facet normal 0 0 1
    outer loop
      vertex 8.1194 -8.58658 23
      vertex 8.5 -10.5 23
      vertex 23.5 -24.5 23
    endloop
  endfacet
  facet normal 0 0 1
    outer loop
      vertex -17.5 38 23
      vertex 9 38 23
      vertex -4 51.5 23
    endloop
  endfacet
  facet normal 0 0 1
    outer loop
      vertex 23.5 -24.5 23
      vertex 23.5 51.5 23
      vertex 9 38 23
    endloop
  endfacet
  facet normal 0 0 1
    outer loop
      vertex -14.675 -38 23
      vertex -14.0686 -36.1338 23
      vertex -19 -24.5 23
    endloop
  endfacet
  facet normal 0 0 1
    outer loop
      vertex -12.4811 -34.9804 23
      vertex -10.5189 -34.9804 23
      vertex -19 -24.5 23
    endloop
  endfacet
  facet normal 0 0 1
    outer loop
      vertex -19 -45.5 23
      vertex -14.675 -38 23
      vertex -19 -24.5 23
    endloop
  endfacet
  facet normal 0 0 1
    outer loop
      vertex -19 -45.5 23
      vertex -14.0686 -39.8662 23
      vertex -14.675 -38 23
    endloop
  endfacet
  facet normal 0 0 1
    outer loop
      vertex -8.93137 -39.8662 23
      vertex -10.5189 -41.0196 23
      vertex -4 -45.5 23
    endloop
  endfacet
  facet normal 0 0 1
    outer loop
      vertex -14.0686 -36.1338 23
      vertex -12.4811 -34.9804 23
      vertex -19 -24.5 23
    endloop
  endfacet
  facet normal 0 0 1
    outer loop
      vertex -10.5189 68.0196 23
      vertex -8.93137 66.8662 23
      vertex -4 72.5 23
    endloop
  endfacet
  facet normal 0 0 1
    outer loop
      vertex -8.325 -38 23
      vertex -8.93137 -39.8662 23
      vertex -4 -45.5 23
    endloop
  endfacet
  facet normal 0 0 1
    outer loop
      vertex -4 -45.5 23
      vertex -4 -24.5 23
      vertex -8.93137 -36.1338 23
    endloop
  endfacet
  facet normal 0 0 1
    outer loop
      vertex -4 -45.5 23
      vertex -8.93137 -36.1338 23
      vertex -8.325 -38 23
    endloop
  endfacet
  facet normal 0 0 1
    outer loop
      vertex -10.5189 -41.0196 23
      vertex -12.4811 -41.0196 23
      vertex -4 -45.5 23
    endloop
  endfacet
  facet normal 0 0 1
    outer loop
      vertex -12.4811 68.0196 23
      vertex -10.5189 68.0196 23
      vertex -4 72.5 23
    endloop
  endfacet
  facet normal 0 0 1
    outer loop
      vertex -19 -45.5 23
      vertex -12.4811 -41.0196 23
      vertex -14.0686 -39.8662 23
    endloop
  endfacet
  facet normal 0 0 1
    outer loop
      vertex -19 -45.5 23
      vertex -4 -45.5 23
      vertex -12.4811 -41.0196 23
    endloop
  endfacet
  facet normal 0 0 1
    outer loop
      vertex -17.5 11.5 23
      vertex -17.5 38 23
      vertex -61.5 51.5 23
    endloop
  endfacet
  facet normal 0 0 1
    outer loop
      vertex -0.518101 -7.68668 23
      vertex -0.035534 -6.96447 23
      vertex -0.572949 -7.64683 23
    endloop
  endfacet
  facet normal 0 0 1
    outer loop
      vertex 8.1194 -12.4134 23
      vertex 7.03553 -14.0355 23
      vertex 23.5 -24.5 23
    endloop
  endfacet
  facet normal 0 0 1
    outer loop
      vertex -8.93137 66.8662 23
      vertex -8.325 65 23
      vertex -4 72.5 23
    endloop
  endfacet
  facet normal 0 0 1
    outer loop
      vertex 9 11.5 23
      vertex 7.03553 -6.96447 23
      vertex 23.5 -24.5 23
    endloop
  endfacet
  facet normal 0 0 1
    outer loop
      vertex -10.5189 61.9804 23
      vertex -12.4811 61.9804 23
      vertex -19 51.5 23
    endloop
  endfacet
  facet normal 0 0 1
    outer loop
      vertex 1.58658 -5.8806 23
      vertex 3.5 -5.5 23
      vertex -17.5 11.5 23
    endloop
  endfacet
  facet normal 0 0 1
    outer loop
      vertex -4 51.5 23
      vertex -4 72.5 23
      vertex -8.325 65 23
    endloop
  endfacet
  facet normal 0 0 1
    outer loop
      vertex -4 51.5 23
      vertex -8.93137 63.1338 23
      vertex -19 51.5 23
    endloop
  endfacet
  facet normal 0 0 1
    outer loop
      vertex -4 51.5 23
      vertex -8.325 65 23
      vertex -8.93137 63.1338 23
    endloop
  endfacet
  facet normal 0 0 1
    outer loop
      vertex -8.93137 63.1338 23
      vertex -10.5189 61.9804 23
      vertex -19 51.5 23
    endloop
  endfacet
  facet normal 0 0 1
    outer loop
      vertex -19 51.5 23
      vertex -12.4811 61.9804 23
      vertex -14.0686 63.1338 23
    endloop
  endfacet
  facet normal 0 0 1
    outer loop
      vertex 3.5 -15.5 23
      vertex 1.58658 -15.1194 23
      vertex 23.5 -24.5 23
    endloop
  endfacet
  facet normal 0 0 1
    outer loop
      vertex -4 -24.5 23
      vertex -3.92705 -12.2634 23
      vertex -17.5 11.5 23
    endloop
  endfacet
  facet normal 0 0 1
    outer loop
      vertex -3.92705 -12.2634 23
      vertex -4.5 -10.5 23
      vertex -17.5 11.5 23
    endloop
  endfacet
  facet normal 0 0 1
    outer loop
      vertex -0.572949 -13.3532 23
      vertex -2.42705 -13.3532 23
      vertex -0.035534 -14.0355 23
    endloop
  endfacet
  facet normal 0 0 1
    outer loop
      vertex -4.5 -10.5 23
      vertex -3.92705 -8.73664 23
      vertex -17.5 11.5 23
    endloop
  endfacet
  facet normal 0 0 1
    outer loop
      vertex -3.92705 -8.73664 23
      vertex -2.42705 -7.64683 23
      vertex -17.5 11.5 23
    endloop
  endfacet
  facet normal 0 0 1
    outer loop
      vertex -2.42705 -7.64683 23
      vertex -0.572949 -7.64683 23
      vertex -17.5 11.5 23
    endloop
  endfacet
  facet normal 0 0 1
    outer loop
      vertex 7.03553 -14.0355 23
      vertex 5.41342 -15.1194 23
      vertex 23.5 -24.5 23
    endloop
  endfacet
  facet normal 0 0 1
    outer loop
      vertex -0.572949 -7.64683 23
      vertex -0.035534 -6.96447 23
      vertex -17.5 11.5 23
    endloop
  endfacet
  facet normal 0 0 1
    outer loop
      vertex -0.035534 -6.96447 23
      vertex 1.58658 -5.8806 23
      vertex -17.5 11.5 23
    endloop
  endfacet
  facet normal 0 0 1
    outer loop
      vertex -17.5 38 23
      vertex -4 51.5 23
      vertex -19 51.5 23
    endloop
  endfacet
  facet normal 0 0 1
    outer loop
      vertex 8.5 -10.5 23
      vertex 8.1194 -12.4134 23
      vertex 23.5 -24.5 23
    endloop
  endfacet
  facet normal 0 0 1
    outer loop
      vertex 23.5 -24.5 23
      vertex 7.03553 -6.96447 23
      vertex 8.1194 -8.58658 23
    endloop
  endfacet
  facet normal 0 0 1
    outer loop
      vertex 5.41342 -15.1194 23
      vertex 3.5 -15.5 23
      vertex 23.5 -24.5 23
    endloop
  endfacet
  facet normal 0 0 1
    outer loop
      vertex -0.035534 -14.0355 23
      vertex -0.518101 -13.3133 23
      vertex -0.572949 -13.3532 23
    endloop
  endfacet
  facet normal 0 0 1
    outer loop
      vertex -4 -24.5 23
      vertex 23.5 -24.5 23
      vertex 1.58658 -15.1194 23
    endloop
  endfacet
  facet normal 0 0 1
    outer loop
      vertex -0.035534 -14.0355 23
      vertex -2.42705 -13.3532 23
      vertex 1.58658 -15.1194 23
    endloop
  endfacet
  facet normal 0 0 1
    outer loop
      vertex -4 -24.5 23
      vertex -2.42705 -13.3532 23
      vertex -3.92705 -12.2634 23
    endloop
  endfacet
  facet normal 0 0 1
    outer loop
      vertex -4 -24.5 23
      vertex 1.58658 -15.1194 23
      vertex -2.42705 -13.3532 23
    endloop
  endfacet
  facet normal 0 0 1
    outer loop
      vertex -19 72.5 23
      vertex -12.4811 68.0196 23
      vertex -4 72.5 23
    endloop
  endfacet
  facet normal 0 0 1
    outer loop
      vertex -19 72.5 23
      vertex -14.0686 66.8662 23
      vertex -12.4811 68.0196 23
    endloop
  endfacet
  facet normal 0 0 1
    outer loop
      vertex -19 72.5 23
      vertex -14.675 65 23
      vertex -14.0686 66.8662 23
    endloop
  endfacet
  facet normal 0 0 1
    outer loop
      vertex -19 72.5 23
      vertex -14.0686 63.1338 23
      vertex -14.675 65 23
    endloop
  endfacet
  facet normal 0 0 1
    outer loop
      vertex -19 72.5 23
      vertex -19 51.5 23
      vertex -14.0686 63.1338 23
    endloop
  endfacet
  facet normal 0 0 1
    outer loop
      vertex 9 11.5 23
      vertex -17.5 11.5 23
      vertex 3.5 -5.5 23
    endloop
  endfacet
  facet normal 0 -1 0
    outer loop
      vertex -4 -24.5 23
      vertex -4 -24.5 21
      vertex 23.5 -24.5 21
    endloop
  endfacet
  facet normal 0 -1 0
    outer loop
      vertex 23.5 -24.5 23
      vertex -4 -24.5 23
      vertex 23.5 -24.5 21
    endloop
  endfacet
  facet normal 0 0 1
    outer loop
      vertex -4 -25 21
      vertex -4 -28 21
      vertex 27 -28 21
    endloop
  endfacet
  facet normal 0 0 1
    outer loop
      vertex 24 -25 21
      vertex -4 -25 21
      vertex 27 -28 21
    endloop
  endfacet
  facet normal 0 0 1
    outer loop
      vertex -4 55 21
      vertex -4 52 21
      vertex 27 55 21
    endloop
  endfacet
  facet normal 0 0 1
    outer loop
      vertex -4 52 21
      vertex 24 52 21
      vertex 27 55 21
    endloop
  endfacet
  facet normal 0 0 1
    outer loop
      vertex 27 55 21
      vertex 24 -25 21
      vertex 27 -28 21
    endloop
  endfacet
  facet normal 0 0 1
    outer loop
      vertex 24 52 21
      vertex 24 -25 21
      vertex 27 55 21
    endloop
  endfacet
  facet normal 0 0 1
    outer loop
      vertex 24 -25 8.25
      vertex 24 52 8.25
      vertex -62 52 8.25
    endloop
  endfacet
  facet normal 0 0 1
    outer loop
      vertex -36.7277 17.2919 8.25
      vertex 24 -25 8.25
      vertex -62 52 8.25
    endloop
  endfacet
  facet normal 0 0 1
    outer loop
      vertex -62 -25 8.25
      vertex -42.8838 14.9573 8.25
      vertex -62 52 8.25
    endloop
  endfacet
  facet normal 0 0 1
    outer loop
      vertex -42.8838 14.9573 8.25
      vertex -41.994 16.6525 8.25
      vertex -62 52 8.25
    endloop
  endfacet
  facet normal 0 0 1
    outer loop
      vertex -41.994 16.6525 8.25
      vertex -40.4184 17.7401 8.25
      vertex -62 52 8.25
    endloop
  endfacet
  facet normal 0 0 1
    outer loop
      vertex -40.4184 17.7401 8.25
      vertex -38.5179 17.9708 8.25
      vertex -62 52 8.25
    endloop
  endfacet
  facet normal 0 0 1
    outer loop
      vertex -38.5179 17.9708 8.25
      vertex -36.7277 17.2919 8.25
      vertex -62 52 8.25
    endloop
  endfacet
  facet normal 0 0 1
    outer loop
      vertex -35.4582 15.8589 8.25
      vertex -35 14 8.25
      vertex 24 -25 8.25
    endloop
  endfacet
  facet normal 0 0 1
    outer loop
      vertex -35 14 8.25
      vertex -35.4582 12.1411 8.25
      vertex 24 -25 8.25
    endloop
  endfacet
  facet normal 0 0 1
    outer loop
      vertex -35.4582 12.1411 8.25
      vertex -36.7277 10.7081 8.25
      vertex 24 -25 8.25
    endloop
  endfacet
  facet normal 0 0 1
    outer loop
      vertex -62 -25 8.25
      vertex 24 -25 8.25
      vertex -36.7277 10.7081 8.25
    endloop
  endfacet
  facet normal 0 0 1
    outer loop
      vertex -62 -25 8.25
      vertex -36.7277 10.7081 8.25
      vertex -38.5179 10.0292 8.25
    endloop
  endfacet
  facet normal 0 0 1
    outer loop
      vertex -62 -25 8.25
      vertex -38.5179 10.0292 8.25
      vertex -40.4184 10.2599 8.25
    endloop
  endfacet
  facet normal 0 0 1
    outer loop
      vertex -62 -25 8.25
      vertex -40.4184 10.2599 8.25
      vertex -41.994 11.3475 8.25
    endloop
  endfacet
  facet normal 0 0 1
    outer loop
      vertex -62 -25 8.25
      vertex -42.8838 13.0427 8.25
      vertex -42.8838 14.9573 8.25
    endloop
  endfacet
  facet normal 0 0 1
    outer loop
      vertex -62 -25 8.25
      vertex -41.994 11.3475 8.25
      vertex -42.8838 13.0427 8.25
    endloop
  endfacet
  facet normal 0 0 1
    outer loop
      vertex -36.7277 17.2919 8.25
      vertex -35.4582 15.8589 8.25
      vertex 24 -25 8.25
    endloop
  endfacet
  facet normal -0.587785 -0.809017 0
    outer loop
      vertex -10.5189 68.0196 21
      vertex -8.93137 66.8662 21
      vertex -10.5189 68.0196 23
    endloop
  endfacet
  facet normal -0.587785 -0.809017 0
    outer loop
      vertex -10.5189 68.0196 23
      vertex -8.93137 66.8662 21
      vertex -8.93137 66.8662 23
    endloop
  endfacet
  facet normal 0.951057 0.309017 0
    outer loop
      vertex -14.675 65 23
      vertex -14.0686 63.1338 23
      vertex -14.0686 63.1338 21
    endloop
  endfacet
  facet normal 0.951057 0.309017 0
    outer loop
      vertex -14.675 65 21
      vertex -14.675 65 23
      vertex -14.0686 63.1338 21
    endloop
  endfacet
  facet normal 0 1 0
    outer loop
      vertex 23.5 51.5 23
      vertex 23.5 51.5 21
      vertex -4 51.5 23
    endloop
  endfacet
  facet normal 0 1 0
    outer loop
      vertex -4 51.5 23
      vertex 23.5 51.5 21
      vertex -4 51.5 21
    endloop
  endfacet
  facet normal 0 1 0
    outer loop
      vertex -19 51.5 23
      vertex -19 51.5 21
      vertex -61.5 51.5 23
    endloop
  endfacet
  facet normal 0 1 0
    outer loop
      vertex -61.5 51.5 23
      vertex -19 51.5 21
      vertex -61.5 51.5 21
    endloop
  endfacet
  facet normal -1 0 0
    outer loop
      vertex -61.5 -24.5 21
      vertex -61.5 -24.5 23
      vertex -61.5 51.5 21
    endloop
  endfacet
  facet normal -1 0 0
    outer loop
      vertex -61.5 51.5 21
      vertex -61.5 -24.5 23
      vertex -61.5 51.5 23
    endloop
  endfacet
  facet normal 1 0 0
    outer loop
      vertex 23.5 -24.5 23
      vertex 23.5 -24.5 21
      vertex 23.5 51.5 21
    endloop
  endfacet
  facet normal 1 0 0
    outer loop
      vertex 23.5 51.5 23
      vertex 23.5 -24.5 23
      vertex 23.5 51.5 21
    endloop
  endfacet
  facet normal 1 0 0
    outer loop
      vertex -17.5 38 21
      vertex -17.5 38 23
      vertex -17.5 11.5 23
    endloop
  endfacet
  facet normal 1 0 0
    outer loop
      vertex -17.5 11.5 21
      vertex -17.5 38 21
      vertex -17.5 11.5 23
    endloop
  endfacet
  facet normal 0 1 0
    outer loop
      vertex 9 11.5 23
      vertex 9 11.5 21
      vertex -17.5 11.5 23
    endloop
  endfacet
  facet normal 0 1 0
    outer loop
      vertex -17.5 11.5 23
      vertex 9 11.5 21
      vertex -17.5 11.5 21
    endloop
  endfacet
  facet normal 0 -1 0
    outer loop
      vertex 9 38 21
      vertex 9 38 23
      vertex -17.5 38 23
    endloop
  endfacet
  facet normal 0 -1 0
    outer loop
      vertex -17.5 38 21
      vertex 9 38 21
      vertex -17.5 38 23
    endloop
  endfacet
  facet normal -1 0 0
    outer loop
      vertex 9 38 23
      vertex 9 38 21
      vertex 9 11.5 23
    endloop
  endfacet
  facet normal -1 0 0
    outer loop
      vertex 9 11.5 23
      vertex 9 38 21
      vertex 9 11.5 21
    endloop
  endfacet
  facet normal 0.587785 0.809017 0
    outer loop
      vertex -2.42705 -13.3532 23
      vertex -2.42705 -13.3532 21
      vertex -3.92705 -12.2634 23
    endloop
  endfacet
  facet normal 0.587785 0.809017 0
    outer loop
      vertex -3.92705 -12.2634 23
      vertex -2.42705 -13.3532 21
      vertex -3.92705 -12.2634 21
    endloop
  endfacet
  facet normal 0.951057 0.309017 0
    outer loop
      vertex -4.5 -10.5 23
      vertex -3.92705 -12.2634 23
      vertex -3.92705 -12.2634 21
    endloop
  endfacet
  facet normal 0.951057 0.309017 0
    outer loop
      vertex -4.5 -10.5 21
      vertex -4.5 -10.5 23
      vertex -3.92705 -12.2634 21
    endloop
  endfacet
  facet normal 0.951057 -0.309017 0
    outer loop
      vertex -3.92705 -8.73664 21
      vertex -3.92705 -8.73664 23
      vertex -4.5 -10.5 23
    endloop
  endfacet
  facet normal 0.951057 -0.309017 0
    outer loop
      vertex -4.5 -10.5 21
      vertex -3.92705 -8.73664 21
      vertex -4.5 -10.5 23
    endloop
  endfacet
  facet normal 0.587785 -0.809017 0
    outer loop
      vertex -2.42705 -7.64683 21
      vertex -2.42705 -7.64683 23
      vertex -3.92705 -8.73664 23
    endloop
  endfacet
  facet normal 0.587785 -0.809017 0
    outer loop
      vertex -3.92705 -8.73664 21
      vertex -2.42705 -7.64683 21
      vertex -3.92705 -8.73664 23
    endloop
  endfacet
  facet normal 0 -1 0
    outer loop
      vertex -0.572949 -7.64683 21
      vertex -0.572949 -7.64683 23
      vertex -2.42705 -7.64683 23
    endloop
  endfacet
  facet normal 0 -1 0
    outer loop
      vertex -2.42705 -7.64683 21
      vertex -0.572949 -7.64683 21
      vertex -2.42705 -7.64683 23
    endloop
  endfacet
  facet normal -0.587785 -0.809017 0
    outer loop
      vertex -0.518101 -7.68668 21
      vertex -0.518101 -7.68668 23
      vertex -0.572949 -7.64683 23
    endloop
  endfacet
  facet normal -0.587785 -0.809017 0
    outer loop
      vertex -0.572949 -7.64683 21
      vertex -0.518101 -7.68668 21
      vertex -0.572949 -7.64683 23
    endloop
  endfacet
  facet normal 0.83147 -0.55557 0
    outer loop
      vertex -0.035534 -6.96447 21
      vertex -0.035534 -6.96447 23
      vertex -0.518101 -7.68668 23
    endloop
  endfacet
  facet normal 0.83147 -0.55557 0
    outer loop
      vertex -0.518101 -7.68668 21
      vertex -0.035534 -6.96447 21
      vertex -0.518101 -7.68668 23
    endloop
  endfacet
  facet normal 0.55557 -0.83147 0
    outer loop
      vertex 1.58658 -5.8806 21
      vertex 1.58658 -5.8806 23
      vertex -0.035534 -6.96447 23
    endloop
  endfacet
  facet normal 0.55557 -0.83147 0
    outer loop
      vertex -0.035534 -6.96447 21
      vertex 1.58658 -5.8806 21
      vertex -0.035534 -6.96447 23
    endloop
  endfacet
  facet normal 0.19509 -0.980785 0
    outer loop
      vertex 3.5 -5.5 21
      vertex 3.5 -5.5 23
      vertex 1.58658 -5.8806 23
    endloop
  endfacet
  facet normal 0.19509 -0.980785 0
    outer loop
      vertex 1.58658 -5.8806 21
      vertex 3.5 -5.5 21
      vertex 1.58658 -5.8806 23
    endloop
  endfacet
  facet normal -0.19509 -0.980785 0
    outer loop
      vertex 5.41342 -5.8806 21
      vertex 5.41342 -5.8806 23
      vertex 3.5 -5.5 23
    endloop
  endfacet
  facet normal -0.19509 -0.980785 0
    outer loop
      vertex 3.5 -5.5 21
      vertex 5.41342 -5.8806 21
      vertex 3.5 -5.5 23
    endloop
  endfacet
  facet normal -0.55557 -0.83147 0
    outer loop
      vertex 7.03553 -6.96447 21
      vertex 7.03553 -6.96447 23
      vertex 5.41342 -5.8806 23
    endloop
  endfacet
  facet normal -0.55557 -0.83147 0
    outer loop
      vertex 5.41342 -5.8806 21
      vertex 7.03553 -6.96447 21
      vertex 5.41342 -5.8806 23
    endloop
  endfacet
  facet normal -0.83147 -0.55557 0
    outer loop
      vertex 8.1194 -8.58658 23
      vertex 7.03553 -6.96447 23
      vertex 8.1194 -8.58658 21
    endloop
  endfacet
  facet normal -0.83147 -0.55557 0
    outer loop
      vertex 8.1194 -8.58658 21
      vertex 7.03553 -6.96447 23
      vertex 7.03553 -6.96447 21
    endloop
  endfacet
  facet normal -0.980785 -0.19509 0
    outer loop
      vertex 8.5 -10.5 23
      vertex 8.1194 -8.58658 23
      vertex 8.5 -10.5 21
    endloop
  endfacet
  facet normal -0.980785 -0.19509 0
    outer loop
      vertex 8.5 -10.5 21
      vertex 8.1194 -8.58658 23
      vertex 8.1194 -8.58658 21
    endloop
  endfacet
  facet normal -0.980785 0.19509 0
    outer loop
      vertex 8.5 -10.5 23
      vertex 8.5 -10.5 21
      vertex 8.1194 -12.4134 23
    endloop
  endfacet
  facet normal -0.980785 0.19509 0
    outer loop
      vertex 8.1194 -12.4134 23
      vertex 8.5 -10.5 21
      vertex 8.1194 -12.4134 21
    endloop
  endfacet
  facet normal -0.83147 0.55557 0
    outer loop
      vertex 8.1194 -12.4134 23
      vertex 8.1194 -12.4134 21
      vertex 7.03553 -14.0355 23
    endloop
  endfacet
  facet normal -0.83147 0.55557 0
    outer loop
      vertex 7.03553 -14.0355 23
      vertex 8.1194 -12.4134 21
      vertex 7.03553 -14.0355 21
    endloop
  endfacet
  facet normal -0.55557 0.83147 0
    outer loop
      vertex 7.03553 -14.0355 23
      vertex 7.03553 -14.0355 21
      vertex 5.41342 -15.1194 23
    endloop
  endfacet
  facet normal -0.55557 0.83147 0
    outer loop
      vertex 5.41342 -15.1194 23
      vertex 7.03553 -14.0355 21
      vertex 5.41342 -15.1194 21
    endloop
  endfacet
  facet normal -0.19509 0.980785 0
    outer loop
      vertex 5.41342 -15.1194 23
      vertex 5.41342 -15.1194 21
      vertex 3.5 -15.5 23
    endloop
  endfacet
  facet normal -0.19509 0.980785 0
    outer loop
      vertex 3.5 -15.5 23
      vertex 5.41342 -15.1194 21
      vertex 3.5 -15.5 21
    endloop
  endfacet
  facet normal 0.19509 0.980785 0
    outer loop
      vertex 3.5 -15.5 23
      vertex 3.5 -15.5 21
      vertex 1.58658 -15.1194 23
    endloop
  endfacet
  facet normal 0.19509 0.980785 0
    outer loop
      vertex 1.58658 -15.1194 23
      vertex 3.5 -15.5 21
      vertex 1.58658 -15.1194 21
    endloop
  endfacet
  facet normal 0.55557 0.83147 0
    outer loop
      vertex 1.58658 -15.1194 23
      vertex 1.58658 -15.1194 21
      vertex -0.035534 -14.0355 23
    endloop
  endfacet
  facet normal 0.55557 0.83147 0
    outer loop
      vertex -0.035534 -14.0355 23
      vertex 1.58658 -15.1194 21
      vertex -0.035534 -14.0355 21
    endloop
  endfacet
  facet normal 0.83147 0.55557 0
    outer loop
      vertex -0.518101 -13.3133 23
      vertex -0.035534 -14.0355 23
      vertex -0.035534 -14.0355 21
    endloop
  endfacet
  facet normal 0.83147 0.55557 0
    outer loop
      vertex -0.518101 -13.3133 21
      vertex -0.518101 -13.3133 23
      vertex -0.035534 -14.0355 21
    endloop
  endfacet
  facet normal -0.587785 0.809017 0
    outer loop
      vertex -0.518101 -13.3133 23
      vertex -0.518101 -13.3133 21
      vertex -0.572949 -13.3532 23
    endloop
  endfacet
  facet normal -0.587785 0.809017 0
    outer loop
      vertex -0.572949 -13.3532 23
      vertex -0.518101 -13.3133 21
      vertex -0.572949 -13.3532 21
    endloop
  endfacet
  facet normal 0 1 0
    outer loop
      vertex -0.572949 -13.3532 23
      vertex -0.572949 -13.3532 21
      vertex -2.42705 -13.3532 23
    endloop
  endfacet
  facet normal 0 1 0
    outer loop
      vertex -2.42705 -13.3532 23
      vertex -0.572949 -13.3532 21
      vertex -2.42705 -13.3532 21
    endloop
  endfacet
  facet normal -1 0 0
    outer loop
      vertex 24 52 21
      vertex 24 52 8.25
      vertex 24 -25 21
    endloop
  endfacet
  facet normal -1 0 0
    outer loop
      vertex 24 -25 21
      vertex 24 52 8.25
      vertex 24 -25 8.25
    endloop
  endfacet
  facet normal 0.587785 0.809017 0
    outer loop
      vertex -12.4811 61.9804 23
      vertex -12.4811 61.9804 21
      vertex -14.0686 63.1338 23
    endloop
  endfacet
  facet normal 0.587785 0.809017 0
    outer loop
      vertex -14.0686 63.1338 23
      vertex -12.4811 61.9804 21
      vertex -14.0686 63.1338 21
    endloop
  endfacet
  facet normal 0 1 0
    outer loop
      vertex -10.5189 61.9804 23
      vertex -10.5189 61.9804 21
      vertex -12.4811 61.9804 23
    endloop
  endfacet
  facet normal 0 1 0
    outer loop
      vertex -12.4811 61.9804 23
      vertex -10.5189 61.9804 21
      vertex -12.4811 61.9804 21
    endloop
  endfacet
  facet normal -0.587785 0.809017 0
    outer loop
      vertex -8.93137 63.1338 23
      vertex -8.93137 63.1338 21
      vertex -10.5189 61.9804 23
    endloop
  endfacet
  facet normal -0.587785 0.809017 0
    outer loop
      vertex -10.5189 61.9804 23
      vertex -8.93137 63.1338 21
      vertex -10.5189 61.9804 21
    endloop
  endfacet
  facet normal -0.951057 0.309017 0
    outer loop
      vertex -8.325 65 23
      vertex -8.325 65 21
      vertex -8.93137 63.1338 23
    endloop
  endfacet
  facet normal -0.951057 0.309017 0
    outer loop
      vertex -8.93137 63.1338 23
      vertex -8.325 65 21
      vertex -8.93137 63.1338 21
    endloop
  endfacet
  facet normal -0.951057 -0.309017 0
    outer loop
      vertex -8.325 65 23
      vertex -8.93137 66.8662 23
      vertex -8.325 65 21
    endloop
  endfacet
  facet normal -0.951057 -0.309017 0
    outer loop
      vertex -8.325 65 21
      vertex -8.93137 66.8662 23
      vertex -8.93137 66.8662 21
    endloop
  endfacet
  facet normal 0 -1 0
    outer loop
      vertex -10.5189 68.0196 21
      vertex -10.5189 68.0196 23
      vertex -12.4811 68.0196 23
    endloop
  endfacet
  facet normal 0 -1 0
    outer loop
      vertex -12.4811 68.0196 21
      vertex -10.5189 68.0196 21
      vertex -12.4811 68.0196 23
    endloop
  endfacet
  facet normal 0.587785 -0.809017 0
    outer loop
      vertex -12.4811 68.0196 21
      vertex -12.4811 68.0196 23
      vertex -14.0686 66.8662 23
    endloop
  endfacet
  facet normal 0.587785 -0.809017 0
    outer loop
      vertex -14.0686 66.8662 21
      vertex -12.4811 68.0196 21
      vertex -14.0686 66.8662 23
    endloop
  endfacet
  facet normal 0.951057 -0.309017 0
    outer loop
      vertex -14.0686 66.8662 21
      vertex -14.0686 66.8662 23
      vertex -14.675 65 23
    endloop
  endfacet
  facet normal 0.951057 -0.309017 0
    outer loop
      vertex -14.675 65 21
      vertex -14.0686 66.8662 21
      vertex -14.675 65 23
    endloop
  endfacet
endsolid OpenSCAD_Model
