solid OpenSCAD_Model
  facet normal -1 0 0
    outer loop
      vertex 0 0 0
      vertex 0 0 15
      vertex 0 30 0
    endloop
  endfacet
  facet normal -1 0 0
    outer loop
      vertex 0 30 0
      vertex 0 0 15
      vertex 0 30 15
    endloop
  endfacet
  facet normal 0 -1 0
    outer loop
      vertex 0 0 15
      vertex 0 0 0
      vertex 22.5 0 0
    endloop
  endfacet
  facet normal 0 -1 0
    outer loop
      vertex 10.75 0 15
      vertex 0 0 15
      vertex 22.5 0 0
    endloop
  endfacet
  facet normal 0 -1 0
    outer loop
      vertex 11.75 0 15
      vertex 10.75 0 15
      vertex 22.5 0 0
    endloop
  endfacet
  facet normal 0 -1 0
    outer loop
      vertex 22.5 0 15
      vertex 11.75 0 15
      vertex 22.5 0 0
    endloop
  endfacet
  facet normal 0 -1 0
    outer loop
      vertex 11.75 0 20
      vertex 10.75 0 15
      vertex 11.75 0 15
    endloop
  endfacet
  facet normal 0 -1 0
    outer loop
      vertex 10.75 0 20
      vertex 10.75 0 15
      vertex 11.75 0 20
    endloop
  endfacet
  facet normal 0 0 -1
    outer loop
      vertex 0 0 0
      vertex 0 30 0
      vertex 22.5 0 0
    endloop
  endfacet
  facet normal 0 0 -1
    outer loop
      vertex 22.5 0 0
      vertex 0 30 0
      vertex 22.5 30 0
    endloop
  endfacet
  facet normal 0 1 0
    outer loop
      vertex 0 30 0
      vertex 0 30 15
      vertex 22.5 30 0
    endloop
  endfacet
  facet normal 0 1 0
    outer loop
      vertex 22.5 30 0
      vertex 0 30 15
      vertex 22.5 30 15
    endloop
  endfacet
  facet normal 0 0 1
    outer loop
      vertex 5.625 7.5 15
      vertex 0 0 15
      vertex 10.75 0 15
    endloop
  endfacet
  facet normal 0 0 1
    outer loop
      vertex 22.5 0 15
      vertex 16.875 7.5 15
      vertex 11.75 3 15
    endloop
  endfacet
  facet normal 0 0 1
    outer loop
      vertex 22.5 0 15
      vertex 11.75 3 15
      vertex 11.75 0 15
    endloop
  endfacet
  facet normal 0 0 1
    outer loop
      vertex 0 30 15
      vertex 0 0 15
      vertex 5.625 7.5 15
    endloop
  endfacet
  facet normal 0 0 1
    outer loop
      vertex 22.5 30 15
      vertex 0 30 15
      vertex 5.625 22.5 15
    endloop
  endfacet
  facet normal 0 0 1
    outer loop
      vertex 22.5 30 15
      vertex 16.875 22.5 15
      vertex 22.5 0 15
    endloop
  endfacet
  facet normal 0 0 1
    outer loop
      vertex 22.5 30 15
      vertex 5.625 22.5 15
      vertex 16.875 22.5 15
    endloop
  endfacet
  facet normal 0 0 1
    outer loop
      vertex 16.875 22.5 15
      vertex 16.875 7.5 15
      vertex 22.5 0 15
    endloop
  endfacet
  facet normal 0 0 1
    outer loop
      vertex 5.625 7.5 15
      vertex 5.625 22.5 15
      vertex 0 30 15
    endloop
  endfacet
  facet normal 0 0 1
    outer loop
      vertex 16.875 7.5 15
      vertex 10.75 3 15
      vertex 11.75 3 15
    endloop
  endfacet
  facet normal 0 0 1
    outer loop
      vertex 10.75 3 15
      vertex 5.625 7.5 15
      vertex 10.75 0 15
    endloop
  endfacet
  facet normal 0 0 1
    outer loop
      vertex 16.875 7.5 15
      vertex 5.625 7.5 15
      vertex 10.75 3 15
    endloop
  endfacet
  facet normal -1 0 0
    outer loop
      vertex 10.75 1.08855 18.0337
      vertex 10.75 3 15
      vertex 10.75 0.933688 18.1885
    endloop
  endfacet
  facet normal -1 0 0
    outer loop
      vertex 10.75 1.71631 19.2657
      vertex 10.75 0 20
      vertex 10.75 3 20
    endloop
  endfacet
  facet normal -1 0 0
    outer loop
      vertex 10.75 0 15
      vertex 10.75 0 20
      vertex 10.75 0.8 18.6
    endloop
  endfacet
  facet normal -1 0 0
    outer loop
      vertex 10.75 0 15
      vertex 10.75 0.8 18.6
      vertex 10.75 0.83426 18.3837
    endloop
  endfacet
  facet normal -1 0 0
    outer loop
      vertex 10.75 0 15
      vertex 10.75 0.83426 18.3837
      vertex 10.75 0.933688 18.1885
    endloop
  endfacet
  facet normal -1 0 0
    outer loop
      vertex 10.75 0 15
      vertex 10.75 0.933688 18.1885
      vertex 10.75 3 15
    endloop
  endfacet
  facet normal -1 0 0
    outer loop
      vertex 10.75 1.28369 17.9343
      vertex 10.75 3 15
      vertex 10.75 1.08855 18.0337
    endloop
  endfacet
  facet normal -1 0 0
    outer loop
      vertex 10.75 3 15
      vertex 10.75 1.28369 17.9343
      vertex 10.75 1.5 17.9
    endloop
  endfacet
  facet normal -1 0 0
    outer loop
      vertex 10.75 3 15
      vertex 10.75 1.5 17.9
      vertex 10.75 1.71631 17.9343
    endloop
  endfacet
  facet normal -1 0 0
    outer loop
      vertex 10.75 3 15
      vertex 10.75 1.71631 17.9343
      vertex 10.75 1.91145 18.0337
    endloop
  endfacet
  facet normal -1 0 0
    outer loop
      vertex 10.75 3 15
      vertex 10.75 1.91145 18.0337
      vertex 10.75 2.06631 18.1885
    endloop
  endfacet
  facet normal -1 0 0
    outer loop
      vertex 10.75 3 15
      vertex 10.75 2.06631 18.1885
      vertex 10.75 3 20
    endloop
  endfacet
  facet normal -1 0 0
    outer loop
      vertex 10.75 2.06631 18.1885
      vertex 10.75 2.16574 18.3837
      vertex 10.75 3 20
    endloop
  endfacet
  facet normal -1 0 0
    outer loop
      vertex 10.75 2.16574 18.8163
      vertex 10.75 3 20
      vertex 10.75 2.2 18.6
    endloop
  endfacet
  facet normal -1 0 0
    outer loop
      vertex 10.75 2.06631 19.0114
      vertex 10.75 3 20
      vertex 10.75 2.16574 18.8163
    endloop
  endfacet
  facet normal -1 0 0
    outer loop
      vertex 10.75 1.5 19.3
      vertex 10.75 0 20
      vertex 10.75 1.71631 19.2657
    endloop
  endfacet
  facet normal -1 0 0
    outer loop
      vertex 10.75 1.28369 19.2657
      vertex 10.75 0 20
      vertex 10.75 1.5 19.3
    endloop
  endfacet
  facet normal -1 0 0
    outer loop
      vertex 10.75 2.06631 19.0114
      vertex 10.75 1.91145 19.1663
      vertex 10.75 3 20
    endloop
  endfacet
  facet normal -1 0 0
    outer loop
      vertex 10.75 1.91145 19.1663
      vertex 10.75 1.71631 19.2657
      vertex 10.75 3 20
    endloop
  endfacet
  facet normal -1 0 0
    outer loop
      vertex 10.75 1.08855 19.1663
      vertex 10.75 0 20
      vertex 10.75 1.28369 19.2657
    endloop
  endfacet
  facet normal -1 0 0
    outer loop
      vertex 10.75 0.933688 19.0114
      vertex 10.75 0 20
      vertex 10.75 1.08855 19.1663
    endloop
  endfacet
  facet normal -1 0 0
    outer loop
      vertex 10.75 0.83426 18.8163
      vertex 10.75 0 20
      vertex 10.75 0.933688 19.0114
    endloop
  endfacet
  facet normal -1 0 0
    outer loop
      vertex 10.75 0.8 18.6
      vertex 10.75 0 20
      vertex 10.75 0.83426 18.8163
    endloop
  endfacet
  facet normal -1 0 0
    outer loop
      vertex 10.75 2.2 18.6
      vertex 10.75 3 20
      vertex 10.75 2.16574 18.3837
    endloop
  endfacet
  facet normal 0 0 1
    outer loop
      vertex 10.75 3 20
      vertex 10.75 0 20
      vertex 11.75 0 20
    endloop
  endfacet
  facet normal 0 0 1
    outer loop
      vertex 11.75 3 20
      vertex 10.75 3 20
      vertex 11.75 0 20
    endloop
  endfacet
  facet normal 1 0 0
    outer loop
      vertex 11.75 0.933688 18.1885
      vertex 11.75 0 15
      vertex 11.75 3 15
    endloop
  endfacet
  facet normal 1 0 0
    outer loop
      vertex 11.75 1.28369 19.2657
      vertex 11.75 1.5 19.3
      vertex 11.75 3 20
    endloop
  endfacet
  facet normal 1 0 0
    outer loop
      vertex 11.75 0 20
      vertex 11.75 0 15
      vertex 11.75 0.83426 18.3837
    endloop
  endfacet
  facet normal 1 0 0
    outer loop
      vertex 11.75 1.5 19.3
      vertex 11.75 1.71631 19.2657
      vertex 11.75 3 20
    endloop
  endfacet
  facet normal 1 0 0
    outer loop
      vertex 11.75 0 20
      vertex 11.75 0.83426 18.3837
      vertex 11.75 0.8 18.6
    endloop
  endfacet
  facet normal 1 0 0
    outer loop
      vertex 11.75 1.28369 17.9343
      vertex 11.75 1.08855 18.0337
      vertex 11.75 3 15
    endloop
  endfacet
  facet normal 1 0 0
    outer loop
      vertex 11.75 0.933688 19.0114
      vertex 11.75 0 20
      vertex 11.75 0.83426 18.8163
    endloop
  endfacet
  facet normal 1 0 0
    outer loop
      vertex 11.75 2.2 18.6
      vertex 11.75 2.16574 18.3837
      vertex 11.75 3 15
    endloop
  endfacet
  facet normal 1 0 0
    outer loop
      vertex 11.75 1.08855 19.1663
      vertex 11.75 0 20
      vertex 11.75 0.933688 19.0114
    endloop
  endfacet
  facet normal 1 0 0
    outer loop
      vertex 11.75 1.28369 19.2657
      vertex 11.75 0 20
      vertex 11.75 1.08855 19.1663
    endloop
  endfacet
  facet normal 1 0 0
    outer loop
      vertex 11.75 3 20
      vertex 11.75 0 20
      vertex 11.75 1.28369 19.2657
    endloop
  endfacet
  facet normal 1 0 0
    outer loop
      vertex 11.75 1.5 17.9
      vertex 11.75 1.28369 17.9343
      vertex 11.75 3 15
    endloop
  endfacet
  facet normal 1 0 0
    outer loop
      vertex 11.75 2.06631 18.1885
      vertex 11.75 1.91145 18.0337
      vertex 11.75 3 15
    endloop
  endfacet
  facet normal 1 0 0
    outer loop
      vertex 11.75 3 20
      vertex 11.75 1.71631 19.2657
      vertex 11.75 1.91145 19.1663
    endloop
  endfacet
  facet normal 1 0 0
    outer loop
      vertex 11.75 2.16574 18.3837
      vertex 11.75 2.06631 18.1885
      vertex 11.75 3 15
    endloop
  endfacet
  facet normal 1 0 0
    outer loop
      vertex 11.75 3 20
      vertex 11.75 1.91145 19.1663
      vertex 11.75 2.06631 19.0114
    endloop
  endfacet
  facet normal 1 0 0
    outer loop
      vertex 11.75 3 20
      vertex 11.75 2.16574 18.8163
      vertex 11.75 3 15
    endloop
  endfacet
  facet normal 1 0 0
    outer loop
      vertex 11.75 3 20
      vertex 11.75 2.06631 19.0114
      vertex 11.75 2.16574 18.8163
    endloop
  endfacet
  facet normal 1 0 0
    outer loop
      vertex 11.75 2.16574 18.8163
      vertex 11.75 2.2 18.6
      vertex 11.75 3 15
    endloop
  endfacet
  facet normal 1 0 0
    outer loop
      vertex 11.75 1.91145 18.0337
      vertex 11.75 1.71631 17.9343
      vertex 11.75 3 15
    endloop
  endfacet
  facet normal 1 0 0
    outer loop
      vertex 11.75 1.71631 17.9343
      vertex 11.75 1.5 17.9
      vertex 11.75 3 15
    endloop
  endfacet
  facet normal 1 0 0
    outer loop
      vertex 11.75 0.83426 18.3837
      vertex 11.75 0 15
      vertex 11.75 0.933688 18.1885
    endloop
  endfacet
  facet normal 1 0 0
    outer loop
      vertex 11.75 1.08855 18.0337
      vertex 11.75 0.933688 18.1885
      vertex 11.75 3 15
    endloop
  endfacet
  facet normal 1 0 0
    outer loop
      vertex 11.75 0.8 18.6
      vertex 11.75 0.83426 18.8163
      vertex 11.75 0 20
    endloop
  endfacet
  facet normal 1 0 0
    outer loop
      vertex 22.5 0 15
      vertex 22.5 0 0
      vertex 22.5 30 0
    endloop
  endfacet
  facet normal 1 0 0
    outer loop
      vertex 22.5 30 15
      vertex 22.5 0 15
      vertex 22.5 30 0
    endloop
  endfacet
  facet normal 0 1 0
    outer loop
      vertex 10.75 3 15
      vertex 10.75 3 20
      vertex 11.75 3 15
    endloop
  endfacet
  facet normal 0 1 0
    outer loop
      vertex 11.75 3 15
      vertex 10.75 3 20
      vertex 11.75 3 20
    endloop
  endfacet
  facet normal -1 0 0
    outer loop
      vertex 5.625 7.5 15
      vertex 5.625 7.5 25
      vertex 5.625 22.5 15
    endloop
  endfacet
  facet normal -1 0 0
    outer loop
      vertex 5.625 22.5 15
      vertex 5.625 7.5 25
      vertex 5.625 22.5 25
    endloop
  endfacet
  facet normal 0 -1 0
    outer loop
      vertex 5.625 7.5 25
      vertex 5.625 7.5 15
      vertex 16.875 7.5 15
    endloop
  endfacet
  facet normal 0 -1 0
    outer loop
      vertex 16.875 7.5 25
      vertex 5.625 7.5 25
      vertex 16.875 7.5 15
    endloop
  endfacet
  facet normal 1 0 0
    outer loop
      vertex 16.875 7.5 25
      vertex 16.875 7.5 15
      vertex 16.875 22.5 15
    endloop
  endfacet
  facet normal 1 0 0
    outer loop
      vertex 16.875 22.5 25
      vertex 16.875 7.5 25
      vertex 16.875 22.5 15
    endloop
  endfacet
  facet normal 0 1 0
    outer loop
      vertex 5.625 22.5 15
      vertex 5.625 22.5 25
      vertex 16.875 22.5 15
    endloop
  endfacet
  facet normal 0 1 0
    outer loop
      vertex 16.875 22.5 15
      vertex 5.625 22.5 25
      vertex 16.875 22.5 25
    endloop
  endfacet
  facet normal -3.4735e-17 0.987689 0.156432
    outer loop
      vertex 11.75 0.83426 18.3837
      vertex 10.75 0.83426 18.3837
      vertex 11.75 0.8 18.6
    endloop
  endfacet
  facet normal -3.4735e-17 0.987689 0.156432
    outer loop
      vertex 11.75 0.8 18.6
      vertex 10.75 0.83426 18.3837
      vertex 10.75 0.8 18.6
    endloop
  endfacet
  facet normal 3.4735e-17 0.987689 -0.156432
    outer loop
      vertex 11.75 0.83426 18.8163
      vertex 11.75 0.8 18.6
      vertex 10.75 0.83426 18.8163
    endloop
  endfacet
  facet normal 3.4735e-17 0.987689 -0.156432
    outer loop
      vertex 10.75 0.83426 18.8163
      vertex 11.75 0.8 18.6
      vertex 10.75 0.8 18.6
    endloop
  endfacet
  facet normal 1.00806e-16 0.891006 -0.453991
    outer loop
      vertex 11.75 0.933688 19.0114
      vertex 11.75 0.83426 18.8163
      vertex 10.75 0.933688 19.0114
    endloop
  endfacet
  facet normal 1.00806e-16 0.891006 -0.453991
    outer loop
      vertex 10.75 0.933688 19.0114
      vertex 11.75 0.83426 18.8163
      vertex 10.75 0.83426 18.8163
    endloop
  endfacet
  facet normal 1.57009e-16 0.707107 -0.707107
    outer loop
      vertex 11.75 1.08855 19.1663
      vertex 11.75 0.933688 19.0114
      vertex 10.75 1.08855 19.1663
    endloop
  endfacet
  facet normal 1.57009e-16 0.707107 -0.707107
    outer loop
      vertex 10.75 1.08855 19.1663
      vertex 11.75 0.933688 19.0114
      vertex 10.75 0.933688 19.0114
    endloop
  endfacet
  facet normal 1.97843e-16 0.453991 -0.891006
    outer loop
      vertex 11.75 1.28369 19.2657
      vertex 11.75 1.08855 19.1663
      vertex 10.75 1.28369 19.2657
    endloop
  endfacet
  facet normal 1.97843e-16 0.453991 -0.891006
    outer loop
      vertex 10.75 1.28369 19.2657
      vertex 11.75 1.08855 19.1663
      vertex 10.75 1.08855 19.1663
    endloop
  endfacet
  facet normal 2.19311e-16 0.156432 -0.987689
    outer loop
      vertex 11.75 1.5 19.3
      vertex 11.75 1.28369 19.2657
      vertex 10.75 1.5 19.3
    endloop
  endfacet
  facet normal 2.19311e-16 0.156432 -0.987689
    outer loop
      vertex 10.75 1.5 19.3
      vertex 11.75 1.28369 19.2657
      vertex 10.75 1.28369 19.2657
    endloop
  endfacet
  facet normal 2.19311e-16 -0.156432 -0.987689
    outer loop
      vertex 11.75 1.71631 19.2657
      vertex 11.75 1.5 19.3
      vertex 10.75 1.71631 19.2657
    endloop
  endfacet
  facet normal 2.19311e-16 -0.156432 -0.987689
    outer loop
      vertex 10.75 1.71631 19.2657
      vertex 11.75 1.5 19.3
      vertex 10.75 1.5 19.3
    endloop
  endfacet
  facet normal 1.97843e-16 -0.453991 -0.891006
    outer loop
      vertex 11.75 1.91145 19.1663
      vertex 11.75 1.71631 19.2657
      vertex 10.75 1.91145 19.1663
    endloop
  endfacet
  facet normal 1.97843e-16 -0.453991 -0.891006
    outer loop
      vertex 10.75 1.91145 19.1663
      vertex 11.75 1.71631 19.2657
      vertex 10.75 1.71631 19.2657
    endloop
  endfacet
  facet normal 1.57009e-16 -0.707107 -0.707107
    outer loop
      vertex 10.75 2.06631 19.0114
      vertex 11.75 2.06631 19.0114
      vertex 11.75 1.91145 19.1663
    endloop
  endfacet
  facet normal 1.57009e-16 -0.707107 -0.707107
    outer loop
      vertex 10.75 1.91145 19.1663
      vertex 10.75 2.06631 19.0114
      vertex 11.75 1.91145 19.1663
    endloop
  endfacet
  facet normal 1.00806e-16 -0.891006 -0.453991
    outer loop
      vertex 10.75 2.16574 18.8163
      vertex 11.75 2.16574 18.8163
      vertex 11.75 2.06631 19.0114
    endloop
  endfacet
  facet normal 1.00806e-16 -0.891006 -0.453991
    outer loop
      vertex 10.75 2.06631 19.0114
      vertex 10.75 2.16574 18.8163
      vertex 11.75 2.06631 19.0114
    endloop
  endfacet
  facet normal 3.4735e-17 -0.987689 -0.156432
    outer loop
      vertex 10.75 2.2 18.6
      vertex 11.75 2.2 18.6
      vertex 11.75 2.16574 18.8163
    endloop
  endfacet
  facet normal 3.4735e-17 -0.987689 -0.156432
    outer loop
      vertex 10.75 2.16574 18.8163
      vertex 10.75 2.2 18.6
      vertex 11.75 2.16574 18.8163
    endloop
  endfacet
  facet normal -3.4735e-17 -0.987689 0.156432
    outer loop
      vertex 11.75 2.16574 18.3837
      vertex 11.75 2.2 18.6
      vertex 10.75 2.2 18.6
    endloop
  endfacet
  facet normal -3.4735e-17 -0.987689 0.156432
    outer loop
      vertex 10.75 2.16574 18.3837
      vertex 11.75 2.16574 18.3837
      vertex 10.75 2.2 18.6
    endloop
  endfacet
  facet normal -1.00806e-16 -0.891006 0.453991
    outer loop
      vertex 11.75 2.06631 18.1885
      vertex 11.75 2.16574 18.3837
      vertex 10.75 2.16574 18.3837
    endloop
  endfacet
  facet normal -1.00806e-16 -0.891006 0.453991
    outer loop
      vertex 10.75 2.06631 18.1885
      vertex 11.75 2.06631 18.1885
      vertex 10.75 2.16574 18.3837
    endloop
  endfacet
  facet normal -1.57009e-16 -0.707107 0.707107
    outer loop
      vertex 11.75 1.91145 18.0337
      vertex 11.75 2.06631 18.1885
      vertex 10.75 2.06631 18.1885
    endloop
  endfacet
  facet normal -1.57009e-16 -0.707107 0.707107
    outer loop
      vertex 10.75 1.91145 18.0337
      vertex 11.75 1.91145 18.0337
      vertex 10.75 2.06631 18.1885
    endloop
  endfacet
  facet normal -1.97843e-16 -0.453991 0.891006
    outer loop
      vertex 11.75 1.71631 17.9343
      vertex 11.75 1.91145 18.0337
      vertex 10.75 1.91145 18.0337
    endloop
  endfacet
  facet normal -1.97843e-16 -0.453991 0.891006
    outer loop
      vertex 10.75 1.71631 17.9343
      vertex 11.75 1.71631 17.9343
      vertex 10.75 1.91145 18.0337
    endloop
  endfacet
  facet normal -2.19311e-16 -0.156432 0.987689
    outer loop
      vertex 11.75 1.5 17.9
      vertex 11.75 1.71631 17.9343
      vertex 10.75 1.71631 17.9343
    endloop
  endfacet
  facet normal -2.19311e-16 -0.156432 0.987689
    outer loop
      vertex 10.75 1.5 17.9
      vertex 11.75 1.5 17.9
      vertex 10.75 1.71631 17.9343
    endloop
  endfacet
  facet normal -2.19311e-16 0.156432 0.987689
    outer loop
      vertex 11.75 1.28369 17.9343
      vertex 11.75 1.5 17.9
      vertex 10.75 1.5 17.9
    endloop
  endfacet
  facet normal -2.19311e-16 0.156432 0.987689
    outer loop
      vertex 10.75 1.28369 17.9343
      vertex 11.75 1.28369 17.9343
      vertex 10.75 1.5 17.9
    endloop
  endfacet
  facet normal -1.97843e-16 0.453991 0.891006
    outer loop
      vertex 11.75 1.08855 18.0337
      vertex 11.75 1.28369 17.9343
      vertex 10.75 1.28369 17.9343
    endloop
  endfacet
  facet normal -1.97843e-16 0.453991 0.891006
    outer loop
      vertex 10.75 1.08855 18.0337
      vertex 11.75 1.08855 18.0337
      vertex 10.75 1.28369 17.9343
    endloop
  endfacet
  facet normal -1.57009e-16 0.707107 0.707107
    outer loop
      vertex 11.75 1.08855 18.0337
      vertex 10.75 1.08855 18.0337
      vertex 11.75 0.933688 18.1885
    endloop
  endfacet
  facet normal -1.57009e-16 0.707107 0.707107
    outer loop
      vertex 11.75 0.933688 18.1885
      vertex 10.75 1.08855 18.0337
      vertex 10.75 0.933688 18.1885
    endloop
  endfacet
  facet normal -1.00806e-16 0.891006 0.453991
    outer loop
      vertex 11.75 0.933688 18.1885
      vertex 10.75 0.933688 18.1885
      vertex 11.75 0.83426 18.3837
    endloop
  endfacet
  facet normal -1.00806e-16 0.891006 0.453991
    outer loop
      vertex 11.75 0.83426 18.3837
      vertex 10.75 0.933688 18.1885
      vertex 10.75 0.83426 18.3837
    endloop
  endfacet
  facet normal 0 0 1
    outer loop
      vertex 5.625 22.5 25
      vertex 5.625 7.5 25
      vertex 16.875 7.5 25
    endloop
  endfacet
  facet normal 0 0 1
    outer loop
      vertex 16.875 22.5 25
      vertex 5.625 22.5 25
      vertex 16.875 7.5 25
    endloop
  endfacet
endsolid OpenSCAD_Model
