solid OpenSCAD_Model
  facet normal -1 0 0
    outer loop
      vertex 0 0 100
      vertex 0 190 107.2
      vertex 0 190 100
    endloop
  endfacet
  facet normal -1 -0 0
    outer loop
      vertex 0 190 107.2
      vertex 0 0 100
      vertex 0 0 107.2
    endloop
  endfacet
  facet normal 0 0 1
    outer loop
      vertex 101.2 202 107.2
      vertex 106.699 202.967 107.2
      vertex 106.297 204.858 107.2
    endloop
  endfacet
  facet normal 0 0 1
    outer loop
      vertex 106.75 202 107.2
      vertex 106.699 202 107.2
      vertex 106.75 190 107.2
    endloop
  endfacet
  facet normal 0 0 1
    outer loop
      vertex 73 38 107.2
      vertex 130 190 107.2
      vertex 106.75 190 107.2
    endloop
  endfacet
  facet normal 0 0 1
    outer loop
      vertex 106.699 202.967 107.2
      vertex 101.2 202 107.2
      vertex 106.699 202 107.2
    endloop
  endfacet
  facet normal 0 0 1
    outer loop
      vertex 100.704 203.85 107.2
      vertex 106.297 204.858 107.2
      vertex 105.511 206.625 107.2
    endloop
  endfacet
  facet normal 0 0 1
    outer loop
      vertex 100.704 203.85 107.2
      vertex 105.511 206.625 107.2
      vertex 104.374 208.189 107.2
    endloop
  endfacet
  facet normal 0 0 1
    outer loop
      vertex 106.699 202 107.2
      vertex 101.2 202 107.2
      vertex 100.704 200.15 107.2
    endloop
  endfacet
  facet normal 0 0 1
    outer loop
      vertex 99.35 205.204 107.2
      vertex 104.374 208.189 107.2
      vertex 102.937 209.483 107.2
    endloop
  endfacet
  facet normal 0 0 1
    outer loop
      vertex 99.35 205.204 107.2
      vertex 102.937 209.483 107.2
      vertex 101.262 210.45 107.2
    endloop
  endfacet
  facet normal 0 0 1
    outer loop
      vertex 106.699 202 107.2
      vertex 100.704 200.15 107.2
      vertex 106.75 190 107.2
    endloop
  endfacet
  facet normal -0 0 1
    outer loop
      vertex 99.35 198.796 107.2
      vertex 106.75 190 107.2
      vertex 100.704 200.15 107.2
    endloop
  endfacet
  facet normal -0 0 1
    outer loop
      vertex 97.5 198.3 107.2
      vertex 106.75 190 107.2
      vertex 99.35 198.796 107.2
    endloop
  endfacet
  facet normal 0 0 1
    outer loop
      vertex 106.75 190 107.2
      vertex 97.5 198.3 107.2
      vertex 88.25 190 107.2
    endloop
  endfacet
  facet normal 0 0 1
    outer loop
      vertex 88.25 190 107.2
      vertex 97.5 198.3 107.2
      vertex 95.65 198.796 107.2
    endloop
  endfacet
  facet normal 0 0 1
    outer loop
      vertex 88.25 190 107.2
      vertex 95.65 198.796 107.2
      vertex 94.2957 200.15 107.2
    endloop
  endfacet
  facet normal -0 0 1
    outer loop
      vertex 88.3007 202 107.2
      vertex 94.2957 200.15 107.2
      vertex 93.8 202 107.2
    endloop
  endfacet
  facet normal 0 0 1
    outer loop
      vertex 95.65 205.204 107.2
      vertex 90.6259 208.189 107.2
      vertex 94.2957 203.85 107.2
    endloop
  endfacet
  facet normal -0 0 1
    outer loop
      vertex 89.4893 206.625 107.2
      vertex 94.2957 203.85 107.2
      vertex 90.6259 208.189 107.2
    endloop
  endfacet
  facet normal -0 0 1
    outer loop
      vertex 88.7027 204.858 107.2
      vertex 94.2957 203.85 107.2
      vertex 89.4893 206.625 107.2
    endloop
  endfacet
  facet normal 0 0 1
    outer loop
      vertex 94.2957 203.85 107.2
      vertex 88.7027 204.858 107.2
      vertex 93.8 202 107.2
    endloop
  endfacet
  facet normal -0 0 1
    outer loop
      vertex 88.3007 202.967 107.2
      vertex 93.8 202 107.2
      vertex 88.7027 204.858 107.2
    endloop
  endfacet
  facet normal 0 0 1
    outer loop
      vertex 93.8 202 107.2
      vertex 88.3007 202.967 107.2
      vertex 88.3007 202 107.2
    endloop
  endfacet
  facet normal 0 0 1
    outer loop
      vertex 94.2957 200.15 107.2
      vertex 88.3007 202 107.2
      vertex 88.25 190 107.2
    endloop
  endfacet
  facet normal 0 0 1
    outer loop
      vertex 88.25 190 107.2
      vertex 88.3007 202 107.2
      vertex 88.25 202 107.2
    endloop
  endfacet
  facet normal 0 0 1
    outer loop
      vertex 73 38 107.2
      vertex 106.75 190 107.2
      vertex 88.25 190 107.2
    endloop
  endfacet
  facet normal 0 0 1
    outer loop
      vertex 130 190 107.2
      vertex 73 38 107.2
      vertex 130 0 107.2
    endloop
  endfacet
  facet normal -0 0 1
    outer loop
      vertex 73 15 107.2
      vertex 130 0 107.2
      vertex 73 38 107.2
    endloop
  endfacet
  facet normal 0 0 1
    outer loop
      vertex 41.75 0 107.2
      vertex 73 15 107.2
      vertex 57 15 107.2
    endloop
  endfacet
  facet normal 0 0 1
    outer loop
      vertex 73 15 107.2
      vertex 41.75 0 107.2
      vertex 130 0 107.2
    endloop
  endfacet
  facet normal 0 0 1
    outer loop
      vertex 88.25 190 107.2
      vertex 57 38 107.2
      vertex 73 38 107.2
    endloop
  endfacet
  facet normal 0 0 1
    outer loop
      vertex 23.25 0 107.2
      vertex 57 15 107.2
      vertex 57 38 107.2
    endloop
  endfacet
  facet normal -0 0 1
    outer loop
      vertex 0 190 107.2
      vertex 57 38 107.2
      vertex 88.25 190 107.2
    endloop
  endfacet
  facet normal 0 0 1
    outer loop
      vertex 41.75 0 107.2
      vertex 41.6993 -12 107.2
      vertex 41.75 -12 107.2
    endloop
  endfacet
  facet normal -0 0 1
    outer loop
      vertex 36.2 -12 107.2
      vertex 41.6993 -12.9669 107.2
      vertex 41.6993 -12 107.2
    endloop
  endfacet
  facet normal -0 0 1
    outer loop
      vertex 35.7043 -10.15 107.2
      vertex 41.6993 -12 107.2
      vertex 41.75 0 107.2
    endloop
  endfacet
  facet normal 0 -0 1
    outer loop
      vertex 36.2 -12 107.2
      vertex 41.6993 -12 107.2
      vertex 35.7043 -10.15 107.2
    endloop
  endfacet
  facet normal 0 0 1
    outer loop
      vertex 41.6993 -12.9669 107.2
      vertex 36.2 -12 107.2
      vertex 41.2973 -14.8584 107.2
    endloop
  endfacet
  facet normal 0 0 1
    outer loop
      vertex 41.2973 -14.8584 107.2
      vertex 35.7043 -13.85 107.2
      vertex 40.5107 -16.625 107.2
    endloop
  endfacet
  facet normal 0 0 1
    outer loop
      vertex 40.5107 -16.625 107.2
      vertex 35.7043 -13.85 107.2
      vertex 39.3741 -18.1895 107.2
    endloop
  endfacet
  facet normal 0 0 1
    outer loop
      vertex 0 0 107.2
      vertex 57 38 107.2
      vertex 0 190 107.2
    endloop
  endfacet
  facet normal -0 0 1
    outer loop
      vertex 34.35 -15.2043 107.2
      vertex 39.3741 -18.1895 107.2
      vertex 35.7043 -13.85 107.2
    endloop
  endfacet
  facet normal -0 0 1
    outer loop
      vertex 35.7043 -13.85 107.2
      vertex 41.2973 -14.8584 107.2
      vertex 36.2 -12 107.2
    endloop
  endfacet
  facet normal 0 0 1
    outer loop
      vertex 41.75 0 107.2
      vertex 34.35 -8.79571 107.2
      vertex 35.7043 -10.15 107.2
    endloop
  endfacet
  facet normal 0 -0 1
    outer loop
      vertex 32.5 -8.3 107.2
      vertex 41.75 0 107.2
      vertex 23.25 0 107.2
    endloop
  endfacet
  facet normal 0 0 1
    outer loop
      vertex 41.75 0 107.2
      vertex 32.5 -8.3 107.2
      vertex 34.35 -8.79571 107.2
    endloop
  endfacet
  facet normal 0 0 1
    outer loop
      vertex 32.5 -8.3 107.2
      vertex 23.25 0 107.2
      vertex 30.65 -8.79571 107.2
    endloop
  endfacet
  facet normal 0 0 1
    outer loop
      vertex 30.65 -15.2043 107.2
      vertex 27.063 -19.4834 107.2
      vertex 28.7377 -20.4503 107.2
    endloop
  endfacet
  facet normal 0 0 1
    outer loop
      vertex 29.2957 -13.85 107.2
      vertex 25.6259 -18.1895 107.2
      vertex 27.063 -19.4834 107.2
    endloop
  endfacet
  facet normal 0 0 1
    outer loop
      vertex 23.3007 -12 107.2
      vertex 28.8 -12 107.2
      vertex 29.2957 -10.15 107.2
    endloop
  endfacet
  facet normal 0 0 1
    outer loop
      vertex 30.65 -8.79571 107.2
      vertex 23.25 0 107.2
      vertex 29.2957 -10.15 107.2
    endloop
  endfacet
  facet normal 0 -0 1
    outer loop
      vertex 23.3007 -12 107.2
      vertex 29.2957 -10.15 107.2
      vertex 23.25 0 107.2
    endloop
  endfacet
  facet normal 0 0 1
    outer loop
      vertex 28.8 -12 107.2
      vertex 23.3007 -12 107.2
      vertex 23.3007 -12.9669 107.2
    endloop
  endfacet
  facet normal 0 0 1
    outer loop
      vertex 29.2957 -13.85 107.2
      vertex 24.4893 -16.625 107.2
      vertex 25.6259 -18.1895 107.2
    endloop
  endfacet
  facet normal 0 0 1
    outer loop
      vertex 29.2957 -13.85 107.2
      vertex 23.7027 -14.8584 107.2
      vertex 24.4893 -16.625 107.2
    endloop
  endfacet
  facet normal 0 0 1
    outer loop
      vertex 57 15 107.2
      vertex 23.25 0 107.2
      vertex 41.75 0 107.2
    endloop
  endfacet
  facet normal 0 0 1
    outer loop
      vertex 57 38 107.2
      vertex 0 0 107.2
      vertex 23.25 0 107.2
    endloop
  endfacet
  facet normal 0 0 1
    outer loop
      vertex 39.3741 -18.1895 107.2
      vertex 34.35 -15.2043 107.2
      vertex 37.937 -19.4834 107.2
    endloop
  endfacet
  facet normal 0 0 1
    outer loop
      vertex 37.937 -19.4834 107.2
      vertex 34.35 -15.2043 107.2
      vertex 36.2623 -20.4503 107.2
    endloop
  endfacet
  facet normal 0 0 1
    outer loop
      vertex 36.2623 -20.4503 107.2
      vertex 34.35 -15.2043 107.2
      vertex 34.4232 -21.0479 107.2
    endloop
  endfacet
  facet normal -0 0 1
    outer loop
      vertex 32.5 -15.7 107.2
      vertex 34.4232 -21.0479 107.2
      vertex 34.35 -15.2043 107.2
    endloop
  endfacet
  facet normal 0 0 1
    outer loop
      vertex 32.5 -15.7 107.2
      vertex 32.5 -21.25 107.2
      vertex 34.4232 -21.0479 107.2
    endloop
  endfacet
  facet normal 0 0 1
    outer loop
      vertex 30.5768 -21.0479 107.2
      vertex 32.5 -15.7 107.2
      vertex 30.65 -15.2043 107.2
    endloop
  endfacet
  facet normal 0 0 1
    outer loop
      vertex 32.5 -15.7 107.2
      vertex 30.5768 -21.0479 107.2
      vertex 32.5 -21.25 107.2
    endloop
  endfacet
  facet normal 0 0 1
    outer loop
      vertex 27.063 -19.4834 107.2
      vertex 30.65 -15.2043 107.2
      vertex 29.2957 -13.85 107.2
    endloop
  endfacet
  facet normal 0 0 1
    outer loop
      vertex 23.7027 -14.8584 107.2
      vertex 29.2957 -13.85 107.2
      vertex 28.8 -12 107.2
    endloop
  endfacet
  facet normal 0 0 1
    outer loop
      vertex 30.65 -15.2043 107.2
      vertex 28.7377 -20.4503 107.2
      vertex 30.5768 -21.0479 107.2
    endloop
  endfacet
  facet normal 0 0 1
    outer loop
      vertex 28.8 -12 107.2
      vertex 23.3007 -12.9669 107.2
      vertex 23.7027 -14.8584 107.2
    endloop
  endfacet
  facet normal 0 0 1
    outer loop
      vertex 23.3007 -12 107.2
      vertex 23.25 0 107.2
      vertex 23.25 -12 107.2
    endloop
  endfacet
  facet normal 0 0 1
    outer loop
      vertex 106.297 204.858 107.2
      vertex 100.704 203.85 107.2
      vertex 101.2 202 107.2
    endloop
  endfacet
  facet normal 0 0 1
    outer loop
      vertex 99.35 205.204 107.2
      vertex 101.262 210.45 107.2
      vertex 99.4232 211.048 107.2
    endloop
  endfacet
  facet normal 0 0 1
    outer loop
      vertex 104.374 208.189 107.2
      vertex 99.35 205.204 107.2
      vertex 100.704 203.85 107.2
    endloop
  endfacet
  facet normal 0 0 1
    outer loop
      vertex 97.5 205.7 107.2
      vertex 99.4232 211.048 107.2
      vertex 97.5 211.25 107.2
    endloop
  endfacet
  facet normal 0 0 1
    outer loop
      vertex 99.4232 211.048 107.2
      vertex 97.5 205.7 107.2
      vertex 99.35 205.204 107.2
    endloop
  endfacet
  facet normal -0 0 1
    outer loop
      vertex 95.5768 211.048 107.2
      vertex 97.5 205.7 107.2
      vertex 97.5 211.25 107.2
    endloop
  endfacet
  facet normal 0 0 1
    outer loop
      vertex 97.5 205.7 107.2
      vertex 95.5768 211.048 107.2
      vertex 95.65 205.204 107.2
    endloop
  endfacet
  facet normal -0 0 1
    outer loop
      vertex 93.7377 210.45 107.2
      vertex 95.65 205.204 107.2
      vertex 95.5768 211.048 107.2
    endloop
  endfacet
  facet normal -0 0 1
    outer loop
      vertex 92.063 209.483 107.2
      vertex 95.65 205.204 107.2
      vertex 93.7377 210.45 107.2
    endloop
  endfacet
  facet normal -0 0 1
    outer loop
      vertex 90.6259 208.189 107.2
      vertex 95.65 205.204 107.2
      vertex 92.063 209.483 107.2
    endloop
  endfacet
  facet normal 1 -0 0
    outer loop
      vertex 130 0 107.2
      vertex 130 190 100
      vertex 130 190 107.2
    endloop
  endfacet
  facet normal 1 0 0
    outer loop
      vertex 130 190 100
      vertex 130 0 107.2
      vertex 130 0 100
    endloop
  endfacet
  facet normal 0 1 -0
    outer loop
      vertex 130 190 100
      vertex 106.75 190 107.2
      vertex 130 190 107.2
    endloop
  endfacet
  facet normal 0 1 0
    outer loop
      vertex 106.75 190 107.2
      vertex 130 190 100
      vertex 106.75 190 100
    endloop
  endfacet
  facet normal 0 1 -0
    outer loop
      vertex 88.25 190 100
      vertex 0 190 107.2
      vertex 88.25 190 107.2
    endloop
  endfacet
  facet normal 0 1 0
    outer loop
      vertex 0 190 107.2
      vertex 88.25 190 100
      vertex 0 190 100
    endloop
  endfacet
  facet normal 0 0 -1
    outer loop
      vertex 36.2 -12 100
      vertex 41.6993 -12.9669 100
      vertex 41.2973 -14.8584 100
    endloop
  endfacet
  facet normal 0 0 -1
    outer loop
      vertex 41.75 -12 100
      vertex 41.6993 -12 100
      vertex 41.75 0 100
    endloop
  endfacet
  facet normal 0 0 -1
    outer loop
      vertex 41.2973 -14.8584 100
      vertex 35.7043 -13.85 100
      vertex 36.2 -12 100
    endloop
  endfacet
  facet normal 0 0 -1
    outer loop
      vertex 34.35 -15.2043 100
      vertex 36.2623 -20.4503 100
      vertex 34.4232 -21.0479 100
    endloop
  endfacet
  facet normal 0 0 -1
    outer loop
      vertex 37.937 -19.4834 100
      vertex 34.35 -15.2043 100
      vertex 35.7043 -13.85 100
    endloop
  endfacet
  facet normal 0 0 -1
    outer loop
      vertex 32.5 -15.7 100
      vertex 34.4232 -21.0479 100
      vertex 32.5 -21.25 100
    endloop
  endfacet
  facet normal 0 0 -1
    outer loop
      vertex 34.4232 -21.0479 100
      vertex 32.5 -15.7 100
      vertex 34.35 -15.2043 100
    endloop
  endfacet
  facet normal 0 0 -1
    outer loop
      vertex 30.5768 -21.0479 100
      vertex 32.5 -15.7 100
      vertex 32.5 -21.25 100
    endloop
  endfacet
  facet normal -0 0 -1
    outer loop
      vertex 32.5 -15.7 100
      vertex 30.5768 -21.0479 100
      vertex 30.65 -15.2043 100
    endloop
  endfacet
  facet normal 0 0 -1
    outer loop
      vertex 28.7377 -20.4503 100
      vertex 30.65 -15.2043 100
      vertex 30.5768 -21.0479 100
    endloop
  endfacet
  facet normal 0 0 -1
    outer loop
      vertex 27.063 -19.4834 100
      vertex 30.65 -15.2043 100
      vertex 28.7377 -20.4503 100
    endloop
  endfacet
  facet normal 0 0 -1
    outer loop
      vertex 25.6259 -18.1895 100
      vertex 30.65 -15.2043 100
      vertex 27.063 -19.4834 100
    endloop
  endfacet
  facet normal 0 0 -1
    outer loop
      vertex 73 38 100
      vertex 130 190 100
      vertex 130 0 100
    endloop
  endfacet
  facet normal 0 0 -1
    outer loop
      vertex 106.75 190 100
      vertex 106.699 202 100
      vertex 106.75 202 100
    endloop
  endfacet
  facet normal 0 0 -1
    outer loop
      vertex 101.2 202 100
      vertex 106.699 202.967 100
      vertex 106.699 202 100
    endloop
  endfacet
  facet normal 0 0 -1
    outer loop
      vertex 100.704 200.15 100
      vertex 106.699 202 100
      vertex 106.75 190 100
    endloop
  endfacet
  facet normal 0 -0 -1
    outer loop
      vertex 101.2 202 100
      vertex 106.699 202 100
      vertex 100.704 200.15 100
    endloop
  endfacet
  facet normal -0 0 -1
    outer loop
      vertex 106.699 202.967 100
      vertex 101.2 202 100
      vertex 106.297 204.858 100
    endloop
  endfacet
  facet normal -0 0 -1
    outer loop
      vertex 130 190 100
      vertex 73 38 100
      vertex 106.75 190 100
    endloop
  endfacet
  facet normal 0 0 -1
    outer loop
      vertex 100.704 203.85 100
      vertex 106.297 204.858 100
      vertex 101.2 202 100
    endloop
  endfacet
  facet normal -0 0 -1
    outer loop
      vertex 105.511 206.625 100
      vertex 100.704 203.85 100
      vertex 104.374 208.189 100
    endloop
  endfacet
  facet normal 0 0 -1
    outer loop
      vertex 99.35 205.204 100
      vertex 104.374 208.189 100
      vertex 100.704 203.85 100
    endloop
  endfacet
  facet normal -0 0 -1
    outer loop
      vertex 106.297 204.858 100
      vertex 100.704 203.85 100
      vertex 105.511 206.625 100
    endloop
  endfacet
  facet normal 0 0 -1
    outer loop
      vertex 106.75 190 100
      vertex 99.35 198.796 100
      vertex 100.704 200.15 100
    endloop
  endfacet
  facet normal 0 -0 -1
    outer loop
      vertex 97.5 198.3 100
      vertex 106.75 190 100
      vertex 88.25 190 100
    endloop
  endfacet
  facet normal 0 0 -1
    outer loop
      vertex 106.75 190 100
      vertex 97.5 198.3 100
      vertex 99.35 198.796 100
    endloop
  endfacet
  facet normal -0 0 -1
    outer loop
      vertex 97.5 198.3 100
      vertex 88.25 190 100
      vertex 95.65 198.796 100
    endloop
  endfacet
  facet normal -0 0 -1
    outer loop
      vertex 95.65 198.796 100
      vertex 88.25 190 100
      vertex 94.2957 200.15 100
    endloop
  endfacet
  facet normal 0 0 -1
    outer loop
      vertex 95.65 205.204 100
      vertex 92.063 209.483 100
      vertex 93.7377 210.45 100
    endloop
  endfacet
  facet normal 0 -0 -1
    outer loop
      vertex 88.3007 202 100
      vertex 94.2957 200.15 100
      vertex 88.25 190 100
    endloop
  endfacet
  facet normal 0 0 -1
    outer loop
      vertex 94.2957 200.15 100
      vertex 88.3007 202 100
      vertex 93.8 202 100
    endloop
  endfacet
  facet normal 0 0 -1
    outer loop
      vertex 88.3007 202.967 100
      vertex 93.8 202 100
      vertex 88.3007 202 100
    endloop
  endfacet
  facet normal 0 0 -1
    outer loop
      vertex 94.2957 203.85 100
      vertex 90.6259 208.189 100
      vertex 92.063 209.483 100
    endloop
  endfacet
  facet normal 0 0 -1
    outer loop
      vertex 94.2957 203.85 100
      vertex 89.4893 206.625 100
      vertex 90.6259 208.189 100
    endloop
  endfacet
  facet normal 0 0 -1
    outer loop
      vertex 94.2957 203.85 100
      vertex 88.7027 204.858 100
      vertex 89.4893 206.625 100
    endloop
  endfacet
  facet normal 0 0 -1
    outer loop
      vertex 73 38 100
      vertex 130 0 100
      vertex 73 15 100
    endloop
  endfacet
  facet normal 0 0 -1
    outer loop
      vertex 41.75 0 100
      vertex 73 15 100
      vertex 130 0 100
    endloop
  endfacet
  facet normal 0 0 -1
    outer loop
      vertex 23.25 0 100
      vertex 57 15 100
      vertex 41.75 0 100
    endloop
  endfacet
  facet normal -0 0 -1
    outer loop
      vertex 73 15 100
      vertex 41.75 0 100
      vertex 57 15 100
    endloop
  endfacet
  facet normal -0 0 -1
    outer loop
      vertex 104.374 208.189 100
      vertex 99.35 205.204 100
      vertex 102.937 209.483 100
    endloop
  endfacet
  facet normal -0 0 -1
    outer loop
      vertex 102.937 209.483 100
      vertex 99.35 205.204 100
      vertex 101.262 210.45 100
    endloop
  endfacet
  facet normal -0 0 -1
    outer loop
      vertex 101.262 210.45 100
      vertex 99.35 205.204 100
      vertex 99.4232 211.048 100
    endloop
  endfacet
  facet normal 0 0 -1
    outer loop
      vertex 97.5 205.7 100
      vertex 99.4232 211.048 100
      vertex 99.35 205.204 100
    endloop
  endfacet
  facet normal 0 0 -1
    outer loop
      vertex 97.5 205.7 100
      vertex 97.5 211.25 100
      vertex 99.4232 211.048 100
    endloop
  endfacet
  facet normal 0 0 -1
    outer loop
      vertex 95.5768 211.048 100
      vertex 97.5 205.7 100
      vertex 95.65 205.204 100
    endloop
  endfacet
  facet normal 0 0 -1
    outer loop
      vertex 97.5 205.7 100
      vertex 95.5768 211.048 100
      vertex 97.5 211.25 100
    endloop
  endfacet
  facet normal 0 0 -1
    outer loop
      vertex 92.063 209.483 100
      vertex 95.65 205.204 100
      vertex 94.2957 203.85 100
    endloop
  endfacet
  facet normal 0 0 -1
    outer loop
      vertex 88.7027 204.858 100
      vertex 94.2957 203.85 100
      vertex 93.8 202 100
    endloop
  endfacet
  facet normal 0 0 -1
    outer loop
      vertex 95.65 205.204 100
      vertex 93.7377 210.45 100
      vertex 95.5768 211.048 100
    endloop
  endfacet
  facet normal 0 0 -1
    outer loop
      vertex 93.8 202 100
      vertex 88.3007 202.967 100
      vertex 88.7027 204.858 100
    endloop
  endfacet
  facet normal -0 0 -1
    outer loop
      vertex 88.3007 202 100
      vertex 88.25 190 100
      vertex 88.25 202 100
    endloop
  endfacet
  facet normal -0 0 -1
    outer loop
      vertex 106.75 190 100
      vertex 73 38 100
      vertex 88.25 190 100
    endloop
  endfacet
  facet normal 0 0 -1
    outer loop
      vertex 57 38 100
      vertex 88.25 190 100
      vertex 73 38 100
    endloop
  endfacet
  facet normal -0 0 -1
    outer loop
      vertex 57 15 100
      vertex 23.25 0 100
      vertex 57 38 100
    endloop
  endfacet
  facet normal 0 0 -1
    outer loop
      vertex 41.6993 -12.9669 100
      vertex 36.2 -12 100
      vertex 41.6993 -12 100
    endloop
  endfacet
  facet normal 0 0 -1
    outer loop
      vertex 35.7043 -13.85 100
      vertex 41.2973 -14.8584 100
      vertex 40.5107 -16.625 100
    endloop
  endfacet
  facet normal 0 0 -1
    outer loop
      vertex 35.7043 -13.85 100
      vertex 40.5107 -16.625 100
      vertex 39.3741 -18.1895 100
    endloop
  endfacet
  facet normal 0 0 -1
    outer loop
      vertex 35.7043 -13.85 100
      vertex 39.3741 -18.1895 100
      vertex 37.937 -19.4834 100
    endloop
  endfacet
  facet normal 0 0 -1
    outer loop
      vertex 34.35 -15.2043 100
      vertex 37.937 -19.4834 100
      vertex 36.2623 -20.4503 100
    endloop
  endfacet
  facet normal 0 0 -1
    outer loop
      vertex 41.6993 -12 100
      vertex 36.2 -12 100
      vertex 35.7043 -10.15 100
    endloop
  endfacet
  facet normal 0 0 -1
    outer loop
      vertex 41.6993 -12 100
      vertex 35.7043 -10.15 100
      vertex 41.75 0 100
    endloop
  endfacet
  facet normal 0 0 -1
    outer loop
      vertex 34.35 -8.79571 100
      vertex 41.75 0 100
      vertex 35.7043 -10.15 100
    endloop
  endfacet
  facet normal 0 0 -1
    outer loop
      vertex 32.5 -8.3 100
      vertex 41.75 0 100
      vertex 34.35 -8.79571 100
    endloop
  endfacet
  facet normal -0 0 -1
    outer loop
      vertex 41.75 0 100
      vertex 32.5 -8.3 100
      vertex 23.25 0 100
    endloop
  endfacet
  facet normal 0 0 -1
    outer loop
      vertex 23.25 0 100
      vertex 32.5 -8.3 100
      vertex 30.65 -8.79571 100
    endloop
  endfacet
  facet normal 0 0 -1
    outer loop
      vertex 23.25 0 100
      vertex 30.65 -8.79571 100
      vertex 29.2957 -10.15 100
    endloop
  endfacet
  facet normal -0 0 -1
    outer loop
      vertex 30.65 -15.2043 100
      vertex 25.6259 -18.1895 100
      vertex 29.2957 -13.85 100
    endloop
  endfacet
  facet normal 0 0 -1
    outer loop
      vertex 24.4893 -16.625 100
      vertex 29.2957 -13.85 100
      vertex 25.6259 -18.1895 100
    endloop
  endfacet
  facet normal 0 0 -1
    outer loop
      vertex 23.7027 -14.8584 100
      vertex 29.2957 -13.85 100
      vertex 24.4893 -16.625 100
    endloop
  endfacet
  facet normal -0 0 -1
    outer loop
      vertex 29.2957 -13.85 100
      vertex 23.7027 -14.8584 100
      vertex 28.8 -12 100
    endloop
  endfacet
  facet normal 0 0 -1
    outer loop
      vertex 23.3007 -12.9669 100
      vertex 28.8 -12 100
      vertex 23.7027 -14.8584 100
    endloop
  endfacet
  facet normal 0 0 -1
    outer loop
      vertex 23.3007 -12 100
      vertex 28.8 -12 100
      vertex 23.3007 -12.9669 100
    endloop
  endfacet
  facet normal 0 0 -1
    outer loop
      vertex 28.8 -12 100
      vertex 23.3007 -12 100
      vertex 29.2957 -10.15 100
    endloop
  endfacet
  facet normal -0 0 -1
    outer loop
      vertex 29.2957 -10.15 100
      vertex 23.3007 -12 100
      vertex 23.25 0 100
    endloop
  endfacet
  facet normal 0 0 -1
    outer loop
      vertex 23.25 0 100
      vertex 23.3007 -12 100
      vertex 23.25 -12 100
    endloop
  endfacet
  facet normal 0 0 -1
    outer loop
      vertex 0 0 100
      vertex 57 38 100
      vertex 23.25 0 100
    endloop
  endfacet
  facet normal -0 0 -1
    outer loop
      vertex 57 38 100
      vertex 0 0 100
      vertex 0 190 100
    endloop
  endfacet
  facet normal 0 0 -1
    outer loop
      vertex 57 38 100
      vertex 0 190 100
      vertex 88.25 190 100
    endloop
  endfacet
  facet normal 0 -1 0
    outer loop
      vertex 0 0 100
      vertex 23.25 0 107.2
      vertex 0 0 107.2
    endloop
  endfacet
  facet normal 0 -1 -0
    outer loop
      vertex 23.25 0 107.2
      vertex 0 0 100
      vertex 23.25 0 100
    endloop
  endfacet
  facet normal 0 -1 0
    outer loop
      vertex 41.75 0 100
      vertex 130 0 107.2
      vertex 41.75 0 107.2
    endloop
  endfacet
  facet normal 0 -1 -0
    outer loop
      vertex 130 0 107.2
      vertex 41.75 0 100
      vertex 130 0 100
    endloop
  endfacet
  facet normal 1 -0 0
    outer loop
      vertex 57 15 107.2
      vertex 57 38 100
      vertex 57 38 107.2
    endloop
  endfacet
  facet normal 1 0 0
    outer loop
      vertex 57 38 100
      vertex 57 15 107.2
      vertex 57 15 100
    endloop
  endfacet
  facet normal -1 0 0
    outer loop
      vertex 73 15 100
      vertex 73 38 107.2
      vertex 73 38 100
    endloop
  endfacet
  facet normal -1 -0 0
    outer loop
      vertex 73 38 107.2
      vertex 73 15 100
      vertex 73 15 107.2
    endloop
  endfacet
  facet normal 0 -1 0
    outer loop
      vertex 57 38 100
      vertex 73 38 107.2
      vertex 57 38 107.2
    endloop
  endfacet
  facet normal 0 -1 -0
    outer loop
      vertex 73 38 107.2
      vertex 57 38 100
      vertex 73 38 100
    endloop
  endfacet
  facet normal 0 1 -0
    outer loop
      vertex 73 15 100
      vertex 57 15 107.2
      vertex 73 15 107.2
    endloop
  endfacet
  facet normal 0 1 0
    outer loop
      vertex 57 15 107.2
      vertex 73 15 100
      vertex 57 15 100
    endloop
  endfacet
  facet normal 0 -1 0
    outer loop
      vertex 23.25 -12 100
      vertex 23.3007 -12 107.2
      vertex 23.25 -12 107.2
    endloop
  endfacet
  facet normal 0 -1 -0
    outer loop
      vertex 23.3007 -12 107.2
      vertex 23.25 -12 100
      vertex 23.3007 -12 100
    endloop
  endfacet
  facet normal 0 -1 0
    outer loop
      vertex 41.6993 -12 100
      vertex 41.75 -12 107.2
      vertex 41.6993 -12 107.2
    endloop
  endfacet
  facet normal 0 -1 -0
    outer loop
      vertex 41.75 -12 107.2
      vertex 41.6993 -12 100
      vertex 41.75 -12 100
    endloop
  endfacet
  facet normal -1 0 0
    outer loop
      vertex 23.25 -12 100
      vertex 23.25 0 107.2
      vertex 23.25 0 100
    endloop
  endfacet
  facet normal -1 -0 0
    outer loop
      vertex 23.25 0 107.2
      vertex 23.25 -12 100
      vertex 23.25 -12 107.2
    endloop
  endfacet
  facet normal 1 -0 0
    outer loop
      vertex 41.75 -12 107.2
      vertex 41.75 0 100
      vertex 41.75 0 107.2
    endloop
  endfacet
  facet normal 1 0 0
    outer loop
      vertex 41.75 0 100
      vertex 41.75 -12 107.2
      vertex 41.75 -12 100
    endloop
  endfacet
  facet normal 0.104529 -0.994522 0
    outer loop
      vertex 32.5 -21.25 100
      vertex 34.4232 -21.0479 107.2
      vertex 32.5 -21.25 107.2
    endloop
  endfacet
  facet normal 0.104529 -0.994522 0
    outer loop
      vertex 34.4232 -21.0479 107.2
      vertex 32.5 -21.25 100
      vertex 34.4232 -21.0479 100
    endloop
  endfacet
  facet normal 1 -0 0
    outer loop
      vertex 41.6993 -12.9669 107.2
      vertex 41.6993 -12 100
      vertex 41.6993 -12 107.2
    endloop
  endfacet
  facet normal 1 0 0
    outer loop
      vertex 41.6993 -12 100
      vertex 41.6993 -12.9669 107.2
      vertex 41.6993 -12.9669 100
    endloop
  endfacet
  facet normal -1 0 0
    outer loop
      vertex 23.3007 -12.9669 100
      vertex 23.3007 -12 107.2
      vertex 23.3007 -12 100
    endloop
  endfacet
  facet normal -1 -0 0
    outer loop
      vertex 23.3007 -12 107.2
      vertex 23.3007 -12.9669 100
      vertex 23.3007 -12.9669 107.2
    endloop
  endfacet
  facet normal 0.66913 -0.743145 0
    outer loop
      vertex 37.937 -19.4834 100
      vertex 39.3741 -18.1895 107.2
      vertex 37.937 -19.4834 107.2
    endloop
  endfacet
  facet normal 0.66913 -0.743145 0
    outer loop
      vertex 39.3741 -18.1895 107.2
      vertex 37.937 -19.4834 100
      vertex 39.3741 -18.1895 100
    endloop
  endfacet
  facet normal 0.309017 -0.951056 0
    outer loop
      vertex 34.4232 -21.0479 100
      vertex 36.2623 -20.4503 107.2
      vertex 34.4232 -21.0479 107.2
    endloop
  endfacet
  facet normal 0.309017 -0.951056 0
    outer loop
      vertex 36.2623 -20.4503 107.2
      vertex 34.4232 -21.0479 100
      vertex 36.2623 -20.4503 100
    endloop
  endfacet
  facet normal -0.5 -0.866025 0
    outer loop
      vertex 27.063 -19.4834 100
      vertex 28.7377 -20.4503 107.2
      vertex 27.063 -19.4834 107.2
    endloop
  endfacet
  facet normal -0.5 -0.866025 -0
    outer loop
      vertex 28.7377 -20.4503 107.2
      vertex 27.063 -19.4834 100
      vertex 28.7377 -20.4503 100
    endloop
  endfacet
  facet normal 0.5 -0.866025 0
    outer loop
      vertex 36.2623 -20.4503 100
      vertex 37.937 -19.4834 107.2
      vertex 36.2623 -20.4503 107.2
    endloop
  endfacet
  facet normal 0.5 -0.866025 0
    outer loop
      vertex 37.937 -19.4834 107.2
      vertex 36.2623 -20.4503 100
      vertex 37.937 -19.4834 100
    endloop
  endfacet
  facet normal 0.913546 -0.406736 0
    outer loop
      vertex 40.5107 -16.625 107.2
      vertex 41.2973 -14.8584 100
      vertex 41.2973 -14.8584 107.2
    endloop
  endfacet
  facet normal 0.913546 -0.406736 0
    outer loop
      vertex 41.2973 -14.8584 100
      vertex 40.5107 -16.625 107.2
      vertex 40.5107 -16.625 100
    endloop
  endfacet
  facet normal 0.978148 -0.207911 0
    outer loop
      vertex 41.2973 -14.8584 107.2
      vertex 41.6993 -12.9669 100
      vertex 41.6993 -12.9669 107.2
    endloop
  endfacet
  facet normal 0.978148 -0.207911 0
    outer loop
      vertex 41.6993 -12.9669 100
      vertex 41.2973 -14.8584 107.2
      vertex 41.2973 -14.8584 100
    endloop
  endfacet
  facet normal 0.809017 -0.587786 0
    outer loop
      vertex 39.3741 -18.1895 107.2
      vertex 40.5107 -16.625 100
      vertex 40.5107 -16.625 107.2
    endloop
  endfacet
  facet normal 0.809017 -0.587786 0
    outer loop
      vertex 40.5107 -16.625 100
      vertex 39.3741 -18.1895 107.2
      vertex 39.3741 -18.1895 100
    endloop
  endfacet
  facet normal -0.978148 -0.207912 0
    outer loop
      vertex 23.7027 -14.8584 100
      vertex 23.3007 -12.9669 107.2
      vertex 23.3007 -12.9669 100
    endloop
  endfacet
  facet normal -0.978148 -0.207912 0
    outer loop
      vertex 23.3007 -12.9669 107.2
      vertex 23.7027 -14.8584 100
      vertex 23.7027 -14.8584 107.2
    endloop
  endfacet
  facet normal -0.809017 -0.587786 0
    outer loop
      vertex 25.6259 -18.1895 100
      vertex 24.4893 -16.625 107.2
      vertex 24.4893 -16.625 100
    endloop
  endfacet
  facet normal -0.809017 -0.587786 0
    outer loop
      vertex 24.4893 -16.625 107.2
      vertex 25.6259 -18.1895 100
      vertex 25.6259 -18.1895 107.2
    endloop
  endfacet
  facet normal -0.66913 -0.743145 0
    outer loop
      vertex 25.6259 -18.1895 100
      vertex 27.063 -19.4834 107.2
      vertex 25.6259 -18.1895 107.2
    endloop
  endfacet
  facet normal -0.66913 -0.743145 -0
    outer loop
      vertex 27.063 -19.4834 107.2
      vertex 25.6259 -18.1895 100
      vertex 27.063 -19.4834 100
    endloop
  endfacet
  facet normal -0.309017 -0.951056 0
    outer loop
      vertex 28.7377 -20.4503 100
      vertex 30.5768 -21.0479 107.2
      vertex 28.7377 -20.4503 107.2
    endloop
  endfacet
  facet normal -0.309017 -0.951056 -0
    outer loop
      vertex 30.5768 -21.0479 107.2
      vertex 28.7377 -20.4503 100
      vertex 30.5768 -21.0479 100
    endloop
  endfacet
  facet normal -0.104529 -0.994522 0
    outer loop
      vertex 30.5768 -21.0479 100
      vertex 32.5 -21.25 107.2
      vertex 30.5768 -21.0479 107.2
    endloop
  endfacet
  facet normal -0.104529 -0.994522 -0
    outer loop
      vertex 32.5 -21.25 107.2
      vertex 30.5768 -21.0479 100
      vertex 32.5 -21.25 100
    endloop
  endfacet
  facet normal -0.913546 -0.406736 0
    outer loop
      vertex 24.4893 -16.625 100
      vertex 23.7027 -14.8584 107.2
      vertex 23.7027 -14.8584 100
    endloop
  endfacet
  facet normal -0.913546 -0.406736 0
    outer loop
      vertex 23.7027 -14.8584 107.2
      vertex 24.4893 -16.625 100
      vertex 24.4893 -16.625 107.2
    endloop
  endfacet
  facet normal -0.25882 0.965926 0
    outer loop
      vertex 34.35 -15.2043 100
      vertex 32.5 -15.7 107.2
      vertex 34.35 -15.2043 107.2
    endloop
  endfacet
  facet normal -0.25882 0.965926 0
    outer loop
      vertex 32.5 -15.7 107.2
      vertex 34.35 -15.2043 100
      vertex 32.5 -15.7 100
    endloop
  endfacet
  facet normal -0.25882 -0.965926 0
    outer loop
      vertex 32.5 -8.3 100
      vertex 34.35 -8.79571 107.2
      vertex 32.5 -8.3 107.2
    endloop
  endfacet
  facet normal -0.25882 -0.965926 -0
    outer loop
      vertex 34.35 -8.79571 107.2
      vertex 32.5 -8.3 100
      vertex 34.35 -8.79571 100
    endloop
  endfacet
  facet normal -0.965925 0.25882 0
    outer loop
      vertex 35.7043 -13.85 100
      vertex 36.2 -12 107.2
      vertex 36.2 -12 100
    endloop
  endfacet
  facet normal -0.965925 0.25882 0
    outer loop
      vertex 36.2 -12 107.2
      vertex 35.7043 -13.85 100
      vertex 35.7043 -13.85 107.2
    endloop
  endfacet
  facet normal -0.707107 0.707107 0
    outer loop
      vertex 34.35 -15.2043 100
      vertex 35.7043 -13.85 107.2
      vertex 35.7043 -13.85 100
    endloop
  endfacet
  facet normal -0.707107 0.707107 0
    outer loop
      vertex 35.7043 -13.85 107.2
      vertex 34.35 -15.2043 100
      vertex 34.35 -15.2043 107.2
    endloop
  endfacet
  facet normal -0.965925 -0.25882 0
    outer loop
      vertex 36.2 -12 100
      vertex 35.7043 -10.15 107.2
      vertex 35.7043 -10.15 100
    endloop
  endfacet
  facet normal -0.965925 -0.25882 0
    outer loop
      vertex 35.7043 -10.15 107.2
      vertex 36.2 -12 100
      vertex 36.2 -12 107.2
    endloop
  endfacet
  facet normal 0.258819 -0.965926 0
    outer loop
      vertex 30.65 -8.79571 100
      vertex 32.5 -8.3 107.2
      vertex 30.65 -8.79571 107.2
    endloop
  endfacet
  facet normal 0.258819 -0.965926 0
    outer loop
      vertex 32.5 -8.3 107.2
      vertex 30.65 -8.79571 100
      vertex 32.5 -8.3 100
    endloop
  endfacet
  facet normal -0.707107 -0.707107 0
    outer loop
      vertex 35.7043 -10.15 100
      vertex 34.35 -8.79571 107.2
      vertex 34.35 -8.79571 100
    endloop
  endfacet
  facet normal -0.707107 -0.707107 0
    outer loop
      vertex 34.35 -8.79571 107.2
      vertex 35.7043 -10.15 100
      vertex 35.7043 -10.15 107.2
    endloop
  endfacet
  facet normal 0.707107 -0.707107 0
    outer loop
      vertex 29.2957 -10.15 107.2
      vertex 30.65 -8.79571 100
      vertex 30.65 -8.79571 107.2
    endloop
  endfacet
  facet normal 0.707107 -0.707107 0
    outer loop
      vertex 30.65 -8.79571 100
      vertex 29.2957 -10.15 107.2
      vertex 29.2957 -10.15 100
    endloop
  endfacet
  facet normal 0.707107 0.707107 0
    outer loop
      vertex 30.65 -15.2043 107.2
      vertex 29.2957 -13.85 100
      vertex 29.2957 -13.85 107.2
    endloop
  endfacet
  facet normal 0.707107 0.707107 0
    outer loop
      vertex 29.2957 -13.85 100
      vertex 30.65 -15.2043 107.2
      vertex 30.65 -15.2043 100
    endloop
  endfacet
  facet normal 0.965925 0.25882 0
    outer loop
      vertex 29.2957 -13.85 107.2
      vertex 28.8 -12 100
      vertex 28.8 -12 107.2
    endloop
  endfacet
  facet normal 0.965925 0.25882 0
    outer loop
      vertex 28.8 -12 100
      vertex 29.2957 -13.85 107.2
      vertex 29.2957 -13.85 100
    endloop
  endfacet
  facet normal 0.25882 0.965926 -0
    outer loop
      vertex 32.5 -15.7 100
      vertex 30.65 -15.2043 107.2
      vertex 32.5 -15.7 107.2
    endloop
  endfacet
  facet normal 0.25882 0.965926 0
    outer loop
      vertex 30.65 -15.2043 107.2
      vertex 32.5 -15.7 100
      vertex 30.65 -15.2043 100
    endloop
  endfacet
  facet normal 0.965926 -0.258819 0
    outer loop
      vertex 28.8 -12 107.2
      vertex 29.2957 -10.15 100
      vertex 29.2957 -10.15 107.2
    endloop
  endfacet
  facet normal 0.965926 -0.258819 0
    outer loop
      vertex 29.2957 -10.15 100
      vertex 28.8 -12 107.2
      vertex 28.8 -12 100
    endloop
  endfacet
  facet normal 0 1 -0
    outer loop
      vertex 106.75 202 100
      vertex 106.699 202 107.2
      vertex 106.75 202 107.2
    endloop
  endfacet
  facet normal 0 1 0
    outer loop
      vertex 106.699 202 107.2
      vertex 106.75 202 100
      vertex 106.699 202 100
    endloop
  endfacet
  facet normal 0 1 -0
    outer loop
      vertex 88.3007 202 100
      vertex 88.25 202 107.2
      vertex 88.3007 202 107.2
    endloop
  endfacet
  facet normal 0 1 0
    outer loop
      vertex 88.25 202 107.2
      vertex 88.3007 202 100
      vertex 88.25 202 100
    endloop
  endfacet
  facet normal 1 -0 0
    outer loop
      vertex 106.75 190 107.2
      vertex 106.75 202 100
      vertex 106.75 202 107.2
    endloop
  endfacet
  facet normal 1 0 0
    outer loop
      vertex 106.75 202 100
      vertex 106.75 190 107.2
      vertex 106.75 190 100
    endloop
  endfacet
  facet normal -1 0 0
    outer loop
      vertex 88.25 190 100
      vertex 88.25 202 107.2
      vertex 88.25 202 100
    endloop
  endfacet
  facet normal -1 -0 0
    outer loop
      vertex 88.25 202 107.2
      vertex 88.25 190 100
      vertex 88.25 190 107.2
    endloop
  endfacet
  facet normal -0.104528 0.994522 0
    outer loop
      vertex 97.5 211.25 100
      vertex 95.5768 211.048 107.2
      vertex 97.5 211.25 107.2
    endloop
  endfacet
  facet normal -0.104528 0.994522 0
    outer loop
      vertex 95.5768 211.048 107.2
      vertex 97.5 211.25 100
      vertex 95.5768 211.048 100
    endloop
  endfacet
  facet normal -1 0 0
    outer loop
      vertex 88.3007 202 100
      vertex 88.3007 202.967 107.2
      vertex 88.3007 202.967 100
    endloop
  endfacet
  facet normal -1 -0 0
    outer loop
      vertex 88.3007 202.967 107.2
      vertex 88.3007 202 100
      vertex 88.3007 202 107.2
    endloop
  endfacet
  facet normal 1 -0 0
    outer loop
      vertex 106.699 202 107.2
      vertex 106.699 202.967 100
      vertex 106.699 202.967 107.2
    endloop
  endfacet
  facet normal 1 0 0
    outer loop
      vertex 106.699 202.967 100
      vertex 106.699 202 107.2
      vertex 106.699 202 100
    endloop
  endfacet
  facet normal -0.669133 0.743143 0
    outer loop
      vertex 92.063 209.483 100
      vertex 90.6259 208.189 107.2
      vertex 92.063 209.483 107.2
    endloop
  endfacet
  facet normal -0.669133 0.743143 0
    outer loop
      vertex 90.6259 208.189 107.2
      vertex 92.063 209.483 100
      vertex 90.6259 208.189 100
    endloop
  endfacet
  facet normal -0.309014 0.951057 0
    outer loop
      vertex 95.5768 211.048 100
      vertex 93.7377 210.45 107.2
      vertex 95.5768 211.048 107.2
    endloop
  endfacet
  facet normal -0.309014 0.951057 0
    outer loop
      vertex 93.7377 210.45 107.2
      vertex 95.5768 211.048 100
      vertex 93.7377 210.45 100
    endloop
  endfacet
  facet normal 0.5 0.866025 -0
    outer loop
      vertex 102.937 209.483 100
      vertex 101.262 210.45 107.2
      vertex 102.937 209.483 107.2
    endloop
  endfacet
  facet normal 0.5 0.866025 0
    outer loop
      vertex 101.262 210.45 107.2
      vertex 102.937 209.483 100
      vertex 101.262 210.45 100
    endloop
  endfacet
  facet normal -0.5 0.866025 0
    outer loop
      vertex 93.7377 210.45 100
      vertex 92.063 209.483 107.2
      vertex 93.7377 210.45 107.2
    endloop
  endfacet
  facet normal -0.5 0.866025 0
    outer loop
      vertex 92.063 209.483 107.2
      vertex 93.7377 210.45 100
      vertex 92.063 209.483 100
    endloop
  endfacet
  facet normal -0.913545 0.406738 0
    outer loop
      vertex 88.7027 204.858 100
      vertex 89.4893 206.625 107.2
      vertex 89.4893 206.625 100
    endloop
  endfacet
  facet normal -0.913545 0.406738 0
    outer loop
      vertex 89.4893 206.625 107.2
      vertex 88.7027 204.858 100
      vertex 88.7027 204.858 107.2
    endloop
  endfacet
  facet normal -0.978148 0.207911 0
    outer loop
      vertex 88.3007 202.967 100
      vertex 88.7027 204.858 107.2
      vertex 88.7027 204.858 100
    endloop
  endfacet
  facet normal -0.978148 0.207911 0
    outer loop
      vertex 88.7027 204.858 107.2
      vertex 88.3007 202.967 100
      vertex 88.3007 202.967 107.2
    endloop
  endfacet
  facet normal -0.809017 0.587785 0
    outer loop
      vertex 89.4893 206.625 100
      vertex 90.6259 208.189 107.2
      vertex 90.6259 208.189 100
    endloop
  endfacet
  facet normal -0.809017 0.587785 0
    outer loop
      vertex 90.6259 208.189 107.2
      vertex 89.4893 206.625 100
      vertex 89.4893 206.625 107.2
    endloop
  endfacet
  facet normal 0.978148 0.207911 0
    outer loop
      vertex 106.699 202.967 107.2
      vertex 106.297 204.858 100
      vertex 106.297 204.858 107.2
    endloop
  endfacet
  facet normal 0.978148 0.207911 0
    outer loop
      vertex 106.297 204.858 100
      vertex 106.699 202.967 107.2
      vertex 106.699 202.967 100
    endloop
  endfacet
  facet normal 0.809017 0.587785 0
    outer loop
      vertex 105.511 206.625 107.2
      vertex 104.374 208.189 100
      vertex 104.374 208.189 107.2
    endloop
  endfacet
  facet normal 0.809017 0.587785 0
    outer loop
      vertex 104.374 208.189 100
      vertex 105.511 206.625 107.2
      vertex 105.511 206.625 100
    endloop
  endfacet
  facet normal 0.669133 0.743143 -0
    outer loop
      vertex 104.374 208.189 100
      vertex 102.937 209.483 107.2
      vertex 104.374 208.189 107.2
    endloop
  endfacet
  facet normal 0.669133 0.743143 0
    outer loop
      vertex 102.937 209.483 107.2
      vertex 104.374 208.189 100
      vertex 102.937 209.483 100
    endloop
  endfacet
  facet normal 0.309014 0.951057 -0
    outer loop
      vertex 101.262 210.45 100
      vertex 99.4232 211.048 107.2
      vertex 101.262 210.45 107.2
    endloop
  endfacet
  facet normal 0.309014 0.951057 0
    outer loop
      vertex 99.4232 211.048 107.2
      vertex 101.262 210.45 100
      vertex 99.4232 211.048 100
    endloop
  endfacet
  facet normal 0.104528 0.994522 -0
    outer loop
      vertex 99.4232 211.048 100
      vertex 97.5 211.25 107.2
      vertex 99.4232 211.048 107.2
    endloop
  endfacet
  facet normal 0.104528 0.994522 0
    outer loop
      vertex 97.5 211.25 107.2
      vertex 99.4232 211.048 100
      vertex 97.5 211.25 100
    endloop
  endfacet
  facet normal 0.913545 0.406738 0
    outer loop
      vertex 106.297 204.858 107.2
      vertex 105.511 206.625 100
      vertex 105.511 206.625 107.2
    endloop
  endfacet
  facet normal 0.913545 0.406738 0
    outer loop
      vertex 105.511 206.625 100
      vertex 106.297 204.858 107.2
      vertex 106.297 204.858 100
    endloop
  endfacet
  facet normal 0.258815 -0.965927 0
    outer loop
      vertex 95.65 205.204 100
      vertex 97.5 205.7 107.2
      vertex 95.65 205.204 107.2
    endloop
  endfacet
  facet normal 0.258815 -0.965927 0
    outer loop
      vertex 97.5 205.7 107.2
      vertex 95.65 205.204 100
      vertex 97.5 205.7 100
    endloop
  endfacet
  facet normal 0.258815 0.965927 -0
    outer loop
      vertex 97.5 198.3 100
      vertex 95.65 198.796 107.2
      vertex 97.5 198.3 107.2
    endloop
  endfacet
  facet normal 0.258815 0.965927 0
    outer loop
      vertex 95.65 198.796 107.2
      vertex 97.5 198.3 100
      vertex 95.65 198.796 100
    endloop
  endfacet
  facet normal 0.965926 -0.258818 0
    outer loop
      vertex 93.8 202 107.2
      vertex 94.2957 203.85 100
      vertex 94.2957 203.85 107.2
    endloop
  endfacet
  facet normal 0.965926 -0.258818 0
    outer loop
      vertex 94.2957 203.85 100
      vertex 93.8 202 107.2
      vertex 93.8 202 100
    endloop
  endfacet
  facet normal 0.707107 -0.707107 0
    outer loop
      vertex 94.2957 203.85 107.2
      vertex 95.65 205.204 100
      vertex 95.65 205.204 107.2
    endloop
  endfacet
  facet normal 0.707107 -0.707107 0
    outer loop
      vertex 95.65 205.204 100
      vertex 94.2957 203.85 107.2
      vertex 94.2957 203.85 100
    endloop
  endfacet
  facet normal 0.965926 0.258818 0
    outer loop
      vertex 94.2957 200.15 107.2
      vertex 93.8 202 100
      vertex 93.8 202 107.2
    endloop
  endfacet
  facet normal 0.965926 0.258818 0
    outer loop
      vertex 93.8 202 100
      vertex 94.2957 200.15 107.2
      vertex 94.2957 200.15 100
    endloop
  endfacet
  facet normal -0.258815 0.965927 0
    outer loop
      vertex 99.35 198.796 100
      vertex 97.5 198.3 107.2
      vertex 99.35 198.796 107.2
    endloop
  endfacet
  facet normal -0.258815 0.965927 0
    outer loop
      vertex 97.5 198.3 107.2
      vertex 99.35 198.796 100
      vertex 97.5 198.3 100
    endloop
  endfacet
  facet normal 0.707107 0.707107 0
    outer loop
      vertex 95.65 198.796 107.2
      vertex 94.2957 200.15 100
      vertex 94.2957 200.15 107.2
    endloop
  endfacet
  facet normal 0.707107 0.707107 0
    outer loop
      vertex 94.2957 200.15 100
      vertex 95.65 198.796 107.2
      vertex 95.65 198.796 100
    endloop
  endfacet
  facet normal -0.707107 0.707107 0
    outer loop
      vertex 99.35 198.796 100
      vertex 100.704 200.15 107.2
      vertex 100.704 200.15 100
    endloop
  endfacet
  facet normal -0.707107 0.707107 0
    outer loop
      vertex 100.704 200.15 107.2
      vertex 99.35 198.796 100
      vertex 99.35 198.796 107.2
    endloop
  endfacet
  facet normal -0.707107 -0.707107 0
    outer loop
      vertex 100.704 203.85 100
      vertex 99.35 205.204 107.2
      vertex 99.35 205.204 100
    endloop
  endfacet
  facet normal -0.707107 -0.707107 0
    outer loop
      vertex 99.35 205.204 107.2
      vertex 100.704 203.85 100
      vertex 100.704 203.85 107.2
    endloop
  endfacet
  facet normal -0.965926 -0.258818 0
    outer loop
      vertex 101.2 202 100
      vertex 100.704 203.85 107.2
      vertex 100.704 203.85 100
    endloop
  endfacet
  facet normal -0.965926 -0.258818 0
    outer loop
      vertex 100.704 203.85 107.2
      vertex 101.2 202 100
      vertex 101.2 202 107.2
    endloop
  endfacet
  facet normal -0.258815 -0.965927 0
    outer loop
      vertex 97.5 205.7 100
      vertex 99.35 205.204 107.2
      vertex 97.5 205.7 107.2
    endloop
  endfacet
  facet normal -0.258815 -0.965927 -0
    outer loop
      vertex 99.35 205.204 107.2
      vertex 97.5 205.7 100
      vertex 99.35 205.204 100
    endloop
  endfacet
  facet normal -0.965926 0.258818 0
    outer loop
      vertex 100.704 200.15 100
      vertex 101.2 202 107.2
      vertex 101.2 202 100
    endloop
  endfacet
  facet normal -0.965926 0.258818 0
    outer loop
      vertex 101.2 202 107.2
      vertex 100.704 200.15 100
      vertex 100.704 200.15 107.2
    endloop
  endfacet
endsolid OpenSCAD_Model
